<svg xmlns="http://www.w3.org/2000/svg" width="40" height="40" viewBox="0 0 40 40">
  <path fill="#212121" d="M32,7 L29.8823529,31 L20,33.8235294 L10.1176471,31 L8,7 L32,7 Z M20,21.1176471 L23.1047798,21.1176471 L22.8952209,24.2941176 L20,25.2812504 L20,28.2481621 L25.575368,26.4117647 L26.0716915,18.2941176 L20,18.2941176 L20,21.1176471 Z M26.2812504,15.4705882 L26.4935664,12.6470588 L20,12.6470588 L20,15.4705882 L26.2812504,15.4705882 Z M20,25.2812504 L17.1047798,24.2941176 L16.9641546,22.5294118 L14.1406252,22.5294118 L14.4246327,26.4117647 L20,28.2481621 L20,25.2812504 Z M16.5422798,15.4705882 L20,15.4705882 L20,12.6470588 L13.575368,12.6470588 L14.0716915,21.1176471 L20,21.1176471 L20,18.2941176 L16.7518386,18.2941176 L16.5422798,15.4705882 Z"/>
</svg>
