<svg xmlns="http://www.w3.org/2000/svg" width="40" height="40" viewBox="0 0 40 40">
  <g fill="none" transform="translate(8 7)">
    <polygon fill="#E65100" points="24 0 0 0 2.118 24 12 26.824 21.882 24"/>
    <polygon fill="#FF6D00" points="12 2.118 12 24.634 19.905 22.376 21.67 2.118"/>
    <path fill="#FFF" d="M12,14.1176471 L12,11.2941176 L18.0716915,11.2941176 L17.575368,19.4117647 L12,21.2481621 L12,18.2812504 L14.8952209,17.2941176 L15.1047798,14.1176471 L12,14.1176471 Z M18.2812504,8.47058824 L18.4935664,5.64705882 L12,5.64705882 L12,8.47058824 L18.2812504,8.47058824 Z"/>
    <path fill="#EEE" d="M12,18.2812504 L12,21.2481621 L6.42463271,19.4117647 L6.14062518,15.5294118 L8.96415459,15.5294118 L9.10477976,17.2941176 L12,18.2812504 Z M8.54227976,8.47058824 L12,8.47058824 L12,5.64705882 L5.575368,5.64705882 L6.07169153,14.1176471 L12,14.1176471 L12,11.2941176 L8.75183859,11.2941176 L8.54227976,8.47058824 Z"/>
  </g>
</svg>
