<svg xmlns="http://www.w3.org/2000/svg" width="40" height="40" viewBox="0 0 40 40">
  <g fill="none" transform="translate(8 4)">
    <path fill="#F44336" d="M11.7187504,16.7187504 C10.9218752,15.4312504 10.3437504,14.3625 9.5406248,12.3531248 C8.1843752,8.9593752 17.7906248,5.8937504 13.8968752,0 C15.5843752,4.0718752 7.8343752,6.5875 7.1156248,9.9781248 C6.4562504,13.0968752 11.7156248,16.7187504 11.7187504,16.7187504 Z"/>
    <path fill="#F44336" d="M11.9031248,10.6156248 C11.75,12.6281248 13.6843752,13.7031248 13.7406248,15.1718752 C13.7875,16.3687504 12.5843752,17.3656248 12.5843752,17.3656248 C12.5843752,17.3656248 14.7656248,16.9375 15.4468752,15.1125 C16.2031248,13.0843752 13.9812504,11.6968752 14.2093752,10.075 C14.4218752,8.5218752 19.0343752,5.6406248 19.0343752,5.6406248 C19.0343752,5.6406248 12.25,6.0875 11.9031248,10.6156248 Z"/>
    <path fill="#1565C0" d="M18.4687504 16.8437504C19.8718752 16.5281248 21.0531248 17.4218752 21.0531248 18.4531248 21.0531248 20.7718752 17.8375 22.9656248 17.8375 22.9656248 17.8375 22.9656248 22.8156248 22.3718752 22.8156248 18.5625 22.8156248 16.0437504 20.3718752 15.4125 18.4687504 16.8437504zM16.1031248 18.7156248C16.1031248 18.7156248 17.6562504 17.6093752 18.0687504 17.1937504 14.2593752 18.0031248 5.5593752 18.1125 5.5593752 17.4093752 5.5593752 16.7625 8.3656248 16.1 8.3656248 16.1 8.3656248 16.1 2.1468752 16.0093752 2.1468752 17.8437504 2.1468752 19.7562504 10.2875 19.8937504 16.1031248 18.7156248z"/>
    <path fill="#1565C0" d="M15.1468752,20.4562504 C11.5406248,21.6562504 4.8968752,21.2718752 6.8656248,19.6625 C5.9062504,19.6625 4.4843752,20.4312504 4.4843752,21.175 C4.4843752,22.6593752 11.6718752,23.8062504 16.9906248,21.6312504 L15.1468752,20.4562504 Z"/>
    <path fill="#1565C0" d="M7.75,22.9906248 C6.4406248,22.9906248 5.5937504,23.8343752 5.5937504,24.45 C5.5937504,26.3625 13.4,26.5531248 16.4937504,24.6125 L14.5281248,23.3062504 C12.2156248,24.3218752 6.4125,24.4625 7.75,22.9906248 Z"/>
    <path fill="#1565C0" d="M21.825,26.1062504 C21.825,25.3562504 20.9812504,25.0031248 20.6781248,24.8343752 C22.4593752,29.1343752 2.825,28.8 2.825,26.2625 C2.825,25.6843752 4.2718752,25.1218752 5.6062504,25.3875 L4.4718752,24.7156248 C1.8093752,24.3 0,25.4687504 0,26.4125 C0,30.8156248 21.825,30.6031248 21.825,26.1062504 Z"/>
    <path fill="#1565C0" d="M24,27.6843752 C20.6843752,30.9593752 12.2718752,32.1531248 3.8156248,30.1281248 C12.2718752,33.7312504 23.9593752,31.7031248 24,27.6843752 Z"/>
  </g>
</svg>
