<svg xmlns="http://www.w3.org/2000/svg" width="40" height="40" viewBox="0 0 40 40">
  <path fill="#212121" d="M19.7187504,20.7187504 C19.7156248,20.7187504 14.4562504,17.0968752 15.1156248,13.9781248 C15.8343752,10.5875 23.5843752,8.0718752 21.8968752,4 C25.7906248,9.8937504 16.1843752,12.9593752 17.5406248,16.3531248 C18.3437504,18.3625 18.9218752,19.4312504 19.7187504,20.7187504 Z M19.9031248,14.6156248 C20.25,10.0875 27.0343752,9.6406248 27.0343752,9.6406248 C27.0343752,9.6406248 22.4218752,12.5218752 22.2093752,14.075 C21.9812504,15.6968752 24.2031248,17.0843752 23.4468752,19.1125 C22.7656248,20.9375 20.5843752,21.3656248 20.5843752,21.3656248 C20.5843752,21.3656248 21.7875,20.3687504 21.7406248,19.1718752 C21.6843752,17.7031248 19.75,16.6281248 19.9031248,14.6156248 Z M26.4687504,20.8437504 C28.3718752,19.4125 30.8156248,20.0437504 30.8156248,22.5625 C30.8156248,26.3718752 25.8375,26.9656248 25.8375,26.9656248 C25.8375,26.9656248 29.0531248,24.7718752 29.0531248,22.4531248 C29.0531248,21.4218752 27.8718752,20.5281248 26.4687504,20.8437504 Z M24.1031248,22.7156248 C18.2875,23.8937504 10.1468752,23.7562504 10.1468752,21.8437504 C10.1468752,20.0093752 16.3656248,20.1 16.3656248,20.1 C16.3656248,20.1 13.5593752,20.7625 13.5593752,21.4093752 C13.5593752,22.1125 22.2593752,22.0031248 26.0687504,21.1937504 C25.6562504,21.6093752 24.1031248,22.7156248 24.1031248,22.7156248 Z M23.1468752,24.4562504 L24.9906248,25.6312504 C19.6718752,27.8062504 12.4843752,26.6593752 12.4843752,25.175 C12.4843752,24.4312504 13.9062504,23.6625 14.8656248,23.6625 C12.8968752,25.2718752 19.5406248,25.6562504 23.1468752,24.4562504 Z M15.75,26.9906248 C14.4125,28.4625 20.2156248,28.3218752 22.5281248,27.3062504 L24.4937504,28.6125 C21.4,30.5531248 13.5937504,30.3625 13.5937504,28.45 C13.5937504,27.8343752 14.4406248,26.9906248 15.75,26.9906248 Z M29.825,30.1062504 C29.825,34.6031248 8,34.8156248 8,30.4125 C8,29.4687504 9.8093752,28.3 12.4718752,28.7156248 L13.6062504,29.3875 C12.2718752,29.1218752 10.825,29.6843752 10.825,30.2625 C10.825,32.8 30.4593752,33.1343752 28.6781248,28.8343752 C28.9812504,29.0031248 29.825,29.3562504 29.825,30.1062504 Z M32,31.6843752 C28.6843752,34.9593752 20.2718752,36.1531248 11.8156248,34.1281248 C20.2718752,37.7312504 31.9593752,35.7031248 32,31.6843752 Z"/>
</svg>
