<svg xmlns="http://www.w3.org/2000/svg" width="40" height="40" viewBox="0 0 40 40">
  <path fill="#212121" d="M14.3359375,17.7675783 C14.4140625,17.7252608 14.4986983,17.7057292 14.5833333,17.7057292 C14.6679692,17.7057292 14.7526042,17.7252608 14.8307292,17.7675783 L18.9192708,20.0299483 C19.0722658,20.1145833 19.1666667,20.2708333 19.1666667,20.4401042 L19.1666667,24.9680992 C19.1666667,25.13737 19.0722658,25.29362 18.9192708,25.378255 L14.8307292,27.64388 C14.6777342,27.7252608 14.4889325,27.7252608 14.3359375,27.64388 L10.2473958,25.378255 C10.0944008,25.29362 10,25.13737 10,24.9680992 L10,20.4401042 C10,20.2708333 10.0944008,20.1145833 10.2473958,20.0299483 L14.3359375,17.7675783 Z M35.3743492,21.8430992 C35.38737,21.8365883 35.4036458,21.8333333 35.4166667,21.8333333 C35.4296875,21.8333333 35.4459633,21.8365883 35.4589842,21.8430992 L36.1393233,22.2207033 C36.165365,22.2337242 36.1816408,22.2597658 36.1816408,22.2890625 L36.1816408,23.0442708 C36.1816408,23.0735675 36.165365,23.0996092 36.1393233,23.11263 L35.4589842,23.4902342 C35.4329425,23.503255 35.4003908,23.503255 35.3743492,23.4902342 L34.6940108,23.11263 C34.6679692,23.0996092 34.6549483,23.0735675 34.6549483,23.0442708 L34.6549483,22.2890625 C34.6549483,22.2597658 34.6679692,22.2337242 34.6940108,22.2207033 L35.3743492,21.8430992 Z M29.7916667,12.9694008 C29.91862,13.0410158 30,13.1777342 30,13.3242192 L30,24.9290367 C30,25.0983075 29.9055992,25.2545575 29.7526042,25.3391925 L25.6640625,27.6048175 C25.5110675,27.6861983 25.3222658,27.6861983 25.1692708,27.6048175 L21.0807292,25.3391925 C20.9277342,25.2545575 20.8333333,25.0983075 20.8333333,24.9290367 L20.8333333,20.4010417 C20.8333333,20.2317708 20.9277342,20.0755208 21.0807292,19.9908858 L25.1692708,17.7285158 C25.2473958,17.6861983 25.3320317,17.6666667 25.4166667,17.6666667 C25.5013025,17.6666667 25.5859375,17.6861983 25.6640625,17.7285158 L27.5,18.7473958 L27.5,12.0351567 C27.5,11.9635417 27.5390625,11.8984375 27.6009117,11.86263 C27.6627608,11.8235675 27.73763,11.8235675 27.8027342,11.859375 L29.7916667,12.9694008 Z M27.3893233,23.8808592 C27.4576825,23.8417967 27.5,23.7701825 27.5,23.6953125 L27.5,21.6380208 C27.5,21.5598958 27.4576825,21.4882817 27.3860675,21.4492192 L25.5305992,20.4205733 C25.4947917,20.4042967 25.4557292,20.3945317 25.4166667,20.3945317 C25.3776042,20.3945317 25.3385417,20.4010417 25.3027342,20.4205733 L25.30599,20.4205733 L23.4472658,21.4492192 C23.3756508,21.4882817 23.3333333,21.5598958 23.3333333,21.6380208 L23.3333333,23.6953125 C23.3333333,23.7701825 23.3756508,23.8417967 23.4472658,23.8808592 L25.30599,24.909505 C25.3743492,24.9485675 25.46224,24.9485675 25.5305992,24.909505 L27.3893233,23.8808592 Z M39.7526042,19.9908858 C39.9055992,20.0755208 40,20.2382817 40,20.4140625 L40,21.9798175 C40,22.1230467 39.921875,22.2565108 39.8014325,22.328125 L37.8027342,23.4869792 C37.73763,23.5227867 37.6627608,23.5227867 37.6009117,23.4902342 C37.5390625,23.4544275 37.5,23.3860675 37.5,23.3144533 L37.5,21.6380208 C37.5,21.5631508 37.4576825,21.4915367 37.3893233,21.4557292 L35.5273442,20.4238283 C35.4947917,20.4042967 35.4557292,20.3945317 35.4166667,20.3945317 C35.3776042,20.3945317 35.3385417,20.4042967 35.3027342,20.4238283 L33.440755,21.4524742 C33.3756508,21.4915367 33.3333333,21.5598958 33.3333333,21.6380208 L33.3333333,23.6920575 C33.3333333,23.7701825 33.3756508,23.8417967 33.4472658,23.884115 L37.5488283,26.1204425 C37.7213542,26.2180992 37.7246092,26.465495 37.5520833,26.5598958 L35.6640625,27.6048175 C35.5110675,27.6894533 35.3255208,27.6894533 35.1692708,27.6048175 L31.0807292,25.3391925 C30.9277342,25.2545575 30.8333333,25.0950525 30.8333333,24.9192708 L30.8333333,20.4108075 C30.8333333,20.2382817 30.9277342,20.0755208 31.0807292,19.9908858 L35.1692708,17.7285158 C35.2473958,17.6861983 35.3320317,17.6666667 35.4166667,17.6666667 C35.5013025,17.6666667 35.5859375,17.6861983 35.6640625,17.7285158 L39.7526042,19.9908858 Z M8.91927083,19.9908858 C9.07226583,20.0755208 9.16666667,20.2382817 9.16666667,20.4140625 L9.16666667,26.6315108 C9.16666667,26.703125 9.12760417,26.7714842 9.065755,26.8072917 C9.00390667,26.8430992 8.92903667,26.8430992 8.8639325,26.8072917 L6.86523417,25.6451825 C6.74153667,25.5735675 6.66666667,25.4401042 6.66666667,25.296875 L6.66666667,21.6380208 C6.66666667,21.5598958 6.62434917,21.4915367 6.559245,21.4524742 L4.69726583,20.4238283 C4.66145833,20.4042967 4.62239583,20.3945317 4.58333333,20.3945317 C4.54427083,20.3945317 4.50520833,20.4042967 4.46940083,20.4238283 L2.60742167,21.4524742 C2.5423175,21.4882817 2.5,21.5598958 2.5,21.6380208 L2.5,25.296875 C2.5,25.4401042 2.42513,25.5735675 2.3014325,25.6451825 L0.302734167,26.8072917 C0.240885833,26.8430992 0.162760833,26.8430992 0.100911667,26.8072917 C0.0390625,26.7714842 0,26.703125 0,26.6315108 L0,20.4108075 C0,20.2382817 0.0944008333,20.0755208 0.247395833,19.9908858 L4.3359375,17.7285158 C4.4140625,17.6861983 4.49869833,17.6666667 4.58333333,17.6666667 C4.66796917,17.6666667 4.75260417,17.6861983 4.83072917,17.7285158 L8.91927083,19.9908858 Z"/>
</svg>
