<svg xmlns="http://www.w3.org/2000/svg" width="40" height="40" viewBox="0 0 40 40">
  <g fill="none" transform="translate(0 11)">
    <path fill="#388E3C" d="M14.3359375 6.76757833L10.2473958 9.02994833C10.0944008 9.11458333 10 9.27083333 10 9.44010417L10 13.9680992C10 14.13737 10.0944008 14.29362 10.2473958 14.378255L14.3359375 16.64388C14.4889325 16.7252608 14.6777342 16.7252608 14.8307292 16.64388L18.9192708 14.378255C19.0722658 14.29362 19.1666667 14.13737 19.1666667 13.9680992L19.1666667 9.44010417C19.1666667 9.27083333 19.0722658 9.11458333 18.9192708 9.02994833L14.8307292 6.76757833C14.7526042 6.72526083 14.6679692 6.70572917 14.5833333 6.70572917 14.4986983 6.70572917 14.4140625 6.72526083 14.3359375 6.76757833M35.3743492 10.8430992L34.6940108 11.2207033C34.6679692 11.2337242 34.6549483 11.2597658 34.6549483 11.2890625L34.6549483 12.0442708C34.6549483 12.0735675 34.6679692 12.0996092 34.6940108 12.11263L35.3743492 12.4902342C35.4003908 12.503255 35.4329425 12.503255 35.4589842 12.4902342L36.1393233 12.11263C36.165365 12.0996092 36.1816408 12.0735675 36.1816408 12.0442708L36.1816408 11.2890625C36.1816408 11.2597658 36.165365 11.2337242 36.1393233 11.2207033L35.4589842 10.8430992C35.4459633 10.8365883 35.4296875 10.8333333 35.4166667 10.8333333 35.4036458 10.8333333 35.38737 10.8365883 35.3743492 10.8430992"/>
    <path fill="#37474F" d="M29.7916667,1.96940083 L27.8027342,0.859375 C27.73763,0.8235675 27.6627608,0.8235675 27.6009117,0.86263 C27.5390625,0.8984375 27.5,0.963541667 27.5,1.03515667 L27.5,7.74739583 L25.6640625,6.72851583 C25.5859375,6.68619833 25.5013025,6.66666667 25.4166667,6.66666667 C25.3320317,6.66666667 25.2473958,6.68619833 25.1692708,6.72851583 L21.0807292,8.99088583 C20.9277342,9.07552083 20.8333333,9.23177083 20.8333333,9.40104167 L20.8333333,13.9290367 C20.8333333,14.0983075 20.9277342,14.2545575 21.0807292,14.3391925 L25.1692708,16.6048175 C25.3222658,16.6861983 25.5110675,16.6861983 25.6640625,16.6048175 L29.7526042,14.3391925 C29.9055992,14.2545575 30,14.0983075 30,13.9290367 L30,2.32421917 C30,2.17773417 29.91862,2.04101583 29.7916667,1.96940083 Z M27.3893233,12.8808592 L25.5305992,13.909505 C25.46224,13.9485675 25.3743492,13.9485675 25.30599,13.909505 L23.4472658,12.8808592 C23.3756508,12.8417967 23.3333333,12.7701825 23.3333333,12.6953125 L23.3333333,10.6380208 C23.3333333,10.5598958 23.3756508,10.4882817 23.4472658,10.4492192 L25.30599,9.42057333 L25.3027342,9.42057333 C25.3385417,9.40104167 25.3776042,9.39453167 25.4166667,9.39453167 C25.4557292,9.39453167 25.4947917,9.40429667 25.5305992,9.42057333 L27.3860675,10.4492192 C27.4576825,10.4882817 27.5,10.5598958 27.5,10.6380208 L27.5,12.6953125 C27.5,12.7701825 27.4576825,12.8417967 27.3893233,12.8808592 Z"/>
    <path fill="#2E7D32" d="M14.3359375,6.76757833 L10,13.9680992 C10,14.13737 10.0944008,14.29362 10.2473958,14.378255 L14.3359375,16.64388 C14.4889325,16.7252608 14.6777342,16.7252608 14.8307292,16.64388 L19.1666667,9.44010417 C19.1666667,9.27083333 19.0722658,9.11458333 18.9192708,9.02994833 L14.8307292,6.76757833 C14.7526042,6.72526083 14.6679692,6.70572917 14.5833333,6.70572917 C14.4986983,6.70572917 14.4140625,6.72526083 14.3359375,6.76757833"/>
    <path fill="#4CAF50" d="M14.3359375,6.76757833 L10.2473958,9.02994833 C10.0944008,9.11458333 10,9.27083333 10,9.44010417 L14.3359375,16.64388 C14.4889325,16.7252608 14.6777342,16.7252608 14.8307292,16.64388 L18.9192708,14.378255 C19.0722658,14.29362 19.1666667,14.13737 19.1666667,13.9680992 L14.8307292,6.76757833 C14.7526042,6.72526083 14.6679692,6.70572917 14.5833333,6.70572917 C14.4986983,6.70572917 14.4140625,6.72526083 14.3359375,6.76757833"/>
    <path fill="#37474F" d="M39.7526042 8.99088583L35.6640625 6.72851583C35.5859375 6.68619833 35.5013025 6.66666667 35.4166667 6.66666667 35.3320317 6.66666667 35.2473958 6.68619833 35.1692708 6.72851583L31.0807292 8.99088583C30.9277342 9.07552083 30.8333333 9.23828167 30.8333333 9.4108075L30.8333333 13.9192708C30.8333333 14.0950525 30.9277342 14.2545575 31.0807292 14.3391925L35.1692708 16.6048175C35.3255208 16.6894533 35.5110675 16.6894533 35.6640625 16.6048175L37.5520833 15.5598958C37.7246092 15.465495 37.7213542 15.2180992 37.5488283 15.1204425L33.4472658 12.884115C33.3756508 12.8417967 33.3333333 12.7701825 33.3333333 12.6920575L33.3333333 10.6380208C33.3333333 10.5598958 33.3756508 10.4915367 33.440755 10.4524742L35.3027342 9.42382833C35.3385417 9.40429667 35.3776042 9.39453167 35.4166667 9.39453167 35.4557292 9.39453167 35.4947917 9.40429667 35.5273442 9.42382833L37.3893233 10.4557292C37.4576825 10.4915367 37.5 10.5631508 37.5 10.6380208L37.5 12.3144533C37.5 12.3860675 37.5390625 12.4544275 37.6009117 12.4902342 37.6627608 12.5227867 37.73763 12.5227867 37.8027342 12.4869792L39.8014325 11.328125C39.921875 11.2565108 40 11.1230467 40 10.9798175L40 9.4140625C40 9.23828167 39.9055992 9.07552083 39.7526042 8.99088583zM8.91927083 8.99088583L4.83072917 6.72851583C4.75260417 6.68619833 4.66796917 6.66666667 4.58333333 6.66666667 4.49869833 6.66666667 4.4140625 6.68619833 4.3359375 6.72851583L.247395833 8.99088583C.0944008333 9.07552083 0 9.23828167 0 9.4108075L0 15.6315108C0 15.703125.0390625 15.7714842.100911667 15.8072917.162760833 15.8430992.240885833 15.8430992.302734167 15.8072917L2.3014325 14.6451825C2.42513 14.5735675 2.5 14.4401042 2.5 14.296875L2.5 10.6380208C2.5 10.5598958 2.5423175 10.4882817 2.60742167 10.4524742L4.46940083 9.42382833C4.50520833 9.40429667 4.54427083 9.39453167 4.58333333 9.39453167 4.62239583 9.39453167 4.66145833 9.40429667 4.69726583 9.42382833L6.559245 10.4524742C6.62434917 10.4915367 6.66666667 10.5598958 6.66666667 10.6380208L6.66666667 14.296875C6.66666667 14.4401042 6.74153667 14.5735675 6.86523417 14.6451825L8.8639325 15.8072917C8.92903667 15.8430992 9.00390667 15.8430992 9.065755 15.8072917 9.12760417 15.7714842 9.16666667 15.703125 9.16666667 15.6315108L9.16666667 9.4140625C9.16666667 9.23828167 9.07226583 9.07552083 8.91927083 8.99088583z"/>
  </g>
</svg>
