<svg xmlns="http://www.w3.org/2000/svg" width="40" height="40" viewBox="0 0 40 40">
  <g fill="none" fill-rule="evenodd" transform="translate(2 11)">
    <path fill="#5E77A5" d="M18,18.2463835 C27.9290301,18.2463835 35.9783459,14.1671504 35.9783459,9.13533835 C35.9783459,4.10352632 27.9290301,0.0242932331 18,0.0242932331 C8.07096992,0.0242932331 0.0216541353,4.10352632 0.0216541353,9.13533835 C0.0216541353,14.1671504 8.07096992,18.2463835 18,18.2463835"/>
    <path fill="#FFFFFE" d="M21.6418195 12.0801654C21.6418195 12.0801654 22.5336992 7.49050376 22.5336992 7.49043609 22.7348797 6.45455639 22.5675338 5.68177444 22.0363308 5.19354135 21.5218421 4.72107519 20.6483684 4.49140602 19.3660376 4.49140602L17.8216241 4.49140602 18.2637068 2.21731579C18.2803534 2.13164662 18.2578195 2.04293233 18.2022632 1.9756015 18.1467068 1.90827068 18.0639474 1.86922556 17.9766541 1.86922556L15.8450752 1.86922556C15.7051353 1.86922556 15.5848195 1.9683609 15.5581579 2.10579699L14.6110602 6.97838346C14.5249173 6.43012782 14.3128421 5.95874436 13.9732105 5.56991729 13.3479474 4.85424812 12.3589624 4.49140602 11.033594 4.49140602L6.90205263 4.49140602C6.76211278 4.49140602 6.64179699 4.59054135 6.61513534 4.72797744L4.69820301 14.5907594C4.68155639 14.6764962 4.70402256 14.7650752 4.75957895 14.832406 4.81506767 14.8997368 4.89782707 14.9388496 4.9851203 14.9388496L7.13361654 14.9388496C7.27355639 14.9388496 7.39387218 14.8396466 7.4206015 14.7023459L7.88427068 12.3166692 9.48356391 12.3166692C10.3229323 12.3166692 11.0277744 12.2257218 11.5783985 12.0464662 12.1412707 11.8634211 12.6592105 11.5530226 13.1158421 11.1256241 13.4847068 10.7866015 13.7896241 10.4071805 14.0242331 9.99771429L13.6411579 11.9685789C13.6245113 12.0543158 13.6470451 12.1428947 13.7026015 12.2102256 13.7581579 12.2775564 13.8408496 12.3166692 13.9281429 12.3166692L16.0597218 12.3166692C16.1996617 12.3166692 16.3199774 12.2174662 16.3467068 12.0801654L17.3987594 6.66629323 18.8613609 6.66629323C19.4846617 6.66629323 19.6670977 6.7903985 19.7166316 6.84378947 19.7617669 6.89244361 19.8554887 7.06398496 19.7504662 7.60472932L18.9024361 11.9685789C18.8857895 12.0543158 18.9083233 12.1428947 18.9638797 12.2102256 19.0194361 12.2775564 19.1021278 12.3166692 19.1894211 12.3166692L21.3548346 12.3166692C21.4947744 12.3166692 21.6150902 12.2174662 21.6418195 12.0801654zM11.7595489 8.28791729C11.6256992 8.97590977 11.3733609 9.46671429 11.0096391 9.74672932 10.6400301 10.0312782 10.0488722 10.1756165 9.25247368 10.1756165L8.30030075 10.1756165 8.98890226 6.63245865 10.2199398 6.63245865C11.1244737 6.63245865 11.4888045 6.82578947 11.6351053 6.98792481 11.8379098 7.21278947 11.8809474 7.66238346 11.7595489 8.28791729L11.7595489 8.28791729zM30.7572632 5.56991729C30.1320677 4.85424812 29.143015 4.49140602 27.8177143 4.49140602L23.6861729 4.49140602C23.5461654 4.49140602 23.4259173 4.59054135 23.399188 4.72797744L21.4822556 14.5907594C21.465609 14.6764962 21.4881429 14.7650752 21.5436316 14.832406 21.599188 14.8997368 21.6818797 14.9388496 21.7692406 14.9388496L23.9177368 14.9388496C24.0576767 14.9388496 24.1779925 14.8396466 24.2045865 14.7023459L24.6683233 12.3166692 26.2676165 12.3166692C27.106985 12.3166692 27.8118271 12.2257218 28.3624511 12.0464662 28.9253233 11.8634211 29.4432632 11.5530226 29.8999624 11.1256241 30.2807368 10.7755714 30.5942481 10.3826842 30.8316992 9.95785714 31.0687444 9.53357143 31.239203 9.05995489 31.338203 8.55020301 31.5825564 7.29365414 31.3870602 6.29093233 30.7572632 5.56991729zM28.5290526 8.28791729C28.3951353 8.97590977 28.1428647 9.46671429 27.7791429 9.74672932 27.4095338 10.0312782 26.8183083 10.1756165 26.0220451 10.1756165L25.0697368 10.1756165 25.7583383 6.63245865 26.9894436 6.63245865C27.8939098 6.63245865 28.2583083 6.82578947 28.404609 6.98792481 28.6074135 7.21278947 28.6504511 7.66238346 28.5290526 8.28791729L28.5290526 8.28791729z"/>
    <path fill="#00020E" d="M10.2199398 6.34012782C11.0362331 6.34012782 11.5802256 6.4907594 11.852188 6.79215789 12.1239474 7.09348872 12.1887068 7.61075188 12.0465338 8.34374436 11.8979323 9.1071203 11.6119624 9.65199248 11.1879474 9.97842857 10.7639323 10.3048647 10.1187068 10.4679474 9.25247368 10.4679474L7.94564662 10.4679474 8.74786466 6.34012782 10.2199398 6.34012782zM4.9851203 14.6465188L7.13361654 14.6465188 7.64323308 12.0243383 9.48356391 12.0243383C10.295594 12.0243383 10.9635564 11.9392105 11.4879925 11.7684135 12.0124286 11.5980226 12.4890226 11.3119173 12.9179774 10.9103684 13.2780451 10.5795338 13.5692932 10.2144586 13.7923985 9.8152782 14.0152331 9.41643609 14.1735789 8.97604511 14.2671654 8.49444361 14.4944662 7.32525564 14.3229248 6.41463158 13.753015 5.76230075 13.1831053 5.10990226 12.2764737 4.78373684 11.033594 4.78373684L6.90205263 4.78373684 4.9851203 14.6465188 4.9851203 14.6465188zM15.8450752 2.16155639L17.9766541 2.16155639 17.4670376 4.78373684 19.3660376 4.78373684C20.5608045 4.78373684 21.385015 4.99229323 21.8386015 5.40886466 22.292188 5.82570677 22.4280677 6.50111278 22.2467143 7.43474436L21.3548346 12.0243383 19.1894211 12.0243383 20.0373835 7.66048872C20.1338797 7.16406767 20.0984887 6.82545113 19.9308722 6.64490977 19.7633233 6.46436842 19.4067068 6.37396241 18.8613609 6.37396241L17.1577895 6.37396241 16.0597218 12.0243383 13.9281429 12.0243383 15.8450752 2.16155639M26.9894436 6.34012782C27.8056692 6.34012782 28.3496617 6.4907594 28.6216917 6.79215789 28.8934511 7.09348872 28.9582105 7.61075188 28.8159699 8.34374436 28.6674361 9.1071203 28.3814662 9.65199248 27.9573835 9.97842857 27.5334361 10.3048647 26.8882105 10.4679474 26.0220451 10.4679474L24.7151504 10.4679474 25.5173684 6.34012782 26.9894436 6.34012782zM21.7546241 14.6465188L23.9031203 14.6465188 24.4127368 12.0243383 26.253 12.0243383C27.0650301 12.0243383 27.7329925 11.9392105 28.2574286 11.7684135 28.7818647 11.5980226 29.2584586 11.3119173 29.6874812 10.9103684 30.0474812 10.5795338 30.338797 10.2144586 30.5619023 9.8152782 30.7847368 9.41643609 30.9430827 8.97604511 31.0366015 8.49444361 31.2639699 7.32525564 31.0924286 6.41463158 30.5225188 5.76230075 29.952609 5.10990226 29.0459774 4.78373684 27.8030301 4.78373684L23.6714887 4.78373684 21.7546241 14.6465188 21.7546241 14.6465188z"/>
  </g>
</svg>
