<svg xmlns="http://www.w3.org/2000/svg" width="40" height="40" viewBox="0 0 40 40">
  <path fill="#212121" fill-rule="evenodd" d="M20,29.2463835 C10.0709699,29.2463835 2.02165414,25.1671504 2.02165414,20.1353383 C2.02165414,15.1035263 10.0709699,11.0242932 20,11.0242932 C29.9290301,11.0242932 37.9783459,15.1035263 37.9783459,20.1353383 C37.9783459,25.1671504 29.9290301,29.2463835 20,29.2463835 Z M6.9851203,25.6465188 L9.13361654,25.6465188 L9.64323308,23.0243383 L11.4835639,23.0243383 C12.295594,23.0243383 12.9635564,22.9392105 13.4879925,22.7684135 C14.0124286,22.5980226 14.4890226,22.3119173 14.9179774,21.9103684 C15.2780451,21.5795338 15.5692932,21.2144586 15.7923985,20.8152782 C16.0152331,20.4164361 16.1735789,19.9760451 16.2671654,19.4944436 C16.4944662,18.3252556 16.3229248,17.4146316 15.753015,16.7623008 C15.1831053,16.1099023 14.2764737,15.7837368 13.033594,15.7837368 L8.90205263,15.7837368 L6.9851203,25.6465188 Z M12.2199398,17.3401278 C13.0362331,17.3401278 13.5802256,17.4907594 13.852188,17.7921579 C14.1239474,18.0934887 14.1887068,18.6107519 14.0465338,19.3437444 C13.8979323,20.1071203 13.6119624,20.6519925 13.1879474,20.9784286 C12.7639323,21.3048647 12.1187068,21.4679474 11.2524737,21.4679474 L9.94564662,21.4679474 L10.7478647,17.3401278 L12.2199398,17.3401278 Z M17.8450752,13.1615564 L15.9281429,23.0243383 L18.0597218,23.0243383 L19.1577895,17.3739624 L20.8613609,17.3739624 C21.4067068,17.3739624 21.7633233,17.4643684 21.9308722,17.6449098 C22.0984887,17.8254511 22.1338797,18.1640677 22.0373835,18.6604887 L21.1894211,23.0243383 L23.3548346,23.0243383 L24.2467143,18.4347444 C24.4280677,17.5011128 24.292188,16.8257068 23.8386015,16.4088647 C23.385015,15.9922932 22.5608045,15.7837368 21.3660376,15.7837368 L19.4670376,15.7837368 L19.9766541,13.1615564 L17.8450752,13.1615564 Z M23.7546241,25.6465188 L25.9031203,25.6465188 L26.4127368,23.0243383 L28.253,23.0243383 C29.0650301,23.0243383 29.7329925,22.9392105 30.2574286,22.7684135 C30.7818647,22.5980226 31.2584586,22.3119173 31.6874812,21.9103684 C32.0474812,21.5795338 32.338797,21.2144586 32.5619023,20.8152782 C32.7847368,20.4164361 32.9430827,19.9760451 33.0366015,19.4944436 C33.2639699,18.3252556 33.0924286,17.4146316 32.5225188,16.7623008 C31.952609,16.1099023 31.0459774,15.7837368 29.8030301,15.7837368 L25.6714887,15.7837368 L23.7546241,25.6465188 Z M28.9894436,17.3401278 C29.8056692,17.3401278 30.3496617,17.4907594 30.6216917,17.7921579 C30.8934511,18.0934887 30.9582105,18.6107519 30.8159699,19.3437444 C30.6674361,20.1071203 30.3814662,20.6519925 29.9573835,20.9784286 C29.5334361,21.3048647 28.8882105,21.4679474 28.0220451,21.4679474 L26.7151504,21.4679474 L27.5173684,17.3401278 L28.9894436,17.3401278 Z"/>
</svg>
