<svg xmlns="http://www.w3.org/2000/svg" width="40" height="40" viewBox="0 0 40 40">
  <path fill="#212121" d="M20.3365385,8 C21.2860578,7.99519262 22.4038462,8.22115385 22.3653846,8.22355754 C23.879808,8.47596185 24.9615385,9.59855754 24.9615385,11.0985575 L24.9615385,16.3822117 C24.9615385,17.9302886 23.4375003,19.0769231 21.8846154,19.0769231 L17.4326923,19.0769231 C15.5384615,19.0769231 13.8846154,20.879808 13.8846154,22.7043268 L13.8846154,25.8461538 L11.6490388,25.8461538 C10.0264425,25.8461538 9.13942338,24.6177883 8.73557723,22.9807692 C8.20432677,20.7860578 8.22836554,19.4687502 8.73557723,17.3653846 C9.185096,15.5336542 10.6057692,14.7692308 12.2283655,14.7692308 L20.6538462,14.7692308 L20.6538462,13.5384615 L15.1153846,13.5384615 L15.1153846,11.0985575 C15.1153846,9.504808 15.5456732,8.63701908 17.9134615,8.22596185 C18.7163465,8.08653846 19.379808,8.00240369 20.3365385,8 Z M17.2692308,10.4615385 C16.754808,10.4615385 16.3461538,10.879808 16.3461538,11.3870191 C16.3461538,11.8990388 16.754808,12.3076923 17.2692308,12.3076923 C17.7740388,12.3076923 18.1923077,11.8990388 18.1923077,11.3870191 C18.1923077,10.8774037 17.7740388,10.4615385 17.2692308,10.4615385 Z M19.7403846,31.3846154 C18.7908652,31.3894234 17.6730769,31.1634615 17.7115385,31.1610578 C16.1971157,30.9086542 15.1153846,29.7860578 15.1153846,28.2860578 L15.1153846,23.0024037 C15.1153846,21.4543268 16.6394234,20.3076923 18.1923077,20.3076923 L22.6442308,20.3076923 C24.5384615,20.3076923 26.1923077,18.504808 26.1923077,16.6802886 L26.1923077,13.5384615 L28.4278849,13.5384615 C30.0504806,13.5384615 30.9375003,14.7668271 31.3413465,16.4038462 C31.8725963,18.5985575 31.8509618,19.9158652 31.3413465,22.0192308 C30.8918271,23.8509618 29.4711538,24.6153846 27.8509618,24.6153846 L19.4230769,24.6153846 L19.4230769,25.8461538 L24.9615385,25.8461538 L24.9615385,28.2860578 C24.9615385,29.879808 24.5312498,30.7475963 22.1634615,31.1586542 C21.3605772,31.2980769 20.6971157,31.3822117 19.7403846,31.3846154 Z M22.8076923,28.9230769 C23.3221157,28.9230769 23.7307692,28.504808 23.7307692,27.9975963 C23.7307692,27.4855772 23.3221157,27.0769231 22.8076923,27.0769231 C22.3028849,27.0769231 21.8846154,27.4855772 21.8846154,27.9975963 C21.8846154,28.5072117 22.3028849,28.9230769 22.8076923,28.9230769 Z"/>
</svg>
