<svg xmlns="http://www.w3.org/2000/svg" width="40" height="40" viewBox="0 0 40 40">
  <g fill="none" transform="translate(8 8)">
    <path fill="#0277BD" d="M12.3365385,1.0248421e-16 C11.379808,0.00240369231 10.7163465,0.0865384615 9.91346154,0.225961846 C7.54567323,0.637019077 7.11538462,1.504808 7.11538462,3.09855754 L7.11538462,5.53846154 L12.6538462,5.53846154 L12.6538462,6.76923077 L4.22836554,6.76923077 C2.60576923,6.76923077 1.185096,7.53365415 0.735577231,9.36538462 C0.228365538,11.4687502 0.204326769,12.7860578 0.735577231,14.9807692 C1.13942338,16.6177883 2.02644246,17.8461538 3.64903877,17.8461538 L5.88461538,17.8461538 L5.88461538,14.7043268 C5.88461538,12.879808 7.53846154,11.0769231 9.43269231,11.0769231 L13.8846154,11.0769231 C15.4375003,11.0769231 16.9615385,9.93028862 16.9615385,8.38221169 L16.9615385,3.09855754 C16.9615385,1.59855754 15.879808,0.475961846 14.3653846,0.223557538 C14.4038462,0.221153846 13.2860578,-0.00480738462 12.3365385,1.0248421e-16 Z M9.26923077,2.46153846 C9.77403877,2.46153846 10.1923077,2.87740369 10.1923077,3.38701908 C10.1923077,3.89903877 9.77403877,4.30769231 9.26923077,4.30769231 C8.754808,4.30769231 8.34615385,3.89903877 8.34615385,3.38701908 C8.34615385,2.879808 8.754808,2.46153846 9.26923077,2.46153846 Z"/>
    <path fill="#FFC107" d="M11.7403846,23.3846154 C12.6971157,23.3822117 13.3605772,23.2980769 14.1634615,23.1586542 C16.5312498,22.7475963 16.9615385,21.879808 16.9615385,20.2860578 L16.9615385,17.8461538 L11.4230769,17.8461538 L11.4230769,16.6153846 L19.8509618,16.6153846 C21.4711538,16.6153846 22.8918271,15.8509618 23.3413465,14.0192308 C23.8509618,11.9158652 23.8725963,10.5985575 23.3413465,8.40384615 C22.9375003,6.76682708 22.0504806,5.53846154 20.4278849,5.53846154 L18.1923077,5.53846154 L18.1923077,8.68028862 C18.1923077,10.504808 16.5384615,12.3076923 14.6442308,12.3076923 L10.1923077,12.3076923 C8.63942338,12.3076923 7.11538462,13.4543268 7.11538462,15.0024037 L7.11538462,20.2860578 C7.11538462,21.7860578 8.19711569,22.9086542 9.71153846,23.1610578 C9.67307692,23.1634615 10.7908652,23.3894234 11.7403846,23.3846154 Z M14.8076923,20.9230769 C14.3028849,20.9230769 13.8846154,20.5072117 13.8846154,19.9975963 C13.8846154,19.4855772 14.3028849,19.0769231 14.8076923,19.0769231 C15.3221157,19.0769231 15.7307692,19.4855772 15.7307692,19.9975963 C15.7307692,20.504808 15.3221157,20.9230769 14.8076923,20.9230769 Z"/>
  </g>
</svg>
