<svg xmlns="http://www.w3.org/2000/svg" width="40" height="40" viewBox="0 0 40 40">
  <path fill="#212121" d="M26.369792,6.65625 C25.850002,6.63877213 25.3059227,6.72939507 24.7604167,6.90625 C23.669406,7.25996067 22.5261353,7.94925653 21.3528647,8.90364587 C20.8930593,9.2776714 20.429082,9.7052192 19.9635413,10.1588541 C19.5082653,9.71673593 19.053822,9.30066493 18.6041667,8.93489587 C17.4318387,7.9812726 16.2916667,7.29171147 15.2031253,6.93880207 C14.1145853,6.5858924 13.031482,6.57495707 12.1419273,7.08854167 C11.252372,7.6021262 10.7204127,8.54490387 10.4817707,9.66406253 C10.2431287,10.7832213 10.2694167,12.1159947 10.5091147,13.6080727 C10.5923727,14.1263407 10.711114,14.670052 10.846354,15.2239587 C10.3380633,15.3780027 9.84445113,15.53997 9.38671873,15.71875 C8.00532113,16.258292 6.86229787,16.9037753 6.02994793,17.6718747 C5.19759793,18.4399747 4.66015627,19.3722027 4.66015627,20.3958333 C4.66015627,21.419464 5.19759793,22.35039 6.02994793,23.1184893 C6.86229787,23.8865893 8.00532113,24.5333747 9.38671873,25.0729167 C9.87616773,25.264084 10.4060787,25.4362173 10.9531253,25.5989587 C10.756354,26.3341853 10.5969293,27.0476447 10.4882813,27.7239587 C10.2483913,29.2172353 10.2230587,30.5501767 10.4622393,31.6718747 C10.7014227,32.7935733 11.233652,33.7416893 12.127604,34.2578127 C13.0215573,34.7739367 14.1095093,34.7612627 15.2005207,34.407552 C16.2915313,34.0538413 17.4335,33.365848 18.6067707,32.4114587 C19.0623413,32.0408773 19.5231713,31.6181373 19.9843747,31.1692707 C20.4479973,31.620842 20.9106707,32.0455587 21.3684893,32.4179687 C22.540818,33.3715913 23.682292,34.0598507 24.7708333,34.4127607 C25.859374,34.76567 26.9424767,34.7766053 27.8320313,34.2630207 C28.721586,33.749436 29.252244,32.8066587 29.4908853,31.6875 C29.7295267,30.5683413 29.703238,29.2368693 29.4635413,27.744792 C29.3545993,27.0666433 29.195076,26.350818 28.997396,25.6132813 C29.5625127,25.4465773 30.1091627,25.269814 30.6132813,25.0729167 C31.9946787,24.5333747 33.137702,23.8865893 33.970052,23.1184893 C34.802402,22.35039 35.339844,21.419464 35.339844,20.3958333 C35.339844,19.3722027 34.802402,18.4399753 33.970052,17.6718747 C33.137702,16.9037753 31.9946787,16.258292 30.6132813,15.71875 C30.14898,15.5374047 29.647792,15.373328 29.1315107,15.217448 C29.26785,14.6601473 29.3888967,14.1125367 29.472656,13.591146 C29.712546,12.0978693 29.7378833,10.763626 29.498698,9.64192707 C29.2595193,8.52022893 28.725984,7.57341627 27.8320313,7.05729167 C27.3850547,6.79923013 26.8895813,6.67372787 26.369792,6.65625 Z M26.308594,8.0130208 C26.6347693,8.02194 26.9130233,8.09955907 27.1510413,8.2369792 C27.6270787,8.51181913 27.978946,9.04672827 28.1666667,9.92708333 C28.3543873,10.8074373 28.3478987,11.9968867 28.126302,13.376302 C28.0504313,13.8485853 27.940268,14.3491267 27.815104,14.8619793 C26.451434,14.5337967 24.9571627,14.2902673 23.3645833,14.1471353 C22.565092,13.0395527 21.7436027,12.0305207 20.9153647,11.1354167 C21.3534547,10.7077747 21.7887087,10.3078173 22.2135413,9.9622396 C23.2973507,9.08062213 24.3234173,8.4807308 25.1796873,8.203125 C25.6078227,8.0643216 25.982418,8.00410167 26.308594,8.0130208 Z M13.657552,8.01692707 C13.9856127,8.00776887 14.360994,8.06782767 14.7903647,8.20703127 C15.6491047,8.4854384 16.676968,9.0850646 17.7617187,9.96744793 C18.1780247,10.3060891 18.603532,10.698434 19.032552,11.1158853 C18.1981887,12.0183153 17.369908,13.0360933 16.565104,14.153646 C14.9792593,14.2993827 13.4910707,14.5442333 12.1341147,14.873698 C12.009884,14.3636913 11.8997053,13.865724 11.8242187,13.3958333 C11.602428,12.01522 11.5968933,10.8256027 11.785156,9.94270833 C11.9734187,9.05981387 12.3281587,8.5208688 12.808594,8.2434896 C13.0488107,8.10480013 13.3294913,8.02608527 13.657552,8.01692707 Z M19.9843747,12.095052 C20.527448,12.6860473 21.0706373,13.3327733 21.6093747,14.028646 C21.080022,14.006574 20.544192,13.9934893 20,13.9934893 C19.4449713,13.9934893 18.89894,14.0069987 18.3593747,14.029948 C18.8982347,13.3335373 19.4411667,12.6864913 19.9843747,12.095052 Z M20,15.339844 C20.906596,15.339844 21.790232,15.377098 22.6497393,15.440104 C23.2411533,16.2895407 23.8190987,17.1907033 24.369792,18.1445313 C24.8536693,18.982632 25.291552,19.819442 25.690104,20.6458333 C25.2873447,21.483188 24.8421227,22.3313147 24.3515627,23.1809893 C23.9197393,23.9289287 23.4687933,24.6392993 23.0104167,25.3242187 C22.039542,25.4053667 21.0335353,25.4505207 20,25.4505207 C18.9415833,25.4505207 17.9129747,25.4026873 16.9205727,25.317708 C16.469828,24.6426367 16.02649,23.9430267 15.6015627,23.2070313 C15.112124,22.3592993 14.6690513,21.5127193 14.2669273,20.6770833 C14.6707373,19.836728 15.1158007,18.9854533 15.6080727,18.1328127 C16.1558787,17.1839847 16.732138,16.2880367 17.3203127,15.442708 C18.1890727,15.3782827 19.0829667,15.339844 20,15.339844 Z M24.3658853,15.6067707 C25.464866,15.743894 26.496722,15.93427 27.4570313,16.1627607 C27.172086,17.096858 26.8211027,18.0725387 26.3958333,19.0794273 C26.1197113,18.547146 25.8337327,18.0130567 25.5247393,17.4778647 C25.1502813,16.829284 24.760272,16.210944 24.3658853,15.6067707 Z M15.5625,15.6171873 C15.176436,16.2100647 14.7965573,16.8163853 14.4296873,17.4518227 C14.1167293,17.993882 13.824814,18.5351573 13.5455727,19.0742187 C13.1239733,18.0733833 12.7751027,17.1032513 12.4921873,16.1744793 C13.4453347,15.9455753 14.4711773,15.7558753 15.5625,15.6171873 Z M28.7760413,16.5169273 C29.2486293,16.659918 29.705044,16.80914 30.123698,16.972656 C31.3971333,17.4700307 32.4044333,18.0589953 33.057292,18.6614587 C33.7101493,19.2639213 33.9934893,19.838464 33.9934893,20.3958333 C33.9934893,20.9532027 33.71015,21.527746 33.057292,22.130208 C32.4044333,22.7326713 31.3971333,23.321636 30.123698,23.8190107 C29.6584653,24.0007193 29.1473067,24.1654953 28.6158853,24.3216147 C28.2367993,23.1490953 27.7529387,21.925848 27.1770833,20.6770833 C27.83919,19.2433887 28.3740587,17.845526 28.7760413,16.5169273 Z M11.2018227,16.5234373 C11.599202,17.8387793 12.1272073,19.2227453 12.779948,20.6419273 C12.2003133,21.89797 11.714058,23.1281693 11.3333333,24.307292 C10.82064,24.1552793 10.326808,23.9949673 9.87630207,23.8190107 C8.60286633,23.321636 7.59556667,22.7326713 6.94270833,22.130208 C6.28985,21.5277453 6.0065104,20.9532027 6.0065104,20.3958333 C6.0065104,19.838464 6.28985,19.2639213 6.94270833,18.6614587 C7.59556667,18.0589953 8.60286633,17.4700307 9.87630207,16.972656 C10.288516,16.8116553 10.7372767,16.664558 11.2018227,16.5234373 Z M20,17.3333333 C18.1669473,17.3333333 16.6666667,18.833614 16.6666667,20.6666667 C16.6666667,22.4997193 18.1669473,24 20,24 C21.8330527,24 23.3333333,22.4997193 23.3333333,20.6666667 C23.3333333,18.833614 21.8330527,17.3333333 20,17.3333333 Z M13.561198,22.2434893 C13.841664,22.7852353 14.133352,23.3288553 14.4479167,23.873698 C14.694032,24.299982 14.945382,24.7149287 15.2005207,25.122396 C14.3052113,24.998248 13.454154,24.84107 12.654948,24.654948 C12.9091013,23.87654 13.2131627,23.0685307 13.561198,22.2434893 Z M26.4127607,22.2434893 C26.7621893,23.0704833 27.066406,23.8797873 27.3216147,24.660156 C26.519872,24.8460593 25.6661947,25.0027013 24.7682293,25.126302 C25.026714,24.7138527 25.281988,24.2937133 25.53125,23.8619793 C25.8435013,23.3211447 26.1340553,22.781278 26.4127607,22.2434893 Z M12.2708333,25.9492187 C13.4773827,26.2350453 14.785144,26.454608 16.1718747,26.597656 C17.0975867,27.9365727 18.061978,29.1396647 19.032552,30.191406 C18.598542,30.6145727 18.1683773,31.011722 17.747396,31.3541667 C16.6635867,32.2357847 15.6362173,32.8343727 14.779948,33.1119793 C13.9236773,33.3895853 13.2846307,33.352964 12.808594,33.0781253 C12.3325567,32.8032847 11.9819913,32.2683753 11.7942707,31.3880207 C11.60655,30.507666 11.6117373,29.3195193 11.8333333,27.940104 C11.933862,27.314328 12.0841,26.6442493 12.2708333,25.9492187 Z M27.7070313,25.9544273 C27.8953247,26.6536987 28.0460087,27.3262333 28.1471353,27.9557293 C28.368926,29.336342 28.37446,30.5259593 28.186198,31.408854 C27.9979353,32.2917487 27.6457993,32.8319953 27.1653647,33.1093747 C26.68493,33.3867547 26.0397293,33.42294 25.1809893,33.1445313 C24.3222493,32.866124 23.2943853,32.266498 22.2096353,31.3841147 C21.785626,31.0392073 21.352484,30.6388387 20.9153647,30.2122393 C21.8924427,29.1563933 22.8636447,27.947172 23.7955727,26.6002607 C25.1858007,26.4581673 26.497194,26.2399167 27.7070313,25.9544273 Z M17.9114587,26.7343747 C18.5959673,26.7716787 19.289496,26.7968747 20,26.7968747 C20.6870027,26.7968747 21.358042,26.7731913 22.0208333,26.7382813 C21.3433073,27.6523953 20.6526893,28.4834327 19.964844,29.2317707 C19.2774167,28.481834 18.588096,27.649312 17.9114587,26.7343747 Z"/>
</svg>
