<svg xmlns="http://www.w3.org/2000/svg" width="40" height="40" viewBox="0 0 40 40">
  <path fill="#212121" d="M8.58715596,19.0438327 L11.2273192,14.5137616 C11.251784,14.4689091 11.2844038,14.4281344 11.3211008,14.3955147 L16.0591232,9.97961277 C16.110092,9.93272171 16.1712538,9.89602473 16.2364934,9.87155989 L20.3058104,8.37716603 L23.7370032,10.7747195 L22.0285422,16.2059122 L15.6187562,22.1610604 L10.3914372,23.3333332 L8.58715596,19.0438327 Z M10.764526,24.3200814 L13.2028542,31.2925585 L15.2089704,23.321101 L10.764526,24.3200814 Z M29.1294597,8.45667686 L25.2619777,10.6055048 L31.6717636,15.2599387 C31.80632,14.6605506 31.963303,13.8430176 32,13.1478082 C31.9979614,13.1396533 31.9979614,13.1294597 31.9979614,13.1192662 C32.0183485,12.1284402 31.8552496,11.0927624 31.3170233,10.1977577 C30.833843,9.39245681 30.108053,8.80326224 29.1559632,8.43221203 C29.1478082,8.44036697 29.1416924,8.45056052 29.1294597,8.45667686 Z M24.8970438,25.5249745 L22.2466871,17.4250766 L16.8664627,22.4281344 L24.8970438,25.5249745 Z M23.211009,17.0132517 L25.8430173,25.0560655 C27.9021409,22.8154945 30.0101937,20.132518 31.2130482,16.8338429 L23.211009,17.0132517 Z M30.6422021,15.8022427 L24.6238535,11.4332314 L23.1967383,15.9694188 L30.6422021,15.8022427 Z M9.96330288,25.1906218 L8.17533156,28.2589193 C8.78695235,31.090724 10.9051986,31.7247705 12.3017332,31.8797144 L9.96330288,25.1906218 Z M9.50254829,23.9102956 L8,20.3404688 L8,26.4872579 L9.50254829,23.9102956 Z M27.7920489,8.00611634 C27.783894,8.00407773 27.775739,8 27.7655455,8 L21.5902143,8 L24.3425076,9.92456677 L27.7920489,8.00611634 Z M16.285423,23.321101 L14.1467891,31.816514 C18.4954128,31.1763507 21.7573904,28.8399595 24.4016309,26.4525995 L16.285423,23.321101 Z M30.2059123,30.7808361 C30.0835882,30.7808361 29.9592254,30.7380223 29.8593275,30.650357 L25.5453621,26.819572 C23.6493374,28.5790013 21.4352704,30.3669726 18.70948,31.5718657 L30.2140673,30.7910297 C30.2813454,30.786952 30.3445464,30.7665649 30.4036696,30.7400614 C30.3404692,30.7665649 30.2731905,30.7808361 30.2059123,30.7808361 Z M26.2996942,26.093782 L30.5524977,29.869521 C30.6422021,29.9490319 30.6890926,30.053007 30.7094803,30.1610604 L31.5881756,18.6544345 C30.2242608,21.6106014 28.2201837,24.0387361 26.2996942,26.093782 Z"/>
</svg>
