<svg xmlns="http://www.w3.org/2000/svg" width="40" height="40" viewBox="0 0 40 40">
  <g fill="none" transform="translate(8 8)">
    <polygon fill="#9B1010" points="24 5.838 22.703 22.703 5.838 24"/>
    <polygon fill="#B71C1C" points="14.919 14.919 22.703 22.703 24 5.838"/>
    <path fill="#C62828" d="M22.7001691,1.94847957 C19.7457769,-1.005912 12.7043922,1.244088 6.97550659,6.97550659 C1.244088,12.7043922 -1.005912,19.7457769 1.94847957,22.7001691 C4.90287178,25.6545606 11.9442571,23.4045606 17.6731421,17.6731421 C23.4045606,11.9442571 25.6545606,4.90287178 22.7001691,1.94847957 Z"/>
    <polygon fill="#E53935" points="3.243 7.784 7.784 3.243 12.973 .649 16.865 3.243 14.919 9.081 9.081 14.27 3.243 16.216 .649 12.324"/>
    <path fill="#FF5252" d="M16.8648649,3.24324324 L12.972973,0.648648649 L20.1081081,0.648648649 L16.8648649,3.24324324 Z M24,6.48648649 L16.8648649,3.24324324 L14.9189189,9.08108108 L24,6.48648649 Z M9.08108108,14.2702703 L17.6655405,17.6655405 L14.9189189,9.08108108 L9.08108108,14.2702703 Z M3.24324324,16.2162162 L5.83783784,24 L9.08108108,14.2702703 L3.24324324,16.2162162 Z M0.648648649,12.3243243 L0.648648649,19.4594595 L3.24324324,16.2162162 L0.648648649,12.3243243 Z"/>
  </g>
</svg>
