<svg xmlns="http://www.w3.org/2000/svg" width="40" height="40" viewBox="0 0 40 40">
  <path fill="#212121" d="M6,9.11111111 C6,7.39149344 7.39149344,6 9.11111111,6 L30.8888889,6 C32.6085073,6 34,7.39149344 34,9.11111111 L34,30.8888889 C34,32.6054686 32.6085073,34 30.8888889,34 L9.11111111,34 C7.39149344,34 6,32.6054686 6,30.8888889 L6,9.11111111 Z M21.5707463,9.88888889 C21.5707463,9.88888889 25.2044269,14.4279518 23.3511287,19.5169269 C23.3511287,19.5169269 16.284288,14.7408852 13,11.4444444 C13,11.4444444 17.7578129,17.2443574 19.2222222,18.4444444 C19.2222222,18.4444444 16.3450519,17.0104167 10.6666667,12.2222222 C10.6666667,12.2222222 17.4934898,21.0603297 20.5590278,22.8224824 C20.5590278,22.8224824 15.9136287,25.9639759 9.11111111,21.53125 C9.11111111,21.53125 12.6809898,27.7777778 20.2339408,27.7777778 C23.6245658,27.7777778 24.6150176,26.0460073 26.2981769,26.0460073 C28.0481769,26.0460073 29.0902778,27.7777778 29.0902778,27.7777778 C30.1111111,25.3046879 27.5833333,22.4791667 27.5833333,22.4791667 C27.5833333,22.4791667 30.4605037,15.8771703 21.5707463,9.88888889 Z"/>
</svg>
