<svg xmlns="http://www.w3.org/2000/svg" width="40" height="40" viewBox="0 0 40 40">
  <g fill="none" transform="translate(6 6)">
    <path fill="#FF6D00" d="M0,3.11111111 C0,1.39149344 1.39149344,0 3.11111111,0 L24.8888889,0 C26.6085073,0 28,1.39149344 28,3.11111111 L28,24.8888889 C28,26.6054686 26.6085073,28 24.8888889,28 L3.11111111,28 C1.39149344,28 0,26.6054686 0,24.8888889 L0,3.11111111 Z"/>
    <path fill="#E64A19" d="M0,3.11111111 L0,12.4201389 L3.11111111,15.53125 C3.11111111,15.53125 11.7851564,25.5481769 18.6666667,18.6666667 C25.5481769,11.7851564 15.5707463,3.88888889 15.5707463,3.88888889 L11.6788194,0 L3.11111111,0 C1.39149344,0 0,1.39149344 0,3.11111111 Z"/>
    <path fill="#FFF" d="M15.5707463,3.88888889 C24.4605037,9.87717033 21.5833333,16.4791667 21.5833333,16.4791667 C21.5833333,16.4791667 24.1111111,19.3046879 23.0902778,21.7777778 C23.0902778,21.7777778 22.0481769,20.0460073 20.2981769,20.0460073 C18.6150176,20.0460073 17.6245658,21.7777778 14.2339408,21.7777778 C6.68098978,21.7777778 3.11111111,15.53125 3.11111111,15.53125 C9.91362867,19.9639759 14.5590278,16.8224824 14.5590278,16.8224824 C11.4934898,15.0603297 4.66666667,6.22222222 4.66666667,6.22222222 C10.3450519,11.0104167 13.2222222,12.4444444 13.2222222,12.4444444 C11.7578129,11.2443574 7,5.44444444 7,5.44444444 C10.284288,8.74088522 17.3511287,13.5169269 17.3511287,13.5169269 C19.2044269,8.42795178 15.5707463,3.88888889 15.5707463,3.88888889 Z"/>
  </g>
</svg>
