<svg xmlns="http://www.w3.org/2000/svg" width="95" height="48" viewBox="0 0 95 48">
  <g fill="#424242" fill-rule="evenodd" transform="translate(2 8)">
    <path d="M67.770529 9.7344L67.3256258 9.66214194 66.8507871 9.60020645 66.2840774 9.60020645 65.530529 9.60020645C65.1424 9.60123871 64.7553032 9.63530323 64.3744 9.70343226 64.0100129 9.76433548 63.6611097 9.89027097 63.3421419 10.0750452 63.0365935 10.250529 62.7744 10.4941419 62.578271 10.7873032 62.3697548 11.1248516 62.2644645 11.5160774 62.2789161 11.9124645 62.3676903 12.7114323 62.874529 13.4030452 63.610529 13.7292387L64.9524645 14.4724645C65.2064 14.6014968 65.4365935 14.7718194 65.6337548 14.978271 65.7245935 15.0856258 65.7751742 15.2198194 65.7772387 15.3602065 65.7834323 15.5336258 65.7411097 15.7049806 65.6544 15.8556903 65.5728516 15.9888516 65.4603355 16.0993032 65.3240774 16.1756903 65.1661419 16.2634323 64.9958194 16.3264 64.818271 16.3614968 64.6138839 16.4027871 64.4064 16.4234323 64.1989161 16.4234323L63.7127226 16.4234323 63.0944 16.4234323 62.4544 16.4234323 61.8649806 16.3718194 61.7627871 16.3718194C61.5604645 16.3573677 61.3808516 16.4936258 61.3395613 16.6918194L61.2466581 17.1873032 61.2466581 17.2492387C61.2404645 17.3586581 61.2910452 17.4639484 61.3808516 17.5279484 61.4510452 17.5713032 61.5274323 17.602271 61.6069161 17.6208516 61.7937548 17.6208516 61.9888516 17.6931097 62.1963355 17.7240774L62.8363355 17.7860129 63.4546581 17.7860129 64.0234323 17.7860129C64.4363355 17.7860129 64.8471742 17.7447226 65.2518194 17.6621419 65.6337548 17.5867871 66.0002065 17.4484645 66.3346581 17.2492387 66.6536258 17.0593032 66.9189161 16.7929806 67.1088516 16.4750452 67.314271 16.1096258 67.4133677 15.6956903 67.3989161 15.2776258 67.3989161 14.9380129 67.2936258 14.6066581 67.0995613 14.3279484 66.7971097 13.9470452 66.4213677 13.6311742 65.9940129 13.3989161L64.6221419 12.5731097C64.410529 12.450271 64.2133677 12.3047226 64.0337548 12.1395613 63.922271 12.0435613 63.858271 11.9042065 63.858271 11.7576258 63.8500129 11.6089806 63.8944 11.4634323 63.9821419 11.3447226 64.0740129 11.234271 64.1906581 11.1454968 64.3227871 11.0866581 64.4724645 11.0144 64.6324645 10.9658839 64.7976258 10.9421419 64.9689806 10.9287226 65.1413677 10.9287226 65.3137548 10.9421419L66.5421419 10.9421419 67.5744 11.0144 67.6363355 11.0144C67.8531097 11.0329806 68.0482065 10.8791742 68.0802065 10.6634323L68.1524645 10.1989161 68.1524645 10.1060129C68.1524645 9.90059355 67.986271 9.7344 67.7808516 9.7344 67.7736258 9.7344 67.7664 9.7344 67.7591742 9.7344L67.770529 9.7344zM58.9963355 15.6802065C58.6670452 15.8949161 58.3212387 16.0848516 57.9640774 16.2479484 57.6368516 16.3821419 57.2848516 16.4492387 56.9318194 16.4440774 56.6242065 16.4533677 56.3227871 16.3511742 56.0853677 16.1550452 55.8252387 15.8773677 55.7003355 15.4995613 55.7447226 15.1227871 55.7395613 15.0195613 55.7395613 14.9163355 55.7447226 14.8131097 55.738529 14.7098839 55.738529 14.6066581 55.7447226 14.5034323L56.0131097 13.0479484C56.0956903 12.4327226 56.3744 11.8608516 56.8079484 11.4169806 57.2869161 11.0195613 57.9000774 10.8234323 58.5214968 10.8698839 58.7929806 10.8533677 59.0644645 10.8533677 59.3369806 10.8698839L59.8324645 10.9421419 58.9963355 15.6802065zM61.6482065 10.2195613C61.6234323 10.0213677 61.4562065 9.87169032 61.2559484 9.86859355 60.8347871 9.7664 60.4074323 9.68691613 59.9769806 9.63117419 59.5114323 9.57027097 59.0417548 9.53930323 58.5731097 9.53827097 58.1137548 9.53723871 57.6564645 9.59298065 57.210529 9.70343226 56.7769806 9.81388387 56.3671742 10.0027871 56.0027871 10.2608516 55.6239484 10.538529 55.3039484 10.8894968 55.0634323 11.2931097 54.7774968 11.7803355 54.5813677 12.3150452 54.4853677 12.8724645L54.2169806 14.2660129C54.1560774 14.5509161 54.1251097 14.8409806 54.1240774 15.1331097 54.1137548 15.530529 54.1798194 15.9269161 54.3202065 16.2995613 54.4368516 16.610271 54.6195613 16.8920774 54.8569806 17.1253677 55.0861419 17.3431742 55.3617548 17.5083355 55.6621419 17.610529 55.9707871 17.7137548 56.2959484 17.7664 56.6221419 17.7653677 56.8564645 17.7674323 57.0918194 17.7509161 57.3240774 17.7127226 57.5325935 17.6796903 57.7359484 17.6249806 57.9331097 17.5485935 58.1323355 17.4732387 58.3253677 17.3834323 58.5111742 17.2802065L58.8621419 17.0727226 58.8621419 17.1873032 58.8621419 17.2802065C58.8600774 17.3689806 58.8848516 17.4546581 58.9333677 17.5279484 59.0076903 17.6156903 59.1191742 17.6621419 59.2327226 17.6518194L59.8427871 17.6518194C59.9346581 17.6507871 60.0244645 17.6218839 60.1008516 17.5692387 60.1854968 17.5000774 60.2464 17.4061419 60.2763355 17.3008516L61.5873032 10.3847226C61.6120774 10.3362065 61.6306581 10.2835613 61.6389161 10.2298839L61.6482065 10.2195613zM52.1421419 12.9653677L48.4053677 12.9653677C48.466271 12.7000774 48.5602065 12.4440774 48.6840774 12.2014968 48.8131097 11.9496258 48.9793032 11.7204645 49.1795613 11.5202065 49.370529 11.3261419 49.5986581 11.1713032 49.850529 11.0660129 50.1230452 10.9596903 50.4141419 10.9060129 50.7073032 10.9111742 51.3824 10.7707871 52.0440774 11.2043355 52.1844645 11.8794323 52.210271 12.0053677 52.2174968 12.1354323 52.2040774 12.2634323 52.2040774 12.5029161 52.1803355 12.7413677 52.1318194 12.9756903L52.1421419 12.9653677zM53.1124645 10.3434323C52.8533677 10.0864 52.5436903 9.88614194 52.2040774 9.75504516 51.794271 9.60433548 51.3607226 9.5300129 50.9240774 9.53827097 49.9248516 9.49491613 48.9452387 9.82627097 48.178271 10.4673032 47.4226581 11.1723355 46.9251097 12.1096258 46.7640774 13.130529L46.5679484 14.1627871C46.5080774 14.4580129 46.4771097 14.7594323 46.4750452 15.0608516 46.4616258 15.5036903 46.5576258 15.9434323 46.7537548 16.3408516 46.9240774 16.6732387 47.1676903 16.962271 47.4660129 17.1873032 47.7756903 17.4113032 48.1266581 17.5733677 48.498271 17.6621419 48.8688516 17.7571097 49.2507871 17.8056258 49.6337548 17.8066581 50.098271 17.8097548 50.5638194 17.7891097 51.0273032 17.7447226 51.4298839 17.7447226 51.8634323 17.6414968 52.3176258 17.5692387 52.4476903 17.5620129 52.570529 17.5104 52.6685935 17.4247226 52.7398194 17.3431742 52.786271 17.2420129 52.8027871 17.1356903L52.8956903 16.650529 52.8956903 16.5369806C52.8987871 16.4523355 52.8605935 16.3707871 52.7924645 16.3202065 52.7243355 16.2758194 52.6458839 16.2541419 52.5653677 16.258271L52.4724645 16.258271 51.2131097 16.3924645C50.738271 16.3924645 50.2840774 16.4544 49.8402065 16.4544 49.3798194 16.4802065 48.922529 16.3645935 48.5292387 16.1240774 48.2144 15.8784 48.0471742 15.4892387 48.0853677 15.0918194L48.0853677 14.6995613C48.1018839 14.5550452 48.1328516 14.4136258 48.178271 14.2763355L48.178271 14.2040774 53.1537548 14.2040774C53.2807226 14.2113032 53.4056258 14.1627871 53.4944 14.0698839 53.5563355 13.9873032 53.5986581 13.8923355 53.618271 13.7911742L53.7421419 13.1924645C53.8020129 12.9034323 53.8340129 12.610271 53.8350452 12.3150452 53.8319484 11.9640774 53.7731097 11.6151742 53.6595613 11.2827871 53.554271 10.9307871 53.3664 10.6087226 53.1124645 10.3434323L53.1124645 10.3434323zM45.5356903 10.178271C45.3251097 9.95530323 45.0670452 9.78291613 44.7811097 9.67246452 44.4311742 9.54859355 44.0595613 9.48872258 43.6879484 9.49698065 43.218271 9.48872258 42.7506581 9.55788387 42.3047226 9.70343226 42.0053677 9.80769032 41.7122065 9.92743226 41.426271 10.0647226L41.426271 10.0234323C41.426271 9.93672258 41.3973677 9.85414194 41.3447226 9.7860129 41.2734968 9.70136774 41.1661419 9.65491613 41.0556903 9.66214194L40.3124645 9.66214194C40.1989161 9.66214194 40.0894968 9.7024 40.0027871 9.77569032 39.9171097 9.84381935 39.8562065 9.93775484 39.8273032 10.0440774L38.4750452 17.2698839 38.4750452 17.3421419C38.4347871 17.4113032 38.4172387 17.4897548 38.4234323 17.5692387 38.4915613 17.6518194 38.5947871 17.698271 38.7021419 17.6931097L39.4556903 17.6931097C39.5723355 17.6951742 39.6858839 17.6549161 39.7756903 17.5795613 39.8644645 17.5124645 39.9294968 17.4174968 39.9614968 17.3111742L41.0866581 11.3756903C41.4448516 11.210529 41.818529 11.0794323 42.2004645 10.9834323 42.4956903 10.9173677 42.7971097 10.882271 43.0995613 10.8802065 43.4608516 10.8327226 43.8273032 10.9173677 44.1318194 11.1176258 44.3073032 11.3034323 44.3960774 11.554271 44.3795613 11.8092387 44.3847226 11.9258839 44.3847226 12.0435613 44.3795613 12.1602065 44.3795613 12.2944 44.3795613 12.4285935 44.3279484 12.5524645L43.5331097 17.1769806 43.5331097 17.2492387C43.5300129 17.3483355 43.5671742 17.4453677 43.6363355 17.5176258 43.7137548 17.5836903 43.8138839 17.6167226 43.9150452 17.610529L44.6169806 17.610529C44.7294968 17.6094968 44.8389161 17.5692387 44.9266581 17.4969806 45.0154323 17.4298839 45.0814968 17.3349161 45.1124645 17.2285935L45.9073032 12.6040774C45.9599484 12.3460129 45.9867871 12.0827871 45.9898839 11.8195613 45.9929806 11.5181419 45.9475613 11.2177548 45.8556903 10.9318194 45.7648516 10.6706581 45.6203355 10.4322065 45.4324645 10.2298839L45.5356903 10.178271zM37.2156903 8.85698065L38.0311742 8.85698065C38.1261419 8.86214194 38.2200774 8.83633548 38.2995613 8.78472258L38.5060129 8.60923871 40.0337548 7.32923871C40.1070452 7.27143226 40.1514323 7.18472258 40.1576258 7.09181935 40.1359484 6.95143226 40.0089806 6.85233548 39.8685935 6.86472258L38.8363355 6.86472258C38.7351742 6.85852903 38.6340129 6.88433548 38.5473032 6.93698065L38.3408516 7.11246452 37.050529 8.37181935C36.9731097 8.43685161 36.9256258 8.52975484 36.9163355 8.62988387 36.9018839 8.75891613 36.986529 8.87762581 37.1124645 8.90859355L37.2156903 8.85698065zM38.0827871 9.60020645L37.3602065 9.60020645C37.2435613 9.60020645 37.1300129 9.64046452 37.0391742 9.71375484 36.9514323 9.78085161 36.8864 9.8747871 36.8544 9.98214194L35.5021419 17.2079484 35.5021419 17.2802065C35.4980129 17.3793032 35.5351742 17.4773677 35.6053677 17.5485935 35.6796903 17.6115613 35.7756903 17.6445935 35.8737548 17.6414968L36.6066581 17.6414968C36.7233032 17.642529 36.8368516 17.602271 36.9266581 17.5279484 37.0154323 17.4608516 37.0814968 17.3669161 37.1124645 17.2595613L38.4647226 10.0337548 38.4647226 10.0234323C38.4698839 9.92330323 38.4327226 9.82523871 38.3614968 9.75504516 38.2603355 9.64975484 38.1085935 9.61052903 37.9692387 9.65181935L38.0827871 9.60020645zM35.8221419 7.53569032C35.8273032 7.44072258 35.7932387 7.3467871 35.7292387 7.27762581 35.6136258 7.18575484 35.4546581 7.1744 35.3266581 7.24665806L34.5318194 7.24665806C34.2974968 7.22807742 34.0889806 7.39530323 34.0569806 7.62859355L32.2298839 17.2389161 32.2298839 17.3111742C32.2236903 17.4092387 32.2577548 17.5052387 32.3227871 17.5795613 32.3878194 17.6466581 32.4776258 17.6838194 32.570529 17.6827871L33.3653677 17.6827871C33.4799484 17.6827871 33.5914323 17.6384 33.6750452 17.5589161 33.7514323 17.4897548 33.8092387 17.3999484 33.8402065 17.3008516L35.6673032 7.64923871 35.6673032 7.56665806 35.8221419 7.53569032zM30.5473032 12.6969806C30.5349161 12.8322065 30.514271 12.9664 30.4853677 13.0995613L30.2892387 14.1318194C30.234529 14.4476903 30.1333677 14.7532387 29.9898839 15.0402065 29.8567226 15.3013677 29.6833032 15.5377548 29.4737548 15.7421419 29.274529 15.9362065 29.0391742 16.0910452 28.7811097 16.1963355 28.5096258 16.3078194 28.218529 16.3635613 27.9253677 16.3614968 27.5042065 16.4017548 27.0830452 16.2799484 26.7485935 16.0208516 26.4998194 15.7369806 26.3769806 15.3643355 26.4079484 14.9885935 26.4089806 14.7181419 26.4368516 14.4476903 26.490529 14.1834323L26.6866581 13.1511742C26.7754323 12.5328516 27.0572387 11.9589161 27.4907871 11.5098839 27.9005935 11.1093677 28.4580129 10.8956903 29.0298839 10.9214968 29.4531097 10.8781419 29.8763355 11.0040774 30.2066581 11.2724645 30.4544 11.5573677 30.5803355 11.9279484 30.5576258 12.3047226 30.4544 12.4079484 30.4440774 12.5627871 30.4337548 12.6969806L30.5473032 12.6969806zM31.4350452 10.3434323C31.1687226 10.0884645 30.8518194 9.89130323 30.5060129 9.76536774 30.098271 9.62085161 29.6678194 9.55065806 29.2363355 9.55891613 27.1212387 9.41646452 25.2827871 10.9968516 25.1073032 13.1098839L24.9101419 14.1421419C24.9101419 14.2763355 24.9101419 14.410529 24.8595613 14.5344 24.8513032 14.6685935 24.8513032 14.8027871 24.8595613 14.9369806 24.8564645 15.3209806 24.922529 15.7018839 25.0556903 16.0621419 25.178529 16.3955613 25.3715613 16.6980129 25.6234323 16.9498839 25.8845935 17.2058839 26.1984 17.4030452 26.5421419 17.5279484 26.9457548 17.6714323 27.3720774 17.7416258 27.8014968 17.7344 28.3547871 17.7436903 28.9060129 17.6600774 29.4324645 17.4866581 29.8887226 17.3349161 30.3098839 17.0923355 30.6711742 16.7744 31.0180129 16.4595613 31.3029161 16.0807226 31.5073032 15.6595613 31.730271 15.1909161 31.890271 14.6944 31.9821419 14.1834323L32.178271 13.1511742C32.178271 13.0169806 32.178271 12.8827871 32.2298839 12.7485935 32.2371097 12.6113032 32.2371097 12.4729806 32.2298839 12.3356903 32.2329806 11.9558194 32.1700129 11.5790452 32.0440774 11.2208516 31.8778839 10.8740129 31.6301419 10.5725935 31.3214968 10.3434323L31.4350452 10.3434323zM25.2414968 10.570529L25.3447226 9.98214194 25.3447226 9.88923871C25.3478194 9.78807742 25.3013677 9.69104516 25.2208516 9.63117419 25.1341419 9.57646452 25.0329806 9.55169032 24.9318194 9.55891613 24.5591742 9.56098065 24.1885935 9.6064 23.8273032 9.69310968 23.4938839 9.77465806 23.1759484 9.90988387 22.8879484 10.0956903L22.8879484 10.0234323C22.8920774 9.92330323 22.8549161 9.82627097 22.7847226 9.75504516 22.7104 9.6900129 22.6144 9.65594839 22.5163355 9.66214194L21.8040774 9.66214194C21.690529 9.66214194 21.5800774 9.7024 21.4944 9.77569032 21.4097548 9.84485161 21.3488516 9.9387871 21.3189161 10.0440774L19.9666581 17.2698839 19.9666581 17.3421419C19.9491097 17.5300129 20.0864 17.6951742 20.274271 17.7127226 20.2918194 17.7137548 20.3093677 17.7147871 20.3279484 17.7127226L21.0711742 17.7127226C21.1878194 17.7147871 21.3013677 17.674529 21.3911742 17.6002065 21.4799484 17.5331097 21.5449806 17.4391742 21.5769806 17.3307871L22.6711742 11.4892387C22.9694968 11.3158194 23.2884645 11.1805935 23.6198194 11.0866581 23.9790452 10.9989161 24.346529 10.9576258 24.7150452 10.9627871 24.9504 10.9689806 25.1527226 10.794529 25.1795613 10.5602065L25.2414968 10.570529zM18.2004645 12.9756903L14.4647226 12.9756903C14.5060129 12.7093677 14.5793032 12.450271 14.6814968 12.2014968 14.8094968 11.9496258 14.9767226 11.7194323 15.1769806 11.5202065 15.3689806 11.3292387 15.5971097 11.178529 15.8479484 11.0763355 16.1204645 10.9679484 16.4115613 10.9163355 16.7047226 10.9214968 17.3798194 10.7811097 18.0414968 11.2146581 18.1818839 11.8897548 18.2076903 12.0156903 18.2149161 12.1447226 18.2004645 12.2737548 18.2014968 12.5091097 18.1777548 12.7444645 18.1292387 12.9756903L18.2004645 12.9756903zM19.1718194 10.3537548C18.9096258 10.0956903 18.5968516 9.89543226 18.2531097 9.76536774 17.8433032 9.61362581 17.4087226 9.54033548 16.9731097 9.54859355 15.9738839 9.50627097 14.9953032 9.83762581 14.2273032 10.4776258 13.4685935 11.1816258 12.9679484 12.1189161 12.8027871 13.1408516L12.6066581 14.1731097C12.5467871 14.4683355 12.5158194 14.7687226 12.5137548 15.0711742 12.5013677 15.5109161 12.5973677 15.946529 12.7924645 16.3408516 12.9607226 16.674271 13.2043355 16.9643355 13.5047226 17.1873032 13.8133677 17.4113032 14.1643355 17.5733677 14.5369806 17.6621419 14.9044645 17.7571097 15.282271 17.8056258 15.6621419 17.8066581 16.1235613 17.8097548 16.5860129 17.7891097 17.0453677 17.7447226 17.4510452 17.7034323 17.8814968 17.6445935 18.3356903 17.5692387 18.4616258 17.5599484 18.5813677 17.5083355 18.6763355 17.4247226 18.7506581 17.3411097 18.7971097 17.2368516 18.810529 17.1253677L18.9034323 16.650529 18.9034323 16.5369806C18.906529 16.4523355 18.8673032 16.3707871 18.8002065 16.3202065 18.7331097 16.2758194 18.6525935 16.2541419 18.5731097 16.258271L18.4802065 16.258271 17.2208516 16.3924645C16.7460129 16.3924645 16.2918194 16.4544 15.8479484 16.4544 15.3875613 16.4802065 14.930271 16.3645935 14.5369806 16.1240774 14.2221419 15.8784 14.0538839 15.4892387 14.0931097 15.0918194 14.0858839 14.9607226 14.0858839 14.8306581 14.0931097 14.6995613 14.1106581 14.5550452 14.1416258 14.4136258 14.1860129 14.2763355L14.1860129 14.2040774 19.1718194 14.2040774C19.2998194 14.2133677 19.4247226 14.1638194 19.5124645 14.0698839 19.5754323 13.9842065 19.6177548 13.8851097 19.6363355 13.7808516L19.7602065 13.1821419C19.8211097 12.8941419 19.8520774 12.5989161 19.8531097 12.3047226 19.8510452 11.9527226 19.7922065 11.6048516 19.6776258 11.2724645 19.5651097 10.9214968 19.3700129 10.6035613 19.1098839 10.3434323L19.1718194 10.3537548zM6.78472258 12.9137548L8.71504516 9.42472258C8.80072258 9.30807742 8.94317419 9.24923871 9.08665806 9.26988387 9.20227097 9.24820645 9.31581935 9.31323871 9.35504516 9.42472258L9.76794839 12.9137548 6.79504516 12.9137548 6.78472258 12.9137548zM10.5524645 8.46472258C10.4605935 8.31504516 10.3377548 8.18807742 10.1911742 8.09310968 10.0497548 8.00123871 9.89181935 7.93827097 9.72665806 7.90730323 9.57594839 7.89285161 9.42317419 7.89285161 9.27246452 7.90730323 9.10936774 7.90730323 8.94627097 7.92485161 8.78730323 7.95891613 8.60769032 7.9940129 8.43427097 8.05285161 8.27117419 8.1344 8.09465806 8.22523871 7.93465806 8.34291613 7.79633548 8.48536774 7.63220645 8.65156129 7.49594839 8.84356129 7.39375484 9.05310968L2.92407742 17.1769806C2.90859355 17.2440774 2.90859355 17.3153032 2.92407742 17.3834323 2.91891613 17.4773677 2.95607742 17.5682065 3.02730323 17.6301419 3.09749677 17.6869161 3.18523871 17.7158194 3.27504516 17.7127226L4.20407742 17.7127226C4.26498065 17.6765935 4.31762581 17.6270452 4.35891613 17.5692387 4.43736774 17.5196903 4.49827097 17.4484645 4.5344 17.3627871L6.07143226 14.2144 9.78859355 14.2144 10.1498839 17.3111742C10.1612387 17.3844645 10.1901419 17.4546581 10.2324645 17.5176258 10.2923355 17.5981419 10.3893677 17.6445935 10.490529 17.6414968L11.4092387 17.6414968C11.5196903 17.6466581 11.6280774 17.6053677 11.7085935 17.5279484 11.7808516 17.4464 11.8180129 17.3380129 11.8118194 17.2285935L11.8118194 17.1965935 10.6660129 9.05310968C10.6691097 8.85181935 10.6298839 8.65052903 10.5524645 8.46472258L10.5524645 8.46472258zM3.87334194 23.4632258L5.80366452 19.9741935C5.88934194 19.8585806 6.03282581 19.7987097 6.17527742 19.8193548 6.28676129 19.8028387 6.39514839 19.867871 6.43334194 19.9741935L6.84624516 23.4632258 3.87334194 23.4632258zM7.64108387 19.0141935C7.55024516 18.8655484 7.42637419 18.7385806 7.27979355 18.6425806 7.14147097 18.5527742 6.98766452 18.4908387 6.8256 18.4567742 6.67076129 18.4423226 6.51592258 18.4423226 6.36108387 18.4567742 6.1979871 18.4578065 6.03592258 18.4753548 5.87592258 18.5083871 5.69630968 18.5465806 5.52289032 18.6095484 5.35979355 18.6941935 5.18430968 18.7860645 5.02327742 18.9037419 4.88495484 19.0451613 4.72185806 19.2123871 4.5856 19.4033548 4.48237419 19.6139355L.0126967742 27.7367742C-.00381935484 27.8049032-.00381935484 27.8750968.0126967742 27.9432258.0096 28.0371613.0467612903 28.128.115922581 28.1909677.186116129 28.2467097.273858065 28.2756129.363664516 28.2735484L1.26172903 28.2735484C1.35772903 28.2725161 1.45063226 28.2446452 1.53011613 28.1909677 1.61269677 28.1434839 1.67772903 28.0712258 1.71592258 27.9845161L3.23334194 24.7948387 6.94947097 24.7948387 7.31076129 27.8916129C7.32108387 27.9690323 7.3499871 28.0433548 7.39334194 28.1083871 7.45527742 28.187871 7.55127742 28.2343226 7.65140645 28.2322581L8.57011613 28.2322581C8.6816 28.2374194 8.7899871 28.196129 8.86947097 28.1187097 8.94276129 28.0371613 8.97992258 27.9287742 8.97269677 27.8193548L8.97269677 27.7574194 7.8372129 19.6335484C7.81863226 19.4147097 7.75153548 19.204129 7.64108387 19.0141935L7.64108387 19.0141935zM44.0281806 20.4903226L43.2952774 20.4903226C43.1972129 20.4944516 43.1022452 20.5305806 43.0268903 20.5935484 42.9474065 20.6523871 42.8896 20.736 42.861729 20.8309677L41.5197935 27.8916129C41.5197935 28.0505806 41.6488258 28.1806452 41.8088258 28.1806452L41.829471 28.1806452 42.5623742 28.1806452C42.6594065 28.1806452 42.7543742 28.1476129 42.8307613 28.0877419 42.9092129 28.027871 42.9680516 27.9452903 42.9959226 27.8503226L44.2965677 20.8722581 44.2965677 20.8412903C44.3027613 20.6854194 44.1840516 20.5532903 44.0281806 20.5419355L44.0281806 20.4903226zM27.3262452 23.5870968L23.4449548 23.5870968C23.5099871 23.2856774 23.6152774 22.9945806 23.7546323 22.72 23.8908903 22.4609032 24.0653419 22.2255484 24.2707613 22.0180645 24.4730839 21.8188387 24.7115355 21.6619355 24.9726968 21.5535484 25.2545032 21.4410323 25.5569548 21.3852903 25.8604387 21.3883871 26.5696 21.2418065 27.2632774 21.6970323 27.4098581 22.4072258 27.437729 22.5393548 27.4439226 22.6766452 27.429471 22.8129032 27.4274065 23.0916129 27.3923097 23.3682581 27.3262452 23.6387097L27.3262452 23.5870968zM28.1933419 20.9651613C27.9404387 20.7163871 27.6379871 20.5223226 27.3056 20.3974194 26.9030194 20.2498065 26.4756645 20.1796129 26.0462452 20.1909677 25.0666323 20.1496774 24.1066323 20.4738065 23.3520516 21.0993548 22.5830194 21.7981935 22.0730839 22.7365161 21.9068903 23.7625806L21.7107613 24.7948387C21.6519226 25.0869677 21.6199226 25.3842581 21.6178581 25.6825806 21.6219871 26.0923871 21.7210839 26.4949677 21.9068903 26.8593548 22.0710194 27.1834839 22.3074065 27.4663226 22.5985032 27.6851613 22.8926968 27.9019355 23.2250839 28.059871 23.5791484 28.1496774 23.9435355 28.2446452 24.3182452 28.2931613 24.6939871 28.2941935 25.2101161 28.2941935 25.6746323 28.2941935 26.0772129 28.2322581 26.4797935 28.1703226 26.9133419 28.1300645 27.3675355 28.0567742 27.4790194 28.0495484 27.5843097 28.0061935 27.6668903 27.9329032 27.7298581 27.8606452 27.7690839 27.7708387 27.7804387 27.6748387L27.8733419 27.1896774 27.8733419 27.1277419C27.8578581 26.9976774 27.7391484 26.9047742 27.6090839 26.9212903L27.6049548 26.9212903 27.5120516 26.9212903 26.2630194 27.0554839C25.7881806 27.0978065 25.3308903 27.1174194 24.8901161 27.1174194 24.4152774 27.1432258 23.9435355 27.0245161 23.5378581 26.7767742 23.2013419 26.5187097 23.021729 26.1058065 23.0630194 25.6825806 23.0557935 25.5494194 23.0557935 25.4141935 23.0630194 25.28 23.0785032 25.1323871 23.1105032 24.987871 23.1559226 24.8464516L23.1559226 24.7225806 28.1933419 24.7225806C28.301729 24.7308387 28.4080516 24.6885161 28.4823742 24.6090323 28.5391484 24.5326452 28.5783742 24.443871 28.5959226 24.3509677L28.7197935 23.7522581C28.7786323 23.4704516 28.8106323 23.1834839 28.8126968 22.8954839 28.8157935 22.5445161 28.7600516 22.1956129 28.6475355 21.8632258 28.5587613 21.5514839 28.4039226 21.2634839 28.1933419 21.0167742L28.1933419 20.9651613zM36.0178581 20.8412903C35.813471 20.6255484 35.5626323 20.4603871 35.2849548 20.356129 34.9546323 20.2353548 34.6046968 20.1754839 34.2526968 20.1806452 33.7902452 20.1723871 33.3298581 20.2425806 32.8901161 20.388129 32.5381161 20.5027097 32.1933419 20.6410323 31.8578581 20.8L31.8578581 20.6461935 31.8578581 20.6658065C31.8599226 20.5956129 31.8382452 20.5254194 31.7959226 20.4696774 31.7412129 20.4025806 31.6555355 20.3674839 31.5688258 20.3767742L30.8256 20.3767742C30.7265032 20.3778065 30.6315355 20.4149677 30.5572129 20.48 30.4828903 20.5419355 30.4292129 20.6245161 30.4023742 20.7174194L29.0501161 27.9432258 29.0501161 27.8916129C29.0490839 27.9618065 29.0717935 28.0309677 29.1120516 28.0877419 29.1688258 28.1538065 29.2524387 28.187871 29.3391484 28.1806452L30.1649548 28.1806452C30.2619871 28.1796129 30.3569548 28.1476129 30.4333419 28.0877419 30.5128258 28.027871 30.5706323 27.9452903 30.5985032 27.8503226L31.7133419 21.9458065C32.0880516 21.7692903 32.4782452 21.632 32.8797935 21.5329032 33.1781161 21.4658065 33.4826323 21.4317419 33.7881806 21.4296774 34.1515355 21.3945806 34.5169548 21.4854194 34.8204387 21.6877419 35.0052129 21.8900645 35.1012129 22.1574194 35.0888258 22.4309677 35.0960516 22.5507097 35.0960516 22.6714839 35.0888258 22.7922581 35.0888258 22.9264516 35.0888258 23.0606452 35.0372129 23.1845161L34.1288258 27.8916129C34.1288258 28.0505806 34.2578581 28.1806452 34.4168258 28.1806452L34.4385032 28.1806452 35.1714065 28.1806452C35.2705032 28.1775484 35.3644387 28.1414194 35.4397935 28.0774194 35.5203097 28.0185806 35.5781161 27.9349677 35.6049548 27.84L36.4926968 23.2051613C36.5412129 22.9501935 36.5649548 22.6910968 36.5649548 22.4309677 36.5670194 22.1367742 36.5216 21.8446452 36.4307613 21.563871 36.3419871 21.3140645 36.2005677 21.0849032 36.0178581 20.8929032L36.0178581 20.8412903zM51.501729 20.8412903C51.2983742 20.6255484 51.0475355 20.4593548 50.7688258 20.356129 50.4385032 20.2353548 50.0885677 20.1754839 49.7365677 20.1806452 49.2772129 20.1723871 48.8199226 20.2415484 48.3843097 20.388129 48.0312774 20.5016774 47.6865032 20.64 47.3520516 20.8L47.3520516 20.6461935 47.3520516 20.6658065C47.3510194 20.5945806 47.3252129 20.5243871 47.2797935 20.4696774 47.2240516 20.4036129 47.1394065 20.3695484 47.0526968 20.3767742L46.309471 20.3767742C46.2103742 20.3757419 46.1143742 20.4129032 46.0410839 20.48 45.965729 20.5409032 45.9120516 20.6245161 45.8862452 20.7174194L44.5339871 27.9432258 44.5339871 27.8916129C44.5370839 27.9628387 44.5618581 28.032 44.6062452 28.0877419 44.6630194 28.1538065 44.7476645 28.187871 44.8333419 28.1806452L45.5868903 28.1806452C45.6890839 28.1796129 45.7871484 28.1434839 45.8656 28.0774194 45.9409548 28.0165161 45.9956645 27.9339355 46.0204387 27.84L47.1352774 21.9365161C47.5099871 21.7620645 47.9001806 21.6227097 48.301729 21.5225806 48.6000516 21.4565161 48.9045677 21.4214194 49.2101161 21.4203871 49.573471 21.3832258 49.9388903 21.4740645 50.2423742 21.6784516 50.4271484 21.8797419 50.5231484 22.1470968 50.5107613 22.4206452 50.5179871 22.5403871 50.5179871 22.6621935 50.5107613 22.7819355 50.5107613 22.916129 50.5107613 23.0503226 50.4591484 23.1741935L49.5920516 27.8916129C49.5858581 28.0505806 49.7107613 28.1847742 49.869729 28.192 49.8800516 28.192 49.8914065 28.192 49.901729 28.1909677L50.6346323 28.1909677C50.8359226 28.1858065 51.0103742 28.0526452 51.0681806 27.8606452L51.9559226 23.2268387C52.0044387 22.9698065 52.0281806 22.7107097 52.0281806 22.4526452 52.0292129 22.1574194 51.9848258 21.8642581 51.8939871 21.5845161 51.8083097 21.3274839 51.6679226 21.0900645 51.4810839 20.8929032L51.501729 20.8412903zM66.2939871 20.6658065C66.2950194 20.5089032 66.1732129 20.3778065 66.0152774 20.3664516L65.5610839 20.2941935 65.0862452 20.2425806 64.5185032 20.2425806 63.7659871 20.2425806C63.3799226 20.2436129 62.9969548 20.2776774 62.6191484 20.3458065 62.2568258 20.4036129 61.9068903 20.5264516 61.5868903 20.7070968 61.2926968 20.8774194 61.0418581 21.1148387 60.8539871 21.3987097 60.6516645 21.7228387 60.5515355 22.1006452 60.5649548 22.4825806 60.6516645 23.2588387 61.1419871 23.9298065 61.8552774 24.2477419L63.1972129 25.0735484C63.4552774 25.2056774 63.6885677 25.380129 63.8888258 25.5896774 63.9910194 25.7083871 64.0488258 25.8570323 64.0539871 26.0129032 64.0746323 26.3741935 63.8867613 26.715871 63.5688258 26.8903226 63.4046968 26.980129 63.2271484 27.044129 63.0423742 27.076129 62.8348903 27.1184516 62.6243097 27.1390968 62.4126968 27.1380645L61.9275355 27.1380645 61.3081806 27.1380645 60.6692129 27.0864516 60.0797935 27.0348387 59.9765677 27.0348387C59.8041806 27.0152258 59.6472774 27.1329032 59.6152774 27.3032258L59.5223742 27.7987097C59.5130839 27.8874839 59.5523097 27.9741935 59.6256 28.0258065 59.6906323 28.0629677 59.7597935 28.0908387 59.8320516 28.1083871L60.4101161 28.2116129 61.0501161 28.2735484 61.669471 28.2735484 62.2176 28.2735484C62.629471 28.2735484 63.0403097 28.2312258 63.4449548 28.1496774 63.8093419 28.0753548 64.1582452 27.9390968 64.4772129 27.7470968 64.781729 27.5633548 65.0366968 27.3083871 65.2204387 27.003871 65.4186323 26.6477419 65.5146323 26.244129 65.4991484 25.8374194 65.4981161 25.5122581 65.3979871 25.1953548 65.2101161 24.9290323 64.9283097 24.5605161 64.5783742 24.2529032 64.1778581 24.0206452L62.8049548 23.1845161C62.5892129 23.0585806 62.3889548 22.9109677 62.2062452 22.7406452 62.0844387 22.6332903 62.0132129 22.4794839 62.0101161 22.3174194 62.0163097 22.1667097 62.0710194 22.0221935 62.1649548 21.9045161 62.2630194 21.7858065 62.3868903 21.6908387 62.5262452 21.6258065 62.6841806 21.5525161 62.8503742 21.5050323 63.021729 21.4812903 63.1972129 21.4689032 63.373729 21.4689032 63.5492129 21.4812903L64.7765677 21.4812903 65.8088258 21.563871 65.8604387 21.563871C66.0441806 21.5772903 66.2062452 21.4461935 66.2320516 21.2645161L66.3043097 20.8 66.3043097 20.6658065 66.2939871 20.6658065zM57.2823742 26.3535484C56.9272774 26.5806452 56.5546323 26.7767742 56.1675355 26.9419355 55.8403097 27.0781935 55.4893419 27.1483871 55.1352774 27.1483871 54.4870194 27.1907097 53.9265032 26.6993548 53.8852129 26.0510968 53.8779871 25.9437419 53.8852129 25.8384516 53.9068903 25.7341935L53.9068903 25.4141935 53.9068903 25.0941935 54.1856 23.6490323C54.2723097 23.0183226 54.5582452 22.4330323 55.0010839 21.9767742 55.4914065 21.5690323 56.1200516 21.3656774 56.7559226 21.4090323 57.0274065 21.3935484 57.2999226 21.3935484 57.5714065 21.4090323L58.1391484 21.4916129 57.2823742 26.3535484zM59.8010839 20.8516129C59.7752774 20.6895484 59.6348903 20.5708387 59.4707613 20.5729032 59.0485677 20.4717419 58.6212129 20.3912258 58.1907613 20.3354839 57.7283097 20.2745806 57.2637935 20.2436129 56.7972129 20.2425806 56.3450839 20.2415484 55.8939871 20.2972903 55.4552774 20.4077419 55.0289548 20.5150968 54.6263742 20.699871 54.2681806 20.9548387 53.8945032 21.2335484 53.5827613 21.5845161 53.349471 21.9870968 53.0656 22.464 52.8705032 22.9894194 52.7714065 23.5354839L52.5030194 24.9290323C52.4421161 25.2098065 52.4111484 25.4978065 52.4101161 25.7858065 52.4028903 26.1770323 52.4689548 26.5651613 52.6062452 26.9316129 52.7228903 27.2309677 52.9025032 27.5014194 53.1326968 27.7264516 53.3546323 27.9349677 53.6188903 28.0929032 53.9068903 28.1909677 54.2093419 28.2941935 54.5272774 28.3458065 54.8462452 28.3458065 55.0764387 28.3643871 55.3076645 28.3643871 55.5378581 28.3458065 55.7432774 28.315871 55.9435355 28.2642581 56.1365677 28.1909677 56.3368258 28.1176774 56.5298581 28.027871 56.7146323 27.9225806L57.1997935 27.6335484 57.1997935 27.9122581 57.1997935 27.8916129C57.1987613 27.9618065 57.2204387 28.0309677 57.261729 28.0877419 57.3216 28.1548387 57.4093419 28.1899355 57.4991484 28.1806452L58.0359226 28.1806452C58.1350194 28.1806452 58.2310194 28.1434839 58.3043097 28.0774194 58.3786323 28.0196129 58.4323097 27.940129 58.4591484 27.8503226L59.7701161 20.9341935C59.7845677 20.9042581 59.7948903 20.8732903 59.8010839 20.8412903L59.8010839 20.8516129zM39.9301161 21.5225806L41.5197935 21.5225806C41.6188903 21.5225806 41.7148903 21.4854194 41.7881806 21.4203871 41.8635355 21.3584516 41.9182452 21.275871 41.9430194 21.1819355L42.0359226 20.6967742 42.0359226 20.6658065C42.0421161 20.5068387 41.9172129 20.3726452 41.7582452 20.3654194 41.7479226 20.3654194 41.7365677 20.3654194 41.7262452 20.3664516L40.1675355 20.3664516 40.3843097 19.1896774C40.3956645 19.0534194 40.2945032 18.9336774 40.1582452 18.9223226 40.1479226 18.9212903 40.1365677 18.9212903 40.1262452 18.9212903L39.3107613 19.0348387C39.117729 19.0451613 38.9556645 19.1855484 38.9185032 19.3754839L38.7326968 20.4077419 37.7004387 20.4077419C37.6075355 20.4046452 37.5166968 20.4335484 37.4423742 20.4903226 37.3732129 20.5460645 37.3216 20.6214194 37.2978581 20.7070968L37.2256 21.0890323C37.2307613 21.248 37.3649548 21.3739355 37.5249548 21.3677419L37.5249548 21.3677419 38.4230194 21.5122581 37.5043097 26.3535484 37.5043097 26.6425806C37.4991484 26.7323871 37.4991484 26.8221935 37.5043097 26.9109677 37.4671484 27.3527742 37.6828903 27.776 38.061729 28.0051613 38.4674065 28.224 38.9236645 28.3313548 39.3830194 28.3148387L39.8578581 28.3148387 40.3430194 28.3148387C40.4410839 28.3076129 40.5339871 28.2714839 40.6114065 28.2116129 40.6650839 28.1610323 40.7032774 28.096 40.7249548 28.0258065L40.8178581 27.52 40.8178581 27.3754839C40.8281806 27.2949677 40.7806968 27.2185806 40.7043097 27.1896774 40.6465032 27.1793548 40.5866323 27.1793548 40.5288258 27.1896774L39.5997935 27.1896774C39.4284387 27.2 39.2570839 27.1793548 39.0939871 27.1277419 38.9938581 27.0585806 38.9453419 26.9367742 38.9701161 26.8180645 38.9587613 26.688 38.9587613 26.555871 38.9701161 26.4258065L39.9301161 21.5225806zM14.3714065 21.4606452C14.5726968 21.4926452 14.7636645 21.3605161 14.8049548 21.1623226L14.9081806 20.5729032 14.9081806 20.5006452C14.8999226 20.3416774 14.7626323 20.2188387 14.6036645 20.228129 14.5912774 20.228129 14.5799226 20.2301935 14.5675355 20.2322581 14.1990194 20.2322581 13.8325677 20.2735484 13.4733419 20.356129 13.1037935 20.4562581 12.7548903 20.6203871 12.4410839 20.8412903L12.4410839 20.6864516 12.4410839 20.6658065C12.453471 20.5130323 12.3378581 20.3788387 12.1850839 20.3664516 12.1706323 20.3654194 12.1561806 20.3654194 12.141729 20.3664516L11.429471 20.3664516C11.3303742 20.3643871 11.2333419 20.4015484 11.1610839 20.4696774 11.085729 20.5254194 11.0310194 20.6059355 11.0062452 20.6967742L9.6539871 27.9225806 9.6539871 27.8916129C9.64779355 28.0454194 9.76753548 28.1744516 9.92134194 28.1806452 9.93269677 28.1816774 9.94301935 28.1816774 9.95334194 28.1806452L10.6965677 28.1806452C10.7946323 28.1806452 10.8885677 28.1476129 10.9649548 28.0877419 11.0444387 28.0289032 11.1022452 27.9452903 11.1301161 27.8503226L12.2346323 21.9767742C12.5587613 21.792 12.9056 21.6485161 13.2668903 21.5535484 13.6323097 21.4647742 14.0059871 21.4224516 14.381729 21.4296774L14.3714065 21.4606452zM44.7610839 18.7974194L44.7610839 18.7458065C44.7672774 18.5858065 44.6434065 18.4526452 44.4834065 18.4464516 44.4730839 18.4454194 44.461729 18.4464516 44.4514065 18.4464516L43.6772129 18.4464516C43.5781161 18.4485161 43.4831484 18.4846452 43.4088258 18.5496774 43.3324387 18.6095484 43.277729 18.6931613 43.2539871 18.7870968L43.1714065 19.396129 43.1714065 19.4580645C43.1652129 19.6170323 43.2901161 19.7512258 43.4490839 19.7574194 43.4604387 19.7584516 43.4707613 19.7584516 43.4810839 19.7574194L44.2552774 19.7574194C44.4545032 19.7491613 44.6279226 19.6170323 44.6888258 19.4270968L44.7610839 18.7974194zM19.0062452 26.9832258L18.6449548 27.0451613 18.1804387 27.0451613 17.7262452 27.0451613 17.3443097 27.0451613C16.9107613 27.0812903 16.4772129 26.980129 16.1056 26.756129 15.8206968 26.4929032 15.6751484 26.1099355 15.7133419 25.723871L15.7133419 25.2593548C15.7308903 25.0818065 15.7587613 24.9063226 15.7959226 24.7329032L15.9920516 23.7006452C16.0818581 23.035871 16.3688258 22.4134194 16.8178581 21.9148387 17.2576 21.5184516 17.8366968 21.3140645 18.4281806 21.3470968 18.733729 21.3316129 19.0413419 21.3316129 19.3468903 21.3470968L20.0178581 21.44 19.0062452 26.9832258zM21.2978581 20.5625806C20.9572129 20.4903226 20.5339871 20.4180645 20.0488258 20.3458065 19.5770839 20.2766452 19.1012129 20.2425806 18.6243097 20.2425806 18.1061161 20.2353548 17.5889548 20.2983226 17.0862452 20.4283871 16.6485677 20.5450323 16.2408258 20.7525161 15.8888258 21.0374194 15.5296 21.3336774 15.2385032 21.7042581 15.0320516 22.1212903 14.7812129 22.6374194 14.6036645 23.1865806 14.5056 23.7522581L14.309471 24.7845161C14.2496 25.0972903 14.2176 25.4162581 14.2165677 25.7341935 14.2062452 26.1336774 14.2805677 26.532129 14.4333419 26.9006452 14.5706323 27.2134194 14.7791484 27.4890323 15.0423742 27.7058065 15.3138581 27.9215484 15.6266323 28.0805161 15.9610839 28.1703226 16.3378581 28.2745806 16.7270194 28.3261935 17.1172129 28.3251613L17.5197935 28.3251613 18.0049548 28.3251613 18.4797935 28.2632258 18.7585032 28.2632258 18.7585032 28.3251613C18.7099871 28.5945806 18.6336 28.8567742 18.5314065 29.1096774 18.4539871 29.3016774 18.3290839 29.472 18.1701161 29.6051613 18.0028903 29.7352258 17.8088258 29.8270968 17.6023742 29.8735484 17.3246968 29.9354839 17.0408258 29.9623226 16.7559226 29.956129L16.0952774 29.956129 15.3830194 29.956129 14.7223742 29.956129 14.2268903 29.9045161 14.1752774 29.9045161C14.0875355 29.9003871 13.9997935 29.9261935 13.9275355 29.9767742 13.8542452 30.0242581 13.8036645 30.0985806 13.7830194 30.1832258L13.6901161 30.6787097C13.7138581 30.8356129 13.8418581 30.9553548 13.9997935 30.9687742 14.3394065 31.0513548 14.6841806 31.1091613 15.0320516 31.1432258 15.5502452 31.2030968 16.069471 31.2299355 16.5907613 31.2268387 17.0759226 31.2330323 17.5600516 31.1917419 18.0359226 31.1019355 18.4085677 31.0234839 18.7595355 30.8696774 19.0681806 30.6477419 19.3788903 30.4123871 19.629729 30.1089032 19.8010839 29.76 20.0147613 29.3233548 20.1644387 28.8578065 20.2449548 28.3767742L21.6075355 21.1509677C21.6106323 21.1272258 21.6106323 21.1024516 21.6075355 21.0787097 21.7045677 20.9176774 21.6529548 20.708129 21.4919226 20.6110968 21.4341161 20.576 21.3659871 20.5594839 21.2978581 20.5625806L21.2978581 20.5625806zM61.4841806 3.81956129C58.0942452 4.23865806 54.7311484 4.84562581 51.4093419 5.63633548 58.7579871 5.41956129 66.7166968 5.45052903 72.6625032 5.63633548 72.5696 4.94472258 72.0235355 4.14988387 70.4225032 4.14988387L69.3902452 4.14988387C69.5461161 4.44820645 69.429471 4.81569032 69.1311484 4.97052903 68.8957935 5.09336774 68.6077935 5.04898065 68.4209548 4.86214194 68.1742452 4.66704516 68.1329548 4.30988387 68.3280516 4.06420645 68.3837935 3.99504516 68.4539871 3.93930323 68.533471 3.90214194 68.9154065 3.63375484 69.565729 3.24149677 69.8764387 3.0144 71.1357935 2.21956129 70.9086968 1.07375484 69.2880516.949883871 65.2508903.640206452 58.0364387.227303226 55.1863742.000206451613 55.1244387.000206451613 55.0831484.000206451613 55.1357935.0621419355 57.4883097 1.34214194 59.6354065 1.45569032 62.0003097 2.33310968 63.3422452 2.85956129 63.0738581 3.55117419 61.4841806 3.81956129M87.2382968 14.0594581L87.2382968 14.0594581C88.5152 15.3652645 89.2904258 17.0788129 89.4266839 18.9007484 89.7115871 23.0772645 86.5632 26.6963613 82.3877161 26.9936516 80.4997161 27.1278452 78.6302968 26.5446194 77.1531355 25.3626839 80.1982968 28.2251355 84.9859097 28.0775226 87.8493935 25.031329 89.3028129 23.4850065 90.0408774 21.3998452 89.8819097 19.2826839 89.7260387 17.2594581 88.7804903 15.3797161 87.2496516 14.0491355L87.2382968 14.0594581zM73.8088258 22.7303226C73.5827613 22.852129 73.4991484 23.1349677 73.6209548 23.36 73.6250839 23.3672258 73.6292129 23.3734194 73.6333419 23.3806452 73.7468903 23.6593548 73.9326968 23.7935484 74.1185032 23.7006452 74.3043097 23.6077419 74.2939871 23.5148387 74.2320516 23.1741935L74.2320516 23.0503226C74.1845677 22.8459355 74.1845677 22.6343226 74.2320516 22.4309677 74.2475355 22.2792258 74.3538581 22.1522581 74.5004387 22.1109677 74.861729 22.0025806 75.2405677 22.2069677 75.3489548 22.5682581 75.3561806 22.5940645 75.3634065 22.6209032 75.3675355 22.6477419 75.5946323 23.0100645 75.4862452 23.4869677 75.1239226 23.7150968 75.1022452 23.7285161 75.0805677 23.7409032 75.0578581 23.7522581L74.9546323 23.4735484C75.2044387 23.36 75.3148903 23.0668387 75.2023742 22.8180645 75.1879226 22.7870968 75.1703742 22.7571613 75.1507613 22.7303226 75.0268903 22.4103226 74.8410839 22.2658065 74.6243097 22.3483871 74.4498581 22.4867097 74.3941161 22.7261935 74.4901161 22.9264516L74.4901161 23.0812903 74.4901161 23.2154839C74.5231484 23.3651613 74.5231484 23.5210323 74.4901161 23.6696774 74.4539871 23.803871 74.3528258 23.9132903 74.221729 23.9587097 73.8893419 24.0619355 73.5363097 23.8750968 73.4341161 23.5437419 73.4268903 23.5210323 73.4206968 23.4972903 73.4165677 23.4735484 73.2163097 23.1618065 73.3061161 22.7468387 73.6168258 22.5455484 73.6426323 22.5300645 73.6684387 22.5156129 73.6952774 22.5032258L73.8088258 22.7303226z"/>
    <polygon points="73.592 19.964 74.728 18.994 74.748 19.355 73.757 20.159 74.088 20.51 74.769 20.491 74.779 20.759 72.818 20.81 72.818 20.522 73.582 20.522 73.788 20.522 73.726 20.449 73.664 20.356 72.787 19.448 72.787 19.066"/>
    <path d="M74.448929,16.928929 L75.1921548,17.1973161 L75.1095742,17.4450581 L74.3560258,17.1973161 L73.0037677,17.568929 L73.1276387,17.2282839 L73.9637677,17.0115097 L74.0669935,17.0115097 L74.2115097,16.9506065 C74.1557677,16.8876387 74.1031226,16.8215742 74.056671,16.7534452 L73.5198968,16.0928 L73.6231226,15.7728 L74.4386065,16.928929 L74.448929,16.928929 Z"/>
    <polygon points="75.771 13.337 75.358 13.832 76.596 14.833 76.307 15.215 75.068 14.214 74.656 14.699 74.367 14.482 75.501 13.099"/>
    <polygon points="78.413 11.499 77.422 12.078 77.638 12.408 78.536 11.892 78.702 12.181 77.804 12.697 78.051 13.141 79.042 12.532 79.238 12.852 77.824 13.667 76.833 11.985 78.227 11.159"/>
    <path d="M82.1908645 12.2736516L81.6850581 12.2736516 81.4269935 11.8504258 80.6424774 11.9846194 80.528929 12.4697806 80.0334452 12.583329 80.5495742 10.4465548 81.0244129 10.3742968 82.1805419 12.2426839 82.1908645 12.2736516zM81.0760258 11.2413935C80.9624774 11.0452645 80.9315097 10.9626839 80.8592516 10.8284903 80.8458323 10.9812645 80.8220903 11.1330065 80.7869935 11.2826839L80.6940903 11.6439742 81.2721548 11.5613935 81.0760258 11.2413935zM85.328929 12.8619355L84.8747355 12.6967742 85.0295742 12.1187097C85.0615742 12.027871 85.0863484 11.9349677 85.1018323 11.84 85.1018323 11.7367742 85.1740903 11.6335484 85.1844129 11.5612903 85.2205419 11.4818065 85.2473806 11.3992258 85.2659613 11.3135484L85.2659613 11.1896774C85.1844129 11.332129 85.0946065 11.4694194 84.9986065 11.6025806 84.9635097 11.6717419 84.9211871 11.7378065 84.8747355 11.7987097L84.3276387 12.5729032 83.9663484 12.48 83.8424774 11.5509677 83.8424774 11.3445161C83.8352516 11.2516129 83.8352516 11.1587097 83.8424774 11.0658065L83.8424774 10.8180645 83.8424774 11.0554839C83.7908645 11.3135484 83.7588645 11.4064516 83.6773161 11.7367742L83.5224774 12.3664516 83.088929 12.283871 83.5947355 10.3432258 84.2450581 10.4567742 84.3482839 11.3754839C84.3637677 11.5850323 84.3637677 11.7956129 84.3482839 12.0051613L84.5237677 11.7058065 84.6786065 11.4787097 85.1947355 10.7354839 85.8140903 10.9316129 85.2979613 12.8412903 85.328929 12.8619355zM81.5920516 16.6395871C81.3649548 16.8460387 80.8901161 17.3012645 80.4359226 17.7441032L79.9197935 18.2292645C79.5058581 18.1477161 79.0826323 18.1095226 78.6604387 18.1167484 77.8707613 18.0661677 77.0883097 18.2963613 76.4524387 18.767071 76.3068903 18.8992 76.2243097 19.0860387 76.2243097 19.2832 76.3089548 19.6341677 76.5711484 19.9170065 76.9159226 20.0253935 77.677729 20.3598452 78.5623742 20.2493935 79.2178581 19.7363613 79.6761806 19.3905548 80.1076645 19.0117161 80.5081806 18.6008774 80.8075355 18.6741677 81.1481806 18.7567484 81.5404387 18.8692645L81.8810839 18.9621677C81.4475355 19.3853935 80.9933419 19.8499097 80.5701161 20.2112 80.1293419 20.6860387 79.5750194 21.0411355 78.9597935 21.2434581 78.6831484 21.3208774 78.3868903 21.2992 78.1236645 21.1815226 78.4550194 21.5035871 78.9133419 21.6584258 79.3726968 21.6057806 80.0746323 21.4684903 80.7125677 21.1051355 81.189471 20.5735226L82.0668903 19.7157161 82.6759226 19.1170065 83.9146323 19.4782968 83.1404387 20.2225548 82.4901161 20.8512C82.0586323 21.3177806 81.581729 21.7399742 81.0656 22.1115871 80.5886968 22.5152 80.0034065 22.7701677 79.3830194 22.8444903 79.0671484 22.8806194 78.7471484 22.8228129 78.4643097 22.679329 78.8328258 23.0767484 79.3561806 23.2955871 79.8991484 23.2780387 80.9004387 23.151071 81.8170839 22.6535226 82.469471 21.8834581 82.9546323 21.4199742 83.501729 20.9337806 83.8939871 20.4589419L84.6991484 19.6434581C85.1997935 19.7632 85.7128258 19.8220387 86.2268903 19.8189419 86.8390194 19.9108129 87.4336 19.5691355 87.661729 18.9931355 87.6369548 18.7443613 87.4841806 18.5255226 87.2591484 18.4161032 86.9752774 18.2561032 86.6552774 18.1714581 86.3301161 18.167329 85.6653419 18.2003613 85.0315355 18.4594581 84.5339871 18.9002323L84.1314065 19.2832C84.0839226 19.2759742 84.0343742 19.2759742 83.9868903 19.2832L82.8101161 19.0034581C83.1507613 18.7154581 83.429471 18.4357161 83.6875355 18.2292645 84.1520516 17.7895226 84.7456 17.5077161 85.3804387 17.4251355 85.7314065 17.3869419 86.0865032 17.4354581 86.4126968 17.5686194 86.0256 17.207329 85.5074065 17.0163613 84.9778581 17.0432 84.325471 17.0628129 83.7009548 17.3105548 83.2126968 17.7441032 82.8101161 18.0641032 82.4271484 18.4088774 82.0668903 18.7763613L81.4475355 18.6008774 81.3236645 18.6008774 80.7456 18.4047484 81.0862452 18.0847484C81.4991484 17.6935226 81.8604387 17.3105548 82.1701161 17.0524903 82.7564387 16.4403613 83.5523097 16.0718452 84.3997935 16.0202323 84.8281806 16.0016516 85.2514065 16.1090065 85.6178581 16.3299097 85.1595355 15.8282323 84.5009548 15.5557161 83.821729 15.5866839 82.9804387 15.6579097 82.1907613 16.023329 81.5920516 16.6189419L81.5920516 16.6395871zM77.3597935 19.8819097C77.0098581 19.8819097 76.8333419 19.7260387 76.8333419 19.4576516 76.8333419 19.3957161 76.8333419 18.5595871 78.8256 18.4253935 79.1063742 18.3841032 79.3912774 18.3841032 79.6720516 18.4253935 79.5946323 18.4852645 79.5223742 18.551329 79.4552774 18.6215226L79.3324387 18.7257806C78.8245677 19.3141677 78.1267613 19.7053935 77.3597935 19.8302968L77.3597935 19.8819097zM85.2875355 19.1902968C85.6632774 18.8744258 86.1226323 18.6741677 86.6088258 18.6112 86.7874065 18.5740387 86.9628903 18.6875871 87.0000516 18.8661677 87.0000516 18.8672 87.0010839 18.8682323 87.0010839 18.8692645 86.9288258 19.1665548 86.6852129 19.3915871 86.381729 19.4370065 85.8883097 19.5577806 85.3783742 19.5887484 84.8746323 19.5309419 85.0077935 19.4029419 85.1523097 19.2883613 85.3081806 19.1902968L85.2875355 19.1902968zM81.3965419 19.5922581L81.3965419 20.1703226 81.3965419 19.5922581zM86.0719484 11.2827871C86.1452387 11.1217548 86.3351742 11.0494968 86.4951742 11.1227871 86.4993032 11.1248516 86.5024 11.1258839 86.5054968 11.1279484 86.6603355 11.1847226 86.7398194 11.3571097 86.6830452 11.5119484 86.6799484 11.5212387 86.6758194 11.5315613 86.6706581 11.5408516 86.6004645 11.7039484 86.4125935 11.7803355 86.2474323 11.7163355 86.0925935 11.6378839 86.0172387 11.458271 86.0719484 11.2931097L86.0719484 11.2827871zM86.6190452 11.5408516C86.690271 11.4169806 86.6479484 11.2590452 86.5230452 11.1888516 86.5178839 11.1857548 86.5116903 11.1816258 86.5054968 11.1795613 86.4012387 11.1000774 86.2525935 11.1196903 86.1731097 11.2239484 86.1617548 11.2394323 86.1514323 11.2549161 86.1442065 11.2724645 86.0760774 11.4045935 86.1153032 11.5676903 86.2371097 11.6544 86.378529 11.7080774 86.5364645 11.6564645 86.6190452 11.530529L86.6190452 11.5408516zM86.434271 11.6337548L86.3713032 11.6337548 86.3713032 11.4376258 86.3000774 11.5718194 86.4642065 11.2518194 86.5880774 11.3344C86.6603355 11.3344 86.7016258 11.3963355 86.6603355 11.4685935 86.6283355 11.5088516 86.5694968 11.5150452 86.5292387 11.4820129 86.5240774 11.4778839 86.5209806 11.4737548 86.5168516 11.4685935L86.5168516 11.6544 86.434271 11.6337548zM86.434271 11.3756903L86.5581419 11.3756903C86.5880774 11.3756903 86.5581419 11.3137548 86.5581419 11.3137548L86.4848516 11.3137548 86.4848516 11.3756903 86.434271 11.3756903z"/>
  </g>
</svg>
