<svg xmlns="http://www.w3.org/2000/svg" width="124" height="48" viewBox="0 0 124 48">
  <g fill="#EFF" fill-rule="evenodd" transform="translate(0 3)">
    <path d="M17.4162,27.2212 C17.4162,28.5252 16.3562,29.5852 15.0502,29.5852 C13.7462,29.5852 12.6862,28.5252 12.6862,27.2212 C12.6862,25.9152 13.7462,24.8552 15.0502,24.8552 C16.3562,24.8552 17.4162,25.9152 17.4162,27.2212 Z"/>
    <path d="M0 39.063L1.726 39.063C3.876 39.063 4.412 38.225 4.862 37.031L17.192.001 17.768.001 31.316 39.063 35.888 39.063 35.888 40.001 19.74 40.001 19.74 39.063 25.078 39.063 15.028 9.207 6.506 35.567C6.176 36.701 5.958 37.665 6.342 38.243 6.784 38.905 7.786 39.063 9.196 39.063L11.374 39.063 11.374 40.001 0 40.001 0 39.063zM46.8546 7.319L45.3986 10.519 48.3186 10.519 46.8546 7.319zM50.1446 13.309L49.5946 13.309 48.5186 10.955 45.2006 10.955 44.1246 13.309 43.5746 13.309 46.7146 6.461 47.0046 6.461 50.1446 13.309zM53.0626 9.6412C52.5646 9.3132 52.2346 9.1832 51.8366 9.1832 51.2986 9.1832 50.8806 9.5132 50.8806 9.9392 50.8806 11.0152 53.2026 10.6072 53.2026 12.1632 53.2026 12.8592 52.5646 13.3972 51.7366 13.3972 51.2786 13.3972 50.8506 13.2672 50.3926 12.9892L50.3926 12.5192C50.9786 12.8192 51.3686 12.9312 51.7966 12.9312 52.3446 12.9312 52.7446 12.6112 52.7446 12.1532 52.7446 11.0852 50.4226 11.4052 50.4226 9.9712 50.4226 9.2812 51.0586 8.7452 51.8666 8.7452 52.2566 8.7452 52.6126 8.8632 53.0626 9.1232L53.0626 9.6412zM55.8126 9.2134C54.7966 9.2134 54.0386 10.0014 54.0386 11.0774 54.0386 12.1414 54.7966 12.9294 55.8126 12.9294 56.8186 12.9294 57.5766 12.1414 57.5766 11.0774 57.5766 10.0094 56.8186 9.2134 55.8126 9.2134M55.8126 13.3974C54.5086 13.3974 53.5306 12.4014 53.5306 11.0774 53.5306 9.7414 54.5086 8.7454 55.8126 8.7454 57.1186 8.7454 58.0846 9.7414 58.0846 11.0774 58.0846 12.4014 57.1186 13.3974 55.8126 13.3974M61.8916 9.4908C61.3736 9.2728 61.1036 9.2128 60.7256 9.2128 59.7296 9.2128 59.0416 9.9708 59.0416 11.0848 59.0416 12.2128 59.7096 12.9308 60.7656 12.9308 61.1756 12.9308 61.4736 12.8688 61.9716 12.6708L61.9716 13.1688C61.4636 13.3388 61.1436 13.3968 60.7256 13.3968 59.4116 13.3968 58.5336 12.4908 58.5336 11.1348 58.5336 9.7308 59.4316 8.7448 60.7056 8.7448 61.0956 8.7448 61.3936 8.8028 61.8916 8.9628L61.8916 9.4908zM62.57 13.31L63.048 13.31 63.048 8.836 62.57 8.836 62.57 13.31zM62.57 7.328L63.048 7.328 63.048 6.512 62.57 6.512 62.57 7.328zM66.5158 11.026C65.3498 10.978 64.3838 11.484 64.3838 12.262 64.3838 12.68 64.7618 12.998 65.2698 12.998 65.6978 12.998 66.0478 12.84 66.5158 12.42L66.5158 11.026zM67.7418 12.93L67.6618 12.988C67.2138 13.328 67.0238 13.398 66.8338 13.398 66.6158 13.398 66.5558 13.288 66.5158 12.84 66.0178 13.23 65.5878 13.398 65.1098 13.398 64.4318 13.398 63.9038 12.89 63.9038 12.262 63.9038 11.096 65.2098 10.686 66.5158 10.628L66.5158 10.06C66.5158 9.462 66.1858 9.144 65.5178 9.144 65.0418 9.144 64.6818 9.314 64.1538 9.712L64.1538 9.222C64.7018 8.884 65.1098 8.744 65.5998 8.744 66.1558 8.744 66.9938 8.974 66.9938 9.91L66.9938 12.7C66.9938 12.88 67.0238 12.93 67.1018 12.93 67.2138 12.93 67.5018 12.72 67.7418 12.532L67.7418 12.93zM70.9806 9.4908C70.4626 9.2728 70.1926 9.2128 69.8146 9.2128 68.8166 9.2128 68.1306 9.9708 68.1306 11.0848 68.1306 12.2128 68.7986 12.9308 69.8546 12.9308 70.2626 12.9308 70.5626 12.8688 71.0606 12.6708L71.0606 13.1688C70.5526 13.3388 70.2326 13.3968 69.8146 13.3968 68.4986 13.3968 67.6206 12.4908 67.6206 11.1348 67.6206 9.7308 68.5186 8.7448 69.7946 8.7448 70.1826 8.7448 70.4806 8.8028 70.9806 8.9628L70.9806 9.4908zM71.658 13.31L72.136 13.31 72.136 8.836 71.658 8.836 71.658 13.31zM71.658 7.328L72.136 7.328 72.136 6.512 71.658 6.512 71.658 7.328zM75.335 8.1158L75.005 8.1158 76.043 6.5618 76.849 6.5618 75.335 8.1158zM75.135 9.2138C74.119 9.2138 73.363 9.9998 73.363 11.0758 73.363 12.1418 74.119 12.9298 75.135 12.9298 76.141 12.9298 76.899 12.1418 76.899 11.0758 76.899 10.0098 76.141 9.2138 75.135 9.2138L75.135 9.2138zM75.135 13.3978C73.831 13.3978 72.853 12.4018 72.853 11.0758 72.853 9.7398 73.831 8.7438 75.135 8.7438 76.441 8.7438 77.407 9.7398 77.407 11.0758 77.407 12.4018 76.441 13.3978 75.135 13.3978L75.135 13.3978zM78.5342 9.61L78.5522 9.61C78.9722 8.984 79.3802 8.744 80.0282 8.744 80.9842 8.744 81.6922 9.372 81.6922 10.578L81.6922 13.31 81.2142 13.31 81.2142 10.756C81.2142 9.75 80.7862 9.214 79.9982 9.214 79.3502 9.214 78.9322 9.522 78.5342 10.168L78.5342 13.31 78.0542 13.31 78.0542 8.834 78.5342 8.834 78.5342 9.61zM88.6876 9.6314C88.1996 9.3234 87.8516 9.2134 87.3816 9.2134 86.3476 9.2134 85.6076 9.9714 85.6076 11.0354 85.6076 12.1234 86.4056 12.9294 87.4816 12.9294 87.9316 12.9294 88.2296 12.8314 88.6876 12.5194L88.6876 9.6314zM89.1656 13.3094L88.6876 13.3094 88.6876 12.9594C88.2096 13.2874 87.8716 13.3974 87.3616 13.3974 86.0876 13.3974 85.1016 12.3814 85.1016 11.0674 85.1016 9.7314 86.0576 8.7454 87.3616 8.7454 87.8216 8.7454 88.1416 8.8354 88.6876 9.1034L88.6876 6.5114 89.1656 6.5114 89.1656 13.3094zM93.2422 10.5182C93.0722 9.6422 92.5942 9.2142 91.8262 9.2142 91.0902 9.2142 90.5122 9.7022 90.3422 10.5182L93.2422 10.5182zM90.2842 10.9062C90.1422 12.0542 91.0502 12.9302 92.0662 12.9302 92.6642 12.9302 93.1542 12.7302 93.7302 12.2622L93.7302 12.8022C93.2022 13.2102 92.6542 13.3962 92.0062 13.3962 90.7102 13.3962 89.7742 12.4002 89.7742 11.0162 89.7742 9.7022 90.6422 8.7442 91.8262 8.7442 92.7842 8.7442 93.8102 9.4122 93.8102 10.9062L90.2842 10.9062z"/>
    <polygon points="49.913 22.278 49.385 22.278 49.385 19.06 44.851 19.06 44.851 22.278 44.323 22.278 44.323 15.482 44.851 15.482 44.851 18.62 49.385 18.62 49.385 15.482 49.913 15.482"/>
    <path d="M53.003 18.1822C51.987 18.1822 51.229 18.9702 51.229 20.0462 51.229 21.1122 51.987 21.8982 53.003 21.8982 54.009 21.8982 54.767 21.1122 54.767 20.0462 54.767 18.9782 54.009 18.1822 53.003 18.1822M53.003 22.3682C51.697 22.3682 50.721 21.3702 50.721 20.0462 50.721 18.7102 51.697 17.7142 53.003 17.7142 54.307 17.7142 55.275 18.7102 55.275 20.0462 55.275 21.3702 54.307 22.3682 53.003 22.3682M56.799 17.8032L58.055 17.8032 58.055 18.1912 56.799 18.1912 56.799 20.8512C56.799 21.6192 56.809 21.8992 57.467 21.8992 57.737 21.8992 57.885 21.8572 58.285 21.6792L58.285 22.1372C58.195 22.1872 58.047 22.2392 57.877 22.2872 57.707 22.3292 57.517 22.3672 57.357 22.3672 56.859 22.3672 56.321 22.0892 56.321 21.4112L56.321 18.1912 55.115 18.1912 55.115 17.8032 56.321 17.8032 56.321 16.7372 56.651 16.3192 56.799 16.3192 56.799 17.8032zM61.9826 19.4868C61.8126 18.6108 61.3326 18.1828 60.5666 18.1828 59.8286 18.1828 59.2506 18.6708 59.0806 19.4868L61.9826 19.4868zM59.0226 19.8748C58.8826 21.0228 59.7886 21.8988 60.8066 21.8988 61.4046 21.8988 61.8926 21.6988 62.4706 21.2308L62.4706 21.7708C61.9406 22.1788 61.3946 22.3668 60.7466 22.3668 59.4506 22.3668 58.5146 21.3688 58.5146 19.9848 58.5146 18.6708 59.3806 17.7128 60.5666 17.7128 61.5246 17.7128 62.5506 18.3808 62.5506 19.8748L59.0226 19.8748z"/>
    <polygon points="63.386 22.278 63.864 22.278 63.864 15.482 63.386 15.482"/>
    <path d="M68.0304 19.4868C67.8624 18.6108 67.3824 18.1828 66.6144 18.1828 65.8784 18.1828 65.3004 18.6708 65.1304 19.4868L68.0304 19.4868zM65.0704 19.8748C64.9304 21.0228 65.8384 21.8988 66.8544 21.8988 67.4524 21.8988 67.9404 21.6988 68.5184 21.2308L68.5184 21.7708C67.9904 22.1788 67.4424 22.3668 66.7944 22.3668 65.4984 22.3668 64.5624 21.3688 64.5624 19.9848 64.5624 18.6708 65.4304 17.7128 66.6144 17.7128 67.5724 17.7128 68.5984 18.3808 68.5984 19.8748L65.0704 19.8748zM71.8174 18.61C71.3194 18.282 70.9894 18.152 70.5914 18.152 70.0534 18.152 69.6354 18.48 69.6354 18.908 69.6354 19.984 71.9574 19.576 71.9574 21.132 71.9574 21.828 71.3194 22.368 70.4914 22.368 70.0334 22.368 69.6054 22.238 69.1474 21.96L69.1474 21.49C69.7334 21.79 70.1234 21.9 70.5514 21.9 71.0994 21.9 71.4974 21.58 71.4974 21.122 71.4974 20.056 69.1754 20.374 69.1754 18.94 69.1754 18.25 69.8154 17.714 70.6214 17.714 71.0094 17.714 71.3674 17.832 71.8174 18.092L71.8174 18.61zM73.2726 22.067C73.2726 22.577 73.0626 23.123 72.6246 23.443L72.6246 23.095C72.8046 22.825 72.8326 22.615 72.8326 22.277L72.6246 22.277 72.6246 21.311 73.2726 21.311 73.2726 22.067zM76.7198 18.5786L77.8458 18.5786C79.0418 18.5786 79.6198 18.0626 79.6198 17.2466 79.6198 16.4766 79.0718 15.9186 77.8258 15.9186L76.7198 15.9186 76.7198 18.5786zM77.9358 15.4806C79.5998 15.4806 80.1878 16.3286 80.1878 17.2346 80.1878 18.0226 79.7598 18.5706 78.8918 18.8886 79.2118 19.0586 79.4798 19.4486 79.7998 19.9246L81.3338 22.2786 80.7178 22.2786 79.5298 20.4146C78.7138 19.1286 78.4538 19.0186 77.6358 19.0186L76.7198 19.0186 76.7198 22.2786 76.1918 22.2786 76.1918 15.4806 77.9358 15.4806z"/>
    <path d="M84.3838 19.4868C84.2138 18.6108 83.7358 18.1828 82.9678 18.1828 82.2318 18.1828 81.6518 18.6708 81.4838 19.4868L84.3838 19.4868zM81.4238 19.8748C81.2838 21.0228 82.1918 21.8988 83.2078 21.8988 83.8058 21.8988 84.2938 21.6988 84.8718 21.2308L84.8718 21.7708C84.3438 22.1788 83.7958 22.3668 83.1478 22.3668 81.8518 22.3668 80.9158 21.3688 80.9158 19.9848 80.9158 18.6708 81.7838 17.7128 82.9678 17.7128 83.9258 17.7128 84.9518 18.3808 84.9518 19.8748L81.4238 19.8748zM88.171 18.61C87.671 18.282 87.343 18.152 86.945 18.152 86.407 18.152 85.987 18.48 85.987 18.908 85.987 19.984 88.309 19.576 88.309 21.132 88.309 21.828 87.671 22.368 86.845 22.368 86.387 22.368 85.959 22.238 85.499 21.96L85.499 21.49C86.087 21.79 86.475 21.9 86.905 21.9 87.453 21.9 87.851 21.58 87.851 21.122 87.851 20.056 85.529 20.374 85.529 18.94 85.529 18.25 86.167 17.714 86.975 17.714 87.363 17.714 87.721 17.832 88.171 18.092L88.171 18.61z"/>
    <path d="M89.715 17.8032L90.969 17.8032 90.969 18.1912 89.715 18.1912 89.715 20.8512C89.715 21.6192 89.725 21.8992 90.381 21.8992 90.651 21.8992 90.801 21.8572 91.199 21.6792L91.199 22.1372C91.111 22.1872 90.961 22.2392 90.791 22.2872 90.623 22.3292 90.431 22.3672 90.273 22.3672 89.775 22.3672 89.237 22.0892 89.237 21.4112L89.237 18.1912 88.029 18.1912 88.029 17.8032 89.237 17.8032 89.237 16.7372 89.565 16.3192 89.715 16.3192 89.715 17.8032zM94.1994 19.9946C93.0334 19.9466 92.0674 20.4526 92.0674 21.2306 92.0674 21.6506 92.4454 21.9686 92.9534 21.9686 93.3814 21.9686 93.7314 21.8086 94.1994 21.3906L94.1994 19.9946zM95.4254 21.8986L95.3454 21.9586C94.8974 22.2966 94.7074 22.3686 94.5174 22.3686 94.2994 22.3686 94.2394 22.2586 94.1994 21.8086 93.6994 22.1986 93.2734 22.3686 92.7934 22.3686 92.1154 22.3686 91.5874 21.8586 91.5874 21.2306 91.5874 20.0646 92.8934 19.6566 94.1994 19.5966L94.1994 19.0306C94.1994 18.4306 93.8714 18.1126 93.2014 18.1126 92.7254 18.1126 92.3654 18.2826 91.8374 18.6806L91.8374 18.1926C92.3854 17.8526 92.7934 17.7126 93.2834 17.7126 93.8394 17.7126 94.6774 17.9426 94.6774 18.8786L94.6774 21.6706C94.6774 21.8486 94.7074 21.8986 94.7874 21.8986 94.8974 21.8986 95.1854 21.6906 95.4254 21.5006L95.4254 21.8986zM98.8624 21.5396L98.8424 21.5396C98.4344 22.1176 98.0664 22.3676 97.3684 22.3676 96.6004 22.3676 95.7044 21.9096 95.7044 20.5736L95.7044 17.8036 96.1824 17.8036 96.1824 20.5636C96.1824 21.4716 96.7504 21.8996 97.4084 21.8996 98.1144 21.8996 98.4744 21.5496 98.8624 20.9416L98.8624 17.8036 99.3404 17.8036 99.3404 22.2776 98.8624 22.2776 98.8624 21.5396zM102.8096 18.69C102.3796 18.302 102.1616 18.182 101.9116 18.182 101.4736 18.182 100.9656 18.64 100.4756 19.468L100.4756 22.278 99.9996 22.278 99.9996 17.804 100.4756 17.804 100.4756 18.98 100.4976 18.98C101.0256 18.142 101.5636 17.714 102.0616 17.714 102.3696 17.714 102.6496 17.852 103.0896 18.24L102.8096 18.69zM105.709 19.9946C104.543 19.9466 103.577 20.4526 103.577 21.2306 103.577 21.6506 103.955 21.9686 104.463 21.9686 104.893 21.9686 105.241 21.8086 105.709 21.3906L105.709 19.9946zM106.935 21.8986L106.855 21.9586C106.407 22.2966 106.217 22.3686 106.027 22.3686 105.809 22.3686 105.749 22.2586 105.709 21.8086 105.211 22.1986 104.783 22.3686 104.303 22.3686 103.625 22.3686 103.099 21.8586 103.099 21.2306 103.099 20.0646 104.403 19.6566 105.709 19.5966L105.709 19.0306C105.709 18.4306 105.379 18.1126 104.713 18.1126 104.233 18.1126 103.875 18.2826 103.347 18.6806L103.347 18.1926C103.895 17.8526 104.303 17.7126 104.793 17.7126 105.351 17.7126 106.187 17.9426 106.187 18.8786L106.187 21.6706C106.187 21.8486 106.217 21.8986 106.297 21.8986 106.407 21.8986 106.697 21.6906 106.935 21.5006L106.935 21.8986zM107.6914 18.5786L107.7114 18.5786C108.1294 17.9526 108.5394 17.7126 109.1874 17.7126 110.1434 17.7126 110.8514 18.3406 110.8514 19.5466L110.8514 22.2786 110.3734 22.2786 110.3734 19.7266C110.3734 18.7206 109.9434 18.1826 109.1574 18.1826 108.5094 18.1826 108.0914 18.4906 107.6914 19.1366L107.6914 22.2786 107.2134 22.2786 107.2134 17.8026 107.6914 17.8026 107.6914 18.5786zM112.376 17.8032L113.63 17.8032 113.63 18.1912 112.376 18.1912 112.376 20.8512C112.376 21.6192 112.386 21.8992 113.042 21.8992 113.312 21.8992 113.462 21.8572 113.86 21.6792L113.86 22.1372C113.77 22.1872 113.622 22.2392 113.452 22.2872 113.282 22.3292 113.092 22.3672 112.934 22.3672 112.434 22.3672 111.896 22.0892 111.896 21.4112L111.896 18.1912 110.692 18.1912 110.692 17.8032 111.896 17.8032 111.896 16.7372 112.226 16.3192 112.376 16.3192 112.376 17.8032zM117.3584 19.4868C117.1884 18.6108 116.7104 18.1828 115.9424 18.1828 115.2044 18.1828 114.6264 18.6708 114.4584 19.4868L117.3584 19.4868zM114.3984 19.8748C114.2584 21.0228 115.1664 21.8988 116.1824 21.8988 116.7784 21.8988 117.2684 21.6988 117.8464 21.2308L117.8464 21.7708C117.3184 22.1788 116.7704 22.3668 116.1224 22.3668 114.8264 22.3668 113.8904 21.3688 113.8904 19.9848 113.8904 18.6708 114.7564 17.7128 115.9424 17.7128 116.9004 17.7128 117.9264 18.3808 117.9264 19.8748L114.3984 19.8748zM121.1446 18.61C120.6466 18.282 120.3166 18.152 119.9186 18.152 119.3806 18.152 118.9626 18.48 118.9626 18.908 118.9626 19.984 121.2846 19.576 121.2846 21.132 121.2846 21.828 120.6466 22.368 119.8186 22.368 119.3606 22.368 118.9326 22.238 118.4746 21.96L118.4746 21.49C119.0626 21.79 119.4506 21.9 119.8786 21.9 120.4266 21.9 120.8266 21.58 120.8266 21.122 120.8266 20.056 118.5046 20.374 118.5046 18.94 118.5046 18.25 119.1426 17.714 119.9486 17.714 120.3386 17.714 120.6966 17.832 121.1446 18.092L121.1446 18.61zM122.5998 22.067C122.5998 22.577 122.3918 23.123 121.9518 23.443L121.9518 23.095C122.1318 22.825 122.1618 22.615 122.1618 22.277L121.9518 22.277 121.9518 21.311 122.5998 21.311 122.5998 22.067zM49.9834 25.5064C49.1374 25.0564 48.3694 24.8484 47.5614 24.8484 45.8674 24.8484 44.5914 26.1324 44.5914 27.8584 44.5914 29.6124 45.8574 30.8484 47.6314 30.8484 48.3994 30.8484 49.1274 30.6384 50.0534 30.1504L50.0534 30.6984C49.2654 31.1184 48.4294 31.3344 47.6414 31.3344 45.5674 31.3344 44.0254 29.8524 44.0254 27.8584 44.0254 25.7764 45.7274 24.3604 47.5914 24.3604 48.3494 24.3604 49.1554 24.5484 49.9834 24.9284L49.9834 25.5064zM52.584 27.151C51.568 27.151 50.81 27.939 50.81 29.015 50.81 30.081 51.568 30.867 52.584 30.867 53.59 30.867 54.348 30.081 54.348 29.015 54.348 27.947 53.59 27.151 52.584 27.151M52.584 31.335C51.278 31.335 50.302 30.339 50.302 29.015 50.302 27.679 51.278 26.683 52.584 26.683 53.89 26.683 54.856 27.679 54.856 29.015 54.856 30.339 53.89 31.335 52.584 31.335M55.9826 27.5494L56.0026 27.5494C56.4206 26.9234 56.8286 26.6814 57.4766 26.6814 58.4346 26.6814 59.1426 27.3114 59.1426 28.5154L59.1426 31.2474 58.6626 31.2474 58.6626 28.6934C58.6626 27.6874 58.2346 27.1514 57.4466 27.1514 56.7986 27.1514 56.3806 27.4594 55.9826 28.1054L55.9826 31.2474 55.5046 31.2474 55.5046 26.7714 55.9826 26.7714 55.9826 27.5494zM62.968 31.246L63.446 31.246 63.446 26.772 62.968 26.772 62.968 31.246zM61.712 27.16L60.786 27.16 60.786 31.246 60.306 31.246 60.306 27.16 59.49 27.16 59.49 26.772 60.306 26.772 60.306 26.214C60.306 25.006 60.876 24.36 61.912 24.36 62.848 24.36 63.406 24.818 63.446 25.616L62.968 25.616C62.918 25.028 62.5 24.758 61.932 24.758 61.134 24.758 60.786 25.196 60.786 26.214L60.786 26.772 61.712 26.772 61.712 27.16zM65.4396 26.772L66.6936 26.772 66.6936 27.16 65.4396 27.16 65.4396 29.82C65.4396 30.588 65.4496 30.868 66.1076 30.868 66.3756 30.868 66.5256 30.828 66.9236 30.646L66.9236 31.106C66.8336 31.156 66.6856 31.208 66.5156 31.256 66.3456 31.296 66.1556 31.334 65.9976 31.334 65.4996 31.334 64.9616 31.058 64.9616 30.38L64.9616 27.16 63.7556 27.16 63.7556 26.772 64.9616 26.772 64.9616 25.706 65.2896 25.286 65.4396 25.286 65.4396 26.772zM70.423 28.4556C70.253 27.5796 69.775 27.1516 69.007 27.1516 68.269 27.1516 67.691 27.6396 67.523 28.4556L70.423 28.4556zM67.463 28.8436C67.323 29.9916 68.229 30.8676 69.247 30.8676 69.843 30.8676 70.333 30.6676 70.911 30.1996L70.911 30.7396C70.381 31.1476 69.835 31.3336 69.187 31.3336 67.891 31.3336 66.955 30.3376 66.955 28.9536 66.955 27.6396 67.821 26.6816 69.007 26.6816 69.963 26.6816 70.989 27.3496 70.989 28.8436L67.463 28.8436zM74.3682 27.6588C73.9402 27.2708 73.7202 27.1508 73.4702 27.1508 73.0342 27.1508 72.5242 27.6088 72.0362 28.4368L72.0362 31.2468 71.5582 31.2468 71.5582 26.7728 72.0362 26.7728 72.0362 27.9488 72.0562 27.9488C72.5842 27.1108 73.1222 26.6828 73.6202 26.6828 73.9302 26.6828 74.2082 26.8228 74.6482 27.2108L74.3682 27.6588z"/>
    <path d="M74.9864 26.0532L74.6564 26.0532 75.6944 24.5012 76.5004 24.5012 74.9864 26.0532zM74.5464 31.2472L75.0264 31.2472 75.0264 26.7732 74.5464 26.7732 74.5464 31.2472zM78.295 28.9634C77.129 28.9154 76.161 29.4214 76.161 30.1994 76.161 30.6174 76.541 30.9374 77.049 30.9374 77.477 30.9374 77.827 30.7774 78.295 30.3594L78.295 28.9634zM79.521 30.8674L79.441 30.9274C78.991 31.2654 78.803 31.3354 78.613 31.3354 78.393 31.3354 78.335 31.2274 78.295 30.7774 77.795 31.1674 77.369 31.3354 76.889 31.3354 76.211 31.3354 75.683 30.8294 75.683 30.1994 75.683 29.0334 76.989 28.6254 78.295 28.5654L78.295 27.9974C78.295 27.3994 77.965 27.0814 77.299 27.0814 76.821 27.0814 76.461 27.2514 75.933 27.6494L75.933 27.1614C76.481 26.8234 76.889 26.6814 77.379 26.6814 77.935 26.6814 78.773 26.9114 78.773 27.8474L78.773 30.6394C78.773 30.8194 78.803 30.8674 78.881 30.8674 78.991 30.8674 79.281 30.6594 79.521 30.4694L79.521 30.8674zM82.46 27.5786C81.96 27.2506 81.632 27.1206 81.234 27.1206 80.696 27.1206 80.278 27.4486 80.278 27.8766 80.278 28.9526 82.598 28.5446 82.598 30.1006 82.598 30.7986 81.96 31.3346 81.134 31.3346 80.676 31.3346 80.248 31.2066 79.79 30.9286L79.79 30.4586C80.376 30.7586 80.766 30.8686 81.194 30.8686 81.744 30.8686 82.14 30.5486 82.14 30.0906 82.14 29.0246 79.82 29.3426 79.82 27.9066 79.82 27.2186 80.458 26.6826 81.264 26.6826 81.652 26.6826 82.012 26.8006 82.46 27.0606L82.46 27.5786z"/>
    <polygon points="86.148 33.538 85.658 33.538 87.224 30.38 85.34 26.772 85.838 26.772 87.462 29.902 89.008 26.772 89.496 26.772"/>
    <path d="M98.0558 25.5064C97.2098 25.0564 96.4418 24.8484 95.6338 24.8484 93.9398 24.8484 92.6638 26.1324 92.6638 27.8584 92.6638 29.6124 93.9298 30.8484 95.7038 30.8484 96.4718 30.8484 97.1998 30.6384 98.1258 30.1504L98.1258 30.6984C97.3378 31.1184 96.5018 31.3344 95.7138 31.3344 93.6398 31.3344 92.0978 29.8524 92.0978 27.8584 92.0978 25.7764 93.8018 24.3604 95.6638 24.3604 96.4218 24.3604 97.2278 24.5484 98.0558 24.9284L98.0558 25.5064zM101.1242 28.9634C99.9582 28.9154 98.9922 29.4214 98.9922 30.1994 98.9922 30.6174 99.3722 30.9374 99.8782 30.9374 100.3082 30.9374 100.6562 30.7774 101.1242 30.3594L101.1242 28.9634zM102.3502 30.8674L102.2702 30.9274C101.8222 31.2654 101.6322 31.3354 101.4442 31.3354 101.2242 31.3354 101.1662 31.2274 101.1242 30.7774 100.6262 31.1674 100.1982 31.3354 99.7202 31.3354 99.0422 31.3354 98.5142 30.8294 98.5142 30.1994 98.5142 29.0334 99.8182 28.6254 101.1242 28.5654L101.1242 27.9974C101.1242 27.3994 100.7962 27.0814 100.1282 27.0814 99.6502 27.0814 99.2922 27.2514 98.7622 27.6494L98.7622 27.1614C99.3122 26.8234 99.7202 26.6814 100.2082 26.6814 100.7662 26.6814 101.6022 26.9114 101.6022 27.8474L101.6022 30.6394C101.6022 30.8194 101.6322 30.8674 101.7122 30.8674 101.8222 30.8674 102.1122 30.6594 102.3502 30.4694L102.3502 30.8674zM105.3204 24.9966C104.9424 24.8686 104.7624 24.8286 104.5124 24.8286 103.7664 24.8286 103.4264 25.2686 103.4264 26.2126L103.4264 26.7726 104.2944 26.7726 104.2944 27.1606 103.4264 27.1606 103.4264 31.2466 102.9484 31.2466 102.9484 27.1606 102.1204 27.1606 102.1204 26.7726 102.9484 26.7726 102.9484 26.0346C102.9484 24.8766 103.7564 24.3606 104.5024 24.3606 104.7724 24.3606 104.9704 24.4106 105.3204 24.5486L105.3204 24.9966zM106.6358 26.0532L106.3058 26.0532 107.3438 24.5012 108.1498 24.5012 106.6358 26.0532zM107.9218 28.4552C107.7518 27.5792 107.2738 27.1512 106.5058 27.1512 105.7678 27.1512 105.1918 27.6392 105.0198 28.4552L107.9218 28.4552zM104.9618 28.8452C104.8218 29.9912 105.7278 30.8672 106.7458 30.8672 107.3438 30.8672 107.8318 30.6692 108.4098 30.1992L108.4098 30.7392C107.8818 31.1472 107.3338 31.3352 106.6858 31.3352 105.3898 31.3352 104.4518 30.3392 104.4518 28.9532 104.4518 27.6392 105.3198 26.6812 106.5058 26.6812 107.4618 26.6812 108.4898 27.3492 108.4898 28.8452L104.9618 28.8452zM111.708 27.5786C111.208 27.2506 110.88 27.1206 110.482 27.1206 109.944 27.1206 109.526 27.4486 109.526 27.8766 109.526 28.9526 111.848 28.5446 111.848 30.1006 111.848 30.7986 111.208 31.3346 110.382 31.3346 109.924 31.3346 109.496 31.2066 109.038 30.9286L109.038 30.4586C109.624 30.7586 110.014 30.8686 110.442 30.8686 110.99 30.8686 111.388 30.5486 111.388 30.0906 111.388 29.0246 109.066 29.3426 109.066 27.9066 109.066 27.2186 109.704 26.6826 110.512 26.6826 110.9 26.6826 111.26 26.8006 111.708 27.0606L111.708 27.5786z"/>
  </g>
</svg>
