<svg xmlns="http://www.w3.org/2000/svg" width="159" height="48" viewBox="0 0 159 48">
  <g fill="#424242" fill-rule="evenodd" transform="translate(0 12)">
    <path d="M21.31576 1.6784L16.13016 16.6448 11.96856 16.6448C9.67496 16.6552 7.69896 14.8432 7.69896 12.5296 7.68856 10.244 9.56296 8.4288 11.84776 8.4288L16.10376 8.4288 16.10776 1.6776C14.33336 1.6784 12.70376 1.6736 10.97576 1.6776 4.81176 1.6832-.00984 6.5984-.00024 12.7344-.00024 18.7328 4.68936 23.3608 10.68856 23.3504 11.48856 23.3504 13.80856 23.3608 13.80856 23.3608L22.14536 23.3504 25.60856 8.888 25.89336 8.888C26.02456 9.7248 29.44696 23.3504 29.44696 23.3504L37.78936 23.34 30.02536 1.6704 21.31576 1.6784zM35.30136 1.6648L35.31176 8.7072 39.65256 8.7032 39.67256 23.34 47.54616 23.3296 47.53576 8.6936 51.87656 8.6888 51.86616 1.6456 35.30136 1.6648 35.30136 1.6648zM62.16616 10.38C59.53656 10.3816 58.23576 8.7576 58.23336 6.0792 58.22936 3.4648 59.44936 1.4224 62.45336 1.4192 63.14136 1.4192 63.85736 1.52 64.52296 1.6896L64.43096 2.4696C63.67656 2.2264 62.98776 2.1216 62.27176 2.1216 60.02536 2.1248 59.12536 3.8816 59.12776 5.9352 59.13176 8.2888 60.17336 9.6544 62.41176 9.6544 63.12616 9.6512 63.99816 9.4272 64.55656 9.1424L64.64696 9.8832C63.96056 10.184 63.11336 10.3792 62.16616 10.38M68.2064 2.70224L67.804 2.24624 69.3488.79984 69.8568 1.37344 68.2064 2.70224zM69.784 7.21024C67.1992 7.21504 66.6392 8.04784 66.6424 8.68464 66.6424 9.32144 67.0824 9.71024 67.76 9.71024 68.9824 9.71024 69.7872 8.48704 69.784 7.30144L69.784 7.21024 69.784 7.21024zM69.8016 10.27984C69.8016 9.76144 69.8136 9.24064 69.8776 8.86304L69.852 8.84944C69.5424 9.69584 68.696 10.38624 67.5656 10.38784 66.5624 10.38784 65.8072 9.87824 65.8072 8.85424 65.8064 7.54144 67.1824 6.58864 69.784 6.58544L69.784 6.01424C69.784 4.96064 69.4056 4.37504 68.2456 4.37664 67.6232 4.37664 66.844 4.57344 66.2736 4.95424L66.18 4.21024C66.7896 3.92464 67.532 3.71664 68.4032 3.71344 70.1224 3.71344 70.6032 4.59744 70.6032 5.79344L70.6056 8.27744C70.6064 8.93824 70.6208 9.69584 70.6344 10.27984L69.8016 10.27984 69.8016 10.27984zM81.31144 10.2776L81.30504 6.0792C81.30424 5.0368 81.05864 4.3624 80.05624 4.3624 78.98824 4.3632 78.00344 5.4304 78.00584 7.212L78.00664 10.2784 77.18824 10.2792 77.18184 6.068C77.18184 5.1472 77.00024 4.3656 75.93544 4.3664 74.80264 4.3672 73.89224 5.5376 73.89384 7.2168L73.89704 10.2856 73.07944 10.2864 73.07064 3.824 73.90424 3.824C73.90504 4.264 73.86504 4.9032 73.78664 5.3176L73.81144 5.3336C74.17624 4.3424 75.03304 3.7056 76.12824 3.7056 77.66264 3.7032 77.93704 4.8336 77.93704 5.3 78.15464 4.6904 78.85864 3.7 80.21064 3.6984 81.42184 3.6984 82.12344 4.3216 82.12744 5.792L82.13224 10.2776M88.06848 7.20656C85.48288 7.20736 84.92448 8.04016 84.92448 8.67856 84.92768 9.31456 85.36688 9.70576 86.04688 9.70576 87.26848 9.70096 88.07248 8.47776 88.06848 7.29456L88.06848 7.20656zM88.08768 10.27296C88.08608 9.75216 88.09968 9.23056 88.16208 8.85536L88.13408 8.84096C87.82768 9.68896 86.98048 10.37856 85.84768 10.37856 84.84768 10.38016 84.09168 9.87376 84.09088 8.84656 84.09008 7.53616 85.47008 6.58336 88.06848 6.58016L88.06848 6.00576C88.06688 4.95296 87.68928 4.36896 86.53088 4.36976 85.90848 4.36976 85.12848 4.56736 84.55328 4.94576L84.46368 4.20416C85.07488 3.91856 85.81648 3.70816 86.68528 3.70736 88.40528 3.70736 88.88608 4.58976 88.88928 5.78576L88.89168 8.26896C88.89168 8.93376 88.90608 9.68496 88.92048 10.27136L88.08768 10.27296 88.08768 10.27296zM94.41616 4.5448C92.94736 4.3104 92.24576 5.4952 92.24976 7.7456L92.24976 10.3216 91.43296 10.3216 91.42336 3.8576 92.25696 3.8576C92.25696 4.3104 92.20576 4.9752 92.08816 5.5464L92.11616 5.5584C92.36176 4.5992 93.03696 3.5848 94.45216 3.7528M99.12592 7.20656C96.53952 7.21136 95.97872 8.04256 95.98032 8.68256 95.98032 9.31856 96.41952 9.70656 97.09952 9.70576 98.32192 9.70576 99.12592 8.48336 99.12592 7.29856L99.12592 7.20656zM99.14432 10.27616C99.14432 9.75456 99.15232 9.23456 99.21872 8.85856L99.19232 8.84416C98.88192 9.69296 98.03872 10.38416 96.90752 10.38416 95.90272 10.38416 95.14672 9.87696 95.14512 8.84976 95.14512 7.53616 96.52352 6.58496 99.12272 6.58096L99.12272 6.00976C99.12272 4.95696 98.74272 4.37216 97.58832 4.37216 96.96512 4.37456 96.18352 4.57136 95.61072 4.94816L95.52112 4.20576C96.12912 3.91936 96.87312 3.70896 97.74272 3.70896 99.45792 3.70816 99.94112 4.59056 99.94112 5.78736L99.94672 8.27296C99.94912 8.93456 99.96112 9.69056 99.97392 10.27456L99.14432 10.27616 99.14432 10.27616zM108.33992 3.62336C108.17512 3.19456 108.06872 2.80576 107.95112 2.36416L107.93752 2.36416C107.82312 2.78176 107.69512 3.18096 107.53672 3.59856L106.15992 7.34736 109.72632 7.34256 108.33992 3.62336zM110.76872 10.25456L109.97352 8.02016 105.92792 8.02336 105.11272 10.26096 104.24072 10.26096 107.53432 1.48096 108.43192 1.48096 111.73192 10.25456 110.76872 10.25456 110.76872 10.25456zM116.22352 4.44248C114.75152 4.20888 114.05312 5.39448 114.05312 7.64328L114.05872 10.21928 113.23632 10.21928 113.22752 3.75768 114.06432 3.75528C114.06432 4.20888 114.00752 4.87448 113.89392 5.44568L113.92112 5.45928C114.16832 4.49928 114.84192 3.48248 116.25872 3.64808M119.90912 4.34016C118.71232 4.34176 118.01072 5.08656 118.01072 6.10176 118.01152 7.21536 118.69232 7.81616 119.86112 7.81456 120.99232 7.81456 121.72032 7.20256 121.72032 6.09456 121.71792 4.99216 121.04992 4.33936 119.90912 4.34016M120.59232 10.27136L118.77312 10.27216C118.17392 10.58576 117.76752 11.08176 117.76752 11.65456 117.77232 12.55136 118.64112 13.00736 119.77392 13.00496 121.27232 13.00496 122.15632 12.36256 122.15232 11.44176 122.15232 10.69856 121.63232 10.27136 120.59232 10.27136M119.63152 13.69296C118.00832 13.69296 116.95152 13.02176 116.94912 11.79616 116.94912 10.96576 117.47152 10.36736 118.09392 10.04096 117.68672 9.84576 117.44272 9.52256 117.44272 9.10656 117.44272 8.67616 117.68512 8.29856 118.14192 8.09056 117.49312 7.70176 117.18192 7.03616 117.18192 6.19456 117.17872 4.84016 118.22752 3.70656 119.96032 3.70416 120.30032 3.70416 120.55872 3.74416 120.89792 3.80656L123.09312 3.80496 123.09552 4.45776 121.87392 4.45936C122.28832 4.76816 122.54832 5.32896 122.54992 6.00336 122.55152 7.36816 121.61552 8.45136 119.74272 8.45216 119.41632 8.45216 119.04112 8.39936 118.79472 8.33536 118.44432 8.48096 118.28432 8.71296 118.28432 8.96176 118.28432 9.36416 118.67872 9.54576 119.48512 9.54576L120.81552 9.54256C122.21552 9.54016 122.98432 10.23056 122.98432 11.33696 122.98672 12.68896 121.56912 13.69216 119.63152 13.69296M126.97352 4.34016C126.00952 4.34016 125.33192 5.03136 125.15512 6.10976L128.63752 6.10656C128.66392 5.06576 128.02392 4.33936 126.97352 4.34016M129.48632 6.74496L125.10232 6.74656C125.02712 8.84176 125.82152 9.70016 127.33112 9.69776 128.00472 9.69776 128.73272 9.51376 129.20232 9.28016L129.28232 10.00736C128.69672 10.24336 127.99272 10.38576 127.18792 10.38576 125.26152 10.39136 124.23512 9.34976 124.23192 7.07216 124.22952 5.14976 125.26552 3.71936 127.02472 3.71696 128.78072 3.71696 129.51112 4.92256 129.51112 6.31616 129.51112 6.40496 129.51112 6.55936 129.48632 6.74496M135.67592 10.2776L135.67112 6.076C135.67112 5 135.37112 4.3592 134.35672 4.3608 133.13192 4.3616 132.27752 5.5584 132.27992 7.1848L132.28392 10.2808 131.46152 10.2816 131.45512 3.8176 132.28712 3.8168C132.28712 4.26 132.24952 4.9104 132.17352 5.3144L132.19912 5.3272C132.56152 4.3392 133.39432 3.6992 134.54312 3.6968 136.03432 3.6952 136.49112 4.6192 136.49192 5.7784L136.49912 10.2768M140.69272 10.2776C139.43432 10.2776 139.08232 9.7064 139.07912 8.4064L139.07432 4.3752 137.59352 4.3752 137.59352 3.7256 139.05912 3.7248 139.05592 1.5384 139.87672 1.3192 139.87832 3.7208 141.86872 3.7208 141.86872 4.3696 139.88312 4.3752 139.88792 8.0016C139.88872 9.2352 140.10792 9.5504 140.91672 9.5496 141.25272 9.5496 141.59432 9.508 141.87512 9.4296L141.87512 10.1576C141.54232 10.2256 141.09832 10.2768 140.69272 10.2776M143.55912 10.17488L143.55112 3.71248 144.37432 3.71248 144.37992 10.17488 143.55912 10.17488zM143.96472 2.47568C143.63992 2.47568 143.37752 2.21888 143.37752 1.89248 143.37592 1.56448 143.63832 1.30688 143.96472 1.30608 144.28792 1.30608 144.55032 1.55328 144.55112 1.89248 144.55112 2.21808 144.29272 2.47568 143.96472 2.47568L143.96472 2.47568zM151.13568 10.17488L151.13328 5.97408C151.12928 4.89488 150.82928 4.25888 149.81568 4.25888 148.59328 4.26128 147.73648 5.45808 147.73728 7.08368L147.74048 10.17808 146.92448 10.18048 146.91408 3.71728 147.74528 3.71408C147.74528 4.15888 147.70848 4.80768 147.62928 5.21088L147.65968 5.22608C148.02288 4.23488 148.85328 3.59568 150.00128 3.59568 151.49168 3.59248 151.94928 4.51808 151.95168 5.67488L151.95888 10.17488M157.89272 7.10384C155.29912 7.10624 154.74632 7.94064 154.74632 8.57744 154.74872 9.21504 155.18552 9.60464 155.86632 9.60304 157.08632 9.60304 157.89272 8.37824 157.89272 7.19584L157.89272 7.10384zM157.90712 10.17184C157.90712 9.65344 157.91752 9.13424 157.98232 8.75824L157.95592 8.74224C157.64712 9.58944 156.79832 10.27664 155.67192 10.27984 154.66472 10.27984 153.91192 9.77184 153.91192 8.74704 153.91192 7.43504 155.29112 6.48384 157.88792 6.47824L157.88792 5.90704C157.88632 4.85504 157.51192 4.26864 156.35432 4.26864 155.72952 4.26864 154.94472 4.46944 154.37512 4.84704L154.28472 4.10624C154.89272 3.81584 155.63912 3.60864 156.50632 3.60704 158.22312 3.60704 158.70712 4.48864 158.70792 5.68464L158.70792 8.16864C158.71352 8.83424 158.72552 9.58944 158.73752 10.17184L157.90712 10.17184 157.90712 10.17184zM62.67784 17.64792C62.20744 17.52952 61.75224 17.48232 61.32264 17.48232 59.90664 17.48552 58.98504 18.32792 58.98584 20.35672 58.98584 21.89192 59.50824 22.81272 60.64024 22.81272 62.03304 22.81272 62.68104 21.18632 62.67944 20.02792L62.67784 17.64792zM62.66904 23.37032C62.66904 22.95752 62.70744 22.29112 62.78664 21.88632L62.75784 21.87192C62.40984 22.85112 61.55064 23.47512 60.51144 23.47672 58.89864 23.47672 58.11544 22.32232 58.11464 20.43672 58.11384 18.09352 59.42344 16.83432 61.40264 16.83032 61.80264 16.83032 62.20504 16.85512 62.67464 16.90712L62.67304 13.87912 63.49064 13.87592 63.50344 23.37032 62.66904 23.37032 62.66904 23.37032zM68.104 17.34096C67.1416 17.34256 66.4648 18.02976 66.2848 19.11056L69.772 19.10816C69.7968 18.06816 69.1576 17.33696 68.104 17.34096M70.6184 19.74176L66.2328 19.74896C66.1584 21.84336 66.9512 22.69936 68.4624 22.69936 69.136 22.69616 69.864 22.51296 70.3344 22.28176L70.412 23.00736C69.8264 23.24496 69.1256 23.38816 68.32 23.38816 66.3936 23.39056 65.3656 22.35056 65.3632 20.07696 65.3592 18.15216 66.3984 16.71936 68.1552 16.71456 69.9104 16.71296 70.6408 17.92096 70.6432 19.31376 70.6432 19.40656 70.6432 19.56096 70.6184 19.74176"/>
    <polyline points="77.933 15.191 77.944 23.281 77.112 23.284 77.101 15.191 74.384 15.196 74.383 14.507 80.651 14.497 80.651 15.19"/>
    <path d="M85.20168 23.2784C85.20168 22.8352 85.23928 22.1824 85.31688 21.7808L85.29208 21.7664C84.92888 22.76 84.09848 23.3968 82.95208 23.3968 81.45768 23.3968 81.00168 22.4752 81.00008 21.316L80.99368 16.8168 81.81128 16.8168 81.81608 21.0208C81.81608 22.0992 82.10568 22.7344 83.13288 22.7336 84.35608 22.7336 85.21448 21.532 85.21288 19.9072L85.20808 16.8136 86.03048 16.8128 86.03448 23.2752M91.54936 17.5456C90.08056 17.3144 89.37896 18.4976 89.38296 20.744L89.38536 23.324 88.56616 23.3256 88.55656 16.8616 89.38936 16.8592C89.38936 17.3144 89.33496 17.9776 89.22136 18.5512L89.24696 18.5616C89.49336 17.6 90.16616 16.5856 91.58696 16.7504M93.1876 23.2784L93.1836 16.816 94.0004 16.812 94.0108 23.2776 93.1876 23.2784zM93.5996 15.5784C93.2724 15.5784 93.0116 15.3184 93.0116 14.9952 93.0116 14.6688 93.2716 14.408 93.5972 14.408 93.9212 14.408 94.182 14.6528 94.182 14.9912 94.182 15.3184 93.9236 15.5784 93.5996 15.5784L93.5996 15.5784zM97.4876 23.3808C96.9916 23.3808 96.4972 23.34 96.1044 23.252L96.1332 22.4688C96.55 22.5864 97.082 22.6768 97.59 22.6768 98.59 22.6768 99.2924 22.2312 99.2924 21.4912 99.29 19.84 96.0252 20.884 96.022 18.5576 96.022 17.5016 96.8948 16.7072 98.494 16.7056 98.894 16.7056 99.362 16.7568 99.7812 16.8488L99.7388 17.5768C99.314 17.4448 98.8308 17.3568 98.3764 17.3568 97.3748 17.3568 96.854 17.788 96.858 18.4632 96.858 20.1256 100.138 19.1368 100.138 21.3736 100.138 22.4816 99.1516 23.3768 97.4876 23.3808M110.28528 23.2784L110.27728 19.0776C110.27488 18.036 110.02928 17.36 109.02688 17.3632 107.96048 17.3632 106.97248 18.4296 106.97648 20.2136L106.97968 23.284 106.16048 23.284 106.15808 19.072C106.15408 18.1496 105.97088 17.3664 104.90528 17.3664 103.77408 17.3672 102.86448 18.5416 102.86768 20.2176L102.87088 23.2872 102.05008 23.2904 102.04368 16.8232 102.87568 16.8232C102.87568 17.2648 102.83728 17.9016 102.75728 18.3216L102.78528 18.3328C103.14848 17.3424 104.00528 16.704 105.09808 16.704 106.63168 16.7024 106.90688 17.8328 106.90688 18.3008 107.13088 17.6936 107.83248 16.7024 109.18288 16.6992 110.39168 16.6952 111.09808 17.3208 111.09808 18.792L111.10288 23.2784M115.916007 17.34096C114.846407 17.34096 113.833607 18.16256 113.835207 19.97296 113.840007 21.68576 114.593607 22.67376 115.934407 22.67376 117.000007 22.67056 117.988007 21.85216 117.984007 19.95376 117.984007 18.32576 117.279207 17.34096 115.916007 17.34096M115.792007 23.34976C114.076007 23.35376 112.980807 22.30016 112.980007 20.03776 112.976807 18.22976 114.070407 16.68016 116.003207 16.67776 117.515207 16.67536 118.828807 17.50896 118.832807 19.91056 118.832807 21.79776 117.688007 23.34736 115.792007 23.34976"/>
  </g>
</svg>
