<svg xmlns="http://www.w3.org/2000/svg" width="75" height="48" viewBox="0 0 75 48">
  <g fill="#EFF" fill-rule="evenodd" transform="translate(0 6)">
    <path d="M67.1890909 33.0975429C67.4754545 33.1541143 67.7055682 33.2261143 67.8368182 32.9106857 68.2288636 31.9661143 68.6277273 31.0249714 69.0317045 30.0872571 69.1544318 29.8009714 69.04875 29.7152571 68.7726136 29.7204 68.3652273 29.7289714 67.9578409 29.7169714 67.5504545 29.7272571 67.4209091 29.7306857 67.21125 29.6621143 67.2248864 29.9038286 67.2351136 30.1301143 67.4396591 30.0529714 67.5709091 30.0666857 67.73625 30.0872571 67.905 30.1009714 68.0703409 30.0889714 68.4879545 30.0598286 68.5305682 30.2055429 68.3567045 30.5621143 67.9527273 31.3935429 67.5811364 32.2404 67.1890909 33.0975429M63.2907955 31.2478286L63.2890909 31.2478286C63.2890909 30.9872571 63.3010227 30.7249714 63.2856818 30.4661143 63.2720455 30.2312571 63.4118182 29.9124 63.2072727 29.7838286 62.9328409 29.6141143 62.7180682 29.9501143 62.4726136 30.0529714 62.3907955 30.0872571 62.3055682 30.1438286 62.2510227 30.2124 62.1675 30.3221143 62.205 30.4815429 62.3430682 30.4232571 62.9584091 30.1729714 62.7589773 30.6529714 62.7692045 30.9015429 62.7896591 31.3661143 62.7709091 31.8324 62.7743182 32.2969714 62.7777273 32.5284 62.8067045 32.7615429 62.4538636 32.7238286 62.2936364 32.7066857 62.2169318 32.7992571 62.2254545 32.9638286 62.2339773 33.1129714 62.3328409 33.1421143 62.4538636 33.1421143 62.8425 33.1421143 63.2311364 33.1421143 63.6197727 33.1404 63.7373864 33.1404 63.8413636 33.1181143 63.8413636 32.9638286 63.8413636 32.8661143 63.8328409 32.7358286 63.7271591 32.7444 63.1067045 32.7872571 63.3180682 32.3312571 63.2959091 32.0278286 63.2754545 31.7706857 63.2907955 31.5066857 63.2907955 31.2478286M34.0663636 31.3181143C34.0663636 31.8289714 34.0544318 32.2592571 34.0731818 32.6878286 34.08 32.8575429 33.9419318 33.1369714 34.2981818 33.1438286 34.6868182 33.1506857 34.5419318 32.8506857 34.5555682 32.6586857 34.5743182 32.3792571 34.4925 32.0672571 34.5913636 31.8272571 34.7226136 31.5101143 35.0805682 31.7415429 35.3277273 31.6729714 35.3788636 31.6592571 35.4436364 31.6609714 35.4811364 31.6301143 35.5731818 31.5529714 35.7351136 31.5101143 35.6907955 31.3404 35.6532955 31.1981143 35.52375 31.2204 35.4163636 31.2169714 35.3055682 31.2118286 35.1930682 31.2032571 35.0822727 31.2169714 34.6629545 31.2769714 34.5419318 31.0952571 34.5436364 30.6821143 34.5453409 30.2741143 34.6220455 30.0426857 35.0873864 30.1026857 35.2493182 30.1249714 35.4197727 30.0889714 35.5868182 30.0769714 35.6976136 30.0666857 35.8220455 30.0598286 35.8288636 29.9089714 35.8356818 29.7066857 35.6805682 29.7289714 35.5544318 29.7272571 35.1640909 29.7221143 34.77375 29.7392571 34.3851136 29.7186857 34.0748864 29.7032571 33.98625 29.9021143 34.0254545 30.1232571 34.1072727 30.5501143 34.0254545 30.9752571 34.0663636 31.3181143M69.8703409 31.2238286C69.9777273 30.6118286 70.3578409 30.3118286 70.83 30.0855429 70.9271591 30.0409714 71.1027273 30.0152571 71.0277273 29.8164 70.9459091 29.6004 70.8163636 29.7426857 70.7106818 29.7735429 69.5601136 30.1078286 68.9464773 31.5204 69.4834091 32.5952571 69.6981818 33.0255429 70.0305682 33.2329714 70.5214773 33.1678286 71.0021591 33.1044 71.2271591 32.7872571 71.3140909 32.3518286 71.4913636 31.4741143 70.8998864 30.9924 69.8703409 31.2238286M55.0271591 31.3746857L55.0254545 31.3746857C55.0254545 31.8598286 55.0288636 32.3466857 55.02375 32.8318286 55.0220455 33.0255429 55.06125 33.1506857 55.2964773 33.1455429 55.7243182 33.1335429 56.1504545 33.1438286 56.5782955 33.1421143 56.6907955 33.1404 56.8084091 33.1318286 56.8015909 32.9689714 56.7964773 32.8095429 56.6771591 32.8112571 56.5663636 32.8026857 56.3072727 32.7838286 56.0481818 32.7684 55.7890909 32.7461143 55.66125 32.7341143 55.54875 32.7306857 55.4976136 32.5558286 55.3118182 31.9095429 55.5385227 31.5786857 56.2067045 31.5598286 56.28 31.5564 56.355 31.5581143 56.4282955 31.5546857 56.5356818 31.5495429 56.6021591 31.4964 56.6089773 31.3866857 56.6157955 31.2718286 56.5476136 31.2204 56.4402273 31.2169714 56.3294318 31.2118286 56.2152273 31.1981143 56.1078409 31.2135429 55.6271591 31.2906857 55.4532955 31.1226857 55.4805682 30.6101143 55.5010227 30.2295429 55.5777273 30.0615429 55.9748864 30.1009714 56.1572727 30.1215429 56.3447727 30.0855429 56.5305682 30.0769714 56.6498864 30.0718286 56.7606818 30.0444 56.7606818 29.9004 56.7623864 29.7546857 56.6567045 29.7255429 56.5322727 29.7255429 56.2544318 29.7272571 55.9714773 29.7512571 55.6970455 29.7152571 55.1856818 29.6501143 54.9368182 29.7924 55.0186364 30.3666857 55.0663636 30.6975429 55.0271591 31.0386857 55.0271591 31.3746857M65.8765909 31.6078286C65.6618182 32.2969714 65.56125 32.4084 64.9885227 32.7461143 64.8760227 32.8129714 64.5930682 32.8112571 64.7277273 33.0666857 64.8214773 33.2466857 64.9885227 33.1335429 65.1248864 33.0838286 66.2038636 32.7015429 66.7680682 31.3369714 66.27375 30.3049714 66.0436364 29.8232571 65.6192045 29.6004 65.1419318 29.7101143 64.54875 29.8472571 64.2640909 30.4146857 64.4532955 31.0815429 64.6288636 31.6986857 65.0771591 31.8752571 65.8765909 31.6078286M52.9885227 32.9586857C52.9748864 32.9226857 52.96125 32.8884 52.9493182 32.8524 52.6885227 31.9232571 52.4157955 30.9958286 52.1686364 30.0615429 52.1055682 29.8266857 52.0220455 29.7238286 51.7629545 29.7169714 51.4731818 29.7084 51.4339773 29.8918286 51.3794318 30.0924 51.1407955 30.9529714 50.9021591 31.8118286 50.6652273 32.6724 50.6226136 32.8301143 50.4436364 33.0358286 50.7027273 33.1318286 50.9856818 33.2346857 51.0879545 33.0169714 51.1339773 32.7735429 51.1561364 32.6638286 51.2072727 32.5609714 51.2192045 32.4512571 51.2584091 32.1066857 51.3981818 31.9438286 51.7868182 31.9335429 52.1907955 31.9232571 52.2930682 32.1306857 52.3561364 32.4461143 52.3936364 32.6295429 52.4447727 32.8078286 52.4907955 32.9878286 52.5470455 33.2004 52.7175 33.1352571 52.8555682 33.1352571 52.9663636 33.1335429 53.0277273 33.0786857 52.9885227 32.9586857M46.2572727 29.7375429C45.9760227 29.6706857 45.9146591 29.8506857 45.855 30.0701143 45.6521591 30.8261143 45.4101136 31.5718286 45.23625 32.3346857 45.1782955 32.5849714 44.78625 32.9826857 45.2021591 33.1095429 45.705 33.2655429 45.5669318 32.6895429 45.6692045 32.4186857 45.7731818 32.1461143 45.83625 31.9249714 46.2197727 31.9369714 46.5913636 31.9472571 46.7669318 32.0689714 46.8095455 32.4341143 46.8317045 32.6192571 46.8981818 32.7958286 46.9527273 32.9741143 47.0123864 33.1609714 47.1692045 33.1609714 47.3192045 33.1352571 47.5288636 33.0992571 47.4504545 32.9398286 47.4197727 32.8284 47.1555682 31.8786857 46.8794318 30.9289714 46.6135227 29.9809714 46.5589773 29.7906857 46.4669318 29.6809714 46.2572727 29.7375429M42.4356818 31.4604L42.4373864 31.4604C42.4373864 31.9472571 42.4356818 32.4324 42.4373864 32.9192571 42.4373864 33.0889714 42.4254545 33.2415429 42.6828409 33.2621143 43.6782955 33.3444 44.6447727 32.9381143 44.6123864 31.6918286 44.6055682 31.4861143 44.6055682 31.2786857 44.5868182 31.0746857 44.4760227 29.9621143 43.7106818 29.4444 42.6265909 29.7221143 42.4084091 29.7786857 42.4373864 29.9175429 42.4373864 30.0581143 42.4322727 30.5261143 42.4356818 30.9924 42.4356818 31.4604M38.0925 31.1209714L38.0890909 31.1209714C38.0890909 31.4552571 38.0805682 31.7912571 38.0925 32.1272571 38.1061364 32.5489714 37.9629545 32.8061143 37.4976136 32.8129714 37.0135227 32.8215429 36.8413636 32.5729714 36.8481818 32.1186857 36.8584091 31.4089714 36.8481818 30.7009714 36.8464773 29.9912571 36.8464773 29.8575429 36.8584091 29.7238286 36.6572727 29.7272571 36.4936364 29.7306857 36.3606818 29.7495429 36.3606818 29.9621143 36.3623864 30.8004 36.2873864 31.6421143 36.4101136 32.4752571 36.4851136 32.9758286 36.9317045 33.2141143 37.5726136 33.1815429 38.3123864 33.1438286 38.5220455 33.0169714 38.5629545 32.3998286 38.6157955 31.6009714 38.5919318 30.7969714 38.6021591 29.9946857 38.6055682 29.8112571 38.5305682 29.7289714 38.3396591 29.7238286 38.1334091 29.7186857 38.0890909 29.8249714 38.0907955 29.9998286 38.0959091 30.3735429 38.0925 30.7472571 38.0925 31.1209714M47.9754545 31.4021143C47.9754545 31.8684 47.9720455 32.3364 47.9771591 32.8026857 47.9771591 32.9415429 47.9396591 33.0855429 48.1544318 33.1472571 49.2538636 33.4609714 50.1180682 32.8352571 50.1368182 31.6986857 50.1402273 31.5289714 50.1368182 31.3609714 50.1317045 31.1929714 50.0942045 30.0238286 49.305 29.4392571 48.1697727 29.7204 47.9532955 29.7752571 47.9771591 29.9124 47.9771591 30.0564 47.9720455 30.5038286 47.9754545 30.9529714 47.9754545 31.4021143M39.8260227 30.8312571L39.9572727 30.8055429C40.2964773 31.5015429 40.6476136 32.1941143 40.9697727 32.8969714 41.0805682 33.1404 41.2459091 33.1609714 41.4623864 33.1369714 41.7385227 33.1095429 41.6379545 32.8901143 41.6396591 32.7495429 41.6481818 31.8718286 41.6447727 30.9924 41.6396591 30.1164 41.6379545 29.9449714 41.7078409 29.7066857 41.3959091 29.7306857 41.1180682 29.7512571 41.2152273 29.9741143 41.2135227 30.1164 41.2015909 30.7764 41.2084091 31.4364 41.2084091 32.0981143 40.73625 31.4209714 40.3902273 30.7146857 40.06125 29.9981143 39.9572727 29.7735429 39.8089773 29.6912571 39.5805682 29.7289714 39.3282955 29.7718286 39.4032955 29.9809714 39.4032955 30.1318286 39.3947727 30.9906857 39.3930682 31.8478286 39.405 32.7066857 39.4067045 32.8644 39.2925 33.1335429 39.5976136 33.1335429 39.9385227 33.1352571 39.8157955 32.8472571 39.8192045 32.6706857 39.8345455 32.0586857 39.8260227 31.4432571 39.8260227 30.8312571M57.8976136 30.8295429C57.9453409 30.8226857 57.9913636 30.8141143 58.0373864 30.8072571 58.3459091 31.4381143 58.6561364 32.0689714 58.9561364 32.7049714 59.0805682 32.9655429 59.1896591 33.2381143 59.5544318 33.1352571 59.8868182 33.0426857 59.7078409 32.7564 59.7146591 32.5678286 59.7385227 31.8221143 59.7385227 31.0729714 59.7146591 30.3255429 59.7078409 30.1266857 59.8970455 29.7615429 59.5135227 29.7461143 59.1010227 29.7289714 59.3089773 30.1078286 59.3004545 30.2981143 59.2697727 30.9186857 59.2885227 31.5444 59.2885227 32.1684 58.8334091 31.4586857 58.4720455 30.7318286 58.1345455 29.9929714 58.0288636 29.7615429 57.8703409 29.6981143 57.6504545 29.7324 57.3930682 29.7769714 57.4851136 29.9912571 57.4834091 30.1386857 57.4748864 31.0181143 57.4731818 31.8958286 57.4782955 32.7752571 57.4782955 32.9226857 57.3998864 33.1404 57.6794318 33.1421143 57.9521591 33.1438286 57.8942045 32.9312571 57.8959091 32.7786857 57.9027273 32.1306857 57.8976136 31.4792571 57.8976136 30.8295429M31.6339773 34.1518286C31.6288636 32.4512571 31.6254545 30.7506857 31.6101136 29.0501143 31.6084091 28.7741143 31.6680682 28.6129714 31.9765909 28.6575429 32.0123864 28.6644 32.0515909 28.6575429 32.0890909 28.6575429 45.8822727 28.6592571 59.67375 28.6609714 73.4669318 28.6626857L73.4669318 34.1638286C64.6919318 34.1638286 55.9152273 34.1655429 47.1402273 34.1638286 41.9720455 34.1638286 36.8021591 34.1569714 31.6339773 34.1518286M13.8497727 34.2761143C9.36170455 34.2761143 4.87193182 34.2726857.383863636 34.2864.0668181818 34.2864-.015 34.2212571.00204545455 33.8835429.0344318182 33.2304.0105681818 32.5738286.0105681818 31.9189714 1.00431818 31.9206857 1.99636364 31.9241143 2.99011364 31.9258286 4.13215909 31.9258286 4.13215909 31.9258286 4.07761364 30.7464 4.07590909 30.7104 4.08272727 30.6726857 4.08443182 30.6349714 4.09465909 30.5201143 4.035 30.4446857 3.93613636 30.4549714 3.34806818 30.5269714 3.43670455 30.0966857 3.43670455 29.7264 3.43840909 24.8835429 3.435 20.0389714 3.44011364 15.1961143 3.44011364 14.3012571 3.40261364 13.4492571 2.91340909 12.6315429 2.22136364 11.4692571 1.32647727 10.7629714.0105681818 10.6995429L.0105681818 6.09668571.0395454545 6.05897143.0821590909 6.07782857C.128181818 6.28525714.112840909 6.4944.390681818 6.58697143 1.12704545 6.82697143 1.84806818 7.11668571 2.57590909 7.38582857 2.80431818 7.51611429 2.89636364 7.18525714 3.09579545 7.21782857L3.13840909 7.20582857 3.18443182 7.21268571C3.18954545 7.45097143 3.14352273 7.72868571 3.51681818 7.66868571 3.74693182 7.85211429 3.97022727 8.0664 4.29238636 7.88297143 4.47988636 7.97211429 4.44920455 8.44011429 4.55659091 8.31668571 4.91795455 7.90182857 5.01681818 8.40411429 5.23329545 8.45382857 5.52818182 8.51211429 5.80431818 8.6184 6.06340909 8.77954286 6.16568182 8.87725714 6.17761364 9.06582857 6.35147727 9.09154286 6.44522727 9.93668571 6.38556818 10.7835429 6.38386364 11.6304 6.38386364 11.9235429 6.48102273 12.0709714 6.72818182 12.1446857 6.51681818 12.1446857 6.30715909 12.1429714 6.09579545 12.1481143 5.97477273 12.1515429 5.77534091 12.1206857 5.76681818 12.2475429 5.73443182 12.6881143 5.69863636 13.1458286 5.77534091 13.5726857 5.83670455 13.9121143 6.21170455 13.6584 6.41795455 13.7715429 6.41795455 13.8521143 6.41625 13.9344 6.41625 14.0149714 5.81284091 13.9446857 5.70204545 14.2686857 5.73102273 14.8378286 5.78045455 15.7652571 5.78045455 16.6995429 5.74295455 17.6286857 5.71909091 18.1704 5.85204545 18.4395429 6.39920455 18.3504 6.3975 18.4892571 6.3975 18.6298286 6.3975 18.7686857 5.87761364 18.8749714 5.27931818 18.5715429 4.76965909 19.0738286 5.34920455 19.2624 5.88272727 19.1681143 6.40090909 19.2435429 6.41113636 19.2692571 6.41113636 19.2949714 6.40431818 19.3206857 5.59636364 19.2812571 5.38159091 19.9738286 5.79238636 20.6681143 5.98159091 20.9869714 6.26795455 21.2046857 6.49465909 21.4841143 6.35318182 21.5595429 6.39920455 21.6984 6.39238636 21.8184 6.03784091 21.8509714 5.78727273 22.0086857 5.76681818 22.4235429 5.74465909 22.8915429 6.04295455 23.0629714 6.40602273 23.1692571 6.40090909 26.6766857 6.40090909 30.1858286 6.38727273 33.6932571 6.38556818 34.0549714 6.47931818 34.1749714 6.83215909 34.1715429 9.16738636 34.1561143 11.5043182 34.1612571 13.8395455 34.1595429 13.8429545 34.1972571 13.8463636 34.2384 13.8497727 34.2761143M38.1894886 1.33302857C38.0309659 2.03931429 37.9048295 2.58274286 37.7889205 3.12617143 37.7599432 3.25817143 37.6423295 3.47074286 37.8213068 3.51531429 38.0616477 3.57702857 38.3394886 3.56845714 38.5832386 3.51188571 38.7196023 3.48102857 38.6258523 3.27874286 38.6019886 3.16045714 38.4826705 2.60331429 38.3514205 2.0496 38.1894886 1.33302857M39.084375.139885714C39.6059659 2.08388571 40.1207386 4.02788571 40.6491477 5.97017143 40.734375 6.28731429 40.6235795 6.34731429 40.3303977 6.3576 39.3042614 6.39531429 39.3042614 6.4056 39.0502841 5.36331429 38.8542614 4.5576 38.4997159 4.35017143 37.6951705 4.5336 37.5213068 4.57302857 37.5042614 4.68445714 37.4684659 4.80102857 37.4139205 4.97931429 37.3747159 5.16274286 37.3338068 5.34445714 37.0917614 6.37817143 36.8002841 6.58388571 35.7946023 6.3216 35.5644886 6.2616 35.3872159 6.2616 35.1673295 6.31988571 33.2974432 6.82388571 32.0463068 5.96331429 31.8042614 4.03817143 31.7309659 3.45702857 31.7463068 2.88102857 31.8247159 2.30502857 31.9661932 1.2816 32.4877841.523885714 33.3911932.0336L35.0650568.0336C35.5866477.170742857 35.5065341.534171429 35.4025568.919885714 35.2747159 1.39474286 34.9747159 1.03474286 34.7803977 1.02788571 34.1548295 1.00388571 33.5377841 1.2816 33.4065341 1.73588571 33.1525568 2.61702857 33.1116477 3.51188571 33.3008523 4.41017143 33.4286932 5.01188571 34.0286932 5.44217143 34.6542614 5.42502857 34.9423295 5.41817143 35.1792614 5.26045714 35.4383523 5.20731429 35.6002841 5.36331429 35.4196023 5.61874286 35.6974432 5.83474286 36.3741477 3.93702857 36.7082386 2.0016 37.2963068.145028571 37.8928977.143314286 38.4894886.1416 39.084375.139885714M67.6486364 3.17948571C67.6503409 2.80577143 67.6469318 2.43377143 67.5719318 2.0652 67.42875 1.36405714 67.1236364 1.1172 66.4213636 1.1292 66.1980682 1.13434286 66.0821591 1.17034286 66.0855682 1.43091429 66.0940909 2.62577143 66.0906818 3.81891429 66.0855682 5.01377143 66.0838636 5.21948571 66.1469318 5.29834286 66.3702273 5.31205714 67.0247727 5.35148571 67.4151136 5.06177143 67.5565909 4.40348571 67.6452273 3.99891429 67.6571591 3.5892 67.6486364 3.17948571L67.6486364 3.17948571zM67.1031818.0337714286C67.2344318.224057143 67.4628409.177771429 67.6435227.244628571 68.3832955.527485714 68.8486364 1.05377143 69.0003409 1.81834286 69.1776136 2.70291429 69.1929545 3.59777143 68.9986364 4.48748571 68.7582955 5.58291429 67.9639773 6.27205714 66.8475 6.32348571 66.2355682 6.35262857 65.6219318 6.33205714 65.01 6.35777143 64.7117045 6.36805714 64.6332955 6.25834286 64.635 5.97034286 64.6520455 4.02805714 64.6503409 2.08577143 64.6554545.143485714 64.8770455.140057143 65.0986364.146914286 65.3185227.129771429 65.8384091.0852 66.3702273.242914286 66.8798864.0337714286L67.1031818.0337714286zM73.4664205 6.32005714C72.3328977 6.33205714 71.1976705 6.33891429 70.0641477 6.35605714 69.8186932 6.35777143 69.7453977 6.25834286 69.7471023 6.02177143 69.7607386 4.05891429 69.7658523 2.09434286 69.7726705.1332 71.0050568.136628571 72.2357386.141771429 73.4664205.1452L73.4664205 1.04348571C72.8732386 1.07777143 72.2800568 1.14977143 71.6885795 1.13434286 71.2402841 1.12234286 71.1738068 1.30748571 71.1823295 1.69491429 71.2027841 2.62062857 71.1874432 2.62062857 72.0823295 2.62234286 72.286875 2.62234286 72.4914205 2.63262857 72.6942614 2.62062857 72.9192614 2.60691429 73.0198295 2.66691429 73.0385795 2.92405714 73.0846023 3.61834286 73.0999432 3.61662857 72.3635795 3.61662857 71.0902841 3.61834286 71.0988068 3.61834286 71.1857386 4.87148571 71.2044886 5.13205714 71.2846023 5.22291429 71.5419886 5.2452 72.1846023 5.30005714 72.8340341 5.2692 73.4664205 5.42348571L73.4664205 6.32005714zM29.2614205.152742857C29.4608523.259028571 29.3790341.449314286 29.3790341.6036 29.3824432 11.7344571 29.3824432 22.8653143 29.3807386 33.9961714 29.3807386 34.0904571 29.3739205 34.1830286 29.3705114 34.2756L15.3046023 34.2756C15.3489205 34.2396 15.3932386 34.2018857 15.4375568 34.1641714 15.6608523 34.1196 15.9165341 34.2653143 16.1074432 34.0458857 16.7858523 34.3767429 16.9699432 34.2721714 16.9699432 33.5556 16.9699432 32.2304571 16.9699432 30.9036 16.9682386 29.5801714 17.1608523 29.7173143 17.0722159 29.9230286 17.0722159 30.0961714 17.0807386 31.2721714 17.094375 32.4516 17.0705114 33.6276 17.0619886 34.0304571 17.1489205 34.1898857 17.5869886 34.1761714 18.5534659 34.1418857 19.5216477 34.1436 20.4864205 34.1761714 20.9142614 34.1898857 21.0114205 34.0458857 21.0114205 33.6361714 21.0114205 32.5373143 20.9330114 31.4350286 21.0557386 30.3361714 21.1528977 30.5110286 21.1085795 30.7013143 21.1085795 30.8864571 21.1136932 31.8207429 21.1136932 32.7533143 21.1102841 33.6876 21.1102841 33.9567429 21.0778977 34.2018857 21.4886932 34.2018857 21.8636932 34.2036 21.9080114 34.0253143 21.9046023 33.7184571 21.8909659 32.3367429 21.8909659 30.9567429 21.8858523 29.5733143 22.156875 29.9401714 21.988125 30.3567429 22.0000568 30.7458857 22.0290341 31.7693143 22.0119886 32.7944571 22.006875 33.8196 22.006875 34.0356 22.0409659 34.1796 22.306875 34.1676 22.5369886 34.1573143 22.5864205 34.0373143 22.5830114 33.8418857 22.5778977 33.6567429 22.5778977 33.4698857 22.5830114 33.2830286 22.6222159 32.0761714 22.5011932 30.8676 22.6477841 29.6624571 22.6597159 29.8664571 22.6852841 30.0704571 22.6852841 30.2744571 22.6903977 31.4538857 22.6955114 32.6316 22.6835795 33.8093143 22.681875 34.1041714 22.7858523 34.2036 23.0739205 34.1967429 23.3364205 34.1898857 23.4915341 34.1333143 23.488125 33.8247429 23.4710795 32.4018857 23.4676705 30.9807429 23.4574432 29.5596 23.6517614 29.6401714 23.5801705 29.8150286 23.5801705 29.9487429 23.5852841 31.1847429 23.6023295 32.4173143 23.5733523 33.6516 23.563125 34.0818857 23.694375 34.1830286 24.1051705 34.1761714 25.6290341 34.1504571 27.1546023 34.1418857 28.6784659 34.1796 29.1898295 34.1916 29.2852841 34.0236 29.2835795 33.5453143 29.2699432 23.0213143 29.2801705 12.4938857 29.2563068 1.96817143 29.2546023 1.36302857 29.3244886.757885714 29.2614205.152742857"/>
    <path d="M.0119318182 11.2604571C.271022727 11.3101714.366477273 11.4610286.366477273 11.7318857.359659091 15.0867429.359659091 18.4433143.368181818 21.7981714.369886364 22.0930286.16875 22.2078857.0119318182 22.3741714L.0119318182 11.2604571zM.0119318182 22.7129143C.303409091 22.7729143.369886364 22.9632.368181818 23.2460571.359659091 25.4694857.35625 27.6946286.369886364 29.9197714.371590909 30.2523429.216477273 30.4683429.0119318182 30.6826286L.0119318182 22.7129143zM.125113636 5.14988571C.109772727 5.21845714.0773863636 5.25102857.0126136364 5.19788571L.0126136364.145885714.125113636.151028571C.125113636 1.81731429.125113636 3.4836.125113636 5.14988571M73.4664205.146057143C72.2357386.140914286 71.0050568.135771429 69.7726705.132342857 69.7573295.0980571429 69.7607386.0637714286 69.7828977.0346285714 70.918125.0346285714 72.0533523.0294857143 73.186875.0414857143 73.2721023.0414857143 73.4578977-.104228571 73.4664205.146057143M55.2707386.0337714286C55.2894886.0594857143 55.2963068.0886285714 55.2894886.1212 54.3963068.129771429 53.503125.138342857 52.6099432.1452 52.6048295.1092 52.5980114.0697714286 52.5911932.0337714286L55.2707386.0337714286zM66.8803977.0337714286C66.3707386.242914286 65.8389205.0852 65.3173295.129771429 65.0991477.146914286 64.8758523.140057143 64.6559659.143485714 64.6525568.107485714 64.6508523.0697714286 64.6474432.0337714286L66.8803977.0337714286zM58.5066477.140914286C58.4947159.104914286 58.4947159.0689142857 58.5066477.0346285714L60.2930114.0346285714C60.3083523.0672 60.3083523.1032 60.2964205.137485714 59.6998295.1392 59.1032386.140914286 58.5066477.140914286M37.295625.144342857C37.2836932.106628571 37.2836932.0706285714 37.2973295.0346285714L39.0836932.0346285714C39.0990341.0689142857 39.0990341.104914286 39.0853977.1392 38.4888068.140914286 37.8922159.142628571 37.295625.144342857M49.0043182.127542857C48.9889773.0915428571 48.9940909.0624 49.0196591.0332571429L50.8060227.0332571429C50.8145455.0709714286 50.8128409.106971429 50.7975.144685714 50.2009091.139542857 49.6026136.132685714 49.0043182.127542857M43.1025.0337714286C43.0990909.0732 43.0956818.112628571 43.0922727.152057143 42.5365909.148628571 41.9809091.143485714 41.4252273.140057143 41.4064773.104057143 41.4064773.0697714286 41.4286364.0337714286L43.1025.0337714286zM45.0010227.140914286C44.9873864.104914286 44.9873864.0689142857 45.0010227.0346285714L46.6748864.0346285714C46.6731818.0706285714 46.6714773.108342857 46.6714773.146057143L45.0010227.140914286z"/>
    <path d="M15.9346023 13.2877714C15.7215341 13.1094857 15.5374432 12.9586286 15.3533523 12.8060571 15.2067614 12.6843429 15.0891477 12.7477714 15.0789205 12.9020571 15.0533523 13.2157714 15.5323295 13.4746286 15.9346023 13.2877714L15.9346023 13.2877714zM20.5505114 7.03234286C20.4652841 6.8832 20.7346023 6.48891429 20.3749432 6.4992 20.0664205 6.50948571 20.2658523 6.89177143 20.2147159 7.10262857 20.1976705 7.1712 20.2027841 7.25005714 20.2147159 7.32205714 20.2334659 7.44891429 20.1346023 7.64434286 20.368125 7.6632 20.6152841 7.68034286 20.5334659 7.47805714 20.5488068 7.34948571 20.5590341 7.25862857 20.5505114 7.16777143 20.5505114 7.03234286L20.5505114 7.03234286zM14.8010795 20.6437714C14.5436932 20.3797714 14.2897159 20.1140571 14.0238068 19.8603429 14.0084659 19.8449143 13.8465341 19.9289143 13.8499432 19.9546286 13.8840341 20.2100571 14.124375 20.3214857 14.2658523 20.5014857 14.3459659 20.6026286 14.4414205 20.6986286 14.5488068 20.7637714 14.6698295 20.8392 14.7499432 20.7483429 14.8010795 20.6437714L14.8010795 20.6437714zM14.3221023 29.9369143C14.3135795 29.8392 13.4203977 28.9494857 13.3505114 28.9580571 13.299375 28.9649143 13.2380114 28.9854857 13.2022159 29.0232 13.1374432 29.0900571 13.1851705 29.1603429 13.2363068 29.2117714 13.5073295 29.4860571 13.7834659 29.7552 14.0544886 30.0312 14.1192614 30.0946286 14.1823295 30.0946286 14.2436932 30.0397714 14.2811932 30.0106286 14.3033523 29.9643429 14.3221023 29.9369143L14.3221023 29.9369143zM16.9010795 12.4272L16.9010795 12.3963429C17.1772159 12.3963429 17.4567614 12.3963429 17.7346023 12.3946286 17.8096023 12.3946286 17.8914205 12.3792 17.9050568 12.2934857 17.9238068 12.1683429 17.8283523 12.1357714 17.7311932 12.1357714 17.1942614 12.1409143 16.6573295 12.1494857 16.1186932 12.1597714 16.0402841 12.1614857 15.9789205 12.1940571 15.9840341 12.2934857 15.9874432 12.3826286 16.036875 12.4272 16.1221023 12.4272 16.3811932 12.4289143 16.6419886 12.4272 16.9010795 12.4272L16.9010795 12.4272zM17.555625 7.06834286C17.555625 7.17805714 17.5488068 7.25177143 17.5573295 7.32377143 17.5726705 7.45577143 17.4840341 7.64777143 17.7158523 7.66662857 17.9578977 7.68377143 17.893125 7.48662857 17.9101705 7.35462857 17.9203977 7.28091429 17.9323295 7.20205714 17.9135795 7.13348571 17.8522159 6.91405714 18.099375 6.5112 17.7294886 6.50434286 17.4005114 6.4992 17.6391477 6.90034286 17.555625 7.06834286L17.555625 7.06834286zM22.9709659 13.5689143C22.7033523 13.1814857 22.4442614 12.7992 22.1715341 12.4254857 22.1527841 12.3980571 22.036875 12.4272 21.9772159 12.4563429 21.9499432 12.4666286 21.9294886 12.5592 21.9482386 12.5883429 22.1885795 12.9620571 22.4340341 13.3306286 22.6897159 13.6923429 22.7152841 13.7300571 22.8277841 13.7180571 22.8942614 13.7009143 22.9249432 13.6940571 22.9402841 13.6237714 22.9709659 13.5689143L22.9709659 13.5689143zM20.4755114 12.1614857L20.4755114 12.1683429C20.199375 12.1683429 19.9232386 12.1666286 19.6471023 12.1700571 19.561875 12.1717714 19.4544886 12.1614857 19.4544886 12.2969143 19.4544886 12.4083429 19.5277841 12.4649143 19.6300568 12.4632 20.199375 12.4597714 20.7703977 12.4512 21.3397159 12.4409143 21.4385795 12.4392 21.5272159 12.4032 21.5135795 12.2814857 21.4999432 12.1580571 21.3908523 12.1632 21.3039205 12.1632 21.0277841 12.1580571 20.7516477 12.1614857 20.4755114 12.1614857L20.4755114 12.1614857zM24.1573295 21.0757714C23.8044886 20.5494857 23.4550568 20.0249143 23.0936932 19.5054857 23.0459659 19.4369143 22.9607386 19.4900571 22.9010795 19.5380571 22.824375 19.6032 22.8584659 19.6649143 22.9010795 19.7317714 23.2044886 20.1997714 23.5061932 20.6712 23.8096023 21.1409143 23.8658523 21.2283429 23.9459659 21.2729143 24.043125 21.2249143 24.0857386 21.2026286 24.1078977 21.1426286 24.1573295 21.0757714L24.1573295 21.0757714zM20.0374432 20.0352C19.9760795 19.8654857 19.9726705 19.8363429 19.9641477 19.8363429 18.8067614 19.6854857 17.6442614 19.8037714 16.4834659 19.7797714 16.4135795 19.7797714 16.3317614 19.7986286 16.3300568 19.8946286 16.3266477 20.0317714 16.4340341 20.0334857 16.5226705 20.0334857 17.0033523 20.0386286 17.4840341 20.0352 17.9664205 20.0352L20.0374432 20.0352zM16.0283523 19.1197714L16.0283523 19.1334857C15.6584659 19.1334857 15.2902841 19.1334857 14.9221023 19.1317714 14.818125 19.1317714 14.7294886 19.1557714 14.7363068 19.2757714 14.7414205 19.3803429 14.8096023 19.4352 14.9221023 19.4334857 15.6584659 19.4197714 16.3965341 19.4094857 17.1346023 19.3957714 17.2351705 19.3957714 17.3135795 19.3494857 17.2948295 19.2312 17.274375 19.1026286 17.1652841 19.1214857 17.0783523 19.1214857 16.7289205 19.1163429 16.3777841 19.1197714 16.0283523 19.1197714L16.0283523 19.1197714zM18.5936932 12.9123429L18.5936932 12.8797714C18.9823295 12.8797714 19.3726705 12.8814857 19.7630114 12.8780571 19.8703977 12.8763429 20.0033523 12.8797714 19.9863068 12.7134857 19.974375 12.5866286 19.8550568 12.6054857 19.7698295 12.6054857 18.9891477 12.6072 18.2084659 12.6089143 17.4277841 12.6174857 17.3459659 12.6174857 17.2283523 12.5900571 17.2130114 12.7237714 17.1959659 12.8729143 17.3016477 12.9106286 17.4226705 12.9106286 17.8130114 12.9140571 18.2033523 12.9123429 18.5936932 12.9123429L18.5936932 12.9123429zM20.686875 19.4592C21.0550568 19.4592 21.4249432 19.4626286 21.7948295 19.4557714 21.8936932 19.4540571 22.0436932 19.5054857 22.0590341 19.3443429 22.0726705 19.2003429 21.943125 19.1763429 21.8289205 19.1763429 21.0703977 19.1746286 20.311875 19.1763429 19.5550568 19.1780571 19.4613068 19.1780571 19.355625 19.1866286 19.3453977 19.3049143 19.3317614 19.4763429 19.4749432 19.4540571 19.5772159 19.4557714 19.9471023 19.4609143 20.3152841 19.4574857 20.686875 19.4592L20.686875 19.4592zM25.5738068 30.5214857C25.918125 30.4649143 25.8908523 30.3637714 25.8005114 30.2266286 25.4221023 29.6557714 25.0522159 29.0814857 24.6772159 28.5072 24.6022159 28.3940571 24.5238068 28.2809143 24.3738068 28.4077714 24.2425568 28.5192 24.3635795 28.5997714 24.418125 28.6837714 24.7692614 29.2272 25.1203977 29.7706286 25.4783523 30.3106286 25.5346023 30.3946286 25.5721023 30.5214857 25.5738068 30.5214857L25.5738068 30.5214857zM15.8391477 28.3512L15.8391477 28.3049143C16.2840341 28.3049143 16.7272159 28.3083429 17.1721023 28.3032 17.293125 28.3014857 17.4721023 28.3374857 17.4823295 28.1609143 17.4942614 27.9689143 17.3101705 28.0032 17.1908523 28.0049143 16.3027841 28.0254857 15.4147159 28.0512 14.5266477 28.0769143 14.4209659 28.0803429 14.2777841 28.0580571 14.2982386 28.2294857 14.3169886 28.3872 14.4550568 28.3494857 14.5607386 28.3512L15.8391477 28.3512zM19.8959659 28.1300571C19.8976705 28.1900571 19.899375 28.2517714 19.9010795 28.3152 21.0022159 28.3152 22.1033523 28.3169143 23.2027841 28.3152 23.3084659 28.3134857 23.3834659 28.2723429 23.349375 28.1454857 23.3101705 27.9946286 23.1874432 28.0186286 23.0800568 28.0203429 22.374375 28.0289143 21.6686932 28.0357714 20.9630114 28.0563429 20.6067614 28.0666286 20.2385795 28.0100571 19.8959659 28.1300571L19.8959659 28.1300571zM16.6846023 10.2397714L16.6760795 10.2397714C16.6760795 10.6100571 16.6760795 10.9820571 16.6760795 11.3557714 16.6760795 11.4723429 16.6914205 11.5837714 16.8414205 11.5957714 16.9828977 11.6077714 17.0408523 11.5237714 17.0425568 11.3952 17.049375 10.6683429 17.0510795 9.9432 17.0578977 9.21805714 17.0596023 9.08777143 17.0101705 8.99348571 16.8840341 8.97805714 16.6982386 8.95748571 16.6846023 9.09462857 16.6846023 9.2352 16.6863068 9.56948571 16.6846023 9.90377143 16.6846023 10.2397714L16.6846023 10.2397714zM21.0516477 10.3443429L21.0414205 10.3443429C21.0414205 10.6803429 21.0465341 11.0163429 21.0380114 11.3506286 21.0346023 11.5066286 21.0703977 11.6094857 21.2459659 11.6026286 21.3959659 11.5940571 21.4061932 11.4843429 21.4061932 11.3643429 21.4078977 10.6563429 21.4130114 9.94834286 21.4198295 9.24034286 21.4215341 9.08948571 21.3755114 8.97462857 21.2101705 8.97977143 21.0635795 8.98491429 21.0533523 9.11005714 21.0533523 9.22662857 21.0516477 9.60034286 21.0516477 9.97062857 21.0516477 10.3443429L21.0516477 10.3443429zM18.6005114 29.1020571L18.6005114 29.0300571C19.2840341 29.0300571 19.9692614 29.0317714 20.6527841 29.0283429 20.7584659 29.0283429 20.8965341 29.0386286 20.8709659 28.8689143 20.8522159 28.7420571 20.7328977 28.7626286 20.649375 28.7643429 19.2789205 28.7746286 17.9101705 28.7883429 16.5414205 28.8037714 16.4374432 28.8054857 16.2925568 28.7746286 16.2772159 28.9272 16.2533523 29.1363429 16.4289205 29.0986286 16.5465341 29.1003429 17.2317614 29.1037714 17.9169886 29.1020571 18.6005114 29.1020571L18.6005114 29.1020571zM19.055625 11.0986286C19.468125 11.0917714 19.8397159 10.7146286 19.8448295 10.2997714 19.8499432 9.8712 19.449375 9.47005714 19.0198295 9.47862857 18.6192614 9.4872 18.2374432 9.87462857 18.230625 10.2792 18.2238068 10.7180571 18.6158523 11.1054857 19.055625 11.0986286L19.055625 11.0986286zM19.1152841 7.73862857C18.1692614 7.90662857 17.2522159 8.1552 16.3590341 8.49634286 16.2635795 8.53405714 16.1851705 8.59748571 16.243125 8.70377143 16.2942614 8.79805714 16.3999432 8.7912 16.4919886 8.76205714 16.9897159 8.61291429 17.5010795 8.49805714 17.9800568 8.30091429 18.6840341 8.00777143 19.3863068 8.04205714 20.105625 8.18091429 20.5965341 8.2752 21.0908523 8.36091429 21.5851705 8.43977143 21.680625 8.4552 21.8289205 8.51348571 21.8630114 8.35748571 21.8953977 8.20662857 21.755625 8.1792 21.6499432 8.16034286 20.8078977 8.01634286 19.9658523 7.8792 19.1152841 7.73862857L19.1152841 7.73862857zM7.24142045 18.2746286C7.48176136 18.3449143 7.67096591 18.3860571 7.77664773 18.1272 8.32210227 16.7934857 8.86755682 15.4597714 9.41982955 14.1089143 9.11471591 14.0300571 8.86926136 13.9529143 8.73801136 14.3043429 8.24539773 15.6226286 7.74596591 16.9392 7.24142045 18.2746286L7.24142045 18.2746286zM21.3448295 15.8643429C21.3448295 16.4969143 21.3533523 17.1312 21.3397159 17.7654857 21.3346023 18.0380571 21.3925568 18.1803429 21.7061932 18.1700571 21.9925568 18.1614857 22.0334659 18.0209143 22.0317614 17.7826286 22.0249432 16.4763429 22.0249432 15.1717714 22.0334659 13.8654857 22.0351705 13.6117714 21.9738068 13.4969143 21.6942614 13.5037714 21.4351705 13.5072 21.3328977 13.5723429 21.3397159 13.8483429 21.3567614 14.5203429 21.3448295 15.1923429 21.3448295 15.8643429L21.3448295 15.8643429zM20.4260795 15.8077714L20.4260795 17.8237714C20.4260795 18.0312 20.3988068 18.2369143 20.724375 18.2232 21.0192614 18.2129143 21.1096023 18.0774857 21.1078977 17.8049143 21.1044886 16.4797714 21.1010795 15.1546286 21.1130114 13.8277714 21.1147159 13.5569143 21.0209659 13.4780571 20.7567614 13.4780571 20.4772159 13.4780571 20.4175568 13.5929143 20.4226705 13.8466286 20.4363068 14.4997714 20.4277841 15.1529143 20.4260795 15.8077714L20.4260795 15.8077714zM18.0942614 15.9569143L18.0908523 15.9569143C18.0908523 16.4986286 18.0823295 17.0403429 18.0976705 17.5837714 18.1010795 17.7226286 17.9783523 17.9729143 18.2408523 17.9832 18.511875 17.9952 18.4096023 17.7414857 18.4113068 17.5992 18.4198295 16.5877714 18.4096023 15.5763429 18.418125 14.5666286 18.4215341 14.0369143 18.6891477 13.7386286 19.1340341 13.7712 19.6164205 13.8089143 19.786875 14.1072 19.7800568 14.5752 19.7647159 15.5866286 19.7698295 16.5963429 19.7766477 17.6077714 19.7783523 17.7449143 19.6692614 17.9883429 19.9488068 17.9797714 20.180625 17.9729143 20.0936932 17.7569143 20.0953977 17.6283429 20.1005114 16.5260571 20.1073295 15.4203429 20.0936932 14.3180571 20.0851705 13.6974857 19.7630114 13.3923429 19.1578977 13.3820571 18.4965341 13.3700571 18.118125 13.6957714 18.0976705 14.3266286 18.080625 14.8700571 18.0942614 15.4134857 18.0942614 15.9569143L18.0942614 15.9569143zM19.2226705 2.26491429C19.0505114 2.47062857 19.2022159 2.72262857 18.9209659 2.73462857 18.7658523 2.73977143 18.5596023 2.65234286 18.4709659 2.87348571 18.6652841 3.0432 19.0249432 2.79805714 19.0675568 3.0672 19.1203977 3.4032 19.0283523 3.76662857 18.9823295 4.11462857 18.9465341 4.37862857 18.718125 4.25005714 18.5766477 4.28605714 18.399375 4.33405714 18.4147159 4.48662857 18.4130114 4.60148571 18.4010795 5.36434286 18.0584659 5.84262857 17.2948295 5.99348571 17.2573295 6.00034286 17.2317614 6.06205714 17.105625 6.20091429 17.8641477 6.12205714 18.3959659 5.68148571 19.0232386 5.62662857 19.6863068 5.57177143 20.2999432 5.97462857 20.9817614 5.9592 20.9578977 5.7192 20.818125 5.69177143 20.7294886 5.69005714 20.0596023 5.6712 19.8516477 5.27348571 19.8567614 4.67348571 19.8584659 4.42148571 19.7630114 4.23805714 19.4561932 4.27748571 19.2567614 4.30491429 19.2022159 4.18148571 19.2090341 4.00491429 19.2260795 3.49577143 19.0419886 2.88205714 19.9113068 2.84605714 19.6505114 2.60948571 19.111875 2.96434286 19.2226705 2.26491429L19.2226705 2.26491429zM17.7022159 15.8900571L17.668125 15.8900571C17.668125 15.2557714 17.6374432 14.6197714 17.6817614 13.9906286 17.7039205 13.6786286 17.6391477 13.6083429 17.3425568 13.5980571 17.0084659 13.5877714 16.9948295 13.7609143 16.9965341 14.0129143 17.0016477 15.2849143 17.0016477 16.5552 16.9965341 17.8254857 16.9948295 18.0774857 17.0016477 18.2454857 17.3374432 18.2506286 17.7022159 18.2523429 17.7124432 18.0723429 17.7073295 17.7963429 17.6936932 17.1620571 17.7022159 16.5260571 17.7022159 15.8900571L17.7022159 15.8900571zM16.7357386 15.9586286L16.7340341 15.9586286C16.7340341 15.3054857 16.7221023 14.6523429 16.7391477 14.0009143 16.7476705 13.7232 16.6863068 13.5997714 16.3794886 13.5980571 16.0573295 13.5963429 16.0266477 13.7540571 16.0283523 14.0129143 16.0351705 15.2986286 16.0351705 16.5860571 16.0283523 17.8717714 16.0266477 18.1186286 16.0811932 18.2454857 16.3641477 18.2472 16.655625 18.2506286 16.7510795 18.1494857 16.7425568 17.8580571 16.7238068 17.2254857 16.7357386 16.5912 16.7357386 15.9586286L16.7357386 15.9586286zM16.3198295 24.0072C16.3198295 24.8866286 16.3402841 25.7643429 16.3096023 26.6420571 16.2976705 27.0294857 16.4374432 27.1032 16.7851705 27.1014857 17.1175568 27.1014857 17.2300568 27.0243429 17.2266477 26.6660571 17.2078977 24.9466286 17.2113068 23.2272 17.2266477 21.5077714 17.2300568 21.1666286 17.1738068 21.0106286 16.7800568 21.0192 16.4272159 21.0294857 16.2976705 21.1066286 16.3113068 21.4854857 16.3402841 22.3237714 16.3198295 23.1672 16.3198295 24.0072L16.3198295 24.0072zM15.9635795 24.1083429C15.9635795 23.2323429 15.943125 22.3529143 15.9738068 21.4769143 15.9874432 21.0843429 15.8340341 21.0277714 15.493125 21.0209143 15.1436932 21.0157714 15.0567614 21.1254857 15.0601705 21.4666286 15.0772159 23.2014857 15.080625 24.9380571 15.0584659 26.6746286 15.0533523 27.0432 15.193125 27.1032 15.5101705 27.0997714 15.8101705 27.0946286 15.9874432 27.0706286 15.9738068 26.6832 15.943125 25.8260571 15.9635795 24.9654857 15.9635795 24.1083429L15.9635795 24.1083429zM22.8891477 23.9712C22.8891477 23.0746286 22.8721023 22.1780571 22.8959659 21.2814857 22.9061932 20.9043429 22.7033523 20.9129143 22.4442614 20.9180571 22.1936932 20.9214857 21.9789205 20.8872 21.9823295 21.2729143 22.0010795 23.0489143 22.0044886 24.8249143 21.980625 26.6009143 21.9755114 27.0157714 22.1902841 26.9814857 22.4647159 26.9900571 22.749375 27.0003429 22.9061932 26.9626286 22.8959659 26.6077714 22.8721023 25.7300571 22.8891477 24.8506286 22.8891477 23.9712L22.8891477 23.9712zM21.6669886 23.8974857C21.6669886 23.0369143 21.6448295 22.1780571 21.6772159 21.3209143 21.6925568 20.9043429 21.4982386 20.8940571 21.1828977 20.8734857 20.8044886 20.8512 20.761875 21.0209143 20.7635795 21.3346286 20.7738068 23.0729143 20.780625 24.8112 20.7601705 26.5477714 20.7550568 26.9369143 20.9289205 26.9489143 21.2272159 26.9592 21.5544886 26.9677714 21.6857386 26.8957714 21.6755114 26.5323429 21.6482386 25.6546286 21.6652841 24.7752 21.6669886 23.8974857L21.6669886 23.8974857zM20.3374432 24.1666286L20.3374432 23.1569143C20.3374432 22.8020571 20.3391477 22.4472 20.3374432 22.0923429 20.3238068 20.9352 19.7323295 20.6094857 18.7010795 20.7689143 18.1453977 20.8563429 17.7823295 21.2300571 17.7686932 21.7786286 17.7294886 23.3849143 17.7465341 24.9894857 17.7465341 26.5974857 17.7465341 26.6986286 17.7397159 26.8563429 17.8914205 26.8409143 17.9817614 26.8306286 18.1061932 26.7363429 18.1351705 26.6506286 18.1794886 26.5152 18.1607386 26.3574857 18.1607386 26.2083429 18.1590341 24.8832 18.1471023 23.5563429 18.155625 22.2312 18.1590341 21.5746286 18.5067614 21.2403429 19.1084659 21.2574857 19.6590341 21.2729143 19.9147159 21.5712 19.9164205 22.2312 19.9215341 23.6317714 19.9130114 25.0340571 19.9198295 26.4329143 19.9198295 26.5786286 19.805625 26.8237714 20.0544886 26.8443429 20.3391477 26.8666286 20.3391477 26.6180571 20.3391477 26.4054857 20.3374432 25.6597714 20.3391477 24.9123429 20.3374432 24.1666286L20.3374432 24.1666286zM20.2590341 31.4472C20.2590341 30.9243429 20.2402841 30.4752 20.2658523 30.0277714 20.2846023 29.6797714 20.2010795 29.5203429 19.8107386 29.5477714 19.3113068 29.5837714 18.8050568 29.5803429 18.305625 29.5494857 17.9255114 29.5289143 17.7823295 29.6317714 17.7976705 30.0380571 17.8300568 30.8232 17.8436932 31.6117714 17.7959659 32.3952 17.7635795 32.9626286 17.893125 33.2112 18.511875 33.1374857 19.0607386 33.0706286 19.805625 33.3192 20.1328977 33.0380571 20.5147159 32.7123429 20.1891477 31.9460571 20.2590341 31.4472L20.2590341 31.4472zM.124943182 5.15005714C.124943182 3.48377143.124943182 1.81748571.124943182.1512.551079545.144342857.977215909.132342857 1.40505682.132342857 10.5226705.130628571 19.6419886.132342857 28.7613068.134057143 28.9283523.134057143 29.0936932.146057143 29.2607386.152914286 29.3238068.756342857 29.2539205 1.3632 29.255625 1.96662857 29.2811932 12.4940571 29.2709659 23.0214857 29.2846023 33.5454857 29.2846023 34.0237714 29.1908523 34.1917714 28.6794886 34.1797714 27.155625 34.1420571 25.6283523 34.1506286 24.1044886 34.1763429 23.6953977 34.1814857 23.5624432 34.0820571 23.5726705 33.6517714 23.6033523 32.4174857 23.5863068 31.1832 23.5794886 29.9489143 23.5794886 29.8152 23.6510795 29.6403429 23.4584659 29.5597714 23.2300568 29.5597714 23.0016477 29.5580571 22.7732386 29.5563429 22.7050568 29.5392 22.6624432 29.5632 22.6488068 29.6334857L22.6471023 29.6626286C22.5022159 30.8677714 22.6232386 32.0763429 22.5823295 33.2832 22.5772159 33.4683429 22.5772159 33.6569143 22.5823295 33.8420571 22.5874432 34.0374857 22.5363068 34.1574857 22.3078977 34.1677714 22.0419886 34.1797714 22.0061932 34.0357714 22.0078977 33.8197714 22.0113068 32.7946286 22.0283523 31.7694857 21.999375 30.7460571 21.9874432 30.3569143 22.1561932 29.9403429 21.8851705 29.5734857 21.6601705 29.5683429 21.436875 29.5614857 21.211875 29.5563429 21.1010795 29.5409143 21.0124432 29.5494857 21.0533523 29.7020571 21.0533523 29.9146286 21.0550568 30.1254857 21.0550568 30.3363429 20.9323295 31.4352 21.0124432 32.5374857 21.0124432 33.6363429 21.0107386 34.0460571 20.9135795 34.1900571 20.4857386 34.1763429 19.5209659 34.1437714 18.5527841 34.1420571 17.5880114 34.1763429 17.1482386 34.1900571 17.0613068 34.0306286 17.0698295 33.6277714 17.0936932 32.4517714 17.0817614 31.2723429 17.0715341 30.0963429 17.0715341 29.9232 17.161875 29.7174857 16.9675568 29.5803429 16.711875 29.5752 16.4561932 29.5717714 16.2005114 29.5666286 15.9721023 29.7209143 16.0948295 29.9334857 16.1067614 30.1272L16.1067614 32.3609143C16.0522159 32.6643429 16.0522159 32.9677714 16.1067614 33.2712L16.1067614 34.0443429C15.9158523 34.2654857 15.6601705 34.1197714 15.436875 34.1643429 15.4334659 32.7826286 15.4198295 31.3992 15.4351705 30.0192 15.4385795 29.6643429 15.3550568 29.5392 14.9783523 29.5409143 14.6101705 29.5426286 14.5147159 29.6540571 14.5198295 30.0140571 14.5351705 31.3957714 14.518125 32.7774857 14.5130114 34.1592 12.0635795 34.1609143 9.61414773 34.1557714 7.16301136 34.1729143 6.79482955 34.1763429 6.69596591 34.0546286 6.69767045 33.6929143 6.71301136 30.1854857 6.71301136 26.6780571 6.718125 23.1689143 7.39482955 22.9649143 7.59255682 22.3649143 7.23971591 21.6397714 7.07778409 21.3089143 6.73857955 21.0997714 6.63630682 20.7294857 6.77267045 20.3489143 6.68744318 19.9546286 6.70278409 19.5672 6.92267045 19.5483429 7.03176136 19.6186286 6.93801136 19.8569143 6.90392045 19.9443429 6.76926136 20.0540571 6.97721591 20.0969143 7.10846591 20.1226286 7.19880682 20.0386286 7.23119318 19.9289143 7.35903409 19.4746286 7.04369318 19.3906286 6.71471591 19.3220571 6.72323864 19.2946286 6.72323864 19.2689143 6.71301136 19.2449143 6.98744318 19.2363429 7.26357955 19.2243429 7.53971591 19.2226286 7.75619318 19.2209143 7.76471591 19.0443429 7.77664773 18.9123429 7.79369318 18.7409143 7.63176136 18.7906286 7.53971591 18.7872 7.26357955 18.7734857 6.98573864 18.7734857 6.70960227 18.7683429 6.70960227 18.6294857 6.70960227 18.4889143 6.70960227 18.3500571 6.96017045 18.3723429 7.06414773 18.2197714 7.13914773 18.0089143 7.561875 16.8157714 7.97948864 15.6174857 8.424375 14.4329143 8.55903409 14.0746286 8.44142045 14.0180571 8.12096591 14.0283429 7.65732955 14.0403429 7.19369318 14.0214857 6.72835227 14.0146286 6.73005682 13.9340571 6.73005682 13.8517714 6.73176136 13.7712L8.43119318 13.7712C8.29482955 13.5329143 8.22323864 13.4060571 8.15164773 13.2809143 8.38346591 13.1403429 8.43119318 13.3889143 8.50107955 13.4849143 8.69028409 13.7472 8.90505682 13.8072 9.25107955 13.6872 8.91869318 13.4077714 8.62551136 13.1609143 8.33232955 12.9157714 8.12607955 12.7460571 8.05107955 12.8300571 8.05448864 13.0632 7.57380682 12.9192 7.47494318 12.3534857 7.055625 12.1443429 6.79653409 12.0706286 6.69426136 11.9232 6.69426136 11.6300571 6.69767045 10.7832 6.75903409 9.93634286 6.66017045 9.0912 7.14255682 8.62148571 6.82210227 8.22034286 6.53232955 7.84148571 6.24426136 7.46605714 5.84880682 7.37177143 5.46357955 7.6632 5.14482955 7.90491429 5.06642045 7.76091429 4.92835227 7.48662857 4.50732955 6.64662857 3.980625 6.56434286 3.33801136 7.21234286L3.29198864 7.20548571 3.24596591 7.21748571C3.24085227 6.82491429 3.06698864 6.4992 2.83176136 6.20605714 2.58630682 5.90262857 2.26755682 5.75862857 1.90107955 5.95748571 1.66755682 6.08262857 1.580625 6.05177143 1.45107955 5.81348571 1.06926136 5.10205714.891988636 5.03005714.124943182 5.15005714L.124943182 5.15005714zM49.8349432 1.6092C49.7002841 2.20234286 49.5894886 2.71148571 49.4684659 3.21548571 49.3764205 3.59434286 49.6355114 3.57205714 49.8502841 3.53777143 50.0224432 3.51034286 50.4025568 3.70577143 50.3190341 3.30805714 50.2014205 2.75434286 50.1673295 2.16634286 49.8349432 1.6092M45.0008523.141771429L46.6713068.1452C46.8826705 2.10634286 47.0940341 4.06577143 47.3036932 6.0252 47.3360795 6.02862857 47.3684659 6.03205714 47.4008523 6.03548571 47.934375 4.06748571 48.4696023 2.09777143 49.0048295.128057143 49.6014205.1332 50.1997159.140057143 50.7980114.1452 51.3110795 2.07205714 51.8190341 4.00062857 52.340625 5.92577143 52.4241477 6.23434286 52.3764205 6.35262857 52.0235795 6.3612 51.0042614 6.39034286 51.0059659 6.40577143 50.7639205 5.41662857 50.7519886 5.36005714 50.7298295 5.30862857 50.7127841 5.25548571 50.6411932 5.01377143 50.7042614 4.64005714 50.4451705 4.5732 50.0974432 4.48234286 49.7053977 4.52348571 49.3372159 4.5612 49.1377841 4.58005714 49.1650568 4.81662857 49.1275568 4.97434286 48.796875 6.3492 48.796875 6.3492 47.3599432 6.34062857 47.3411932 6.34062857 47.3224432 6.33891429 47.3036932 6.33891429 45.8701705 6.34577143 45.8786932 6.34405714 45.7832386 4.88348571 45.7201705 3.9612 45.628125 3.04234286 45.4832386 2.11834286 45.2105114 3.37148571 44.9173295 4.6212 44.6769886 5.8812 44.596875 6.29777143 44.4059659 6.37148571 44.0360795 6.36462857 43.678125 6.35777143 43.4838068 6.3132 43.4036932 5.87948571 43.1803977 4.6812 42.8803977 3.49662857 42.6110795 2.30348571 42.384375 2.37034286 42.4474432 2.55891429 42.4355114 2.71662857 42.3571023 3.79491429 42.2735795 4.87662857 42.2071023 5.95834286 42.1917614 6.23091429 42.1099432 6.37491429 41.8116477 6.35434286 41.4792614 6.33205714 41.0684659 6.45034286 40.8298295 6.29434286 40.5690341 6.12462857 40.8400568 5.7252 40.8673295 5.43034286 41.0326705 3.66634286 41.2355114 1.90405714 41.4247159.141771429 41.9803977.1452 42.5360795.148628571 43.0917614.152057143 43.3917614 1.41034286 43.6917614 2.66862857 44.0292614 4.08462857 44.3786932 2.66862857 44.6889205 1.4052 45.0008523.141771429M59.4761932 1.73142857L59.3278977 1.73142857C59.2051705 2.24914286 59.0653977 2.76342857 58.9665341 3.28285714 58.8847159 3.70971429 59.2341477 3.53314286 59.4028977 3.53314286 59.5716477 3.53485714 59.9210795 3.71142857 59.8375568 3.28114286 59.7352841 2.76171429 59.5989205 2.24742857 59.4761932 1.73142857M54.0438068 1.89085714C54.0421023 2.76171429 54.1307386 2.84742857 54.7869886 2.62457143 55.288125 2.45314286 55.3171023 2.03828571 55.2489205 1.62514286 55.1636932 1.11771429 54.7614205 1.01142857 54.3250568 1.05085714 53.7727841 1.10057143 54.1511932 1.54114286 54.0455114 1.77942857 54.0335795 1.812 54.0438068 1.85314286 54.0438068 1.89085714M58.5063068.140571429C59.1028977.140571429 59.6994886.138857143 60.2960795.137142857 60.819375 2.1 61.3375568 4.06114286 61.8659659 6.02057143 61.9290341 6.25542857 61.9017614 6.384 61.6273295 6.35314286 61.6085795 6.34971429 61.5898295 6.35142857 61.5710795 6.35142857 60.5108523 6.40628571 60.5210795 6.40457143 60.2500568 5.33657143 60.1835795 5.07428571 60.2500568 4.67142857 59.9875568 4.58571429 59.6517614 4.476 59.2546023 4.53257143 58.8847159 4.54971429 58.6614205 4.55828571 58.6921023 4.79142857 58.644375 4.93714286 58.4994886 5.39314286 58.5932386 6.036 58.2233523 6.27257143 57.8892614 6.48685714 57.3165341 6.29314286 56.863125 6.36171429 56.0142614 6.49028571 55.4773295 6.19371429 55.1227841 5.39485714 54.8705114 4.82571429 54.4767614 4.32 54.0438068 3.80228571 54.0438068 4.51714286 54.0284659 5.232 54.050625 5.94685714 54.0608523 6.26742857 53.956875 6.35485714 53.6432386 6.36 52.5983523 6.37714286 52.5949432 6.39085714 52.5966477 5.35885714 52.6000568 3.62228571 52.6051705 1.884 52.6102841.145714286 53.5034659.137142857 54.3966477.128571429 55.288125.121714286 56.1915341.252 56.6960795.740571429 56.7438068 1.52914286 56.8034659 2.50971429 56.4284659 2.99828571 55.3085795 3.33771429 55.8540341 4.15371429 56.3858523 4.95257143 56.9739205 5.83542857 57.5057386 3.85885714 58.006875 1.99885714 58.5063068.140571429M55.7967614 13.8150857C56.0626705 12.7110857 56.345625 11.6105143 56.5825568 10.4979429 56.6626705 10.1225143 56.7888068 9.97337143 57.1944886 9.97851429 58.4234659 9.99222857 58.408125 9.97337143 58.5223295 11.1956571 58.6638068 12.7385143 58.820625 14.2813714 58.9996023 15.8242286 59.0405114 16.1739429 58.9740341 16.2802286 58.614375 16.2836571 57.6717614 16.2939429 57.6530114 16.3128 57.5609659 15.4008 57.4433523 14.2676571 57.3615341 13.1310857 57.2064205 11.9876571 56.9353977 13.2356571 56.6558523 14.4836571 56.3984659 15.7368 56.3285795 16.0745143 56.2672159 16.3145143 55.8189205 16.2922286 55.4166477 16.2750857 55.2035795 16.2322286 55.1064205 15.7556571 54.8950568 14.7013714 54.7280114 13.6316571 54.3734659 12.6082286 54.358125 12.5653714 54.3189205 12.5328 54.2115341 12.3888 54.1501705 13.0916571 54.1041477 13.6899429 54.0427841 14.2848 53.9814205 14.8899429 53.9013068 15.4933714 53.8382386 16.0985143 53.8263068 16.2150857 53.7785795 16.2648 53.6728977 16.2750857 53.6353977 16.2785143 53.5978977 16.2750857 53.5621023 16.2785143 52.483125 16.3882286 52.4660795 16.3693714 52.576875 15.2739429 52.7353977 13.6933714 52.9058523 12.1128 53.0422159 10.5305143 53.0797159 10.1070857 53.2263068 9.96994286 53.6575568 9.9768 54.8030114 9.99565714 54.7996023 9.9768 55.0621023 11.1048 55.2717614 12.0065143 55.4916477 12.9082286 55.708125 13.8082286 55.7371023 13.8116571 55.7677841 13.8133714 55.7967614 13.8150857M40.520625 12.6951429C40.4746023 13.434 40.6092614 14.334 40.4319886 15.2237143 40.2905114 15.9317143 39.9905114 16.2248571 39.2780114 16.2985714 38.7274432 16.3551429 38.1819886 16.4442857 37.6160795 16.3414286 36.7109659 16.1751429 36.0819886 15.5802857 36.0598295 14.658 36.0257386 13.218 36.0496023 11.778 36.0359659 10.3362857 36.0342614 10.0722857 36.1177841 9.99685714 36.3836932 9.98314286 37.4814205 9.92828571 37.4780114 9.918 37.4814205 10.9945714 37.4865341 12.1722857 37.4899432 13.35 37.501875 14.5277143 37.5052841 14.8465714 37.6126705 15.114 37.9382386 15.2391429 38.2399432 15.3574286 38.5365341 15.3351429 38.7819886 15.1328571 39.0496023 14.9117143 39.0683523 14.5808571 39.0683523 14.2568571 39.0717614 13.0791429 39.0615341 11.9014286 39.076875 10.7237143 39.0802841 10.482 38.9183523 10.0928571 39.1961932 10.0191429 39.5763068 9.91628571 40.0092614 9.96942857 40.4132386 10.0157143 40.5905114 10.0345714 40.5172159 10.2677143 40.5189205 10.4065714 40.5240341 11.1162857 40.520625 11.8277143 40.520625 12.6951429M33.3253977 22.9925143L33.3288068 22.9925143C33.3288068 23.4793714 33.3288068 23.9645143 33.3288068 24.4513714 33.3305114 25.1473714 33.4634659 25.2450857 34.1435795 25.0633714 34.5867614 24.9433714 34.7657386 24.5953714 34.8219886 24.1942286 34.9327841 23.4142286 34.9464205 22.6273714 34.8253977 21.8473714 34.7265341 21.2096571 34.3430114 20.9319429 33.6969886 20.9216571 33.3969886 20.9165143 33.3134659 21.0279429 33.3219886 21.3125143 33.335625 21.8713714 33.3253977 22.4319429 33.3253977 22.9925143L33.3253977 22.9925143zM31.9055114 23.0062286C31.9055114 22.1250857 31.9174432 21.2456571 31.8986932 20.3679429 31.891875 20.0233714 31.9617614 19.8536571 32.3538068 19.8862286 33.129375 19.9462286 33.9151705 19.8056571 34.685625 20.0028 35.5225568 20.2188 36.0782386 20.7622286 36.2452841 21.5850857 36.4396023 22.5365143 36.4907386 23.5119429 36.2009659 24.4719429 35.9180114 25.4062286 35.3180114 25.9530857 34.3532386 26.1090857 33.6475568 26.2256571 32.941875 26.1519429 32.2361932 26.1879429 31.8850568 26.2050857 31.9055114 25.9890857 31.9072159 25.7559429 31.9089205 24.8388 31.9072159 23.9216571 31.9072159 23.0062286L31.9055114 23.0062286zM60.8679545 13.1269714C60.8730682 13.6498286 60.8645455 14.1744 61.0622727 14.6698286 61.2003409 15.0126857 61.3742045 15.3058286 61.8088636 15.3109714 62.2315909 15.3161143 62.4088636 15.0144 62.5026136 14.6955429 62.8145455 13.6549714 62.8128409 12.5972571 62.5026136 11.5566857 62.4071591 11.2361143 62.2196591 10.9241143 61.8088636 10.9344 61.3946591 10.9446857 61.1935227 11.2361143 61.0605682 11.5841143 60.8713636 12.0812571 60.8628409 12.6041143 60.8679545 13.1269714M59.4003409 13.1458286C59.3832955 12.5595429 59.4514773 12.0212571 59.6304545 11.5069714 60.0020455 10.4338286 60.7281818 9.89725714 61.7901136 9.89897143 62.8418182 9.90068571 63.5935227 10.4441143 63.9582955 11.5035429 64.3179545 12.5424 64.2838636 13.6138286 64.0196591 14.6561143 63.7401136 15.7566857 62.7685227 16.4149714 61.6878409 16.3584 60.5628409 16.3018286 59.7685227 15.5869714 59.5213636 14.3852571 59.4344318 13.9652571 59.3696591 13.5384 59.4003409 13.1458286M42.6422727 11.7526286C42.8740909 11.9994857 42.3269318 12.5583429 43.0138636 12.5943429 43.6155682 12.6286286 43.9223864 12.3183429 43.9121591 11.7406286 43.9019318 11.2143429 43.6257955 10.9520571 43.0684091 10.9417714 42.3559091 10.9280571 42.8348864 11.4920571 42.6422727 11.7526286M41.2564773 10.7977714C41.2547727 10.7240571 41.2513636 10.6503429 41.2496591 10.5766286 41.5002273 10.5012 41.39625 10.4206286 41.2530682 10.3383429 41.2581818 10.2440571 41.2667045 10.1497714 41.2735227 10.0589143 42.29625 9.99891429 43.3189773 10.0486286 44.3417045 10.1103429 45.0934091 10.4137714 45.4479545 10.9143429 45.4189773 11.6309143 45.3848864 12.4863429 45.0013636 12.9286286 43.9718182 13.2612 44.6195455 14.2383429 45.2604545 15.2086286 45.9695455 16.2766286 45.4360227 16.2766286 45.0167045 16.2766286 44.5956818 16.2783429 44.34 16.2783429 44.2632955 16.0674857 44.1576136 15.8960571 43.7076136 15.1709143 43.2610227 14.4440571 42.8144318 13.7172 42.7598864 13.7240571 42.7070455 13.7309143 42.6525 13.7394857L42.6525 16.2097714 41.3144318 16.2286286 41.2888636 16.2029143C41.3025 15.5994857 41.3689773 14.9960571 41.2513636 14.3943429L41.2513636 14.1903429C41.3536364 13.0606286 41.3434091 11.9292 41.2564773 10.7977714M61.6469318 21.4138286C61.6128409 21.4086857 61.5770455 21.4035429 61.5429545 21.3984 61.4151136 21.9761143 61.2582955 22.5469714 61.1679545 23.1298286 61.0946591 23.5944 61.485 23.3286857 61.65375 23.3595429 61.7832955 23.3818286 62.1259091 23.5361143 62.0406818 23.1332571 61.9213636 22.5572571 61.7798864 21.9864 61.6469318 21.4138286M61.6315909 19.8915429C62.5077273 19.8915429 62.5094318 19.8898286 62.7225 20.7092571 63.1605682 22.3841143 63.5867045 24.0641143 64.0401136 25.7355429 64.1338636 26.0869714 64.0844318 26.1881143 63.7060227 26.1915429 62.6867045 26.2018286 62.6560227 26.2241143 62.4327273 25.0566857 62.3321591 24.5201143 62.14125 24.3298286 61.57875 24.3452571 61.0878409 24.3589714 60.8031818 24.4549714 60.7776136 24.9829714 60.7725 25.0755429 60.7452273 25.1646857 60.7230682 25.2572571 60.51 26.2001143 60.2509091 26.3595429 59.2844318 26.1915429 59.0577273 26.1521143 59.0696591 26.0526857 59.1139773 25.8881143 59.6185227 23.9801143 60.1247727 22.0721143 60.6190909 20.1606857 60.6719318 19.9515429 60.7690909 19.8846857 60.9634091 19.8898286 61.1867045 19.8966857 61.41 19.8915429 61.6315909 19.8915429M50.2527273 21.4054286C50.2169318 21.4088571 50.1811364 21.414 50.1453409 21.4174286 50.0209091 21.9762857 49.8947727 22.5351429 49.77375 23.094 49.755 23.1865714 49.6510227 23.3391429 49.8248864 23.3597143 50.0788636 23.3871429 50.3396591 23.3768571 50.5953409 23.3511429 50.7163636 23.3357143 50.6635227 23.2054286 50.6447727 23.1214286 50.5152273 22.5488571 50.3839773 21.9762857 50.2527273 21.4054286M52.1140909 26.1334286C51.4288636 26.3305714 51.1595455 26.0682857 51.1271591 25.482 51.1186364 25.3345714 51.0368182 25.1922857 51.03 25.0465714 50.9959091 24.4928571 50.7265909 24.3385714 50.1760227 24.3437143 49.6680682 24.3488571 49.4175 24.4842857 49.38 24.99 49.3731818 25.0825714 49.3510227 25.1734286 49.3288636 25.266 49.1157955 26.1951429 48.8209091 26.3734286 47.8834091 26.1917143 47.6584091 26.1471429 47.6754545 26.0374286 47.7180682 25.8762857 48.2243182 23.9734286 48.7271591 22.0688571 49.23 20.1642857 49.2351136 20.1471429 49.2317045 20.1231429 49.2436364 20.1111429 49.6817045 19.6277143 50.2459091 20.0082857 50.7402273 19.8951429 50.9532955 19.8471429 51.1084091 19.902 51.1782955 20.1762857 51.6675 22.074 52.2027273 23.958 52.66125 25.8625714 52.8231818 26.5311429 52.17375 25.9397143 52.1140909 26.1334286M36.9809659 23.0226857C36.9809659 22.1072571 36.9894886 21.1918286 36.9758523 20.2746857 36.9707386 19.9884 37.0542614 19.8804 37.3508523 19.8855429 38.3360795 19.9009714 39.3213068 19.9044 40.3048295 19.8838286 40.6321023 19.8769714 40.6832386 20.0295429 40.6474432 20.2901143 40.6150568 20.5335429 40.7940341 20.8832571 40.3082386 20.8832571 39.8071023 20.8849714 39.3059659 20.9329714 38.8048295 20.9449714 38.5286932 20.9518286 38.4298295 21.0529714 38.4213068 21.3461143 38.3872159 22.4535429 38.3735795 22.4535429 39.4815341 22.4518286 39.6110795 22.4518286 39.7440341 22.4689714 39.871875 22.4501143 40.2826705 22.3901143 40.3099432 22.6284 40.3099432 22.9489714 40.3099432 23.2558286 40.2775568 23.4701143 39.8957386 23.4152571 39.7696023 23.3998286 39.6366477 23.4152571 39.5071023 23.4152571 38.4247159 23.4135429 38.4536932 23.4135429 38.4178977 24.4901143 38.4008523 24.9838286 38.5764205 25.0969714 39.0144886 25.0746857 39.4014205 25.0575429 39.7934659 25.1329714 40.1821023 25.1261143 40.5639205 25.1175429 40.6713068 25.2581143 40.6798295 25.6438286 40.6900568 26.0981143 40.546875 26.2112571 40.1139205 26.1958286 39.2224432 26.1598286 38.3309659 26.1666857 37.4394886 26.1941143 37.0610795 26.2026857 36.965625 26.0724 36.9741477 25.7124 36.9963068 24.8158286 36.9809659 23.9192571 36.9809659 23.0226857M50.3185227 9.89931429C50.5963636 9.91474286 50.8707955 9.92845714 51.1452273 9.99188571 51.8628409 10.1530286 51.8509091 10.1376 51.6395455 10.8216 51.5577273 11.0873143 51.4776136 11.1987429 51.1793182 11.0804571 50.8895455 10.9673143 50.5759091 10.9056 50.25375 10.9347429 49.8957955 10.9638857 49.57875 11.0770286 49.4832955 11.4576 49.3878409 11.8347429 49.6520455 12.0490286 49.9367045 12.2084571 50.3423864 12.4330286 50.7668182 12.6216 51.1707955 12.8478857 51.8867045 13.2438857 52.2753409 13.8198857 52.1372727 14.6821714 52.0094318 15.4707429 51.4554545 16.0896 50.6236364 16.2798857 49.8651136 16.4513143 49.1082955 16.3810286 48.37875 16.1101714 47.8332955 15.9078857 48.34125 15.5941714 48.3310227 15.3370286 48.3207955 15.0747429 48.4656818 14.9736 48.7281818 15.0833143 49.11 15.2444571 49.5054545 15.3421714 49.9213636 15.2941714 50.2690909 15.2564571 50.5844318 15.1330286 50.6832955 14.7507429 50.7855682 14.3564571 50.5690909 14.1181714 50.2367045 13.9536 49.95375 13.8147429 49.6742045 13.6673143 49.3946591 13.5216 48.2492045 12.9198857 47.89125 12.2427429 48.1639773 11.1987429 48.3821591 10.3656 49.1901136 9.87874286 50.3185227 9.89931429M45.1881818 26.2837714C44.9921591 26.2512 44.6273864 26.1774857 44.2609091 26.1312 43.7580682 26.0660571 43.5654545 25.8809143 43.7802273 25.3357714 43.9251136 24.9672 44.0427273 24.9054857 44.4075 25.0460571 44.9529545 25.2552 45.5342045 25.3477714 46.0472727 24.9397714 46.4239773 24.6380571 46.4086364 24.3226286 45.9671591 24.0174857 45.6040909 23.7637714 45.1898864 23.5854857 44.7978409 23.3780571 43.8501136 22.8774857 43.4955682 22.2689143 43.6353409 21.3757714 43.8057955 20.2786286 44.8268182 19.6100571 45.9296591 19.8706286 46.2893182 19.9563429 46.6592045 19.8449143 47.0273864 19.9632 47.2881818 20.0472 47.38875 20.1552 47.23875 20.3814857 47.0921591 20.6043429 47.2881818 21.1220571 46.7461364 21.0089143 46.3864773 20.9334857 46.0353409 20.7740571 45.6603409 20.8546286 45.3518182 20.9214857 45.0296591 21.0123429 44.9938636 21.4134857 44.9614773 21.7803429 45.1796591 21.9912 45.4728409 22.1472 45.7455682 22.2912 46.0148864 22.4420571 46.2910227 22.5792 47.5438636 23.2014857 47.8438636 23.7140571 47.5881818 24.8112 47.3802273 25.7026286 46.4972727 26.2872 45.1881818 26.2837714M58.4093182 23.6069143C58.4093182 24.3166286 58.3956818 25.0263429 58.4161364 25.7360571 58.4246591 26.0652 58.3496591 26.2040571 57.9882955 26.1920571 56.7525 26.1526286 56.9877273 26.3446286 56.9723864 25.2097714 56.9570455 24.0114857 56.9382955 22.8149143 56.9826136 21.6200571 57.0030682 21.0749143 56.8326136 20.8983429 56.3042045 20.9052 56.0365909 20.9103429 55.6019318 21.0972 55.5780682 20.5040571 55.5593182 20.0394857 55.6428409 19.8526286 56.1678409 19.8766286 57.2434091 19.9263429 58.3223864 19.8954857 59.4013636 19.8886286 59.6621591 19.8869143 59.8973864 19.8749143 59.8428409 20.2520571 59.8019318 20.5314857 59.9928409 20.8914857 59.4473864 20.9240571 58.4093182 20.9857714 58.4093182 21.0132 58.4093182 22.0366286L58.4093182 23.6069143zM34.2925568 13.7314286C34.2925568 14.4222857 34.2652841 15.1148571 34.3010795 15.804 34.3232386 16.2205714 34.1459659 16.3234286 33.7863068 16.3165714 32.6698295 16.3011429 32.8641477 16.4177143 32.8539205 15.4131429 32.8419886 14.1085714 32.8385795 12.8005714 32.855625 11.4925714 32.8607386 11.1548571 32.7652841 11.0091429 32.4209659 11.0348571 32.255625 11.0468571 32.0885795 11.0022857 31.9215341 11.0091429 31.3914205 11.0297143 31.486875 10.6594286 31.4647159 10.3268571 31.4340341 9.86228571 31.7561932 9.99257143 31.9828977 9.99085714 33.0976705 9.984 34.2107386 9.99428571 35.3238068 9.984 35.5828977 9.98057143 35.780625 9.99942857 35.7226705 10.332 35.6783523 10.584 35.8999432 10.9748571 35.3953977 11.0022857 35.3578977 11.004 35.3221023 11.0074286 35.2846023 11.0108571 34.2925568 11.1222857 34.2925568 11.1222857 34.2925568 12.108 34.2925568 12.648 34.2925568 13.1914286 34.2925568 13.7314286M54.3743182 22.5322286C54.3743182 23.2796571 54.38625 24.0253714 54.3692045 24.7728 54.3606818 25.0933714 54.4748864 25.2082286 54.7885227 25.1808 55.1192045 25.1516571 55.4532955 25.1619429 55.7856818 25.1379429 56.2544318 25.1002286 56.4981818 25.2339429 56.4385227 25.7808 56.4044318 26.0893714 56.3311364 26.1973714 56.0175 26.1905143 55.1089773 26.1716571 54.1970455 26.1733714 53.2885227 26.1905143 52.9902273 26.1956571 52.9135227 26.0893714 52.9152273 25.8030857 52.9254545 23.9568 52.9288636 22.1088 52.9152273 20.2608 52.9135227 19.9590857 53.0123864 19.8905143 53.2953409 19.8819429 54.3726136 19.8545143 54.3726136 19.8442286 54.3726136 20.9088 54.3726136 21.4488 54.3726136 21.9922286 54.3726136 22.5322286L54.3743182 22.5322286zM47.5269886 13.1588571C47.5269886 14.0348571 47.5099432 14.9108571 47.5338068 15.7868571 47.5440341 16.1828571 47.4110795 16.2925714 47.0258523 16.2857143 46.0951705 16.272 46.0951705 16.2908571 46.0951705 15.3377143 46.0934659 13.7142857 46.1053977 12.0925714 46.0832386 10.4708571 46.078125 10.0748571 46.2008523 9.97371429 46.584375 9.97885714 47.5269886 9.99428571 47.5269886 9.97542857 47.5269886 10.92 47.5269886 11.6674286 47.5269886 12.4114286 47.5269886 13.1588571"/>
    <path d="M44.3410227 10.1103429C43.3182955 10.0486286 42.2972727 9.99891429 41.2728409 10.0589143 41.2932955 10.0280571 41.31375 9.9732 41.3359091 9.9732 42.3415909 9.94234286 43.3523864 9.76577143 44.3410227 10.1103429M41.2564773 10.7982857C41.3434091 11.928 41.3536364 13.0594286 41.2513636 14.1908571 41.1695455 13.0577143 41.1610227 11.928 41.2564773 10.7982857M41.2515341 14.3943429C41.3691477 14.9960571 41.3026705 15.5994857 41.2890341 16.2029143 41.1202841 15.6029143 41.191875 14.9994857 41.2515341 14.3943429M41.3139205 16.2291429L42.6519886 16.2085714C42.2088068 16.3954286 41.7622159 16.3628571 41.3139205 16.2291429M41.2522159 10.338C41.3953977 10.4202857 41.5010795 10.5008571 41.2505114 10.578 41.1857386 10.4974286 41.199375 10.4168571 41.2522159 10.338M.0860795455 6.07731429C.421875 5.69331429.829261364 5.74988571.962215909 6.16131429 1.08323864 6.53845714 1.45823864 6.48531429 1.58607955 6.7596 1.65255682 6.90188571 1.73607955 6.7716 1.809375 6.7476 2.39403409 6.54017143 2.65142045 6.7236 2.70255682 7.38702857 1.93892045 7.11617143 1.18210227 6.82645714.409943182 6.58645714.118465909 6.49388571.135511364 6.28474286.0860795455 6.07731429M6.80931818 21.4841143C6.98488636 21.7412571 7.14852273 22.0104 7.14511364 22.3292571 7.14340909 22.6104 7.11272727 22.9018286 6.70022727 22.8212571L6.68829545 22.1338286C6.74625 22.0309714 6.79056818 21.9281143 6.70363636 21.8184 6.71045455 21.6984 6.66272727 21.5595429 6.80931818 21.4841143M5.48761364 8.45468571C5.93079545 8.11354286 6.13193182 8.18897143 6.35863636 8.77868571 6.08761364 8.61925714 5.79613636 8.51125714 5.48761364 8.45468571M3.68744318 7.66782857C4.04369318 7.41411429 4.299375 7.5444 4.50051136 7.88382857 4.16301136 8.06554286 3.92948864 7.85125714 3.68744318 7.66782857M.929147727 16.8049714C.929147727 15.1798286.934261364 13.5546857.925738636 11.9278286.924034091 11.5592571 1.04676136 11.5609714 1.32119318 11.7152571 1.66039773 11.9055429 1.82744318 12.1301143 1.82403409 12.5552571 1.80698864 15.5844 1.81380682 18.6152571 1.81892045 21.6444 1.81892045 21.9546857 1.81551136 22.1706857 1.39107955 22.1706857.964943182 22.1706857.910397727 21.9889714.913806818 21.6289714.929147727 20.0209714.920625 18.4112571.920625 16.8049714L.929147727 16.8049714zM1.81636364 26.5851429C1.81636364 27.7062857 1.80784091 28.8274286 1.82147727 29.9485714 1.82659091 30.2845714 1.76693182 30.4645714 1.36977273 30.4577143.976022727 30.4525714.914659091 30.264.916363636 29.9331429.923181818 27.7097143.928295455 25.4862857.912954545 23.2645714.909545455 22.8788571 1.05954545 22.7982857 1.40556818 22.7931429 1.78056818 22.7862857 1.82318182 22.9731429 1.81977273 23.2782857 1.80954545 24.3805714 1.81636364 25.4811429 1.81636364 26.5851429M2.37477273 12.9027429C2.76852273 13.4067429 3.02761364 13.9827429 3.03102273 14.6341714 3.04125 16.9861714 3.03613636 19.3381714 3.03443182 21.6901714 3.03443182 21.9044571 3.09409091 22.1496 2.73102273 22.1598857 2.35943182 22.1718857 2.37136364 21.9438857 2.37136364 21.6867429 2.37477273 18.9987429 2.37477273 16.3107429 2.37477273 13.6227429L2.37477273 12.9027429zM2.37392045 26.5265143C2.37392045 25.4259429 2.37732955 24.3253714 2.37051136 23.2230857 2.36880682 22.9676571 2.41482955 22.8030857 2.72335227 22.7825143 3.04721591 22.7619429 3.04380682 22.9573714 3.04551136 23.1716571 3.04892045 25.4259429 3.05232955 27.6836571 3.04892045 29.9396571 3.04892045 30.1642286 3.11880682 30.4573714 2.72335227 30.4470857 2.31255682 30.4368 2.375625 30.1385143 2.375625 29.8865143 2.37392045 28.7670857 2.37392045 27.6459429 2.37392045 26.5265143M6.63698864 20.7291429C6.41369318 20.6331429 6.331875 20.4188571 6.24664773 20.2234286 6.05232955 19.7725714 6.238125 19.5651429 6.70346591 19.5668571 6.688125 19.9542857 6.77335227 20.3485714 6.63698864 20.7291429M16.1069318 32.3609143C16.2126136 32.6660571 16.2126136 32.9677714 16.1069318 33.2712 16.0523864 32.9677714 16.0523864 32.6643429 16.1069318 32.3609143M16.2001705 29.5668C16.1405114 29.7485143 16.2257386 29.9559429 16.1064205 30.1273714 16.0944886 29.9336571 15.9734659 29.7210857 16.2001705 29.5668M21.2113636 29.5566857L21.0545455 29.7024C21.0119318 29.5498286 21.1005682 29.5412571 21.2113636 29.5566857M22.7735795 29.5566857C22.7326705 29.5841143 22.6900568 29.6081143 22.6491477 29.6338286 22.6627841 29.5635429 22.7053977 29.5395429 22.7735795 29.5566857M48.4624432 31.3597714C48.4624432 31.1352 48.4334659 30.9072 48.4709659 30.6894857 48.5050568 30.4889143 48.2749432 30.1614857 48.6755114 30.1100571 49.0453977 30.0637714 49.4221023 30.1289143 49.5294886 30.5489143 49.6811932 31.1300571 49.6760795 31.7403429 49.5294886 32.3197714 49.4255114 32.7226286 49.0436932 32.7877714 48.6738068 32.7894857 48.455625 32.7894857 48.4624432 32.6283429 48.4607386 32.4757714L48.4607386 31.3597714 48.4624432 31.3597714zM42.9194318 31.4300571C42.9194318 31.1712 42.8972727 30.9072 42.92625 30.6500571 42.9501136 30.4614857 42.7728409 30.1580571 43.1273864 30.1100571 43.4239773 30.0723429 43.7682955 30.0774857 43.9097727 30.3946286 44.2131818 31.0649143 44.1927273 31.7746286 43.9251136 32.4500571 43.7955682 32.7757714 43.4222727 32.8289143 43.1052273 32.7706286 42.7796591 32.7106286 42.9467045 32.4054857 42.92625 32.2100571 42.9006818 31.9529143 42.9194318 31.6906286 42.9194318 31.4300571M46.321875 30.6565714C46.4735795 31.0011429 46.5860795 31.3011429 46.3627841 31.5737143 46.2980114 31.6525714 45.9860795 31.6508571 45.9707386 31.5342857 45.9298295 31.2308571 45.9894886 30.9171429 46.321875 30.6565714M51.7542614 30.4121143C51.9997159 30.8012571 52.0133523 31.1852571 52.1207386 31.5486857 51.9042614 31.6104 51.5872159 31.6772571 51.5394886 31.5504 51.3980114 31.1818286 51.6417614 30.8355429 51.7542614 30.4121143M65.9241477 30.9546857C65.9497159 31.3164 65.6957386 31.4072571 65.428125 31.3986857 64.9934659 31.3832571 64.8400568 31.0781143 64.8417614 30.6821143 64.8417614 30.3375429 64.9457386 30.0478286 65.3480114 30.0204 65.6701705 29.9998286 65.9360795 30.4472571 65.9241477 30.9546857M70.9061932 32.2268571C70.8942614 32.5131429 70.8294886 32.8028571 70.4391477 32.8337143 70.0999432 32.8628571 69.8033523 32.4342857 69.7897159 31.9405714 69.7777841 31.548 70.0385795 31.4777143 70.3334659 31.4691429 70.7084659 31.4537143 70.9044886 31.7125714 70.9061932 32.2268571M8.04784091 13.0517143C8.19954545 13.0757143 8.27625 13.134 8.16204545 13.2882857 8.06147727 13.2402857 7.93875 13.2042857 8.04784091 13.0517143M6.68778409 22.1336571L6.69971591 22.8210857C6.48323864 22.8125143 6.37755682 22.6839429 6.36903409 22.4799429 6.36051136 22.2639429 6.47471591 22.1490857 6.68778409 22.1336571M19.0707955 30.8374286C19.5497727 30.8494286 19.9230682 31.2677143 19.9009091 31.77 19.8804545 32.25 19.5139773 32.5997143 19.0332955 32.598 18.5355682 32.5962857 18.15375 32.2037143 18.1673864 31.7065714 18.1793182 31.2128571 18.5798864 30.8254286 19.0707955 30.8374286M19.0549432 10.7096571C18.7788068 10.7010857 18.6305114 10.5570857 18.6271023 10.2999429 18.6219886 10.0410857 18.7719886 9.88165714 19.0327841 9.87994286 19.2867614 9.87994286 19.4469886 10.0136571 19.4469886 10.2862286 19.4469886 10.5502286 19.3038068 10.6873714 19.0549432 10.7096571"/>
  </g>
</svg>
