<svg xmlns="http://www.w3.org/2000/svg" width="88" height="48" viewBox="0 0 88 48">
  <path fill="#424242" d="M74.5290323,14.9677419 L71.8795699,12.3526882 L81.8580645,2.37419355 L84.5075269,4.98924731 L74.5290323,14.9677419 Z M63.827957,0.275268817 L67.5096774,0.275268817 L67.5096774,10.9763441 L63.827957,10.9763441 L63.827957,0.275268817 Z M76.3526882,19.1311828 L87.2946237,19.1311828 L87.2946237,22.8473118 L76.3526882,22.8473118 L76.3526882,19.1311828 Z M71.2946237,16.8946237 C72.9806452,18.6150538 73.8064516,20.6795699 73.8064516,23.0537634 C73.8064516,25.427957 72.9806452,27.4924731 71.2946237,29.1784946 C69.5741935,30.8989247 67.5096774,31.7591398 65.1698925,31.7591398 C62.7956989,31.7591398 60.7655914,30.8989247 59.1139785,29.1784946 C57.3935484,27.5268817 56.5677419,25.427957 56.5677419,23.0537634 C56.5677419,20.6795699 57.3935484,18.6150538 59.1139785,16.8946237 C60.8,15.1741935 62.8301075,14.3483871 65.1698925,14.3483871 C67.5096774,14.3483871 69.5741935,15.1741935 71.2946237,16.8946237 Z M68.4043011,26.288172 C69.2645161,25.3591398 69.711828,24.2924731 69.7462366,23.0537634 C69.711828,21.7462366 69.2645161,20.6451613 68.4387097,19.7849462 C67.5096774,18.8903226 66.4430108,18.4430108 65.1698925,18.4774194 C63.9655914,18.4430108 62.8645161,18.855914 62.0043011,19.7849462 C61.144086,20.6795699 60.6623656,21.7462366 60.6623656,23.0537634 C60.6623656,24.2924731 61.144086,25.3591398 62.0043011,26.288172 C62.8645161,27.1827957 63.9311828,27.6301075 65.1698925,27.6301075 C66.4430108,27.6301075 67.544086,27.2172043 68.4043011,26.288172 Z M10.7354839,10.0817204 C13.144086,10.0473118 15.311828,10.8043011 17.2043011,12.3182796 C19.0967742,13.7634409 20.3354839,15.6903226 20.9548387,17.9956989 L16.6193548,17.9956989 C16.0688172,16.8602151 15.2774194,15.9311828 14.2795699,15.2430108 C13.1784946,14.5204301 12.0086022,14.1763441 10.7354839,14.1763441 C8.91182796,14.1763441 7.36344086,14.8645161 6.09032258,16.1376344 C4.7827957,17.4451613 4.16344086,18.9935484 4.19784946,20.8172043 C4.12903226,22.6408602 4.7827957,24.1892473 6.09032258,25.4967742 C7.36344086,26.7698925 8.91182796,27.4580645 10.7354839,27.4580645 C12.0086022,27.4580645 13.1784946,27.1139785 14.2795699,26.4258065 C15.2774194,25.7032258 16.0688172,24.7741935 16.6193548,23.6731183 L20.9548387,23.6731183 C20.3010753,25.9784946 19.0623656,27.8365591 17.2043011,29.3505376 C15.311828,30.8301075 13.1096774,31.5526882 10.7354839,31.5526882 C7.77634409,31.5526882 5.29892473,30.5204301 3.2344086,28.455914 C1.13548387,26.3569892 0.103225806,23.7763441 0.103225806,20.8172043 C0.103225806,17.8236559 1.13548387,15.311828 3.2344086,13.2129032 C5.29892473,11.0795699 7.74193548,10.0473118 10.7354839,10.0817204 Z M36.9892473,14.3139785 C38.7784946,14.2795699 40.3612903,14.6236559 41.7376344,15.3806452 C43.0795699,16.1032258 43.8021505,17.4795699 43.8021505,19.4752688 L43.8021505,31.7247312 L39.6731183,31.7247312 L39.6731183,30.0043011 C38.4,31.1397849 36.6107527,31.6903226 34.3397849,31.7247312 C32.9634409,31.655914 31.7935484,31.2774194 30.9677419,30.5548387 C30.0387097,29.6602151 29.5569892,28.4903226 29.5913978,27.0107527 C29.5569892,24.8774194 30.3139785,23.4322581 31.8623656,22.5032258 C32.7913978,21.9870968 33.9612903,21.6430108 35.4408602,21.4365591 L38.6408602,20.9204301 C39.2946237,20.6451613 39.6043011,20.1978495 39.6043011,19.6473118 C39.5698925,18.9591398 39.3634409,18.4774194 38.8817204,18.2365591 C38.4,17.9268817 37.711828,17.7892473 36.8516129,17.8236559 C35.7849462,17.7892473 35.0967742,18.0645161 34.6494624,18.6150538 C34.3741935,18.9247312 34.1333333,19.4064516 34.0645161,20.1290323 L29.9354839,20.1290323 C30.0731183,18.6150538 30.4172043,17.4451613 31.1397849,16.516129 C32.2408602,15.0365591 34.2021505,14.2795699 36.9892473,14.3139785 Z M38.744086,23.6731183 L36.7139785,24.2236559 C35.8193548,24.3268817 35.1655914,24.5333333 34.7526882,24.7741935 C34.0645161,25.1870968 33.7548387,25.8064516 33.7548387,26.6322581 C33.7548387,27.3892473 33.9612903,27.9053763 34.3397849,28.2494624 C34.7526882,28.5591398 35.2344086,28.7311828 35.8193548,28.7311828 C36.7827957,28.7311828 37.6086022,28.455914 38.4,27.9053763 C39.1225806,27.3548387 39.5354839,26.3569892 39.5354839,24.911828 L39.5354839,23.2258065 L38.744086,23.6731183 Z M23.0537634,10.0817204 L27.1827957,10.0817204 L27.1827957,31.655914 L23.0537634,31.655914 L23.0537634,10.0817204 Z M53.5053763,14.8989247 L55.1225806,14.4172043 L56.1892473,14.3483871 L56.2236559,18.5806452 L54.9505376,18.511828 C54.1591398,18.511828 53.4021505,18.7526882 52.6795699,19.2344086 C52.0258065,19.6817204 51.5096774,20.1978495 51.2344086,20.8172043 C50.8903226,21.4365591 50.7182796,22.4 50.7182796,23.7419355 L50.7182796,31.655914 L46.6236559,31.655914 L46.6236559,15.1053763 L50.5462366,15.1397849 L50.5462366,17.2387097 C51.4064516,16.1032258 52.4043011,15.3462366 53.5053763,14.8989247 Z" transform="translate(0 8)"/>
</svg>
