<svg xmlns="http://www.w3.org/2000/svg" width="86" height="48" viewBox="0 0 86 48">
  <path fill="#424242" fill-rule="evenodd" d="M62.8986777,30.0239654 L63.3780254,28.8255961 L63.665634,28.8255961 L64.1662861,30.1038567 L63.8786775,30.1038567 L63.7721557,29.8055959 L63.2501993,29.8055959 L63.1330254,30.1038567 L62.8667212,30.1038567 L62.8714933,30.0919263 L62.1423735,30.0919263 L62.1423735,28.8136657 L62.1423735,28.8253831 L62.3980256,28.8253831 L62.3980256,29.8906002 L62.8986777,29.8906002 L62.8986777,30.0239654 Z M45.5515346,30.0899469 L46.0572749,28.8255961 L46.3448836,28.8255961 L46.8455356,30.1038567 L46.557927,30.1038567 L46.4514053,29.8055959 L45.9294489,29.8055959 L45.812275,30.1038567 L45.5459707,30.1038567 L45.5461837,30.1033241 L45.2693338,30.1033241 L45.1202034,29.6985416 C45.1042251,29.6143894 45.0243338,29.5579329 44.9391165,29.5707155 L44.8538991,29.5707155 L44.8538991,30.1033241 L44.598247,30.1033241 L44.598247,28.8250635 L44.8752034,28.8250635 C45.1521599,28.8250635 45.4823772,28.8250635 45.4823772,29.1765852 C45.4834424,29.3299764 45.368399,29.4588677 45.2160729,29.474846 C45.2810512,29.489759 45.334312,29.538759 45.3545512,29.602672 L45.5515346,30.0899469 Z M30.516122,30.1031814 L31.0058631,28.8255961 L31.2934717,28.8255961 L31.7941238,30.1038567 L31.5065151,30.1038567 L31.3999934,29.8055959 L30.878037,29.8055959 L30.7608631,30.1038567 L30.5158632,30.1038567 L30.5160673,30.1033241 L30.2285741,30.1033241 L30.0794437,29.6985416 C30.0634655,29.6143894 29.982509,29.5579329 29.8983568,29.5707155 L29.8131394,29.5707155 L29.8131394,30.1033241 L29.5574873,30.1033241 L29.5574873,28.8250635 L29.5468351,28.8250635 L29.8237916,28.8250635 C30.1007481,28.8250635 30.4309654,28.8250635 30.4309654,29.1765852 C30.4320306,29.3299764 30.3159219,29.4588677 30.1646611,29.474846 C30.2296393,29.489759 30.2829002,29.538759 30.3031393,29.602672 L30.516122,30.1031814 Z M29.8768394,20.9210457 L31.4427086,20.9210457 C31.5066217,20.9157196 31.5641434,20.9625892 31.5694695,21.0275674 C31.5705347,21.0307631 31.5705347,21.0339587 31.5705347,21.0382196 L31.5705347,22.1034368 C31.5992955,22.2142193 31.5396434,22.330328 31.4320565,22.369741 C31.2999695,22.3186106 31.2115565,22.1918498 31.2083609,22.0501759 C31.1540348,21.7125021 30.9015783,21.4387413 30.5692306,21.3577847 L29.2483613,21.3577847 C29.1887091,21.3716326 29.1386439,21.4110456 29.1098831,21.4643065 C29.1098831,21.7519151 29.0566222,22.8810453 29.0566222,23.5095234 C29.0321222,23.6330886 29.0768613,23.7598494 29.1737961,23.8397407 L30.2390132,23.8397407 C30.4904045,23.8376103 30.7023827,23.6522625 30.7396653,23.4030017 C30.7545783,23.2890234 30.8323392,23.1942191 30.9420566,23.1580017 C31.0230131,23.2016756 31.0698826,23.2900887 31.0592305,23.3816973 L31.0592305,23.9888711 L31.0592305,24.7132188 C31.0592305,24.8623492 30.9740131,25.0327839 30.8994479,25.0327839 C30.8057088,24.9837839 30.7417957,24.8932405 30.7290131,24.787784 C30.708774,24.567284 30.5500567,24.3830015 30.3348828,24.3297406 C30.1303611,24.2945884 29.923709,24.2764797 29.7170568,24.2764797 C29.5189264,24.2668928 29.3197308,24.2668928 29.1205352,24.2764797 C29.0811222,24.302045 29.0523613,24.3393276 29.0353179,24.3830015 L29.0353179,26.1193054 C29.0353179,26.5134358 29.1311874,26.6199575 29.6211873,26.715827 C29.7447525,26.7136966 29.8566003,26.7903922 29.8981438,26.9075661 C29.8321003,27.0172835 29.703209,27.07374 29.5785786,27.0460443 L28.6198832,27.0460443 C28.2577093,27.0460443 27.554666,27.0993052 27.2564052,27.0993052 C26.9581444,27.0993052 26.9794488,27.0460443 26.9794488,26.9821313 C27.0135357,26.8596313 27.1285792,26.7754792 27.2564052,26.7797401 C27.5322965,26.7701531 27.7570573,26.5549792 27.7783616,26.279088 C27.7783616,25.9808272 27.8529268,25.4162621 27.8529268,23.5414799 L27.8529268,21.8477846 C27.8646442,21.560176 27.6409486,21.3173065 27.35334,21.3045239 C27.3522748,21.3045239 27.3522748,21.3045239 27.3522748,21.3045239 C27.1498835,21.251263 27.0433618,21.1980022 27.0433618,21.1021326 C27.0976879,20.9977413 27.2148617,20.9412848 27.3309704,20.9636544 L28.5666223,20.9636544 L29.8235786,20.9636544 L29.8768394,20.9210457 Z M35.7885816,20.9210457 C36.0697989,20.9199805 36.3510162,20.9018718 36.6301031,20.8677849 C36.6950814,20.8773718 36.7430161,20.9306327 36.747277,20.9956109 L36.747277,22.0608281 C36.7653857,22.1737411 36.7036031,22.2845237 36.5981466,22.3271324 C36.4990814,22.2887845 36.4298423,22.1982411 36.4170597,22.0927846 C36.3936249,21.7476542 36.1475597,21.4579152 35.8098859,21.3790891 C35.3720817,21.3268934 34.9300165,21.30985 34.4890166,21.3258282 C34.4890166,21.3258282 34.3718428,21.3258282 34.3611906,21.5921325 C34.3505384,21.8584368 34.3611906,23.1580017 34.3611906,23.7225668 C34.3665167,23.7736972 34.4069949,23.8131103 34.4570601,23.8184364 L35.2240165,23.8184364 C35.9057555,23.8184364 35.8844511,23.8184364 36.065538,23.360393 C36.0868424,23.2464148 36.1677989,23.1526756 36.2785815,23.115393 C36.3637988,23.1750452 36.4021466,23.2815669 36.374451,23.3816973 L36.374451,24.042132 L36.374451,24.6919144 C36.374451,24.9262622 36.374451,24.9795231 36.2466249,24.9795231 C36.1518206,24.9465013 36.0825815,24.8655448 36.065538,24.7664796 C36.0442337,24.4618275 35.7800598,24.2317406 35.4743425,24.253045 C35.4658208,24.253045 35.4562338,24.2541102 35.4477121,24.2551754 L34.4890166,24.2551754 C34.4336253,24.277545 34.3888862,24.3190884 34.3611906,24.3723493 C34.3377558,24.812284 34.3377558,25.2532839 34.3611906,25.6932186 C34.3462775,25.9520663 34.3462775,26.2119793 34.3611906,26.4708271 C34.3952775,26.5730879 34.4741036,26.6551096 34.574234,26.6945227 C34.8320166,26.7339357 35.0919295,26.7509792 35.3518425,26.7477835 C35.6458425,26.7637618 35.9409076,26.7350009 36.2253206,26.6625662 C36.5544727,26.5272836 36.8229074,26.2780228 36.9816248,25.9595228 C37.0242335,25.808262 37.135016,25.6868273 37.2798856,25.6293055 C37.3757551,25.6293055 37.365103,25.8316968 37.3544508,25.906262 C37.2596465,26.269501 37.1392769,26.6252836 36.9922769,26.9714791 C36.9379509,27.0417835 36.8569944,27.088653 36.7685813,27.0993052 L33.5729299,27.0993052 L32.5077127,27.0993052 C32.3266258,27.0993052 32.1881476,27.0993052 32.1881476,26.9714791 C32.2360824,26.8553705 32.3500606,26.7797401 32.4757562,26.7797401 C32.8294083,26.7882618 33.122343,26.5102401 33.1308648,26.1576532 C33.13193,26.1225011 33.1297996,26.0894793 33.1255387,26.0553924 C33.1255387,25.6506099 33.2001039,24.9262622 33.2001039,23.7438712 L33.2001039,21.9010455 C33.2416474,21.6102412 33.0392561,21.3407413 32.7484518,21.2981326 C32.7324736,21.2970674 32.7154301,21.2949369 32.6994518,21.2938717 C32.4970606,21.2938717 32.3905388,21.2193065 32.3905388,21.123437 C32.4512562,21.0190457 32.5705605,20.9647196 32.6887997,20.9849587 L34.4144514,20.9849587 L35.8418424,20.9849587 L35.7885816,20.9210457 Z M43.5007538,21.7628868 C44.0695797,22.3263867 44.3912753,23.0922778 44.3955362,23.8933211 C44.3976666,24.9904948 43.8235145,26.0099076 42.8829278,26.5776684 C42.2107758,26.9323857 41.4597977,27.1113422 40.6992326,27.0996248 C40.3051023,27.0996248 39.357059,27.0996248 38.7924939,27.0463639 L38.1427115,27.0463639 C37.929668,27.0463639 37.8231463,26.9717987 37.8231463,26.8972335 C37.8678854,26.801364 37.9626898,26.7395814 38.0681463,26.7374509 C38.6540157,26.6628857 38.7072766,26.5244075 38.7392331,25.6722338 L38.7392331,24.3513645 L38.7392331,22.146365 C38.7392331,21.5072347 38.6859722,21.3794087 38.1533636,21.3048435 C38.0553637,21.2952565 37.9712115,21.2345391 37.929668,21.1450609 C37.9722767,21.0449305 38.0787984,20.9874087 38.1853202,21.0065827 L38.6859722,21.0065827 C39.1546678,21.0065827 40.2518414,20.9320175 40.9548848,20.9320175 C41.8773628,20.8798218 42.785993,21.1759522 43.5007538,21.7628868 Z M40.0281458,21.2835391 C39.9791458,21.3112348 39.950385,21.3655608 39.9535806,21.4220173 L39.9535806,23.1050604 L39.9535806,24.4898427 L39.9535806,26.0546467 C39.9599719,26.2144293 40.0292111,26.3635597 40.1453197,26.4711466 C40.3338632,26.6085597 40.5532979,26.6969727 40.78445,26.7257335 C41.3245151,26.7108205 41.839015,26.4988423 42.2331453,26.1302772 C42.8413843,25.5145816 43.1620147,24.6719949 43.1172756,23.8081038 C43.1108843,23.0762996 42.8381887,22.372191 42.3503192,21.8267999 C41.8549933,21.3783434 41.2073412,21.1344087 40.5394501,21.1450609 C40.3604936,21.1429304 40.1826023,21.1908652 40.0281458,21.2835391 Z M48.6247678,20.9210457 C48.9059852,20.9199805 49.1872025,20.9018718 49.4662894,20.8677849 C49.5302024,20.8773718 49.5792024,20.9306327 49.5834633,20.9956109 L49.5834633,22.0608281 C49.601572,22.1737411 49.5397894,22.2845237 49.4343329,22.3271324 C49.3352677,22.2887845 49.2660285,22.1982411 49.2532459,22.0927846 C49.2298112,21.7476542 48.9826808,21.4579152 48.6460722,21.3790891 C48.2072027,21.3268934 47.7662028,21.30985 47.3252029,21.3258282 C47.3252029,21.3258282 47.208029,21.3258282 47.1973768,21.5921325 C47.1867247,21.8584368 47.1973768,23.1580017 47.1973768,23.7225668 C47.2027029,23.7736972 47.242116,23.8131103 47.2932464,23.8184364 L48.0602027,23.8184364 C48.7419417,23.8184364 48.7206374,23.8184364 48.9017243,23.360393 C48.9230286,23.2464148 49.0039851,23.1526756 49.1147677,23.115393 C49.1999851,23.1750452 49.2383329,23.2815669 49.2106373,23.3816973 L49.2106373,24.042132 L49.2106373,24.6919144 C49.2106373,24.9262622 49.2106373,24.9795231 49.0828112,24.9795231 C48.9880069,24.9465013 48.9187678,24.8655448 48.9017243,24.7664796 C48.8804199,24.4618275 48.6151809,24.2317406 48.3105288,24.253045 C48.3009418,24.253045 48.2924201,24.2541102 48.2838983,24.2551754 L47.3252029,24.2551754 C47.2698116,24.277545 47.2240073,24.3190884 47.1973768,24.3723493 C47.1728768,24.812284 47.1728768,25.2532839 47.1973768,25.6932186 C47.1824638,25.9520663 47.1824638,26.2119793 47.1973768,26.4708271 C47.2314638,26.5730879 47.3092246,26.6551096 47.4104203,26.6945227 C47.6682028,26.7339357 47.9281158,26.7509792 48.1880288,26.7477835 C48.4820287,26.764827 48.7760287,26.7350009 49.0615069,26.6625662 C49.390659,26.5272836 49.6590937,26.2780228 49.817811,25.9595228 C49.8604197,25.808262 49.9701371,25.6868273 50.1160718,25.6293055 C50.2119414,25.6293055 50.2012892,25.8316968 50.190637,25.906262 C50.0958327,26.269501 49.974398,26.6252836 49.8284632,26.9714791 C49.7730719,27.0417835 49.6931806,27.088653 49.6047676,27.0993052 L46.4091161,27.0993052 L45.343899,27.0993052 C45.1628121,27.0993052 45.0243338,27.0993052 45.0243338,26.9714791 C45.0722686,26.8553705 45.1851816,26.7797401 45.3119425,26.7797401 C45.6645294,26.7882618 45.9585293,26.5102401 45.967051,26.1576532 C45.9681162,26.1225011 45.9659858,26.0894793 45.9617249,26.0553924 C45.9617249,25.6506099 46.0362901,24.9262622 46.0362901,23.7438712 L46.0362901,21.9010455 C46.0778336,21.6102412 45.8754424,21.3407413 45.5846381,21.2981326 C45.5675946,21.2970674 45.5516163,21.2949369 45.5356381,21.2938717 C45.3332468,21.2938717 45.2267251,21.2193065 45.2267251,21.123437 C45.2874425,21.0190457 45.4067468,20.9647196 45.5249859,20.9849587 L47.2506377,20.9849587 L48.6247678,20.9849587 L48.6247678,20.9210457 Z M55.6766119,20.9210457 C55.9003075,20.9796327 56.128264,21.0265022 56.3583509,21.0595239 C56.4552856,21.1053283 56.5117421,21.2097196 56.4968291,21.3151761 L56.4968291,22.1886541 C56.5426334,22.3324584 56.4744595,22.4879801 56.3370465,22.550828 C56.2433074,22.4954367 56.177264,22.4027628 56.1559596,22.2951758 C56.0877857,22.0341976 55.9471771,21.7987846 55.7511771,21.6134369 C55.3591772,21.2672413 54.8574599,21.0701761 54.3344383,21.0595239 C52.8218299,21.0595239 52.0974823,22.2632193 52.0974823,23.7119147 C52.0804388,24.2658276 52.1901562,24.8154796 52.4170474,25.3203926 C52.7888082,26.1693706 53.6207428,26.7232835 54.5474817,26.7371314 C54.8702425,26.7381966 55.1876772,26.661501 55.4742206,26.5134358 C55.8289379,26.3078489 56.1176118,26.0053272 56.30509,25.6399577 C56.3381117,25.5057403 56.4329161,25.396023 56.5607421,25.3416969 C56.6672638,25.3416969 56.6672638,25.5866968 56.6353073,25.6932186 C56.5671334,25.979762 56.4712639,26.2567184 56.3476987,26.5240879 C56.2667422,26.6583053 56.1485031,26.7669574 56.0068292,26.8330009 C55.4688946,27.0172835 54.9032642,27.1110226 54.3344383,27.1099574 C53.2947863,27.1483052 52.2838953,26.764827 51.5329172,26.0447402 C51.0141564,25.4567404 50.7297434,24.6983057 50.7340043,23.9143059 C50.7382652,23.0323061 51.1270694,22.1961106 51.7992215,21.624089 C52.5320909,21.0478066 53.4439167,20.7431544 54.377047,20.7612631 C54.8148512,20.7612631 55.2515903,20.814524 55.6766119,20.9210457 Z M60.7894412,20.9746261 L61.1729194,22.0398433 C61.6948758,23.5204951 62.3446582,25.2354947 62.5363973,25.7254946 C62.6120277,26.1824728 62.9433103,26.5542336 63.388571,26.6831249 C63.4972232,26.6884509 63.5920275,26.7544944 63.633571,26.8546248 C63.633571,26.9185378 63.5377014,26.9920378 63.3140058,26.9920378 L62.0677018,26.9920378 L61.1303107,26.9920378 C60.9385716,26.9920378 60.8213977,26.9398422 60.8213977,26.8546248 C60.8640064,26.7576901 60.9598759,26.693777 61.0663976,26.6948422 C61.460528,26.5989727 61.4711802,26.4498423 61.4498758,26.2900597 C61.3454845,25.8128424 61.1995498,25.3462773 61.0131368,24.8946253 C60.965202,24.814734 60.8821151,24.7636035 60.7894412,24.756147 L59.1916155,24.756147 C59.1468763,24.7763862 59.1095937,24.8104731 59.0850937,24.8520166 C58.880572,25.290886 58.7442243,25.7574512 58.6803112,26.2357337 C58.6973547,26.4711466 58.8922894,26.6522336 59.1277024,26.6522336 C59.3194415,26.6522336 59.4046589,26.7587553 59.4046589,26.8439726 C59.3492676,26.9472987 59.2310285,26.9994944 59.1170503,26.9717987 L58.3500939,26.9717987 L57.4020506,26.9717987 C57.2529202,26.9717987 57.1463985,26.9398422 57.1463985,26.8865813 C57.1463985,26.8333205 57.1463985,26.7481031 57.3807463,26.6948422 C57.8057679,26.5947118 58.1391809,26.266625 58.2435722,25.8426685 C58.47792,25.3846251 59.5005284,22.6470171 59.8946588,21.7415825 C59.9212892,21.6797999 59.9436588,21.6158869 59.9585718,21.5498434 C59.9777457,21.5008434 60.0033109,21.4539739 60.033137,21.4113652 C60.1290066,21.2835391 60.3953108,20.9852783 60.4592239,20.8787566 C60.4922456,20.8116479 60.5550934,20.7637131 60.6296586,20.7509305 C60.6296586,20.7509305 60.714876,20.8041914 60.7894412,20.9746261 Z M60.7894412,24.1702776 C60.650963,23.7228864 60.2248761,22.5724519 60.09705,22.2528867 C60.09705,22.1889737 60.0224848,22.2528867 59.9905283,22.2528867 C59.8200936,22.7109301 59.3620502,23.9146255 59.3087893,24.1383211 C59.302398,24.181995 59.3300937,24.2235385 59.3727024,24.2341906 L60.7574847,24.2341906 C60.778789,24.2320602 60.7979629,24.2203428 60.8107455,24.2022341 L60.7894412,24.1702776 Z M67.9583526,20.9106066 C68.2118743,20.9201935 68.4643308,20.8690631 68.6933525,20.7614762 C68.7359611,20.7252588 68.7870916,20.6996936 68.8424829,20.686911 C68.9287655,20.7295197 68.9660481,20.8328457 68.9277002,20.9212588 C68.8318307,21.2695848 68.7636568,21.6264325 68.725309,21.9864759 C68.7295698,22.1004541 68.6539394,22.2016498 68.5442221,22.2314759 C68.480309,22.2314759 68.416396,22.2314759 68.3844395,21.9332151 C68.2885699,21.3899543 68.1607439,21.3047369 67.7027005,21.2834326 L66.5416138,21.2834326 C66.4872877,21.2972804 66.4489399,21.3452152 66.4457443,21.4006065 L66.4457443,23.3819104 L66.4457443,25.9703881 C66.4457443,26.279301 66.552266,26.4710401 67.1913963,26.5988662 C67.297918,26.6148444 67.3884614,26.6883444 67.425744,26.7906053 C67.3735484,26.8854096 67.2670267,26.93654 67.1594398,26.9184313 L65.7427009,26.9184313 C65.4444401,26.9184313 64.6774838,26.9716922 64.5496577,26.9716922 C64.4218317,26.9716922 64.2513969,26.9716922 64.2513969,26.8545183 C64.2780274,26.7522575 64.3611143,26.6734314 64.4644404,26.652127 C65.0822663,26.5029966 65.124875,26.3751706 65.1568315,25.7040838 C65.188788,25.032997 65.2420489,23.2434322 65.2420489,22.5084323 L65.2420489,21.4432152 C65.2441793,21.3771717 65.1994402,21.31965 65.1355272,21.3047369 L64.07031,21.3047369 C63.8753753,21.3153891 63.6910927,21.3952804 63.5483536,21.5284325 C63.4237232,21.682889 63.3172015,21.8511933 63.2287885,22.0290846 C63.1904406,22.1345411 63.1148102,22.2218889 63.015745,22.2740845 C62.9220059,22.2485193 62.863419,22.1569107 62.8772668,22.0610411 C62.8772668,21.8799542 63.0477016,21.2621282 63.0583537,20.7721284 C63.0732668,20.6847805 63.1286581,20.6091501 63.2074841,20.5697371 C63.2767232,20.598498 63.334245,20.6506936 63.3672667,20.7188675 C63.4769841,20.8126066 63.6165275,20.8648022 63.761397,20.8679979 C63.9744405,20.8679979 65.2313967,20.9212588 65.8918313,20.9212588 L67.9583526,20.9106066 Z M69.7268261,20.8893022 L70.7920433,20.8893022 L71.8572604,20.8893022 C72.0383474,20.8893022 72.1342169,20.9532153 72.1342169,21.0277805 C72.0884126,21.1460196 71.9733691,21.2227152 71.8466083,21.2195196 C71.5526083,21.2312369 71.3235867,21.4783673 71.335304,21.7723673 L71.335304,21.7734325 L71.335304,24.351258 C71.2351736,24.9914535 71.4311736,25.641236 71.8679126,26.1195185 C72.2023908,26.3741054 72.6082385,26.5189749 73.0289993,26.5349532 C73.826847,26.6212357 74.5554555,26.0769098 74.7013902,25.2886491 C74.8505206,24.4236928 74.911238,23.5459538 74.8824772,22.6682149 C74.9101728,22.3593019 74.9101728,22.0493237 74.8824772,21.741476 C74.8398685,21.4283021 74.5703685,21.1950196 74.253999,21.1982152 C74.1432165,21.1790413 74.0473469,21.1076718 73.9983469,21.0064761 C74.0452165,20.9116718 74.1517382,20.863737 74.253999,20.8893022 L75.1274771,20.8893022 L76.0116073,20.8893022 C76.1138682,20.8679979 76.2150638,20.9276501 76.2459551,21.0277805 C76.1958899,21.1183239 76.1042812,21.1779761 76.0009552,21.187563 C75.6036292,21.2344326 75.3192162,21.594476 75.3660857,21.991802 C75.3703466,22.0216281 75.3756727,22.0525194 75.3831292,22.0823455 C75.3831292,22.5297367 75.3298684,23.669519 75.308564,24.2127798 C75.244651,25.8212577 74.7546511,26.4816923 74.0729121,26.8758226 C73.6691948,27.0856704 73.2175428,27.1889965 72.762695,27.1740834 C72.115043,27.1996487 71.4801736,26.9919313 70.9731302,26.588214 C70.4405216,26.0875619 70.2061739,25.5229969 70.2061739,23.9890842 L70.2061739,21.6669108 C70.1742173,21.4251065 69.9707609,21.2440196 69.7268261,21.2408239 C69.6160436,21.2291065 69.5191088,21.1598674 69.471174,21.059737 C69.5084566,20.9521501 69.6128479,20.8829109 69.7268261,20.8893022 Z M80.8048715,23.6480016 L80.4320455,23.8503929 C80.3936977,23.8876755 80.3926324,23.9473276 80.4288498,23.9856755 L80.4320455,23.9888711 C80.8442845,24.7792622 81.3257627,25.5313056 81.8700886,26.2364793 C82.0756756,26.4910662 82.3675451,26.661501 82.6903058,26.715827 C82.7670015,26.7296748 82.8319797,26.7808053 82.8607406,26.8543053 C82.8373058,26.9224792 82.7819145,26.9746748 82.7116102,26.9927835 C82.5028276,27.0439139 82.2876538,27.0694791 82.0724799,27.0673487 C81.518567,27.1270008 80.9731758,26.8926531 80.6344367,26.4495227 C80.3681325,26.0873489 79.8781326,25.3108056 79.4840022,24.6173492 C79.4019805,24.4682188 79.2986544,24.3308058 79.1750892,24.2125667 C79.036611,24.1284146 78.8789589,24.0847407 78.7170459,24.0847407 C78.6648502,24.0921972 78.6233068,24.130545 78.6105242,24.1806102 L78.6105242,26.0766967 C78.5636546,26.367501 78.7607198,26.6412618 79.0515241,26.6881314 C79.0813501,26.6923922 79.1122414,26.6945227 79.1431327,26.6945227 C79.2496544,26.6998488 79.3391327,26.7733488 79.3668283,26.8756096 C79.3082414,26.9821313 79.1878719,27.0385878 79.0685675,27.0140878 C78.7383502,27.0140878 78.3122634,26.960827 77.8435678,26.960827 L76.9274811,26.960827 C76.8209593,26.960827 76.6185681,26.8969139 76.6185681,26.8116966 C76.6654376,26.7296748 76.7485246,26.6742836 76.8422637,26.6625662 C77.1490462,26.6572401 77.4004375,26.416501 77.4174809,26.1097185 C77.4707418,25.3736534 77.4707418,24.5747405 77.4707418,23.7651755 L77.4707418,21.6347412 C77.4707418,21.3364804 77.3642201,21.2619152 76.9168289,21.1553935 C76.8103072,21.1458065 76.7186985,21.074437 76.6824811,20.9743066 C76.7304159,20.8688501 76.8454593,20.8102631 76.9594376,20.8358283 L77.6518287,20.8358283 L79.3135675,20.8358283 C79.8983717,20.7932197 80.4799803,20.9391544 80.9753062,21.251263 C81.2991322,21.5410021 81.4855452,21.9564368 81.4866105,22.3910454 C81.4866105,22.8980887 81.2298931,23.3710452 80.8048715,23.6480016 Z M79.8781326,21.5175673 C79.6757413,21.3055891 79.394524,21.1852196 79.100524,21.18735 C78.9780241,21.1937413 78.8565893,21.2150456 78.7383502,21.251263 C78.6808285,21.3066543 78.6403502,21.3769587 78.6211763,21.4536543 C78.6211763,21.7732194 78.5572633,23.4456104 78.6211763,23.6906103 C78.6350241,23.7534581 78.6861546,23.8003277 78.7490024,23.8077842 C79.1154371,23.8173712 79.4797413,23.7438712 79.8142195,23.5947408 C80.1540238,23.3465452 80.3521542,22.9502844 80.3468281,22.5295236 C80.3233933,22.1481759 80.1561542,21.7902629 79.8781326,21.5282195 L79.8781326,21.5175673 Z M25.4667339,28.8253831 L26.1804294,28.8253831 L26.1804294,29.0267091 L25.722386,29.0267091 L25.722386,29.3260351 L26.159125,29.3260351 L26.159125,29.5390786 L25.722386,29.5390786 L25.722386,30.1036437 L25.4667339,30.1036437 L25.4667339,28.8253831 Z M26.3405315,28.8253831 L27.0968357,28.8253831 L27.0968357,29.0267091 L26.5961836,29.0267091 L26.5961836,29.3260351 L27.054227,29.3260351 L27.054227,29.5390786 L26.5961836,29.5390786 L26.5961836,29.9012524 L27.0968357,29.9012524 L27.0968357,30.1036437 L26.3405315,30.1036437 L26.3405315,28.8253831 Z M27.3201052,28.8253831 L27.6716269,28.8253831 C28.0242137,28.7604048 28.3629528,28.9936874 28.427931,29.3462743 C28.4929093,29.6999264 28.2596267,30.0386654 27.9059746,30.1036437 C27.8282138,30.1174915 27.7493877,30.1174915 27.6716269,30.1036437 L27.3201052,30.1036437 L27.3201052,28.8253831 Z M27.5757573,29.8906002 L27.7142355,29.8906002 C27.9549746,29.8906002 28.1509746,29.6935351 28.1509746,29.4538612 C28.1509746,29.2120569 27.9549746,29.0171222 27.7142355,29.0171222 L27.5757573,29.0171222 L27.5757573,29.8906002 Z M28.5983658,28.8253831 L29.35467,28.8253831 L29.35467,29.0267091 L28.8540179,29.0267091 L28.8540179,29.3260351 L29.3120613,29.3260351 L29.3120613,29.5390786 L28.8540179,29.5390786 L28.8540179,29.9012524 L29.35467,29.9012524 L29.35467,30.1036437 L28.5983658,30.1036437 L28.5983658,28.8253831 Z M29.8024873,29.3257156 L29.8877046,29.3257156 C30.0155307,29.3257156 30.1646611,29.3257156 30.1646611,29.1446287 C30.1646611,28.9635417 30.0261829,28.9741939 29.8877046,28.9741939 L29.8024873,28.9741939 L29.8024873,29.3257156 Z M31.1443413,29.080183 L30.9632544,29.6127916 L31.3360804,29.6127916 L31.1443413,29.080183 Z M32.8592344,30.0820197 C32.7644301,30.0926719 32.6674953,30.0926719 32.5716258,30.0820197 C32.2339519,30.1299545 31.9218433,29.8934763 31.8739085,29.5558025 C31.8685824,29.5185199 31.8675172,29.4812373 31.8685824,29.4428895 C31.8430172,29.0903026 32.1082563,28.7845853 32.459778,28.7600853 C32.4970606,28.7568896 32.5343432,28.7579548 32.5716258,28.7611505 C32.6664301,28.744107 32.7644301,28.744107 32.8592344,28.7611505 L32.8592344,28.9741939 C32.774017,28.9283896 32.6792127,28.90602 32.5822779,28.9102809 C32.3468649,28.9092157 32.1551259,29.0988243 32.1540606,29.3342373 C32.1540606,29.3502156 32.1551259,29.3640634 32.1561911,29.3789764 C32.1391476,29.6143894 32.3149084,29.8178459 32.5492562,29.8370198 C32.5641692,29.838085 32.5780171,29.838085 32.5929301,29.838085 C32.6877344,29.838085 32.7825388,29.8199763 32.8698866,29.7837589 L32.8698866,29.9968024 L32.8592344,30.0820197 Z M32.9766213,30.103111 L32.9766213,28.8248505 L33.2322734,28.8248505 L33.2322734,30.103111 L32.9766213,30.103111 Z M34.0310798,28.484194 L34.2867319,28.484194 L34.0310798,28.7504983 L33.8819494,28.7504983 L34.0310798,28.484194 Z M34.0310798,28.8037592 C34.3953841,28.7856505 34.7053622,29.0668678 34.7224057,29.4322373 C34.7405144,29.7954763 34.4592971,30.1054545 34.0949928,30.1235632 C33.7306885,30.1406067 33.4207104,29.8593894 33.4036669,29.4950851 C33.4026017,29.4844329 33.4026017,29.474846 33.4026017,29.4641938 C33.3663843,29.1361069 33.6028625,28.842107 33.9309494,28.8069548 C33.9639711,28.8026939 33.9980581,28.8016287 34.0310798,28.8037592 Z M34.0310798,29.9328893 C34.2877971,29.9978676 34.5487753,29.8412807 34.6126884,29.5845633 C34.6776666,29.3289112 34.5221449,29.067933 34.2654276,29.0029548 C34.0087102,28.9390417 33.747732,29.0934982 33.683819,29.3502156 C33.674232,29.3885634 33.668906,29.425846 33.668906,29.4641938 C33.6326886,29.6793677 33.7786233,29.8817589 33.992732,29.9179763 C34.0055146,29.9201067 34.0182972,29.9222372 34.0310798,29.9222372 L34.0310798,29.9328893 Z M34.7769448,28.8253831 L35.09651,28.8253831 L35.5865099,29.7830133 L35.5865099,28.8253831 L35.842162,28.8253831 L35.842162,30.1036437 L35.533249,30.1036437 L35.0432491,29.1449482 L35.0432491,30.1036437 L34.7769448,30.1036437 L34.7769448,28.8253831 Z M36.587814,28.8253831 L36.9073791,28.8253831 C37.259966,28.7604048 37.5987051,28.9936874 37.6636833,29.3462743 C37.7286616,29.6999264 37.4943138,30.0386654 37.1417269,30.1036437 C37.0639661,30.1174915 36.98514,30.1174915 36.9073791,30.1036437 L36.587814,30.1036437 L36.587814,28.8253831 Z M36.8434661,29.8906002 L36.9819443,29.8906002 C37.2226834,29.8906002 37.4186834,29.6935351 37.4186834,29.4538612 C37.4186834,29.2120569 37.2226834,29.0171222 36.9819443,29.0171222 L36.8434661,29.0171222 L36.8434661,29.8906002 Z M37.8659681,28.8253831 L38.6222722,28.8253831 L38.6222722,29.0267091 L38.1216202,29.0267091 L38.1216202,29.3260351 L38.5796635,29.3260351 L38.5796635,29.5390786 L38.1216202,29.5390786 L38.1216202,29.9012524 L38.6222722,29.9012524 L38.6222722,30.1036437 L37.8659681,30.1036437 L37.8659681,28.8253831 Z M40.2309632,30.0820197 C40.1350936,30.0926719 40.0381589,30.0926719 39.9433545,30.0820197 C39.6056807,30.1299545 39.2925069,29.8934763 39.2456373,29.5558025 C39.2403112,29.5185199 39.2381808,29.4812373 39.2403112,29.4428895 C39.214746,29.0903026 39.4789199,28.7845853 39.8315067,28.7600853 C39.8687893,28.7568896 39.9060719,28.7579548 39.9433545,28.7611505 C40.0381589,28.744107 40.1361589,28.744107 40.2309632,28.7611505 L40.2309632,28.9741939 C40.1457458,28.9283896 40.0498763,28.90602 39.9540067,28.9102809 C39.7185937,28.9092157 39.5268546,29.0988243 39.5257894,29.3342373 C39.5257894,29.3502156 39.5257894,29.3640634 39.5279199,29.3789764 C39.5098112,29.6143894 39.685572,29.8178459 39.9199198,29.8370198 C39.9348328,29.838085 39.9497459,29.838085 39.9646589,29.838085 C40.0594632,29.838085 40.1532023,29.8199763 40.2416154,29.7837589 L40.2416154,29.9968024 L40.2309632,30.0820197 Z M40.8806391,28.4737549 L41.1682478,28.4737549 L40.9125956,28.7400592 L40.7421609,28.7400592 L40.8806391,28.4737549 Z M40.7421609,28.8252766 L41.0297695,28.8252766 L41.5304216,30.1035371 L41.242813,30.1035371 L41.1362912,29.8052763 L40.6143348,29.8052763 L40.4971609,30.1035371 L40.2308567,30.1035371 L40.7421609,28.8252766 Z M40.8806391,29.0798635 L40.6995522,29.612472 L41.0723782,29.612472 L40.8806391,29.0798635 Z M41.6582476,28.8253831 L42.0736823,28.8253831 L42.3825953,29.7947307 L42.6915083,28.8253831 L43.106943,28.8253831 L43.106943,30.1036437 L42.861943,30.1036437 L42.861943,29.0384265 L42.5210735,30.1036437 L42.2334649,30.1036437 L41.8925954,29.0384265 L41.8925954,30.1036437 L41.6475955,30.1036437 L41.6475955,28.8253831 L41.6582476,28.8253831 Z M43.7032515,28.8255961 L43.9908602,28.8255961 L44.4915122,30.1038567 L44.2039036,30.1038567 L44.0973819,29.8055959 L43.5754255,29.8055959 L43.4582516,30.1038567 L43.1919473,30.1038567 L43.7032515,28.8255961 Z M43.8417298,29.080183 L43.6606428,29.6127916 L44.0334689,29.6127916 L43.8417298,29.080183 Z M44.8538991,29.3257156 L44.9391165,29.3257156 C45.0669425,29.3257156 45.2160729,29.3257156 45.2160729,29.1446287 C45.2160729,28.9635417 45.0775947,28.9741939 44.9391165,28.9741939 L44.8538991,28.9741939 L44.8538991,29.3257156 Z M46.1957531,29.080183 L46.0146662,29.6127916 L46.3874922,29.6127916 L46.1957531,29.080183 Z M47.6661789,29.0594113 C47.5852224,29.0253243 47.4978746,29.0061504 47.4105268,29.0061504 C47.3114616,28.9933678 47.2209181,29.0658026 47.2092007,29.1648678 C47.2081355,29.1712591 47.2081355,29.1797808 47.2081355,29.1872373 C47.2081355,29.4109329 47.7727006,29.3150634 47.7727006,29.7411503 C47.7641789,29.9648459 47.5777659,30.1395415 47.3540703,30.1310197 C47.3338312,30.1310197 47.3125268,30.1288893 47.2933529,30.1246284 C47.1836355,30.1416719 47.0717877,30.1416719 46.9631356,30.1246284 L46.9631356,29.8902807 C47.0515486,29.9382154 47.1506138,29.9637806 47.2507442,29.9648459 C47.3583311,29.9776285 47.4573963,29.9019981 47.4744398,29.7944111 C47.4744398,29.5494112 46.9098747,29.6559329 46.9098747,29.229846 C46.9077443,29.0125417 47.0824399,28.8335852 47.2997442,28.8314548 C47.3189181,28.8314548 47.338092,28.83252 47.3572659,28.8357157 C47.4595268,28.8186722 47.5639181,28.8186722 47.6661789,28.8357157 L47.6661789,29.0594113 Z M48.4118309,28.8253831 L48.7633526,28.8253831 C49.1159395,28.7604048 49.4546785,28.9936874 49.5196568,29.3462743 C49.584635,29.6999264 49.3502872,30.0386654 48.9977003,30.1036437 C48.9199395,30.1174915 48.8411134,30.1174915 48.7633526,30.1036437 L48.4118309,30.1036437 L48.4118309,28.8253831 Z M48.667483,29.8906002 L48.8059613,29.8906002 C49.0467003,29.8906002 49.2427003,29.6935351 49.2427003,29.4538612 C49.2427003,29.2120569 49.0467003,29.0171222 48.8059613,29.0171222 L48.6248743,29.0171222 L48.6248743,29.8906002 L48.667483,29.8906002 Z M49.689985,28.8253831 L50.4462892,28.8253831 L50.4462892,29.0267091 L49.9456371,29.0267091 L49.9456371,29.3260351 L50.4036805,29.3260351 L50.4036805,29.5390786 L49.9456371,29.5390786 L49.9456371,29.9012524 L50.4462892,29.9012524 L50.4462892,30.1036437 L49.689985,30.1036437 L49.689985,28.8253831 Z M51.3621629,29.0271352 L50.999989,29.0271352 L50.999989,28.8258092 L51.990641,28.8258092 L51.990641,29.0271352 L51.6284672,29.0271352 L51.6284672,30.0923524 L51.372815,30.0923524 L51.372815,29.0271352 L51.3621629,29.0271352 Z M52.0971627,28.8253831 L52.3528148,28.8253831 L52.3528148,29.5593177 C52.3528148,29.7830133 52.42738,29.9214915 52.6191191,29.9214915 C52.8108582,29.9214915 52.8854234,29.7830133 52.8854234,29.5593177 L52.8854234,28.8253831 L53.1410755,28.8253831 L53.1410755,29.6456003 C53.1410755,29.9396002 52.9024669,30.1782089 52.6084669,30.1782089 C52.314467,30.1782089 52.0758584,29.9396002 52.0758584,29.6456003 L52.0758584,28.8253831 L52.0971627,28.8253831 Z M53.354332,28.8250635 L53.6312884,28.8250635 C53.9082449,28.8250635 54.2384622,28.8250635 54.2384622,29.1765852 C54.2395274,29.3299764 54.124484,29.4588677 53.9721579,29.474846 C54.0371362,29.489759 54.0893318,29.538759 54.1106362,29.602672 L54.3130274,30.1033241 L54.0254188,30.1033241 L53.8762884,29.6985416 C53.8603101,29.6143894 53.7804188,29.5579329 53.6952015,29.5707155 L53.6099841,29.5707155 L53.6099841,30.1033241 L53.354332,30.1033241 L53.354332,28.8250635 Z M53.6206363,29.3257156 L53.7058536,29.3257156 C53.8336797,29.3257156 53.9828101,29.3257156 53.9828101,29.1446287 C53.9828101,28.9635417 53.8443319,28.9741939 53.7058536,28.9741939 L53.6206363,28.9741939 L53.6206363,29.3257156 Z M54.4300948,30.103111 L54.4300948,28.8248505 L54.6857469,28.8248505 L54.6857469,30.103111 L54.4300948,30.103111 Z M55.6126989,29.0594113 C55.5317424,29.0253243 55.4443946,29.0061504 55.3570468,29.0061504 C55.2579816,28.9933678 55.1674381,29.0658026 55.1557207,29.1648678 C55.1546555,29.1712591 55.1546555,29.1797808 55.1546555,29.1872373 C55.1546555,29.4109329 55.7192206,29.3150634 55.7192206,29.7411503 C55.7106988,29.9648459 55.5242858,30.1395415 55.3005902,30.1310197 C55.2803511,30.1310197 55.2590468,30.1288893 55.2398729,30.1246284 C55.1301555,30.1416719 55.0183077,30.1416719 54.9096555,30.1246284 L54.9096555,29.8902807 C54.9980686,29.9382154 55.0971338,29.9637806 55.1972642,29.9648459 C55.3048511,29.9776285 55.4039163,29.9019981 55.4209598,29.7944111 C55.4209598,29.5494112 54.8563947,29.6559329 54.8563947,29.229846 C54.8542643,29.0125417 55.0289599,28.8335852 55.2462642,28.8314548 C55.2654381,28.8314548 55.284612,28.83252 55.3037859,28.8357157 C55.4060467,28.8186722 55.510438,28.8186722 55.6126989,28.8357157 L55.6126989,29.0594113 Z M55.8893358,28.8253831 L56.3047705,28.8253831 L56.6136834,29.7947307 L56.9225964,28.8253831 L57.3380311,28.8253831 L57.3380311,30.1036437 L57.0930311,30.1036437 L57.0930311,29.0384265 L56.7521617,30.1036437 L56.5071617,30.1036437 L56.1662922,29.0384265 L56.1662922,30.1036437 L55.9212923,30.1036437 L55.9212923,28.8253831 L55.8893358,28.8253831 Z M58.1478092,28.8030135 C58.5121134,28.78597 58.8220916,29.0671874 58.8391351,29.4314916 C58.8572438,29.7957959 58.5760265,30.1057741 58.2117222,30.1238828 C57.8474179,30.139861 57.5374397,29.8597089 57.5203963,29.4954047 C57.519331,29.4847525 57.519331,29.4741003 57.519331,29.4645134 C57.4831137,29.1364265 57.7195919,28.8424265 58.0476788,28.8062092 C58.0807005,28.8019483 58.1147874,28.8019483 58.1478092,28.8030135 Z M58.1478092,29.9332089 C58.4045265,29.9981872 58.6644395,29.8416002 58.7294177,29.5848829 C58.794396,29.3292308 58.6388743,29.0682526 58.3821569,29.0032743 C58.1254396,28.9382961 57.8644614,29.0938178 57.8005484,29.3505351 C57.7909614,29.3878177 57.7856353,29.4251003 57.7856353,29.4645134 C57.749418,29.6796872 57.8953527,29.8820785 58.1094614,29.9172307 C58.122244,29.9193611 58.1350266,29.9214915 58.1478092,29.9214915 L58.1478092,29.9332089 Z M59.4259632,28.8253831 L59.7774849,28.8253831 C60.1300718,28.7604048 60.4688108,28.9936874 60.5337891,29.3462743 C60.5987673,29.6999264 60.3654848,30.0386654 60.0118327,30.1036437 C59.9340718,30.1174915 59.8552457,30.1174915 59.7774849,30.1036437 L59.4259632,30.1036437 L59.4259632,28.8253831 Z M59.6816153,29.8906002 L59.8200936,29.8906002 C60.0608327,29.8906002 60.2568326,29.6935351 60.2568326,29.4538612 C60.2568326,29.2120569 60.0608327,29.0171222 59.8200936,29.0171222 L59.6816153,29.0171222 L59.6816153,29.8906002 Z M60.7042238,28.8253831 L61.460528,28.8253831 L61.460528,29.0267091 L60.9598759,29.0267091 L60.9598759,29.3260351 L61.4072671,29.3260351 L61.4072671,29.5390786 L60.9492238,29.5390786 L60.9492238,29.9012524 L61.4498758,29.9012524 L61.4498758,30.1036437 L60.6935716,30.1036437 L60.6935716,28.8253831 L60.7042238,28.8253831 Z M63.537808,29.080183 L63.356721,29.6127916 L63.729547,29.6127916 L63.537808,29.080183 Z M64.7307447,28.8250635 L65.0077011,28.8250635 C65.2846576,28.8250635 65.6148749,28.8250635 65.6148749,29.1765852 C65.6159401,29.3299764 65.5008967,29.4588677 65.3485706,29.474846 C65.4135488,29.489759 65.4668097,29.538759 65.4870488,29.602672 L65.6681357,30.1033241 L65.3805271,30.1033241 L65.2313967,29.6985416 C65.2154185,29.6143894 65.1355272,29.5579329 65.0503098,29.5707155 L64.9650924,29.5707155 L64.9650924,30.1033241 L64.7094403,30.1033241 L64.7094403,28.8250635 L64.7307447,28.8250635 Z M64.9863968,29.3257156 L65.0716141,29.3257156 C65.1994402,29.3257156 65.3485706,29.3257156 65.3485706,29.1446287 C65.3485706,28.9635417 65.2100924,28.9741939 65.0716141,28.9741939 L64.9863968,28.9741939 L64.9863968,29.3257156 Z M65.8279183,28.8253831 L66.5842225,28.8253831 L66.5842225,29.0267091 L66.0835704,29.0267091 L66.0835704,29.3260351 L66.5416138,29.3260351 L66.5416138,29.5390786 L66.0835704,29.5390786 L66.0835704,29.9012524 L66.5842225,29.9012524 L66.5842225,30.1036437 L65.8279183,30.1036437 L65.8279183,28.8253831 Z M66.7332464,28.8248505 L67.0634637,28.8248505 C67.2914202,28.7662635 67.5236375,28.9026113 67.5832897,29.1305678 C67.589681,29.1550678 67.5939418,29.1816982 67.5960723,29.2083286 C67.5939418,29.4384155 67.4064636,29.6216329 67.1763767,29.6205677 C67.1529419,29.6205677 67.1295072,29.6184372 67.1060724,29.6131112 L66.9995507,29.6131112 L66.9995507,30.1041763 L66.7332464,30.1041763 L66.7332464,28.8248505 Z M66.9888985,29.4213721 L67.0741159,29.4213721 C67.1838332,29.4448068 67.2914202,29.3755677 67.3148549,29.2658504 C67.3180506,29.254133 67.3191158,29.2424156 67.3191158,29.229633 C67.3212462,29.1177852 67.2328332,29.0251113 67.1220506,29.0229809 C67.1050072,29.0229809 67.0900941,29.0240461 67.0741159,29.0272417 L66.9888985,29.0272417 L66.9888985,29.4213721 Z M67.7986766,28.8253831 L68.0543287,28.8253831 L68.0543287,29.5593177 C68.0543287,29.7830133 68.1288939,29.9214915 68.320633,29.9214915 C68.5123721,29.9214915 68.5869373,29.7830133 68.5869373,29.5593177 L68.5869373,28.8253831 L68.8638937,28.8253831 L68.8638937,29.6456003 C68.8638937,29.9396002 68.6252851,30.1782089 68.3312852,30.1782089 C68.0372852,30.1782089 67.7986766,29.9396002 67.7986766,29.6456003 L67.7986766,28.8253831 Z M69.0555263,28.8253831 L69.5029175,28.8253831 C69.6935914,28.7902309 69.8768087,28.9159265 69.9130261,29.1066004 C69.9151565,29.1225787 69.917287,29.1385569 69.9183522,29.1556004 C69.9194174,29.3026004 69.8086348,29.4261655 69.6627001,29.443209 C69.8235479,29.443209 69.9545696,29.5699699 69.9609609,29.7308177 C69.9577652,29.9427959 69.7841348,30.1111002 69.5721566,30.1089697 C69.5529827,30.1079045 69.5327436,30.1068393 69.5135697,30.1036437 L69.0661785,30.1036437 L69.0661785,28.8253831 L69.0555263,28.8253831 Z M69.3111784,29.8906002 L69.4283523,29.8906002 C69.5423305,29.9204263 69.6584392,29.8533176 69.6882653,29.7382742 C69.6914609,29.7297524 69.6935914,29.7191003 69.6946566,29.7095133 C69.6872001,29.5923394 69.5849392,29.5039264 69.4677653,29.5113829 C69.4539175,29.5124481 69.4411349,29.5135134 69.4283523,29.516709 L69.3111784,29.516709 L69.3111784,29.8906002 Z M69.3111784,29.3260351 L69.4177001,29.3260351 C69.5188958,29.3558612 69.6254175,29.2983395 69.6563088,29.1971439 C69.6595044,29.1864917 69.6616349,29.1758395 69.6627001,29.1651873 C69.6627001,29.0171222 69.534874,29.00647 69.4177001,29.00647 L69.3218306,29.00647 L69.3218306,29.3260351 L69.3111784,29.3260351 Z M70.1315021,28.8253831 L70.3871543,28.8253831 L70.3871543,29.8906002 L70.8878063,29.8906002 L70.8878063,30.0919263 L70.1315021,30.0919263 L70.1315021,28.8136657 L70.1315021,28.8253831 Z M70.9942215,30.103111 L70.9942215,28.8248505 L71.2498736,28.8248505 L71.2498736,30.103111 L70.9942215,30.103111 Z M72.4002016,30.0820197 C72.3043321,30.0926719 72.2084625,30.0926719 72.112593,30.0820197 C71.7749192,30.1299545 71.4628105,29.8934763 71.4148758,29.5558025 C71.4095497,29.5185199 71.4074192,29.4812373 71.4095497,29.4428895 C71.3839845,29.0903026 71.6492235,28.7845853 72.0007452,28.7600853 C72.0380278,28.7568896 72.0753104,28.7579548 72.112593,28.7611505 C72.2073973,28.744107 72.3053973,28.744107 72.4002016,28.7611505 L72.4002016,28.9741939 C72.3149843,28.9283896 72.2201799,28.90602 72.1232452,28.9102809 C71.8878322,28.9092157 71.6960931,29.0988243 71.6950279,29.3342373 C71.6950279,29.3502156 71.6960931,29.3640634 71.6971583,29.3789764 C71.6790496,29.6143894 71.8548104,29.8178459 72.0902234,29.8370198 C72.1051365,29.838085 72.1189843,29.838085 72.1338973,29.838085 C72.2287017,29.838085 72.323506,29.8199763 72.4108538,29.7837589 L72.4108538,29.9968024 L72.4002016,30.0820197 Z M72.9113993,28.8255961 L73.199008,28.8255961 L73.69966,30.1038567 L73.4120514,30.1038567 L73.3055297,29.8055959 L72.7835733,29.8055959 L72.6663994,30.1038567 L72.4000951,30.1038567 L72.9113993,28.8255961 Z M73.0498776,29.080183 L72.8687907,29.6127916 L73.2416167,29.6127916 L73.0498776,29.080183 Z M74.658462,28.8255961 L74.9460706,28.8255961 L75.4467227,30.1038567 L75.1591141,30.1038567 L75.0525923,29.8055959 L74.5306359,29.8055959 L74.413462,30.1038567 L74.1897664,30.1038567 L74.658462,28.8255961 Z M74.7969402,29.080183 L74.6158533,29.6127916 L74.9886793,29.6127916 L74.7969402,29.080183 Z M75.5425922,28.8250635 L75.8195487,28.8250635 C76.0965052,28.8250635 76.4267225,28.8250635 76.4267225,29.1765852 C76.4277877,29.3299764 76.3127442,29.4588677 76.1604182,29.474846 C76.2253964,29.489759 76.2786573,29.538759 76.2988964,29.602672 L76.5012877,30.1033241 L76.213679,30.1033241 L76.0645486,29.6985416 C76.0485704,29.6143894 75.9686791,29.5579329 75.8834617,29.5707155 L75.7982443,29.5707155 L75.7982443,30.1033241 L75.5425922,30.1033241 L75.5425922,28.8250635 Z M75.7982443,29.3257156 L75.8834617,29.3257156 C76.0112878,29.3257156 76.1604182,29.3257156 76.1604182,29.1446287 C76.1604182,28.9635417 76.02194,28.9741939 75.8834617,28.9741939 L75.7982443,28.9741939 L75.7982443,29.3257156 Z M77.64107,29.0698504 C77.5366787,29.0272417 77.4237657,29.0048722 77.3108527,29.0059374 C77.0701136,28.9878287 76.8613311,29.1678504 76.8421572,29.4075242 C76.8410919,29.430959 76.8410919,29.4522634 76.8421572,29.4746329 C76.8240485,29.7100459 76.9998093,29.9145676 77.2352223,29.9326763 C77.2501353,29.9337415 77.2639832,29.9337415 77.2788962,29.9337415 L77.4493309,29.9337415 L77.4493309,29.5715677 L77.1723745,29.5715677 L77.1723745,29.3255025 L77.6943309,29.3255025 L77.6943309,30.0189589 C77.5590483,30.0573067 77.4195049,30.0786111 77.2788962,30.0818067 C76.9412224,30.1297415 76.6291137,29.8932633 76.581179,29.5555894 C76.5758529,29.5183068 76.5747877,29.4810242 76.5758529,29.4437416 C76.5513529,29.0911548 76.8155267,28.7843722 77.1681136,28.7598722 C77.204331,28.7566766 77.2416136,28.7577418 77.2788962,28.7609374 C77.4024614,28.7417635 77.528157,28.7417635 77.6517222,28.7609374 L77.64107,29.0698504 Z M77.9182395,28.8253831 L78.6745437,28.8253831 L78.6745437,29.0267091 L78.1738916,29.0267091 L78.1738916,29.3260351 L78.631935,29.3260351 L78.631935,29.5390786 L78.1738916,29.5390786 L78.1738916,29.9012524 L78.6745437,29.9012524 L78.6745437,30.1036437 L77.9182395,30.1036437 L77.9182395,28.8253831 Z M78.8768284,28.8253831 L79.1963936,28.8253831 L79.6863935,29.7830133 L79.6863935,28.8253831 L79.9313934,28.8253831 L79.9313934,30.1036437 L79.6224804,30.1036437 L79.1324806,29.1449482 L79.1324806,30.1036437 L78.8768284,30.1036437 L78.8768284,28.8253831 Z M80.400302,29.0271352 L80.0381282,29.0271352 L80.0381282,28.8258092 L81.0287801,28.8258092 L81.0287801,29.0271352 L80.6666063,29.0271352 L80.6666063,30.0923524 L80.4109542,30.0923524 L80.4109542,29.0271352 L80.400302,29.0271352 Z M81.1244366,30.103111 L81.1244366,28.8248505 L81.3800888,28.8248505 L81.3800888,30.103111 L81.1244366,30.103111 Z M81.6464996,28.8253831 L81.9660647,28.8253831 L82.4560646,29.7830133 L82.4560646,28.8253831 L82.7010645,28.8253831 L82.7010645,30.1036437 L82.3921516,30.1036437 L81.9021517,29.1449482 L81.9021517,30.1036437 L81.6464996,30.1036437 L81.6464996,28.8253831 Z M83.255084,28.8255961 L83.5426926,28.8255961 L84.0433447,30.1038567 L83.7770404,30.1038567 L83.6705187,29.8055959 L83.1379101,29.8055959 L83.0207362,30.1038567 L82.7118232,30.1038567 L83.255084,28.8255961 Z M83.3935622,29.080183 L83.2124753,29.6127916 L83.5853013,29.6127916 L83.3935622,29.080183 Z M28.704994,12.0372412 C26.7449945,20.0476742 16.529562,25.5228903 10.1169547,25.1181078 C13.3126062,25.6613686 19.7039091,26.556151 27.2349944,17.8107181 C26.8302118,18.8759353 26.1697772,20.4950654 25.5199947,22.1568041 C24.8702123,23.8185429 17.8717356,29.6133242 11.2141284,29.3683243 C14.4097798,30.9554978 21.1206479,28.4522375 23.8689081,25.9489772 C23.5067343,27.0141943 22.4628215,29.6772372 22.4628215,29.6772372 C22.4628215,29.6772372 17.2113009,33.9381058 12.7373889,33.7144102 C15.9649969,34.5016057 19.3715613,33.6046929 21.7917347,31.3283238 C21.4508652,32.1591932 19.6613004,36.5798444 18.7878223,38.294844 C18.0347138,39.8127784 16.1940186,40.4327348 14.6760841,39.6796263 C14.0763669,39.3813655 13.5895626,38.8945613 13.2913018,38.294844 L11.9491282,33.7037581 C8.80567239,34.3578014 5.6824557,32.5107149 4.73760808,29.4428895 C6.25660774,31.6106064 8.85786803,32.7493235 11.4804327,32.393541 L10.6708676,29.3257156 C10.6708676,29.3257156 5.02521671,30.0394111 3.39543447,24.4363688 C4.77489068,26.6988901 7.34739011,27.9483898 9.97847647,27.6320203 L9.21152012,24.7878905 C5.98604259,24.6483471 3.15256496,22.6052606 2,19.5896308 C5.24891232,23.3498473 8.75347675,23.1474561 8.75347675,23.1474561 C8.75347675,23.1474561 5.85608609,13.8161538 5.66434701,13.1770235 C5.05717323,11.0998501 6.16499907,8.02137251 9.21152012,8.02137251 C9.97634604,7.97237253 10.7443676,8.00752469 11.501737,8.12789423 C12.0023891,8.19180726 24.912821,9.49137219 25.8715164,9.62985042 C27.272277,9.64476346 28.4642549,10.6567198 28.704994,12.0372412 Z"/>
</svg>
