<svg xmlns="http://www.w3.org/2000/svg" xmlns:xlink="http://www.w3.org/1999/xlink" width="104" height="48" viewBox="0 0 104 48">
  <defs>
    <polygon id="fehgra-a" points="0 38.906 103.271 38.906 103.271 1.111 0 1.111"/>
  </defs>
  <g fill="none" fill-rule="evenodd" transform="translate(0 4)">
    <polygon fill="#EFF" points="6.681 17.945 8.002 17.945 8.002 15.461 10.431 15.461 10.431 14.438 8.003 14.438 8.002 13.048 10.802 13.048 10.804 11.938 6.679 11.943"/>
    <polygon fill="#EFF" points="11.586 17.945 16.032 17.943 16.032 16.833 12.902 16.835 12.902 15.359 15.709 15.355 15.709 14.329 12.902 14.334 12.902 13.048 15.963 13.045 15.963 11.938 11.581 11.938"/>
    <polygon fill="#EFF" points="16.946 17.942 18.261 17.945 18.261 15.348 20.57 15.348 20.565 17.943 21.885 17.942 21.884 11.938 20.565 11.938 20.568 14.242 18.259 14.242 18.261 11.938 16.944 11.938"/>
    <path fill="#EFF" d="M27.296017 17.2603333C26.8224851 17.8214444 26.293634 18.097 25.6961872 18.0858889 24.7966979 18.0747778 24.0930383 17.767 23.5907404 17.1725556 23.0895489 16.5814444 22.8350809 15.8481111 22.8273362 14.9636667 22.8384 14.0492222 23.0895489 13.297 23.5907404 12.6981111 24.0919319 12.1025556 24.7889532 11.8003333 25.6928681 11.7925556 26.308017 11.7925556 26.8545702 11.9703333 27.3192511 12.3325556 27.7828255 12.697 28.0627404 13.2258889 28.1512511 13.9103333L26.9353362 13.9103333C26.7605277 13.2336667 26.3533787 12.9047778 25.7205277 12.8936667 25.1573787 12.9081111 24.7590809 13.1181111 24.5134638 13.5314444 24.2689532 13.9403333 24.1439319 14.4092222 24.1538894 14.9636667 24.1483574 15.4781111 24.2645277 15.9414444 24.5156766 16.3458889 24.7568681 16.7592222 25.1573787 16.9614444 25.7205277 16.977 26.5469957 16.9725556 27.0050383 16.5403333 27.088017 15.6781111L25.8046128 15.6781111 25.8012936 14.6903333 28.2408681 14.6903333 28.2408681 17.9403333 27.4321021 17.9403333 27.296017 17.2603333zM29.3769021 17.9384444L30.6912851 17.9406667 30.6912851 15.5851111 31.8197957 15.5851111 31.817583 14.6551111 30.6912851 14.6551111 30.6901787 12.9595556 31.817583 12.9584444 31.817583 11.9351111 29.3746894 11.9317778 29.3769021 17.9384444zM31.8197957 15.5851111L31.9558809 15.5895556C32.2689872 15.5895556 32.502434 15.664 32.649583 15.7995556 32.7878809 15.9495556 32.8774979 16.1784444 32.9117957 16.4995556 32.9438809 16.7406667 32.9649021 16.9906667 32.9826043 17.2473333 33.0003064 17.3706667 33.0246468 17.4962222 33.0445617 17.6117778 33.0622638 17.7306667 33.0866043 17.8428889 33.1186894 17.9406667L34.3943489 17.9384444C34.3379234 17.8584444 34.2969872 17.7451111 34.2726468 17.6184444 34.2582638 17.5573333 34.2438809 17.4984444 34.2372426 17.4251111 34.2228596 17.3706667 34.2151149 17.3106667 34.2073702 17.244 34.180817 16.9551111 34.1586894 16.7195556 34.1509447 16.5162222 34.1420936 16.2017778 34.0723915 15.9095556 33.9462638 15.6462222 33.8256681 15.3762222 33.5955404 15.2006667 33.2791149 15.1128889L33.2791149 15.0984444C33.9374128 14.8084444 34.2693277 14.304 34.2637957 13.5928889 34.2593702 13.1173333 34.1033702 12.7195556 33.802434 12.4106667 33.5003915 12.0973333 33.0788596 11.9384444 32.5433702 11.9351111L31.817583 11.9351111 31.817583 12.9584444 32.077583 12.9595556C32.6517957 12.9551111 32.9405617 13.2306667 32.9472 13.7928889 32.9438809 14.3762222 32.6517957 14.6617778 32.077583 14.6484444L31.817583 14.6551111 31.8197957 15.5851111zM34.7629957 17.9384444L36.0508255 17.9384444 36.5099745 16.6028889 37.5953362 16.6028889 37.5953362 15.6162222 36.8396766 15.6184444 37.592017 13.4117778 37.592017 11.9351111 36.9646979 11.9351111 34.7629957 17.9384444zM37.5953362 16.6028889L38.6729532 16.6028889 39.1121872 17.9406667 40.437634 17.9362222 38.2713362 11.9317778 37.592017 11.9351111 37.592017 13.4117778 37.5953362 13.4073333 37.6130383 13.4117778 38.3443574 15.6184444 37.5953362 15.6162222 37.5953362 16.6028889zM8.12660426 21.4378889L8.66762553 21.4378889 8.86234894 20.8745556 9.32371064 20.8723333 9.32260426 20.4512222 9.00949787 20.4512222 9.32260426 19.5156667 9.32260426 18.8845556 9.06039149 18.8812222 8.12660426 21.4378889zM9.32371064 20.8723333L9.78839149 20.8723333 9.9764766 21.4378889 10.5329872 21.4378889 9.61690213 18.8845556 9.32260426 18.8845556 9.32260426 19.5156667 9.33145532 19.5123333 9.64345532 20.4523333 9.32260426 20.4512222 9.32371064 20.8723333zM12.0950894 21.4378889L12.6560255 21.4378889 12.6560255 20.439 13.1350894 20.4412222 13.1328766 20.039 12.6560255 20.0378889 12.6560255 19.3156667 13.1350894 19.3201111 13.1350894 18.8812222 12.0950894 18.8812222 12.0950894 21.4378889zM13.1350894 20.4412222L13.1959404 20.439C13.3276 20.439 13.4227489 20.469 13.4880255 20.5278889 13.5510894 20.5878889 13.5898128 20.6867778 13.6008766 20.8245556 13.6152596 20.9301111 13.6218979 21.0356667 13.6307489 21.1445556 13.6373872 21.1978889 13.6506638 21.2456667 13.6573021 21.2967778 13.6639404 21.3445556 13.677217 21.399 13.6849617 21.4378889L14.2326213 21.4412222C14.2071745 21.4012222 14.1905787 21.3545556 14.1795149 21.2967778 14.1717702 21.2756667 14.1662383 21.2478889 14.1662383 21.2201111 14.1562809 21.1934444 14.1529617 21.1701111 14.1518553 21.139 14.1407915 21.0134444 14.1319404 20.9145556 14.1264085 20.8334444 14.1241957 20.6967778 14.0954298 20.569 14.0401106 20.4578889 13.9847915 20.3467778 13.8951745 20.2701111 13.7557702 20.2345556L13.7568766 20.2301111C14.0390043 20.1034444 14.1784085 19.8867778 14.1761957 19.5878889 14.1761957 19.3845556 14.1087064 19.2223333 13.9792596 19.0845556 13.8531319 18.9501111 13.6727915 18.8767778 13.4448766 18.8812222L13.1350894 18.8812222 13.1350894 19.3201111 13.246834 19.3212222C13.4891319 19.3156667 13.6119404 19.429 13.6174723 19.669 13.6141532 19.919 13.4913447 20.0412222 13.246834 20.0401111L13.1328766 20.039 13.1350894 20.4412222zM17.7426213 21.1513333L17.7990468 21.4346667 18.1420255 21.4346667 18.1420255 20.0546667 17.1086638 20.0524444 17.1086638 20.4735556 17.6530043 20.4746667C17.6187064 20.8357778 17.423983 21.0246667 17.074366 21.0246667 16.8364936 21.0213333 16.6616851 20.9335556 16.5576851 20.758 16.4492596 20.5846667 16.4005787 20.3891111 16.4061106 20.168 16.4050043 19.9346667 16.4525787 19.7291111 16.5576851 19.5591111 16.6638979 19.388 16.8309617 19.298 17.0710468 19.2946667 17.3387915 19.2946667 17.5147064 19.4357778 17.5954723 19.7213333L18.1044085 19.7213333C18.0678979 19.4324444 17.9495149 19.2068889 17.750366 19.0468889 17.5523234 18.8957778 17.3177702 18.8235556 17.0566638 18.8202222 16.6749617 18.8246667 16.3784511 18.9502222 16.1638128 19.2035556 15.9547064 19.4591111 15.8451745 19.7802222 15.8451745 20.1724444 15.8396426 20.5491111 15.9547064 20.8602222 16.1638128 21.1057778 16.3784511 21.3635556 16.6749617 21.4957778 17.0610894 21.5013333 17.3122383 21.5013333 17.5412596 21.3835556 17.7426213 21.1513333"/>
    <polygon fill="#EFF" points="19.936 21.435 21.822 21.438 21.823 20.966 20.497 20.963 20.492 20.339 21.692 20.336 21.695 19.9 20.497 19.905 20.492 19.349 21.796 19.35 21.797 18.877 19.936 18.877"/>
    <polygon fill="#EFF" points="23.534 21.438 24.043 21.435 24.044 19.721 24.048 19.725 25.075 21.438 25.617 21.438 25.615 18.881 25.107 18.873 25.107 20.596 25.101 20.59 24.07 18.877 23.534 18.881"/>
    <polygon fill="#EFF" points="27.99 21.435 28.551 21.438 28.548 19.35 29.292 19.349 29.287 18.877 27.247 18.877 27.247 19.35 27.987 19.349"/>
    <polygon fill="#EFF" points="30.899 21.435 31.46 21.435 31.459 18.877 30.899 18.877"/>
    <polygon fill="#EFF" points="33.237 21.435 33.747 21.435 33.745 19.719 33.755 19.717 34.777 21.435 35.323 21.431 35.323 18.873 34.814 18.873 34.817 20.59 34.81 20.593 33.778 18.877 33.235 18.877"/>
    <path fill="#EFF" d="M36.8947745 21.4313333L37.4391149 21.4346667 37.6382638 20.8635556 38.1029447 20.8635556 38.1007319 20.4468889 37.7776681 20.4446667 38.0985191 19.5046667 38.1007319 18.8768889 37.8318809 18.8768889 36.8947745 21.4313333zM38.1029447 20.8635556L38.5609872 20.8635556 38.7490723 21.4346667 39.3100085 21.4313333 38.3817532 18.8768889 38.1007319 18.8768889 38.0985191 19.5046667 38.1029447 19.5068889 38.1084766 19.5046667 38.4171574 20.4446667 38.1007319 20.4468889 38.1029447 20.8635556zM2.13985532 16.5593333C2.13542979 12.1382222 4.51415319 8.13155556 8.31236596 5.19377778 3.18317447 8.71711111-.00320851064 13.8193333.000110638298 19.4715556.00342978723 29.5837778 10.2894723 37.9326667 23.3149191 38.8137778 24.0761106 38.8582222 24.8538979 38.906 25.6040255 38.906L23.2717702 32.5304444C11.6082809 32.5548889 2.14428085 25.3771111 2.13985532 16.5593333M23.8072596 29.9393333L23.8924511 29.8815556 24.0152596 29.9182222 24.1159404 29.9348889 24.172366 29.8804444 24.1922809 29.8837778 24.2442809 29.8137778 24.2442809 29.6815556 24.2442809 29.636 24.1380681 29.6604444 24.0119404 29.6815556 23.8935574 29.6637778 23.7342383 29.6026667 23.6921957 29.5548889 23.5129617 29.4571111 23.4587489 29.3837778 23.4377277 29.3093333 23.3691319 29.306 23.3127064 29.276 23.2618128 29.2504444 23.1821532 29.236 23.1334723 29.1848889 23.0903234 29.1848889 23.0184085 29.1126667 22.9863234 29.0504444 22.9287915 28.9782222 22.8115149 28.926 22.7617277 28.906 22.7053021 28.8537778 22.6521957 28.7793333 22.6134723 28.6693333 22.5614723 28.596 22.493983 28.5504444 22.4453021 28.5215556 22.4165362 28.4437778 22.4198553 28.3737778 22.4453021 28.3504444 22.5183234 28.3693333 22.5592596 28.4248889 22.5592596 28.3904444 22.5183234 28.3215556 22.4453021 28.2171111 22.3645362 28.1115556 22.3114298 28.0404444 22.3125362 28.0171111 22.2439404 27.9693333 22.2915149 28.2204444 22.2893021 28.276 22.3678553 28.7504444 22.4453021 29.4804444 22.4917702 29.7882222 22.493983 29.8393333 22.493983 29.8815556C22.5393447 29.8815556 22.5813872 29.8837778 22.621217 29.8893333L22.6367064 29.8815556 22.7053021 29.8415556 22.7639404 29.8393333 22.8115149 29.8626667 22.8546638 29.8815556 22.909983 29.8815556 22.9863234 29.8815556 23.0593447 29.8815556 23.1345787 29.8782222 23.334834 29.9204444 23.438834 29.936 23.4609617 29.9393333 23.4974723 29.9548889C23.5594298 29.9582222 23.6258128 29.9582222 23.689983 29.9626667L23.6921957 29.9548889 23.8072596 29.9393333zM26.6519915 27.4078889L26.6885021 27.4101111 26.7570979 27.3567778 26.7272255 27.3023333 26.7570979 27.259 26.7759064 27.2612222 26.812417 27.2823333 26.8566723 27.2301111C26.8876511 27.2301111 26.9562468 27.2078889 26.9562468 27.2078889L27.0104596 27.1612222 27.0381191 27.1323333 27.0879064 27.1323333 27.1498638 27.0278889 27.1996511 26.9323333 27.1808426 26.8056667 27.1476511 26.8056667 26.7792255 26.8056667C26.7670553 26.8023333 26.7537787 26.8023333 26.7537787 26.8023333L26.6553106 26.7845556 26.6088426 26.7512222 26.5568426 26.7112222 26.5778638 26.7845556 26.6287574 26.7845556 26.6553106 26.8056667 26.6287574 26.8267778 26.7073106 26.8267778 26.7570979 26.8801111C26.7570979 26.8923333 26.7670553 26.9001111 26.7759064 26.9112222 26.812417 26.9356667 26.8422894 26.9756667 26.8544596 27.0078889L26.7781191 27.0078889 26.7582043 27.0067778 26.7028851 27.1323333 26.6840766 27.1356667 26.6276511 27.1356667 26.604417 27.1612222 26.5778638 27.1867778 26.6542043 27.1867778 26.6088426 27.2334444 26.5236511 27.2334444 26.4462043 27.2078889 26.448417 27.2823333 26.3588 27.2823333 26.3565872 27.3067778C26.4074809 27.3567778 26.5535234 27.4878889 26.6519915 27.4078889M27.1836085 27.1355556L27.1526298 27.1355556 27.1116936 27.1322222 27.1105872 27.1588889 27.089566 27.2044444 27.0873532 27.2588889 27.089566 27.2777778 27.089566 27.3366667 27.089566 27.3566667 27.0873532 27.4122222 27.089566 27.4333333 27.1083745 27.4655556 27.1526298 27.4955556 27.1603745 27.51 27.1802894 27.51 27.2389277 27.5411111 27.2389277 27.4655556 27.2510979 27.4122222 27.2898213 27.4077778 27.3075234 27.4633333 27.4358638 27.4877778 27.4358638 27.4655556 27.410417 27.43 27.3827574 27.4333333 27.3639489 27.4122222 27.3606298 27.3911111 27.3860766 27.3066667 27.3838638 27.2777778 27.4082043 27.2822222 27.4568851 27.3066667 27.4889702 27.3022222 27.5077787 27.3022222 27.5332255 27.3022222 27.5752681 27.3022222 27.609566 27.3022222 27.604034 27.3366667 27.604034 27.3566667 27.6383319 27.3588889 27.6383319 27.3022222 27.604034 27.2822222 27.604034 27.2611111 27.5763745 27.2444444 27.5697362 27.2288889 27.566417 27.2044444 27.491183 27.1588889 27.491183 27.1322222 27.5066723 27.1355556 27.5697362 27.1322222 27.5752681 27.1355556 27.6062468 27.1611111C27.8396936 27.1588889 28.1859915 27.0844444 28.0067574 26.8811111 28.0067574 26.6744444 27.8939064 26.8244444 27.6637787 26.6566667L27.6383319 26.6544444 27.609566 26.6544444 27.5763745 26.6355556 27.5332255 26.6211111 27.491183 26.6566667 27.491183 26.6755556 27.491183 26.7122222 27.4546723 26.7511111 27.4082043 26.7477778 27.3606298 26.7855556 27.3639489 26.8244444 27.387183 26.8811111 27.3860766 26.9355556 27.410417 26.9511111 27.4358638 27.03 27.4082043 27.0844444 27.4059915 27.0555556 27.3650553 27.0077778 27.3318638 27.0077778 27.3075234 27.0077778 27.2865021 27.0066667 27.2345021 27.0588889 27.202417 27.0844444 27.1836085 27.1355556z"/>
    <path fill="#EFF" d="M26.4748596,29.9187778 C25.5576681,29.9876667 24.6283064,29.9976667 23.6889872,29.9621111 C23.6259234,29.9576667 23.5595404,29.9576667 23.497583,29.9543333 C23.4466894,29.9532222 23.3946894,29.9543333 23.3471149,29.9543333 C23.1037106,29.9398889 22.8625191,29.9132222 22.6213277,29.8898889 C22.5803915,29.8843333 22.5394553,29.8821111 22.4940936,29.8821111 C21.7494979,29.8176667 21.0093277,29.7243333 20.2603064,29.5954444 C18.2134979,28.6143333 16.6369021,26.8865556 15.4497532,24.8743333 L19.8398809,24.8698889 C19.672817,25.4965556 19.3265191,26.0543333 19.7259234,26.881 C19.9483064,26.8821111 19.8752851,26.5998889 20.1297532,26.6032222 C20.2016681,26.8998889 20.3831149,27.3365556 20.4572426,27.6654444 C21.1089021,27.6143333 21.6720511,27.5854444 22.258434,27.7665556 C21.2837106,26.9543333 22.0172426,26.4787778 21.9121362,25.8698889 C22.0216681,25.8998889 22.2562213,26.3265556 22.4409872,25.6665556 C22.5593702,25.3143333 22.2440511,25.1376667 22.6854979,24.9087778 C22.6976681,24.8943333 22.7087319,24.8843333 22.7153702,24.871 L23.7443064,24.871 L23.7830298,24.8698889 L32.1317957,24.8487778 C30.7753702,27.101 28.9354553,29.0276667 26.4748596,29.9187778 L26.4748596,29.9187778 Z M33.5911149,7.15433333 C32.3707745,5.21433333 30.7609872,3.621 28.8889872,2.57655556 C32.1572426,3.54544444 34.9497532,5.15655556 37.0607319,7.16211111 L33.5911149,7.15433333 Z M30.7709447,7.16322222 L30.7720511,7.151 C30.7222638,6.74433333 30.4401362,6.39988889 30.2033702,6.50322222 C30.1779234,6.76877778 30.1170723,6.97877778 30.0230298,7.16322222 L27.5580085,7.16211111 C27.5613277,7.15433333 27.5602213,7.14322222 27.5712851,7.13655556 C27.8346043,6.621 28.2096681,6.36655556 27.5690723,6.09655556 C27.5414128,6.08877778 27.5071149,6.07655556 27.4860936,6.06211111 C27.3666043,5.96766667 27.2659234,5.87322222 27.146434,5.78544444 C27.0192,5.691 26.8974979,5.611 26.7746894,5.53322222 C26.4217532,5.32322222 26.0489021,5.18877778 25.6948596,5.21433333 C25.0885617,4.85766667 23.6889872,2.48655556 23.156817,4.20211111 C22.7231149,3.61766667 22.2363064,4.12766667 21.7583489,3.59655556 C21.024817,4.38433333 21.0281362,4.53211111 21.0989447,5.28988889 C20.7880511,5.41877778 20.5280511,5.64211111 20.1950298,5.76988889 C20.1950298,6.05544444 20.169583,6.51877778 20.3100936,7.16544444 L15.2948596,7.16322222 C16.226434,5.40433333 18.3020085,2.54544444 21.6045617,1.60211111 C22.1876255,1.59322222 22.7717957,1.60211111 23.3548596,1.631 C24.5530723,1.69322222 25.7656681,1.85544444 26.9749447,2.09877778 C27.2117106,2.14433333 27.4429447,2.19988889 27.6752851,2.25433333 C30.0252426,3.52322222 31.5254979,5.70766667 32.2889021,7.16211111 L30.7709447,7.16322222 Z M28.2683064,1.60877778 C26.6220085,1.26877778 24.9779234,1.111 23.3614979,1.111 C20.2713702,1.11544444 17.3007319,1.71433333 14.6940936,2.80544444 C16.6988596,2.11988889 18.878434,1.70988889 21.1409872,1.61655556 C18.2411574,2.38655556 15.7108596,4.43766667 13.9760511,7.15877778 L8.56915745,7.70322222 L13.409583,8.25322222 C12.941583,9.13877778 12.5277957,10.2021111 12.2047319,11.3321111 L13.6906043,11.3321111 C13.9251574,10.2998889 14.2493277,9.25433333 14.7173277,8.25655556 L19.9516255,8.25433333 C19.3353702,8.88766667 19.6927319,10.0843333 19.2269447,11.2932222 C19.2247319,11.9598889 19.3917957,12.0521111 19.6462638,12.7187778 C19.6805617,12.8087778 19.7170723,12.8832222 19.7469447,12.9687778 L19.7469447,12.1298889 C19.7469447,11.6865556 20.1098383,11.3287778 20.5490723,11.3298889 L21.8678809,11.3287778 C22.310434,11.3287778 22.6711149,11.6898889 22.6711149,12.1343333 L22.6711149,12.8021111 C22.7596255,12.661 22.8459234,12.5154444 22.9632,12.3787778 C23.6192851,11.6021111 24.5298383,11.1976667 25.6782638,11.181 C26.3697532,11.1843333 26.9948596,11.3776667 27.5524766,11.7354444 C27.5403064,11.6598889 27.5281362,11.5898889 27.5071149,11.5298889 C27.5303489,11.511 27.5513702,11.4876667 27.5734979,11.4643333 C27.8246468,11.1921111 27.761583,10.8154444 27.7892426,10.3576667 C28.4099234,9.65766667 29.1257532,8.801 29.7995404,8.251 L32.8597957,8.24988889 C33.3941787,9.38655556 33.7482213,10.5721111 33.9872,11.7354444 C34.119966,11.8265556 34.2372426,11.9321111 34.3523064,12.0443333 C34.8003915,12.5032222 35.041583,13.1098889 35.0449021,13.7843333 C35.0471149,13.7921111 35.0482213,13.7998889 35.0471149,13.811 C35.0471149,14.3976667 34.8280511,14.8798889 34.4972426,15.2943333 C34.544817,15.3654444 34.6211574,15.4165556 34.6620936,15.5032222 L34.7351149,15.8376667 L35.7618383,13.0387778 C35.4653277,11.2998889 34.9220936,9.57433333 34.2427745,8.25322222 L38.1106894,8.24988889 C39.9517106,10.361 41.1056681,12.8165556 41.3678809,15.3765556 L40.2736681,15.3765556 L40.6631149,16.4543333 L41.4320511,16.4543333 C41.4353702,17.5576667 41.2793702,18.6821111 40.9374979,19.7987778 C40.4916255,21.2576667 39.7603064,22.6132222 38.808817,23.8254444 L33.9805617,23.8376667 C34.313583,23.1932222 34.5835404,22.631 34.8092426,22.0943333 C34.6587745,22.0832222 34.5249021,22.011 34.4430298,21.881 C34.4430298,21.881 34.3058383,21.6465556 34.2361362,21.5365556 L34.2361362,21.6543333 C34.2350298,21.8998889 34.0392,22.0987778 33.793583,22.0987778 L33.377583,22.0987778 C33.1563064,22.7032222 32.9162213,23.2821111 32.6473702,23.8387778 L23.7874553,23.8421111 L23.7653277,23.8421111 L23.2652426,23.8454444 C23.2541787,23.7632222 23.2243064,23.6898889 23.1590298,23.621 C22.0161362,23.5465556 21.9397957,22.6643333 22.6312851,22.1087778 C23.038434,22.0632222 23.1634553,21.9787778 23.208817,21.8821111 C23.1667745,21.8154444 23.1324766,21.7387778 23.133583,21.6543333 L23.133583,19.0954444 C23.1357957,18.9798889 23.1789447,18.8698889 23.2563915,18.7965556 C23.2641362,18.6721111 23.2785191,18.5576667 23.3094979,18.4776667 C23.3969021,18.5443333 23.4876255,18.6021111 23.5739234,18.651 L23.5783489,18.6521111 L23.922434,18.6521111 C23.5628596,18.4587778 23.2353702,18.2143333 22.9698383,17.8943333 C22.8492426,17.761 22.7640511,17.6143333 22.6689021,17.4732222 L22.6711149,18.1432222 C22.6711149,18.4598889 22.4774979,18.7332222 22.2108596,18.8643333 C22.2562213,18.9232222 22.2883064,19.0076667 22.2894128,19.0954444 L22.2894128,19.5732222 C22.2883064,19.7165556 22.2053277,19.831 22.0957957,19.9154444 C22.1312,19.9798889 22.1776681,20.0398889 22.1776681,20.1187778 L22.1776681,20.5532222 C22.1798809,20.6543333 22.1312,20.7421111 22.0703489,20.821 C22.2108596,20.8976667 22.3126468,21.0165556 22.3170723,21.1887778 L22.3170723,21.6543333 C22.3126468,21.8998889 22.1157106,22.1021111 21.8745191,22.0987778 L19.9781787,22.1021111 C19.9140085,22.1021111 19.8564766,22.0832222 19.7989447,22.0554444 C19.7646468,22.3598889 19.753583,22.8098889 19.975966,23.4754444 C19.9748596,23.5887778 19.9372426,23.7154444 19.8863489,23.8421111 L14.9740085,23.8421111 C14.7117957,23.2765556 14.4595404,22.7065556 14.2382638,22.1021111 L13.7315404,22.1021111 C13.5301787,22.1065556 13.3708596,22.0143333 13.3155404,21.8121111 C13.3155404,21.8121111 13.2646468,21.5821111 13.253583,21.511 C13.253583,21.511 13.2369872,21.4276667 13.2270298,21.3265556 C13.2270298,21.3265556 13.2126468,21.1932222 13.2026894,21.0998889 C13.1960511,21.1032222 13.1894128,21.1043333 13.1860936,21.1054444 C13.1860936,21.1054444 13.1540085,21.1054444 13.149583,21.1043333 C13.1484766,21.3798889 13.1462638,21.6554444 13.1462638,21.6554444 C13.149583,21.8765556 12.9902638,22.0476667 12.7811574,22.0832222 C13.0134979,22.6243333 13.3000511,23.1932222 13.6430298,23.8376667 L9.80277447,24.3754444 L14.2736681,24.891 C15.6389447,26.8087778 17.2642213,28.431 19.4117106,29.421 C9.5604766,27.2387778 3.45988085,19.381 5.77332766,11.7865556 C6.99809362,7.77433333 10.3393702,4.62211111 14.6697532,2.80877778 C9.71205106,4.50655556 5.82864681,7.87877778 4.47996596,12.2765556 C4.18677447,13.2521111 4.02524255,14.2487778 3.99205106,15.2276667 L3.9964766,15.8765556 C4.19562553,22.301 9.97979574,28.231 18.4513702,29.9843333 C20.0965617,30.3165556 21.7428596,30.4798889 23.3471149,30.4776667 C26.4394553,30.4798889 29.4045617,29.8743333 32.0145191,28.7921111 C30.4323915,29.331 28.7296681,29.6976667 26.9782638,29.871 C29.7541787,28.9732222 31.7257532,27.0954444 33.334434,24.8576667 L37.9026894,24.8676667 C36.3338383,26.501 34.3290723,27.8332222 32.0333277,28.7865556 C37.0020936,27.0954444 40.8899234,23.7121111 42.240817,19.301 C42.5373277,18.3265556 42.694434,17.3365556 42.7298383,16.3565556 L42.7254128,15.711 C42.5251574,9.28433333 36.7310298,3.34988889 28.2683064,1.60877778 L28.2683064,1.60877778 Z"/>
    <polygon fill="#EFF" points="47.952 7.689 50.448 7.689 50.448 8.01 48.326 8.01 48.326 9.438 50.211 9.438 50.211 9.759 48.326 9.759 48.326 11.641 47.952 11.641"/>
    <path fill="#EFF" d="M52.9426383 10.0142222C52.9260426 9.48755556 52.600766 8.99533333 52.0398298 8.99533333 51.4711489 8.99533333 51.1569362 9.49422222 51.101617 10.0142222L52.9426383 10.0142222zM51.101617 10.3075556C51.1082553 10.8164444 51.3715745 11.4297778 52.0398298 11.4297778 52.5465532 11.4297778 52.8220426 11.132 52.9315745 10.6997778L53.2789787 10.6997778C53.129617 11.3475556 52.7545532 11.7242222 52.0398298 11.7242222 51.1348085 11.7242222 50.7542128 11.0264444 50.7542128 10.2142222 50.7542128 9.46088889 51.1348085 8.702 52.0398298 8.702 52.9537021 8.702 53.3177021 9.50422222 53.2889362 10.3075556L51.101617 10.3075556zM54.9685362 11.4302222C55.7064936 11.4302222 55.9653872 10.8057778 55.9653872 10.2135556 55.9653872 9.62133333 55.7064936 8.99577778 54.9685362 8.99577778 54.3069191 8.99577778 54.0369617 9.62133333 54.0369617 10.2135556 54.0369617 10.8057778 54.3069191 11.4302222 54.9685362 11.4302222L54.9685362 11.4302222zM56.3138979 11.6402222L55.9941532 11.6402222 55.9941532 11.098 55.9830894 11.098C55.8337277 11.4691111 55.3823234 11.7246667 54.9685362 11.7246667 54.1033447 11.7246667 53.6906638 11.0213333 53.6906638 10.2135556 53.6906638 9.40577778 54.1033447 8.70244444 54.9685362 8.70244444 55.3933872 8.70244444 55.8071745 8.918 55.9554298 9.328L55.9653872 9.328 55.9653872 7.68911111 56.3138979 7.68911111 56.3138979 11.6402222zM59.073217 10.0142222C59.0555149 9.48755556 58.7302383 8.99533333 58.1693021 8.99533333 57.6017277 8.99533333 57.2875149 9.49422222 57.2321957 10.0142222L59.073217 10.0142222zM57.2321957 10.3075556C57.2377277 10.8164444 57.5021532 11.4297778 58.1693021 11.4297778 58.6760255 11.4297778 58.9515149 11.132 59.0621532 10.6997778L59.4084511 10.6997778C59.2601957 11.3475556 58.8851319 11.7242222 58.1693021 11.7242222 57.2642809 11.7242222 56.8847915 11.0264444 56.8847915 10.2142222 56.8847915 9.46088889 57.2642809 8.702 58.1693021 8.702 59.0842809 8.702 59.4471745 9.50422222 59.4195149 10.3075556L57.2321957 10.3075556zM59.9407319 8.78588889L60.261583 8.78588889 60.261583 9.45588889 60.2715404 9.45588889C60.4485617 8.99477778 60.8346894 8.72366667 61.3469447 8.74588889L61.3469447 9.09477778C60.7185191 9.06255556 60.2881362 9.527 60.2881362 10.1192222L60.2881362 11.6403333 59.9407319 11.6403333 59.9407319 8.78588889zM63.5494213 10.0804444L63.5394638 10.0804444C63.4941021 10.1626667 63.3414213 10.1915556 63.2473787 10.2071111 62.6565702 10.3126667 61.9241447 10.3071111 61.9241447 10.866 61.9241447 11.2148889 62.2339319 11.4304444 62.5581021 11.4304444 63.0869532 11.4304444 63.5560596 11.0937778 63.5494213 10.5337778L63.5494213 10.0804444zM61.6973362 9.66044444C61.7305277 8.99044444 62.1985277 8.70266667 62.8501872 8.70266667 63.3513787 8.70266667 63.8968255 8.85711111 63.8968255 9.62155556L63.8968255 11.1371111C63.8968255 11.2704444 63.9632085 11.3482222 64.1004 11.3482222 64.1391234 11.3482222 64.1833787 11.3371111 64.2110383 11.326L64.2110383 11.6193333C64.1335915 11.6348889 64.0793787 11.6404444 63.9853362 11.6404444 63.6324 11.6404444 63.5770809 11.4426667 63.5770809 11.1426667L63.566017 11.1426667C63.3248255 11.5137778 63.0758894 11.7237778 62.5304426 11.7237778 62.006017 11.7237778 61.5778468 11.4637778 61.5778468 10.8893333 61.5778468 10.0871111 62.3545277 10.0571111 63.1035489 9.96933333 63.3889957 9.93711111 63.5494213 9.89822222 63.5494213 9.58266667 63.5494213 9.11266667 63.2141872 8.99488889 62.8059319 8.99488889 62.3755489 8.99488889 62.0558043 9.19488889 62.0458468 9.66044444L61.6973362 9.66044444zM66.6514979 9.68222222C66.5574553 9.25555556 66.2985617 8.99555556 65.8460511 8.99555556 65.1800085 8.99555556 64.8492 9.60555556 64.8492 10.2144444 64.8492 10.8211111 65.1800085 11.43 65.8460511 11.43 66.276434 11.43 66.6282638 11.0944444 66.6736255 10.6177778L67.0199234 10.6177778C66.9258809 11.3033333 66.4811149 11.7244444 65.8460511 11.7244444 64.9753277 11.7244444 64.5029021 11.0322222 64.5029021 10.2144444 64.5029021 9.39444444 64.9753277 8.70222222 65.8460511 8.70222222 66.4523489 8.70222222 66.9203489 9.02888889 66.9977957 9.68222222L66.6514979 9.68222222z"/>
    <mask id="fehgra-b" fill="#fff">
      <use xlink:href="#fehgra-a"/>
    </mask>
    <path fill="#EFF" d="M67.5634894 11.6407778L67.9108936 11.6407778 67.9108936 8.78633333 67.5634894 8.78633333 67.5634894 11.6407778zM67.5634894 8.24855556L67.9108936 8.24855556 67.9108936 7.68855556 67.5634894 7.68855556 67.5634894 8.24855556zM69.7890894 8.38666667L69.5080681 8.38666667 70.0878128 7.60666667 70.5170894 7.60666667 69.7890894 8.38666667zM68.8364936 10.2144444C68.8364936 10.8211111 69.1673021 11.43 69.8333447 11.43 70.5004936 11.43 70.8301957 10.8211111 70.8301957 10.2144444 70.8301957 9.60555556 70.5004936 8.99555556 69.8333447 8.99555556 69.1673021 8.99555556 68.8364936 9.60555556 68.8364936 10.2144444L68.8364936 10.2144444zM71.1787064 10.2144444C71.1787064 11.0322222 70.7040681 11.7244444 69.8333447 11.7244444 68.9626213 11.7244444 68.4890894 11.0322222 68.4890894 10.2144444 68.4890894 9.39444444 68.9626213 8.70222222 69.8333447 8.70222222 70.7040681 8.70222222 71.1787064 9.39444444 71.1787064 10.2144444L71.1787064 10.2144444zM71.7436255 8.78588889L72.0910298 8.78588889 72.0910298 9.27811111 72.1020936 9.27811111C72.2282213 8.93477778 72.608817 8.70255556 73.0115404 8.70255556 73.8103489 8.70255556 74.0526468 9.12255556 74.0526468 9.80366667L74.0526468 11.6403333 73.7052426 11.6403333 73.7052426 9.85922222C73.7052426 9.36588889 73.5459234 8.99477778 72.9838809 8.99477778 72.4329021 8.99477778 72.1020936 9.41588889 72.0910298 9.97477778L72.0910298 11.6403333 71.7436255 11.6403333 71.7436255 8.78588889z" mask="url(#fehgra-b)"/>
    <polygon fill="#EFF" points="76.416 7.689 79.131 7.689 79.131 8.01 76.79 8.01 76.79 9.438 78.982 9.438 78.982 9.759 76.79 9.759 76.79 11.32 79.158 11.32 79.158 11.641 76.416 11.641" mask="url(#fehgra-b)"/>
    <path fill="#EFF" d="M79.6687574 8.78588889L79.9885021 8.78588889 79.9885021 9.267 80.0062043 9.267C80.1876511 8.92366667 80.4841617 8.70255556 80.9366723 8.70255556 81.3117362 8.70255556 81.6480766 8.88477778 81.7520766 9.26255556 81.923566 8.88477778 82.2809277 8.70255556 82.6559915 8.70255556 83.2788851 8.70255556 83.5986298 9.02922222 83.5986298 9.70366667L83.5986298 11.6403333 83.2501191 11.6403333 83.2501191 9.72144444C83.2501191 9.25033333 83.0753106 8.99477778 82.5796511 8.99477778 81.9788851 8.99477778 81.8085021 9.49477778 81.8085021 10.0247778L81.8085021 11.6403333 81.4599915 11.6403333 81.4599915 9.70366667C81.4666298 9.317 81.3062043 8.99477778 80.8647574 8.99477778 80.2639915 8.99477778 80.0216936 9.44922222 80.0161617 10.0481111L80.0161617 11.6403333 79.6687574 11.6403333 79.6687574 8.78588889zM85.6566128 8.99533333C84.8921021 8.99533333 84.6597617 9.56644444 84.6597617 10.2142222 84.6597617 10.8053333 84.9186553 11.4297778 85.6566128 11.4297778 86.3182298 11.4297778 86.5881872 10.8053333 86.5881872 10.2142222 86.5881872 9.62088889 86.3182298 8.99533333 85.6566128 8.99533333L85.6566128 8.99533333zM84.3123574 8.78644444L84.6321021 8.78644444 84.6321021 9.32866667 84.643166 9.32866667C84.8035915 8.94088889 85.1996766 8.702 85.6566128 8.702 86.5218043 8.702 86.9355915 9.40533333 86.9355915 10.2142222 86.9355915 11.0208889 86.5218043 11.7242222 85.6566128 11.7242222 85.2317617 11.7242222 84.8190809 11.5086667 84.6708255 11.0986667L84.6597617 11.0986667 84.6597617 12.6986667 84.3123574 12.6986667 84.3123574 8.78644444zM87.5279489 8.78588889L87.8488 8.78588889 87.8488 9.45588889 87.8598638 9.45588889C88.0357787 8.99477778 88.4219064 8.72366667 88.9341617 8.74588889L88.9341617 9.09477778C88.3057362 9.06255556 87.8753532 9.527 87.8753532 10.1192222L87.8753532 11.6403333 87.5279489 11.6403333 87.5279489 8.78588889zM91.2642043 10.0142222C91.2476085 9.48755556 90.9223319 8.99533333 90.3602894 8.99533333 89.7927149 8.99533333 89.4785021 9.49422222 89.423183 10.0142222L91.2642043 10.0142222zM89.423183 10.3075556C89.4287149 10.8164444 89.6931404 11.4297778 90.3602894 11.4297778 90.8681191 11.4297778 91.1436085 11.132 91.2531404 10.6997778L91.6005447 10.6997778C91.451183 11.3475556 91.0772255 11.7242222 90.3602894 11.7242222 89.4563745 11.7242222 89.0757787 11.0264444 89.0757787 10.2142222 89.0757787 9.46088889 89.4563745 8.702 90.3602894 8.702 91.2752681 8.702 91.6392681 9.50422222 91.6105021 10.3075556L89.423183 10.3075556zM93.8356596 9.62144444C93.8190638 9.18922222 93.4893617 8.99588889 93.0921702 8.99588889 92.7834894 8.99588889 92.4194894 9.117 92.4194894 9.48811111 92.4194894 9.79811111 92.7724255 9.90922222 93.0091915 9.96922222L93.472766 10.0747778C93.8688511 10.1358889 94.2826383 10.3681111 94.2826383 10.8658889 94.2826383 11.487 93.6719149 11.7247778 93.1419574 11.7247778 92.4803404 11.7247778 92.0278298 11.4136667 91.973617 10.7158889L92.3210213 10.7158889C92.3475745 11.187 92.6949787 11.4303333 93.1585532 11.4303333 93.4838298 11.4303333 93.935234 11.287 93.935234 10.8892222 93.935234 10.557 93.6265532 10.4458889 93.3123404 10.3681111L92.8664681 10.2692222C92.4139574 10.147 92.0720851 9.99255556 92.0720851 9.50477778 92.0720851 8.92366667 92.6396596 8.70255556 93.1419574 8.70255556 93.7095319 8.70255556 94.1620426 9.00033333 94.1830638 9.62144444L93.8356596 9.62144444zM96.6556085 10.0804444L96.6445447 10.0804444C96.6002894 10.1626667 96.4465021 10.1915556 96.353566 10.2071111 95.7627574 10.3126667 95.0303319 10.3071111 95.0303319 10.866 95.0303319 11.2148889 95.3390128 11.4304444 95.6642894 11.4304444 96.1931404 11.4304444 96.6611404 11.0937778 96.6556085 10.5337778L96.6556085 10.0804444zM94.8035234 9.66044444C94.8367149 8.99044444 95.3047149 8.70266667 95.9552681 8.70266667 96.457566 8.70266667 97.0019064 8.85711111 97.0019064 9.62155556L97.0019064 11.1371111C97.0019064 11.2704444 97.0682894 11.3482222 97.2065872 11.3482222 97.2453106 11.3482222 97.289566 11.3371111 97.3172255 11.326L97.3172255 11.6193333C97.2397787 11.6348889 97.185566 11.6404444 97.0915234 11.6404444 96.7374809 11.6404444 96.6821617 11.4426667 96.6821617 11.1426667L96.6722043 11.1426667C96.4299064 11.5137778 96.1820766 11.7237778 95.6366298 11.7237778 95.1122043 11.7237778 94.6829277 11.4637778 94.6829277 10.8893333 94.6829277 10.0871111 95.4596085 10.0571111 96.2097362 9.96933333 96.495183 9.93711111 96.6556085 9.89822222 96.6556085 9.58266667 96.6556085 9.11266667 96.3192681 8.99488889 95.9110128 8.99488889 95.4817362 8.99488889 95.1619915 9.19488889 95.152034 9.66044444L94.8035234 9.66044444zM97.7511489 8.78588889L98.0697872 8.78588889 98.0697872 9.45588889 98.0819574 9.45588889C98.2578723 8.99477778 98.644 8.72366667 99.1562553 8.74588889L99.1562553 9.09477778C98.5278298 9.06255556 98.0974468 9.527 98.0974468 10.1192222L98.0974468 11.6403333 97.7511489 11.6403333 97.7511489 8.78588889zM99.5457021 11.6407778L99.8931064 11.6407778 99.8931064 8.78633333 99.5457021 8.78633333 99.5457021 11.6407778zM99.5457021 8.24855556L99.8931064 8.24855556 99.8931064 7.68855556 99.5457021 7.68855556 99.5457021 8.24855556zM102.432809 10.0804444L102.421745 10.0804444C102.377489 10.1626667 102.223702 10.1915556 102.130766 10.2071111 101.539957 10.3126667 100.807532 10.3071111 100.807532 10.866 100.807532 11.2148889 101.116213 11.4304444 101.441489 11.4304444 101.97034 11.4304444 102.439447 11.0937778 102.432809 10.5337778L102.432809 10.0804444zM100.580723 9.66044444C100.613915 8.99044444 101.081915 8.70266667 101.732468 8.70266667 102.234766 8.70266667 102.779106 8.85711111 102.779106 9.62155556L102.779106 11.1371111C102.779106 11.2704444 102.846596 11.3482222 102.984894 11.3482222 103.022511 11.3482222 103.066766 11.3371111 103.095532 11.326L103.095532 11.6193333C103.016979 11.6348889 102.962766 11.6404444 102.868723 11.6404444 102.515787 11.6404444 102.460468 11.4426667 102.460468 11.1426667L102.449404 11.1426667C102.207106 11.5137778 101.95817 11.7237778 101.41383 11.7237778 100.889404 11.7237778 100.460128 11.4637778 100.460128 10.8893333 100.460128 10.0871111 101.237915 10.0571111 101.986936 9.96933333 102.272383 9.93711111 102.432809 9.89822222 102.432809 9.58266667 102.432809 9.11266667 102.096468 8.99488889 101.689319 8.99488889 101.258936 8.99488889 100.939191 9.19488889 100.929234 9.66044444L100.580723 9.66044444z" mask="url(#fehgra-b)"/>
    <polygon fill="#EFF" points="47.849 13.92 48.224 13.92 48.224 15.636 50.561 15.636 50.561 13.92 50.935 13.92 50.935 17.873 50.561 17.873 50.561 15.957 48.224 15.957 48.224 17.873 47.849 17.873" mask="url(#fehgra-b)"/>
    <path fill="#EFF" d="M51.9194553 16.4443333C51.9194553 17.0532222 52.2502638 17.6621111 52.9163064 17.6621111 53.5845617 17.6621111 53.9153702 17.0532222 53.9153702 16.4443333 53.9153702 15.8354444 53.5845617 15.2254444 52.9163064 15.2254444 52.2502638 15.2254444 51.9194553 15.8354444 51.9194553 16.4443333M54.2616681 16.4443333C54.2616681 17.2632222 53.7870298 17.9543333 52.9163064 17.9543333 52.0466894 17.9543333 51.5731574 17.2632222 51.5731574 16.4443333 51.5731574 15.6254444 52.0466894 14.9332222 52.9163064 14.9332222 53.7870298 14.9332222 54.2616681 15.6254444 54.2616681 16.4443333M55.3845362 15.0164444L55.9620681 15.0164444 55.9620681 15.3097778 55.3845362 15.3097778 55.3845362 17.2353333C55.3845362 17.462 55.4166213 17.5953333 55.6655574 17.612 55.7651319 17.612 55.8647064 17.6064444 55.9620681 17.5953333L55.9620681 17.8942222C55.8580681 17.8942222 55.7596 17.9053333 55.6544936 17.9053333 55.1909191 17.9053333 55.0316 17.7508889 55.0382383 17.2631111L55.0382383 15.3097778 54.540366 15.3097778 54.540366 15.0164444 55.0382383 15.0164444 55.0382383 14.1586667 55.3845362 14.1586667 55.3845362 15.0164444zM58.5631745 16.2446667C58.5465787 15.718 58.2213021 15.2257778 57.6592596 15.2257778 57.0916851 15.2257778 56.7774723 15.7246667 56.7221532 16.2446667L58.5631745 16.2446667zM56.7221532 16.5391111C56.7287915 17.048 56.9921106 17.6613333 57.6592596 17.6613333 58.1670894 17.6613333 58.4425787 17.3624444 58.5510043 16.9313333L58.8995149 16.9313333C58.7501532 17.578 58.3750894 17.9546667 57.6592596 17.9546667 56.7553447 17.9546667 56.3747489 17.2568889 56.3747489 16.4446667 56.3747489 15.6913333 56.7553447 14.9324444 57.6592596 14.9324444 58.5742383 14.9324444 58.9382383 15.7357778 58.9094723 16.5391111L56.7221532 16.5391111z" mask="url(#fehgra-b)"/>
    <polygon fill="#EFF" points="59.438 17.873 59.785 17.873 59.785 13.921 59.438 13.921" mask="url(#fehgra-b)"/>
    <path fill="#EFF" d="M62.5500255 16.2446667C62.5334298 15.718 62.2081532 15.2257778 61.647217 15.2257778 61.0785362 15.2257778 60.7654298 15.7246667 60.7101106 16.2446667L62.5500255 16.2446667zM60.7101106 16.5391111C60.7156426 17.048 60.9800681 17.6613333 61.647217 17.6613333 62.1539404 17.6613333 62.4294298 17.3624444 62.5389617 16.9313333L62.8874723 16.9313333C62.7381106 17.578 62.3630468 17.9546667 61.647217 17.9546667 60.7421957 17.9546667 60.3616 17.2568889 60.3616 16.4446667 60.3616 15.6913333 60.7421957 14.9324444 61.647217 14.9324444 62.5621957 14.9324444 62.9250894 15.7357778 62.8963234 16.5391111L60.7101106 16.5391111zM63.4198638 15.0164444L63.7385021 15.0164444 63.7385021 15.6864444 63.7506723 15.6864444C63.9265872 15.2253333 64.3127149 14.9553333 64.8249702 14.9775556L64.8249702 15.3253333C64.1965447 15.292 63.7661617 15.7575556 63.7661617 16.3497778L63.7661617 17.872 63.4198638 17.872 63.4198638 15.0164444zM67.0285532 16.3108889L67.016383 16.3108889C66.973234 16.3942222 66.8194468 16.422 66.7254043 16.4386667 66.1345957 16.5431111 65.4021702 16.5386667 65.4021702 17.0964444 65.4021702 17.4453333 65.7108511 17.662 66.0361277 17.662 66.5649787 17.662 67.0329787 17.3231111 67.0285532 16.7642222L67.0285532 16.3108889zM65.1764681 15.8908889C65.2085532 15.2208889 65.6776596 14.9331111 66.3282128 14.9331111 66.8294043 14.9331111 67.3748511 15.0875556 67.3748511 15.852L67.3748511 17.3686667C67.3748511 17.5008889 67.441234 17.5786667 67.5795319 17.5786667 67.6171489 17.5786667 67.6614043 17.5675556 67.6890638 17.5564444L67.6890638 17.8508889C67.611617 17.8664444 67.5574043 17.872 67.4644681 17.872 67.1104255 17.872 67.0551064 17.6731111 67.0551064 17.3731111L67.0451489 17.3731111C66.8028511 17.7442222 66.5539149 17.9542222 66.0084681 17.9542222 65.4840426 17.9542222 65.0558723 17.6942222 65.0558723 17.1197778 65.0558723 16.3164444 65.8325532 16.2886667 66.5826809 16.1997778 66.8670213 16.1675556 67.0285532 16.1286667 67.0285532 15.8131111 67.0285532 15.3431111 66.6911064 15.2253333 66.2839574 15.2253333 65.8535745 15.2253333 65.5349362 15.4253333 65.5238723 15.8908889L65.1764681 15.8908889zM73.1374468 17.8723333L72.866383 17.8723333 72.8177021 17.1523333 72.8055319 17.1523333C72.5411064 17.7167778 72.0122553 17.9545556 71.4457872 17.9545556 70.2055319 17.9545556 69.5881702 16.9745556 69.5881702 15.8956667 69.5881702 14.8167778 70.2055319 13.8378889 71.4457872 13.8378889 72.2722553 13.8378889 72.9438298 14.2845556 73.0865532 15.149L72.7125957 15.149C72.6628085 14.6956667 72.1937021 14.1578889 71.4457872 14.1578889 70.4035745 14.1578889 69.963234 15.0323333 69.963234 15.8956667 69.963234 16.759 70.4035745 17.6334444 71.4457872 17.6334444 72.3165106 17.6334444 72.823234 17.019 72.8055319 16.1834444L71.4668085 16.1834444 71.4668085 15.8623333 73.1374468 15.8623333 73.1374468 17.8723333zM75.6635404 16.3108889L75.6524766 16.3108889C75.6093277 16.3942222 75.4555404 16.422 75.3614979 16.4386667 74.7706894 16.5431111 74.0382638 16.5386667 74.0382638 17.0964444 74.0382638 17.4453333 74.3469447 17.662 74.6722213 17.662 75.2010723 17.662 75.6701787 17.3231111 75.6635404 16.7642222L75.6635404 16.3108889zM73.8125617 15.8908889C73.8446468 15.2208889 74.3137532 14.9331111 74.9643064 14.9331111 75.4654979 14.9331111 76.0109447 15.0875556 76.0109447 15.852L76.0109447 17.3686667C76.0109447 17.5008889 76.0773277 17.5786667 76.2145191 17.5786667 76.2532426 17.5786667 76.2963915 17.5675556 76.3262638 17.5564444L76.3262638 17.8508889C76.2477106 17.8664444 76.1934979 17.872 76.0994553 17.872 75.7465191 17.872 75.6912 17.6731111 75.6912 17.3731111L75.6812426 17.3731111C75.4378383 17.7442222 75.1900085 17.9542222 74.6445617 17.9542222 74.1201362 17.9542222 73.6908596 17.6942222 73.6908596 17.1197778 73.6908596 16.3164444 74.4675404 16.2886667 75.2176681 16.1997778 75.5031149 16.1675556 75.6635404 16.1286667 75.6635404 15.8131111 75.6635404 15.3431111 75.3272 15.2253333 74.9200511 15.2253333 74.4896681 15.2253333 74.1699234 15.4253333 74.159966 15.8908889L73.8125617 15.8908889zM78.4619149 15.8518889C78.4442128 15.4196667 78.1145106 15.2263333 77.7173191 15.2263333 77.4097447 15.2263333 77.0457447 15.3485556 77.0457447 15.7185556 77.0457447 16.0285556 77.3975745 16.1396667 77.6354468 16.1996667L78.0979149 16.3052222C78.4951064 16.3663333 78.9077872 16.5996667 78.9077872 17.0963333 78.9077872 17.7174444 78.2959574 17.9552222 77.7671064 17.9552222 77.1054894 17.9552222 76.6540851 17.6452222 76.598766 16.9474444L76.9461702 16.9474444C76.9727234 17.4174444 77.321234 17.6618889 77.7837021 17.6618889 78.1089787 17.6618889 78.5614894 17.5174444 78.5614894 17.1196667 78.5614894 16.7874444 78.2528085 16.6763333 77.9374894 16.5996667L77.491617 16.4985556C77.0402128 16.3774444 76.6983404 16.2218889 76.6983404 15.7363333 76.6983404 15.1552222 77.2659149 14.933 77.7671064 14.933 78.3357872 14.933 78.7871915 15.2318889 78.8082128 15.8518889L78.4619149 15.8518889zM80.0133957 15.0164444L80.592034 15.0164444 80.592034 15.3097778 80.0133957 15.3097778 80.0133957 17.2353333C80.0133957 17.462 80.0465872 17.5953333 80.2955234 17.612 80.3950979 17.612 80.493566 17.6064444 80.592034 17.5953333L80.592034 17.8942222C80.488034 17.8942222 80.3884596 17.9053333 80.2844596 17.9053333 79.8208851 17.9053333 79.661566 17.7508889 79.6670979 17.2631111L79.6670979 15.3097778 79.1703319 15.3097778 79.1703319 15.0164444 79.6670979 15.0164444 79.6670979 14.1586667 80.0133957 14.1586667 80.0133957 15.0164444zM81.1478809 15.0164444L81.4676255 15.0164444 81.4676255 15.6864444 81.4786894 15.6864444C81.6557106 15.2253333 82.0418383 14.9553333 82.5540936 14.9775556L82.5540936 15.3253333C81.9245617 15.292 81.4941787 15.7575556 81.4941787 16.3497778L81.4941787 17.872 81.1478809 17.872 81.1478809 15.0164444zM83.0430043 16.4443333C83.0430043 17.0532222 83.3738128 17.6621111 84.0398553 17.6621111 84.7070043 17.6621111 85.0378128 17.0532222 85.0378128 16.4443333 85.0378128 15.8354444 84.7070043 15.2254444 84.0398553 15.2254444 83.3738128 15.2254444 83.0430043 15.8354444 83.0430043 16.4443333M85.385217 16.4443333C85.385217 17.2632222 84.9105787 17.9543333 84.0398553 17.9543333 83.1691319 17.9543333 82.6956 17.2632222 82.6956 16.4443333 82.6956 15.6254444 83.1691319 14.9332222 84.0398553 14.9332222 84.9105787 14.9332222 85.385217 15.6254444 85.385217 16.4443333M85.9504681 15.0164444L86.2978723 15.0164444 86.2978723 15.5086667 86.3089362 15.5086667C86.4350638 15.1664444 86.8156596 14.9331111 87.218383 14.9331111 88.0171915 14.9331111 88.2594894 15.3542222 88.2594894 16.0342222L88.2594894 17.872 87.9120851 17.872 87.9120851 16.0897778C87.9120851 15.5964444 87.752766 15.2253333 87.1907234 15.2253333 86.6397447 15.2253333 86.3089362 15.6464444 86.2978723 16.2053333L86.2978723 17.872 85.9504681 17.872 85.9504681 15.0164444zM90.1264 14.6171111L89.8453787 14.6171111 90.424017 13.8382222 90.8532936 13.8382222 90.1264 14.6171111zM89.1726979 16.4448889C89.1726979 17.0526667 89.5046128 17.6615556 90.1695489 17.6615556 90.8378043 17.6615556 91.1675064 17.0526667 91.1675064 16.4448889 91.1675064 15.836 90.8378043 15.226 90.1695489 15.226 89.5046128 15.226 89.1726979 15.836 89.1726979 16.4448889L89.1726979 16.4448889zM91.5149106 16.4448889C91.5149106 17.2637778 91.0413787 17.9548889 90.1695489 17.9548889 89.2999319 17.9548889 88.8252936 17.2637778 88.8252936 16.4448889 88.8252936 15.6248889 89.2999319 14.9326667 90.1695489 14.9326667 91.0413787 14.9326667 91.5149106 15.6248889 91.5149106 16.4448889L91.5149106 16.4448889zM92.0863574 15.0164444L92.4049957 15.0164444 92.4049957 15.4986667 92.4226979 15.4986667C92.6041447 15.1553333 92.9017617 14.9331111 93.3542723 14.9331111 93.7271234 14.9331111 94.0645702 15.1153333 94.1696766 15.492 94.3400596 15.1153333 94.6974213 14.9331111 95.0724851 14.9331111 95.6964851 14.9331111 96.0151234 15.2597778 96.0151234 15.9353333L96.0151234 17.872 95.6677191 17.872 95.6677191 15.952C95.6677191 15.4808889 95.4918043 15.2253333 94.9961447 15.2253333 94.3953787 15.2253333 94.2249957 15.7253333 94.2249957 16.2553333L94.2249957 17.872 93.8764851 17.872 93.8764851 15.9353333C93.882017 15.5475556 93.7226979 15.2253333 93.2812511 15.2253333 92.6815915 15.2253333 92.4381872 15.6797778 92.4326553 16.2775556L92.4326553 17.872 92.0863574 17.872 92.0863574 15.0164444zM96.734383 17.8718889L97.0806809 17.8718889 97.0806809 15.0163333 96.734383 15.0163333 96.734383 17.8718889zM96.734383 14.4796667L97.0806809 14.4796667 97.0806809 13.9207778 96.734383 13.9207778 96.734383 14.4796667zM99.8094638 15.9126667C99.7154213 15.486 99.4565277 15.226 99.004017 15.226 98.3379745 15.226 98.007166 15.836 98.007166 16.4448889 98.007166 17.0526667 98.3379745 17.6615556 99.004017 17.6615556 99.4344 17.6615556 99.7873362 17.3237778 99.8315915 16.8482222L100.177889 16.8482222C100.084953 17.5348889 99.6379745 17.9548889 99.004017 17.9548889 98.1332936 17.9548889 97.6608681 17.2637778 97.6608681 16.4448889 97.6608681 15.6248889 98.1332936 14.9326667 99.004017 14.9326667 99.6103149 14.9326667 100.078315 15.2593333 100.155762 15.9126667L99.8094638 15.9126667zM102.535481 16.3108889L102.523311 16.3108889C102.480162 16.3942222 102.326374 16.422 102.232332 16.4386667 101.641523 16.5431111 100.909098 16.5386667 100.909098 17.0964444 100.909098 17.4453333 101.218885 17.662 101.544162 17.662 102.071906 17.662 102.541013 17.3231111 102.535481 16.7642222L102.535481 16.3108889zM100.683396 15.8908889C100.715481 15.2208889 101.184587 14.9331111 101.83514 14.9331111 102.336332 14.9331111 102.881779 15.0875556 102.881779 15.852L102.881779 17.3686667C102.881779 17.5008889 102.948162 17.5786667 103.08646 17.5786667 103.124077 17.5786667 103.168332 17.5675556 103.197098 17.5564444L103.197098 17.8508889C103.118545 17.8664444 103.064332 17.872 102.970289 17.872 102.617353 17.872 102.562034 17.6731111 102.562034 17.3731111L102.552077 17.3731111C102.308672 17.7442222 102.060843 17.9542222 101.515396 17.9542222 100.99097 17.9542222 100.5628 17.6942222 100.5628 17.1197778 100.5628 16.3164444 101.339481 16.2886667 102.088502 16.1997778 102.375055 16.1675556 102.535481 16.1286667 102.535481 15.8131111 102.535481 15.3431111 102.19914 15.2253333 101.790885 15.2253333 101.360502 15.2253333 101.040757 15.4253333 101.0308 15.8908889L100.683396 15.8908889zM48.8401702 23.8955556C49.5659574 23.8955556 49.8215319 23.28 49.8215319 22.6988889 49.8215319 22.1155556 49.5659574 21.5022222 48.8401702 21.5022222 48.189617 21.5022222 47.9240851 22.1155556 47.9240851 22.6988889 47.9240851 23.28 48.189617 23.8955556 48.8401702 23.8955556L48.8401702 23.8955556zM50.1622979 24.1022222L49.8469787 24.1022222 49.8469787 23.5688889 49.8359149 23.5688889C49.6909787 23.9333333 49.2462128 24.1844444 48.8401702 24.1844444 47.9893617 24.1844444 47.5822128 23.4933333 47.5822128 22.6988889 47.5822128 21.9044444 47.9893617 21.2133333 48.8401702 21.2133333 49.2572766 21.2133333 49.6633191 21.4244444 49.8093617 21.8277778L49.8215319 21.8277778 49.8215319 20.2166667 50.1622979 20.2166667 50.1622979 24.1022222zM52.6866213 22.5023333C52.6711319 21.9856667 52.3513872 21.5023333 51.7981957 21.5023333 51.2405787 21.5023333 50.9318979 21.9912222 50.8765787 22.5023333L52.6866213 22.5023333zM50.8765787 22.7912222C50.883217 23.2912222 51.1421106 23.8956667 51.7981957 23.8956667 52.2960681 23.8956667 52.5693447 23.6012222 52.6755574 23.1767778L53.0174298 23.1767778C52.8713872 23.8145556 52.5029617 24.1845556 51.7981957 24.1845556 50.9108766 24.1845556 50.5369191 23.4978889 50.5369191 22.699 50.5369191 21.959 50.9108766 21.2134444 51.7981957 21.2134444 52.6987915 21.2134444 53.0561532 22.0023333 53.0284936 22.7912222L50.8765787 22.7912222z" mask="url(#fehgra-b)"/>
    <polygon fill="#EFF" points="54.622 24.102 54.964 24.102 54.964 20.217 54.622 20.217" mask="url(#fehgra-b)"/>
    <path fill="#EFF" d="M57.2720255 22.5684444L57.2598553 22.5684444C57.2167064 22.6495556 57.0651319 22.6773333 56.9733021 22.6928889 56.3935574 22.7962222 55.6733021 22.7906667 55.6733021 23.3406667 55.6733021 23.684 55.9764511 23.8951111 56.2961957 23.8951111 56.8161957 23.8951111 57.2764511 23.564 57.2720255 23.014L57.2720255 22.5684444zM55.4509191 22.1551111C55.4841106 21.4962222 55.944366 21.2128889 56.5827489 21.2128889 57.0761957 21.2128889 57.6127915 21.3651111 57.6127915 22.1162222L57.6127915 23.6073333C57.6127915 23.7384444 57.6769617 23.814 57.8130468 23.814 57.8506638 23.814 57.8938128 23.8028889 57.9214723 23.7928889L57.9214723 24.0806667C57.8462383 24.0962222 57.7920255 24.1017778 57.7001957 24.1017778 57.3527915 24.1017778 57.2974723 23.9062222 57.2974723 23.6117778L57.2875149 23.6117778C57.0496426 23.9773333 56.8051319 24.184 56.2696426 24.184 55.7540681 24.184 55.3314298 23.9284444 55.3314298 23.3628889 55.3314298 22.574 56.0959404 22.5451111 56.8338979 22.4584444 57.1138128 22.4262222 57.2720255 22.3884444 57.2720255 22.0784444 57.2720255 21.6162222 56.9401106 21.5017778 56.5396 21.5017778 56.1180681 21.5017778 55.8038553 21.6973333 55.7927915 22.1551111L55.4509191 22.1551111zM59.8565362 22.0617778L61.2317702 22.0617778C61.6820681 22.0617778 62.0670894 21.7784444 62.0670894 21.3051111 62.0670894 20.8328889 61.7849617 20.5328889 61.2317702 20.5328889L59.8565362 20.5328889 59.8565362 22.0617778zM59.4881106 20.2173333L61.2605362 20.2173333C61.8989191 20.2173333 62.4355149 20.5273333 62.4355149 21.2295556 62.4355149 21.7184444 62.1810468 22.1217778 61.6820681 22.2195556L61.6820681 22.2295556C62.1854723 22.2962222 62.3326213 22.644 62.3602809 23.1062222 62.3757702 23.3728889 62.3757702 23.9062222 62.5384085 24.1017778L62.132366 24.1017778C62.0405362 23.9495556 62.0405362 23.6606667 62.0294723 23.4984444 61.9973872 22.9551111 61.9542383 22.3506667 61.2538979 22.3773333L59.8565362 22.3773333 59.8565362 24.1017778 59.4881106 24.1017778 59.4881106 20.2173333zM64.9119319 22.5023333C64.8953362 21.9856667 64.5755915 21.5023333 64.0224 21.5023333 63.464783 21.5023333 63.1561021 21.9912222 63.1018894 22.5023333L64.9119319 22.5023333zM63.1018894 22.7912222C63.1074213 23.2912222 63.3674213 23.8956667 64.0224 23.8956667 64.5213787 23.8956667 64.7935489 23.6012222 64.9008681 23.1767778L65.2427404 23.1767778C65.0966979 23.8145556 64.7282723 24.1845556 64.0224 24.1845556 63.1350809 24.1845556 62.7611234 23.4978889 62.7611234 22.699 62.7611234 21.959 63.1350809 21.2134444 64.0224 21.2134444 64.9229957 21.2134444 65.2803574 22.0023333 65.2538043 22.7912222L63.1018894 22.7912222zM66.9009872 21.5018889C66.1475404 21.5018889 65.9196255 22.0618889 65.9196255 22.6985556 65.9196255 23.2807778 66.1740936 23.8952222 66.9009872 23.8952222 67.550434 23.8952222 67.815966 23.2807778 67.815966 22.6985556 67.815966 22.1163333 67.550434 21.5018889 66.9009872 21.5018889L66.9009872 21.5018889zM65.5788596 21.2941111L65.8930723 21.2941111 65.8930723 21.8274444 65.9041362 21.8274444C66.0601362 21.4474444 66.4517957 21.213 66.9009872 21.213 67.7517957 21.213 68.1578383 21.9041111 68.1578383 22.6985556 68.1578383 23.493 67.7517957 24.1841111 66.9009872 24.1841111 66.4827745 24.1841111 66.0778383 23.9718889 65.9306894 23.5685556L65.9196255 23.5685556 65.9196255 25.1418889 65.5788596 25.1418889 65.5788596 21.2941111zM69.6378468 20.9028889L69.3612511 20.9028889 69.9299319 20.1362222 70.3525702 20.1362222 69.6378468 20.9028889zM70.8183574 24.1017778L70.5041447 24.1017778 70.5041447 23.5962222 70.4930809 23.5962222C70.3138468 23.9717778 69.9465277 24.184 69.5283149 24.184 68.8246553 24.184 68.549166 23.7706667 68.549166 23.1173333L68.549166 21.2951111 68.8899319 21.2951111 68.8899319 23.1228889C68.9065277 23.6284444 69.0957191 23.8951111 69.6378468 23.8951111 70.222017 23.8951111 70.4775915 23.3406667 70.4775915 22.7695556L70.4775915 21.2951111 70.8183574 21.2951111 70.8183574 24.1017778zM72.6500851 21.5018889C71.9242979 21.5018889 71.6687234 22.1163333 71.6687234 22.6985556 71.6687234 23.2807778 71.9242979 23.8952222 72.6500851 23.8952222 73.3006383 23.8952222 73.5650638 23.2807778 73.5650638 22.6985556 73.5650638 22.1163333 73.3006383 21.5018889 72.6500851 21.5018889L72.6500851 21.5018889zM71.3290638 20.2174444L71.6687234 20.2174444 71.6687234 21.8274444 71.6797872 21.8274444C71.8258298 21.4252222 72.2329787 21.213 72.6500851 21.213 73.5008936 21.213 73.9069362 21.9041111 73.9069362 22.6985556 73.9069362 23.493 73.5008936 24.1841111 72.6500851 24.1841111 72.2008936 24.1841111 71.809234 23.9496667 71.653234 23.5685556L71.6421702 23.5685556 71.6421702 24.1018889 71.3290638 24.1018889 71.3290638 20.2174444z" mask="url(#fehgra-b)"/>
    <polygon fill="#EFF" points="74.309 24.102 74.651 24.102 74.651 20.217 74.309 20.217" mask="url(#fehgra-b)"/>
    <path fill="#EFF" d="M75.1754043 24.1007778L75.5172766 24.1007778 75.5172766 21.2941111 75.1754043 21.2941111 75.1754043 24.1007778zM75.1754043 20.7674444L75.5172766 20.7674444 75.5172766 20.2174444 75.1754043 20.2174444 75.1754043 20.7674444zM78.009183 22.1756667C77.9173532 21.7567778 77.6628851 21.5023333 77.2181191 21.5023333 76.562034 21.5023333 76.2367574 22.1001111 76.2367574 22.699 76.2367574 23.2967778 76.562034 23.8956667 77.2181191 23.8956667 77.6407574 23.8956667 77.9870553 23.5634444 78.0313106 23.0956667L78.3720766 23.0956667C78.2802468 23.7712222 77.8421191 24.1845556 77.2181191 24.1845556 76.3628851 24.1845556 75.8959915 23.5034444 75.8959915 22.699 75.8959915 21.8934444 76.3628851 21.2134444 77.2181191 21.2134444 77.8133532 21.2134444 78.2747149 21.5345556 78.3510553 22.1756667L78.009183 22.1756667zM80.5017532 22.5684444L80.4906894 22.5684444C80.4475404 22.6495556 80.2948596 22.6773333 80.2030298 22.6928889 79.6232851 22.7962222 78.9041362 22.7906667 78.9041362 23.3406667 78.9041362 23.684 79.2072851 23.8951111 79.5259234 23.8951111 80.0470298 23.8951111 80.5072851 23.564 80.5017532 23.014L80.5017532 22.5684444zM78.6806468 22.1551111C78.7138383 21.4962222 79.1740936 21.2128889 79.813583 21.2128889 80.3059234 21.2128889 80.8436255 21.3651111 80.8436255 22.1162222L80.8436255 23.6073333C80.8436255 23.7384444 80.9077957 23.814 81.0438809 23.814 81.0814979 23.814 81.1246468 23.8028889 81.1523064 23.7928889L81.1523064 24.0806667C81.075966 24.0962222 81.0217532 24.1017778 80.9299234 24.1017778 80.5825191 24.1017778 80.5283064 23.9062222 80.5283064 23.6117778L80.5183489 23.6117778C80.2793702 23.9773333 80.035966 24.184 79.4993702 24.184 78.9849021 24.184 78.5622638 23.9284444 78.5622638 23.3628889 78.5622638 22.574 79.3267745 22.5451111 80.0636255 22.4584444 80.3435404 22.4262222 80.5017532 22.3884444 80.5017532 22.0784444 80.5017532 21.6162222 80.1709447 21.5017778 79.770434 21.5017778 79.3477957 21.5017778 79.033583 21.6973333 79.0225191 22.1551111L78.6806468 22.1551111zM83.1564085 22.5782222L84.6798979 22.5782222 83.931983 20.5871111 83.1564085 22.5782222zM83.7416851 20.2171111L84.1532596 20.2171111 85.6701106 24.1015556 85.2751319 24.1015556 84.8038128 22.8937778 83.0435574 22.8937778 82.5777702 24.1015556 82.1816851 24.1015556 83.7416851 20.2171111zM85.8230128 21.2945556L86.1383319 21.2945556 86.1383319 21.9534444 86.1482894 21.9534444C86.3219915 21.5023333 86.7014809 21.2345556 87.2048851 21.2567778L87.2048851 21.599C86.586417 21.5667778 86.1648851 22.0234444 86.1648851 22.6056667L86.1648851 24.1012222 85.8230128 24.1012222 85.8230128 21.2945556zM89.4155489 22.6661111C89.4155489 22.1161111 89.1621872 21.5016667 88.5160596 21.5016667 87.8666128 21.5016667 87.5944426 22.0838889 87.5944426 22.6661111 87.5944426 23.2316667 87.887634 23.7816667 88.5160596 23.7816667 89.1068681 23.7816667 89.4155489 23.2372222 89.4155489 22.6661111L89.4155489 22.6661111zM89.7574213 23.8738889C89.7518894 24.7116667 89.4321447 25.2227778 88.5160596 25.2227778 87.9584426 25.2227778 87.4052511 24.9727778 87.3576766 24.3738889L87.6973362 24.3738889C87.7736766 24.7872222 88.1365702 24.935 88.5160596 24.935 89.1444851 24.935 89.4155489 24.5594444 89.4155489 23.8738889L89.4155489 23.4927778 89.4044851 23.4927778C89.2473787 23.8361111 88.9176766 24.0694444 88.5160596 24.0694444 87.6221021 24.0694444 87.2536766 23.4283333 87.2536766 22.6283333 87.2536766 21.8561111 87.7084 21.2127778 88.5160596 21.2127778 88.9232085 21.2127778 89.2695064 21.4683333 89.4044851 21.7783333L89.4155489 21.7783333 89.4155489 21.295 89.7574213 21.295 89.7574213 23.8738889zM92.281966 22.5023333C92.2653702 21.9856667 91.9456255 21.5023333 91.3935404 21.5023333 90.834817 21.5023333 90.5261362 21.9912222 90.4719234 22.5023333L92.281966 22.5023333zM90.4719234 22.7912222C90.4785617 23.2912222 90.7374553 23.8956667 91.3935404 23.8956667 91.8914128 23.8956667 92.163583 23.6012222 92.2709021 23.1767778L92.6127745 23.1767778C92.4667319 23.8145556 92.0983064 24.1845556 91.3935404 24.1845556 90.5051149 24.1845556 90.1322638 23.4978889 90.1322638 22.699 90.1322638 21.959 90.5051149 21.2134444 91.3935404 21.2134444 92.2930298 21.2134444 92.6503915 22.0023333 92.6238383 22.7912222L90.4719234 22.7912222zM92.9431404 21.2945556L93.2850128 21.2945556 93.2850128 21.779 93.2960766 21.779C93.4210979 21.4423333 93.7950553 21.2134444 94.190034 21.2134444 94.975566 21.2134444 95.2134383 21.6267778 95.2134383 22.2956667L95.2134383 24.1012222 94.8726723 24.1012222 94.8726723 22.3501111C94.8726723 21.8656667 94.715566 21.5023333 94.1634809 21.5023333 93.6202468 21.5023333 93.2960766 21.9156667 93.2850128 22.4645556L93.2850128 24.1012222 92.9431404 24.1012222 92.9431404 21.2945556zM96.2645021 21.2945556L96.8342894 21.2945556 96.8342894 21.5834444 96.2645021 21.5834444 96.2645021 23.4767778C96.2645021 23.699 96.2976936 23.8301111 96.5410979 23.8467778 96.639566 23.8467778 96.7369277 23.8412222 96.8342894 23.8301111L96.8342894 24.1245556C96.7313957 24.1245556 96.634034 24.1356667 96.530034 24.1356667 96.0753106 24.1356667 95.9193106 23.9823333 95.9237362 23.5034444L95.9237362 21.5834444 95.4358213 21.5834444 95.4358213 21.2945556 95.9237362 21.2945556 95.9237362 20.4512222 96.2645021 20.4512222 96.2645021 21.2945556zM97.1968511 24.1007778L97.5387234 24.1007778 97.5387234 21.2941111 97.1968511 21.2941111 97.1968511 24.1007778zM97.1968511 20.7674444L97.5387234 20.7674444 97.5387234 20.2174444 97.1968511 20.2174444 97.1968511 20.7674444zM98.0537447 21.2945556L98.3945106 21.2945556 98.3945106 21.779 98.4055745 21.779C98.5305957 21.4423333 98.9045532 21.2134444 99.2995319 21.2134444 100.085064 21.2134444 100.324043 21.6267778 100.324043 22.2956667L100.324043 24.1012222 99.9821702 24.1012222 99.9821702 22.3501111C99.9821702 21.8656667 99.8250638 21.5023333 99.2718723 21.5023333 98.7297447 21.5023333 98.4055745 21.9156667 98.3945106 22.4645556L98.3945106 24.1012222 98.0537447 24.1012222 98.0537447 21.2945556zM102.620783 22.5684444L102.609719 22.5684444C102.56657 22.6495556 102.414996 22.6773333 102.32206 22.6928889 101.743421 22.7962222 101.023166 22.7906667 101.023166 23.3406667 101.023166 23.684 101.326315 23.8951111 101.64606 23.8951111 102.16606 23.8951111 102.626315 23.564 102.620783 23.014L102.620783 22.5684444zM100.799677 22.1551111C100.833974 21.4962222 101.29423 21.2128889 101.932613 21.2128889 102.42606 21.2128889 102.962655 21.3651111 102.962655 22.1162222L102.962655 23.6073333C102.962655 23.7384444 103.027932 23.814 103.162911 23.814 103.200528 23.814 103.243677 23.8028889 103.271336 23.7928889L103.271336 24.0806667C103.196102 24.0962222 103.140783 24.1017778 103.048953 24.1017778 102.702655 24.1017778 102.647336 23.9062222 102.647336 23.6117778L102.637379 23.6117778C102.399506 23.9773333 102.154996 24.184 101.6184 24.184 101.103932 24.184 100.681294 23.9284444 100.681294 23.3628889 100.681294 22.574 101.445804 22.5451111 102.182655 22.4584444 102.463677 22.4262222 102.620783 22.3884444 102.620783 22.0784444 102.620783 21.6162222 102.289974 21.5017778 101.889464 21.5017778 101.466826 21.5017778 101.152613 21.6973333 101.141549 22.1551111L100.799677 22.1551111z" mask="url(#fehgra-b)"/>
  </g>
</svg>
