<svg xmlns="http://www.w3.org/2000/svg" width="84" height="48" viewBox="0 0 84 48">
  <g fill="#424242" fill-rule="evenodd" transform="translate(0 3)">
    <path d="M65.5426 26.1444C64.8786 26.5304 64.1686 26.6264 63.4646 26.7524 62.9346 26.8464 62.3966 26.9344 61.9486 27.2624 61.4026 27.6604 61.3066 28.2264 61.4126 28.8444 61.5046 29.3904 61.8646 29.7104 62.3866 29.8504 62.7946 29.9584 63.2066 29.9084 63.6026 29.7964 64.5506 29.5304 65.2846 29.0084 65.4966 27.9884 65.6186 27.3944 65.5326 26.7824 65.5426 26.1444M65.6186 30.4424C65.1266 30.9524 64.6406 31.3844 64.0406 31.6564 62.8786 32.1824 61.6786 32.2884 60.4666 31.8924 58.8766 31.3684 58.1826 30.0224 58.2926 28.3744 58.4326 26.2824 59.8266 25.2644 61.5686 24.9804 62.5646 24.8184 63.5626 24.6744 64.5586 24.5204 64.6106 24.5144 64.6606 24.5084 64.7106 24.4944 65.1086 24.3864 65.4586 24.2224 65.5226 23.7544 65.5966 23.2264 65.3806 22.7164 64.9306 22.5224 64.1226 22.1724 63.2826 22.1344 62.4666 22.4944 61.9806 22.7064 61.7566 23.1524 61.6846 23.6564 61.6526 23.8764 61.5626 23.9064 61.3726 23.9044 60.5666 23.8944 59.7626 23.8864 58.9586 23.9064 58.6886 23.9144 58.6566 23.8284 58.6846 23.5924 58.9486 21.4844 60.1406 20.2264 62.2366 19.9064 63.5246 19.7104 64.8126 19.7124 66.0746 20.0984 67.0386 20.3924 67.8546 20.8884 68.2966 21.8504 68.4826 22.2544 68.5566 22.6804 68.5566 23.1204 68.5546 25.2344 68.5546 27.3504 68.5566 29.4624 68.5586 29.8144 68.5766 30.1644 68.6466 30.5104 68.7146 30.8364 68.8286 31.1284 69.1526 31.2964 69.3326 31.3884 69.2346 31.5744 69.2386 31.7164 69.2426 31.8684 69.0986 31.8084 69.0206 31.8084 68.0526 31.8124 67.0866 31.8064 66.1206 31.8164 65.9466 31.8184 65.8866 31.7544 65.8406 31.6024 65.7326 31.2404 65.6766 30.8684 65.6186 30.4424M36.8318 24.7812L38.8838 24.7812C39.2098 24.7812 39.2098 24.7812 39.1618 24.4512 38.9098 22.7972 37.3778 21.8892 35.8738 22.5092 34.9698 22.8852 34.6498 23.6632 34.4818 24.5492 34.4398 24.7652 34.5218 24.7852 34.7038 24.7832 35.4138 24.7752 36.1238 24.7812 36.8318 24.7812M42.2478 28.3992C41.8478 29.7332 41.0978 30.7892 39.8498 31.4592 38.7998 32.0212 37.6698 32.1812 36.4958 32.0972 35.8978 32.0572 35.3098 31.9612 34.7358 31.7712 33.4178 31.3372 32.4338 30.5072 31.9178 29.2232 31.0638 27.0992 30.9798 24.9372 31.8678 22.8052 32.6218 20.9932 34.0638 20.0692 35.9798 19.8412 37.0318 19.7172 38.0678 19.7892 39.0658 20.1632 40.7058 20.7832 41.6318 22.0312 42.0818 23.6752 42.3438 24.6412 42.3978 25.6312 42.3918 26.6272 42.3918 26.7592 42.3518 26.8112 42.2178 26.8072 41.9958 26.8012 41.7718 26.8052 41.5498 26.8052 39.2458 26.8052 36.9438 26.8092 34.6398 26.8012 34.4258 26.7992 34.3478 26.8452 34.3858 27.0692 34.4538 27.4732 34.5218 27.8772 34.6898 28.2552 34.9578 28.8592 35.3978 29.2832 36.0298 29.4792 36.6978 29.6872 37.3738 29.7272 38.0378 29.4512 38.4818 29.2672 38.8278 28.9792 39.0138 28.5232 39.0498 28.4352 39.0798 28.3632 39.2058 28.3652 40.1998 28.3712 41.1938 28.3692 42.1858 28.3712 42.2018 28.3712 42.2158 28.3852 42.2478 28.3992M72.1072 28.0604C72.5772 28.0604 73.0492 28.0584 73.5192 28.0604 73.6072 28.0604 73.7092 28.0284 73.7172 28.1844 73.7652 29.0964 74.3492 29.4964 75.1572 29.6644 75.8352 29.8044 76.5172 29.8284 77.1912 29.6484 77.5292 29.5584 77.8252 29.3924 78.0252 29.0924 78.3212 28.6504 78.2352 28.2084 77.7912 27.9184 77.4412 27.6904 77.0412 27.5924 76.6432 27.4964 75.6732 27.2604 74.6792 27.1264 73.7232 26.8284 73.2992 26.6944 72.8832 26.5384 72.4952 26.3164 71.1732 25.5604 70.7912 24.4844 70.9952 23.1164 71.2352 21.4904 72.2172 20.4744 73.7772 20.0444 75.3452 19.6144 76.9192 19.6844 78.4492 20.2124 79.9772 20.7384 80.7452 21.8844 80.9232 23.4604 80.9412 23.6084 80.9192 23.6784 80.7432 23.6764 79.8612 23.6664 78.9812 23.6704 78.0992 23.6744 77.9672 23.6744 77.9112 23.6444 77.8772 23.5044 77.6452 22.5924 77.1712 22.2024 76.2292 22.1544 75.7172 22.1264 75.2012 22.1164 74.7052 22.2904 74.5172 22.3564 74.3492 22.4524 74.2092 22.5984 73.8412 22.9884 73.8972 23.5684 74.3412 23.8624 74.7112 24.1064 75.1392 24.2084 75.5632 24.3064 76.5272 24.5324 77.5092 24.6804 78.4592 24.9724 78.9252 25.1164 79.3772 25.2944 79.7992 25.5424 80.9332 26.2084 81.4292 27.2664 81.2732 28.5744 81.0912 30.0744 80.2892 31.0984 78.8992 31.6124 76.7832 32.3964 74.6612 32.3244 72.6132 31.3784 71.3132 30.7784 70.6312 29.6964 70.5352 28.2564 70.5252 28.0904 70.5632 28.0524 70.7212 28.0564 71.1832 28.0664 71.6452 28.0604 72.1072 28.0604M.0056 11.871C.6876 12.229 1.3316 12.567 1.9716 12.905 7.5396 15.837 13.1036 18.771 18.6716 21.701 18.8356 21.787 18.9056 21.883 18.9036 22.075 18.8916 23.025 18.8976 23.977 18.8976 24.925 18.8976 25.219 18.8956 25.219 18.6296 25.079 14.6036 22.963 10.5776 20.845 6.5496 18.733 4.4376 17.623 2.3256 16.517.2136 15.409.1136 15.355.0016 15.323.0036 15.159.0096 14.079.0056 13.001.0056 11.871M.026 18.6132C.45 18.8332.85 19.0412 1.248 19.2472 5.474 21.4592 9.7 23.6692 13.926 25.8792 15.494 26.6992 17.06 27.5212 18.632 28.3332 18.814 28.4272 18.886 28.5352 18.882 28.7452 18.87 29.6592 18.872 30.5752 18.88 31.4912 18.882 31.6892 18.862 31.7572 18.65 31.6492 15.16 29.8372 11.67 28.0312 8.178 26.2272 5.522 24.8512 2.864 23.4772.206 22.1052.056 22.0292-2.73218947e-17 21.9452.002 21.7732.014 20.7812.012 19.7892.014 18.7952.014 18.7452.02 18.6992.026 18.6132M28.6736 27.0468C28.6736 28.5448 28.6676 30.0428 28.6796 31.5408 28.6816 31.7748 28.6116 31.8208 28.3936 31.8168 27.5396 31.8028 26.6816 31.8028 25.8276 31.8168 25.6036 31.8208 25.5636 31.7488 25.5656 31.5428 25.5716 28.5648 25.5656 25.5868 25.5756 22.6068 25.5776 22.3568 25.5136 22.2868 25.2676 22.3008 24.8656 22.3228 24.4636 22.3008 24.0596 22.3108 23.9136 22.3128 23.8696 22.2668 23.8716 22.1208 23.8796 21.5128 23.8796 20.9068 23.8716 20.2988 23.8696 20.1468 23.9056 20.0888 24.0696 20.0928 24.3936 20.1068 24.7196 20.0968 25.0456 20.0968 25.5696 20.0968 25.5716 20.0968 25.5696 19.5848 25.5656 19.0948 25.5656 18.6068 25.6656 18.1268 25.9316 16.8488 26.7416 16.0848 28.0496 15.8868 28.8396 15.7668 29.6376 15.8368 30.4316 15.8388 30.5556 15.8408 30.5916 15.8968 30.5916 16.0128 30.5896 16.7408 30.5876 17.4688 30.5936 18.1948 30.5956 18.3508 30.5136 18.3488 30.4016 18.3528 30.0276 18.3608 29.6496 18.3208 29.2756 18.3908 28.8996 18.4628 28.7196 18.6248 28.6916 18.9948 28.6656 19.3188 28.6816 19.6448 28.6716 19.9708 28.6676 20.1268 28.7736 20.0948 28.8616 20.0968 29.3916 20.0968 29.9236 20.1048 30.4536 20.0908 30.6316 20.0888 30.6676 20.1508 30.6656 20.3108 30.6576 20.9108 30.6576 21.5088 30.6656 22.1088 30.6696 22.2648 30.6236 22.3148 30.4636 22.3108 29.9516 22.3008 29.4356 22.3168 28.9236 22.3028 28.7256 22.2968 28.6676 22.3468 28.6696 22.5528 28.6776 24.0508 28.6736 25.5488 28.6736 27.0468M.3592 11.5566C6.5392 7.6966 12.6792 3.8606 18.8612.0006 18.8612.3986 18.8632.7446 18.8612 1.0926 18.8572 1.8366 18.8452 2.5806 18.8512 3.3246 18.8532 3.5126 18.7872 3.6126 18.6312 3.7106 14.0672 6.5586 9.5072 9.4106 4.9452 12.2626 4.5312 12.5186 4.1192 12.7786 3.7052 13.0386 3.6212 13.0926 3.5452 13.1506 3.4272 13.0906 2.4192 12.5826 1.4092 12.0826.3592 11.5566M.0144 22.4686C.7824 22.8766 1.5144 23.2626 2.2444 23.6546 2.5084 23.7946 2.8684 23.8786 3.0024 24.0986 3.1344 24.3226 3.0444 24.6806 3.0444 24.9786 3.0464 29.8326 3.0444 34.6846 3.0504 39.5366 3.0524 39.7666 2.9984 39.8366 2.7604 39.8326 1.9384 39.8166 1.1184 39.8166.2964 39.8306.0684 39.8346.0004 39.7806.0004 39.5406.0124 35.9286.0124 32.3186.0144 28.7066.0144 26.7026.0144 24.7006.0144 22.6986L.0144 22.4686zM47.4098 22.035C47.5878 21.747 47.7598 21.453 47.9498 21.171 48.6798 20.095 49.7118 19.687 50.9858 19.811 51.1398 19.827 51.1978 19.875 51.1958 20.043 51.1878 20.951 51.1878 21.857 51.1958 22.765 51.1978 22.943 51.1478 22.963 50.9758 22.947 50.3858 22.897 49.7958 22.901 49.2198 23.063 48.2378 23.337 47.6578 24.019 47.5318 25.033 47.4958 25.305 47.4838 25.577 47.4838 25.851 47.4858 27.751 47.4798 29.653 47.4898 31.553 47.4918 31.769 47.4318 31.821 47.2218 31.817 46.3498 31.803 45.4758 31.807 44.6018 31.815 44.4338 31.817 44.3898 31.767 44.3898 31.601 44.3938 27.833 44.3938 24.069 44.3898 20.301 44.3878 20.121 44.4518 20.093 44.6098 20.093 45.4578 20.101 46.3058 20.103 47.1518 20.093 47.3318 20.089 47.3638 20.155 47.3618 20.313 47.3538 20.885 47.3598 21.457 47.3598 22.027 47.3758 22.029 47.3918 22.033 47.4098 22.035M5.7262 25.5312C6.3922 25.8772 7.0362 26.2112 7.6802 26.5452 7.9982 26.7112 8.3122 26.8852 8.6382 27.0392 8.7982 27.1152 8.8462 27.2172 8.8462 27.3932 8.8402 30.4412 8.8422 33.4892 8.8422 36.5372 8.8422 37.5472 8.8382 38.5572 8.8462 39.5692 8.8482 39.7532 8.8222 39.8352 8.6002 39.8312 7.7102 39.8172 6.8202 39.8212 5.9302 39.8292 5.7462 39.8312 5.7042 39.7772 5.7042 39.5992 5.7122 34.9692 5.7142 30.3372 5.7182 25.7052 5.7182 25.6572 5.7222 25.6092 5.7262 25.5312M6.4382 14.7088C10.5942 12.0808 14.7222 9.4668 18.8462 6.8568 18.9242 6.9208 18.8982 6.9968 18.8982 7.0608 18.8982 8.0608 18.8962 9.0628 18.9002 10.0628 18.9022 10.2248 18.8542 10.3208 18.7102 10.4128 15.7002 12.3068 12.6942 14.2068 9.6922 16.1128 9.4942 16.2388 9.3482 16.2488 9.1402 16.1348 8.3062 15.6828 7.4602 15.2508 6.6202 14.8128 6.5702 14.7848 6.5222 14.7548 6.4382 14.7088M56.1442 25.9804C56.1442 27.8304 56.1382 29.6804 56.1502 31.5264 56.1522 31.7724 56.0762 31.8204 55.8502 31.8164 54.9942 31.8024 54.1382 31.8064 53.2822 31.8144 53.1082 31.8164 53.0502 31.7744 53.0502 31.5924 53.0562 27.8324 53.0562 24.0744 53.0502 20.3164 53.0502 20.1304 53.1102 20.0924 53.2842 20.0944 54.1482 20.1024 55.0122 20.1044 55.8782 20.0924 56.0862 20.0904 56.1502 20.1364 56.1482 20.3544 56.1402 22.2304 56.1442 24.1064 56.1442 25.9804M46.1394 38.8378C46.1394 37.5938 46.1454 36.4298 46.1354 35.2658 46.1334 35.0538 46.1874 34.9658 46.4014 35.0018 46.4614 35.0118 46.5214 35.0098 46.5814 35.0018 46.7634 34.9778 46.8134 35.0518 46.8114 35.2318 46.8054 36.7038 46.8054 38.1758 46.8134 39.6458 46.8134 39.8338 46.7414 39.8538 46.5774 39.8778 46.1754 39.9318 45.9554 39.7718 45.7474 39.4278 45.1154 38.3738 44.4414 37.3458 43.7834 36.3058 43.7434 36.2458 43.7214 36.1678 43.6134 36.1158 43.6094 36.2158 43.6014 36.3038 43.6014 36.3898 43.5994 37.4518 43.5914 38.5118 43.6074 39.5718 43.6114 39.8318 43.5314 39.9098 43.2934 39.8718 43.2434 39.8618 43.1894 39.8638 43.1394 39.8718 42.9774 39.8918 42.9394 39.8198 42.9394 39.6678 42.9454 38.1798 42.9434 36.6918 42.9374 35.2018 42.9374 35.0438 42.9874 35.0018 43.1414 34.9998 43.7314 34.9918 43.7314 34.9858 44.0434 35.4858 44.6934 36.5298 45.3434 37.5738 45.9934 38.6178 46.0274 38.6718 46.0634 38.7238 46.1394 38.8378M36.8806 39.2812C36.8386 39.3172 36.8026 39.3372 36.7786 39.3692 36.1526 40.1652 34.5666 40.1932 33.7946 39.4892 33.3326 39.0692 33.1266 38.5272 33.0686 37.9252 32.9806 36.9972 33.1206 36.1352 33.8326 35.4492 34.5726 34.7332 36.0526 34.6812 36.8306 35.3572 37.1306 35.6172 37.2966 35.9592 37.3806 36.3452 37.4066 36.4612 37.3826 36.5052 37.2626 36.4952 37.2206 36.4912 37.1766 36.4892 37.1346 36.4952 36.8606 36.5412 36.6786 36.4792 36.6006 36.1652 36.5386 35.9292 36.3426 35.7672 36.1146 35.6652 35.1366 35.2312 33.9466 35.6052 33.7806 37.0392 33.7226 37.5352 33.7426 38.0292 33.9346 38.5032 34.2226 39.2152 34.8566 39.5132 35.7306 39.3532 36.3766 39.2372 36.8286 38.6692 36.8426 37.9772 36.8446 37.8432 36.7966 37.8232 36.6806 37.8232 36.3046 37.8272 35.9266 37.8172 35.5506 37.8272 35.3826 37.8332 35.3146 37.7852 35.3366 37.6152 35.3466 37.5412 35.3426 37.4632 35.3386 37.3852 35.3326 37.2932 35.3546 37.2432 35.4646 37.2452 36.0966 37.2492 36.7306 37.2492 37.3626 37.2452 37.4706 37.2432 37.4886 37.2932 37.4886 37.3852 37.4866 38.1632 37.4866 38.9432 37.4886 39.7212 37.4886 39.8092 37.4726 39.8852 37.3646 39.8672 37.2386 39.8452 37.0586 39.9592 37.0006 39.7392 36.9606 39.5932 36.9226 39.4472 36.8806 39.2812M56.944 38.8164L56.944 38.2224C56.944 37.2284 56.948 36.2364 56.94 35.2424 56.938 35.0464 56.998 34.9944 57.188 34.9984 57.612 35.0084 57.614 34.9984 57.614 35.4124 57.614 36.8064 57.61 38.2004 57.618 39.5984 57.618 39.7964 57.582 39.8584 57.36 39.8804 56.976 39.9164 56.77 39.7724 56.574 39.4444 55.94 38.3904 55.268 37.3604 54.61 36.3224 54.562 36.2464 54.51 36.1744 54.424 36.0464L54.424 38.2324C54.424 38.7024 54.414 39.1744 54.428 39.6444 54.432 39.8284 54.37 39.8744 54.194 39.8724 53.748 39.8664 53.748 39.8744 53.748 39.4264 53.748 38.0384 53.754 36.6524 53.742 35.2664 53.74 35.0444 53.816 35.0164 54.016 34.9944 54.416 34.9504 54.64 35.1024 54.844 35.4444 55.46 36.4904 56.116 37.5104 56.758 38.5384 56.804 38.6144 56.858 38.6884 56.944 38.8164M30.1258 35.6152C29.8618 35.6152 29.5958 35.6212 29.3318 35.6132 29.2098 35.6112 29.1458 35.6252 29.1498 35.7752 29.1598 36.2012 29.1538 36.6312 29.1518 37.0572 29.1498 37.1572 29.1598 37.2172 29.2858 37.2152 29.8238 37.2052 30.3638 37.2212 30.9018 37.1912 31.3998 37.1632 31.6318 36.8672 31.6138 36.3472 31.5978 35.8752 31.3378 35.6252 30.8438 35.6172 30.6058 35.6132 30.3658 35.6152 30.1258 35.6152M31.6978 37.4872C32.1058 37.6592 32.2138 37.9952 32.2298 38.3852 32.2418 38.6752 32.2538 38.9652 32.2698 39.2552 32.2798 39.4192 32.3178 39.5732 32.4498 39.6932 32.5458 39.7812 32.5298 39.8592 32.3818 39.8692 32.3638 39.8712 32.3478 39.8692 32.3298 39.8692 31.4758 39.8552 31.6618 39.9972 31.5698 39.1832 31.5418 38.9552 31.5598 38.7232 31.5418 38.4912 31.5058 38.0492 31.3318 37.8632 30.8918 37.8172 30.3558 37.7572 29.8158 37.8072 29.2778 37.7912 29.1158 37.7852 29.1538 37.8972 29.1538 37.9832 29.1518 38.5292 29.1458 39.0772 29.1578 39.6252 29.1598 39.8092 29.1258 39.8812 28.9218 39.8752 28.4678 39.8612 28.4658 39.8752 28.4658 39.4132 28.4658 38.0272 28.4718 36.6392 28.4618 35.2512 28.4598 35.0472 28.5158 34.9912 28.7178 34.9992 29.5118 35.0272 30.3098 34.9572 31.1038 35.0372 31.7418 35.1012 32.1458 35.4152 32.2758 35.9072 32.4378 36.5252 32.2658 37.0272 31.7538 37.4252 31.7418 37.4352 31.7318 37.4492 31.6978 37.4872M54.5934 18.7186C54.1494 18.7186 53.7054 18.7146 53.2594 18.7226 53.1134 18.7246 53.0494 18.6946 53.0514 18.5266 53.0594 17.7066 53.0594 16.8866 53.0514 16.0666 53.0494 15.8926 53.1094 15.8506 53.2734 15.8526 54.1614 15.8586 55.0514 15.8586 55.9394 15.8526 56.0914 15.8506 56.1494 15.8926 56.1474 16.0526 56.1394 16.8826 56.1394 17.7106 56.1474 18.5406 56.1474 18.6946 56.0874 18.7246 55.9514 18.7226 55.4994 18.7166 55.0474 18.7206 54.5934 18.7206L54.5934 18.7186zM38.5242 37.4296C38.5242 36.7116 38.5302 35.9916 38.5202 35.2736 38.5162 35.0696 38.5582 34.9956 38.7802 34.9976 39.7902 35.0096 40.8002 35.0096 41.8102 34.9976 42.0122 34.9956 42.0942 35.0536 42.0622 35.2556 42.0522 35.3056 42.0542 35.3596 42.0622 35.4076 42.0882 35.5836 42.0262 35.6396 41.8422 35.6376 41.0462 35.6276 40.2502 35.6396 39.4542 35.6296 39.2482 35.6256 39.1922 35.6896 39.2022 35.8876 39.2162 36.2116 39.2142 36.5376 39.2022 36.8616 39.1962 37.0216 39.2462 37.0616 39.4042 37.0616 40.1402 37.0556 40.8762 37.0716 41.6102 37.0516 41.8942 37.0436 41.8542 37.1976 41.8562 37.3696 41.8582 37.5416 41.8782 37.6736 41.6162 37.6676 40.8902 37.6456 40.1622 37.6656 39.4362 37.6556 39.2662 37.6536 39.1942 37.6856 39.2002 37.8776 39.2162 38.2696 39.2142 38.6636 39.2022 39.0556 39.1962 39.2196 39.2462 39.2556 39.4022 39.2556 40.2242 39.2456 41.0462 39.2596 41.8662 39.2456 42.0762 39.2416 42.1222 39.3096 42.1162 39.5016 42.1042 39.8696 42.1142 39.8696 41.7462 39.8696L40.0762 39.8696C39.6762 39.8696 39.2742 39.8716 38.8702 39.8696 38.4742 39.8656 38.5262 39.9176 38.5242 39.5356 38.5222 38.8336 38.5242 38.1336 38.5242 37.4296M64.9002 40C64.2462 40.002 63.7182 39.882 63.3022 39.448 63.0362 39.166 62.9262 38.826 62.8922 38.45 62.8802 38.318 62.9222 38.256 63.0622 38.274 63.1042 38.28 63.1482 38.28 63.1902 38.274 63.4282 38.242 63.5602 38.286 63.5982 38.582 63.6502 39 63.9482 39.256 64.3582 39.354 64.7922 39.458 65.2222 39.442 65.6382 39.26 65.9422 39.126 66.0982 38.9 66.0922 38.556 66.0862 38.224 65.9062 38.042 65.6182 37.934 65.1782 37.766 64.7082 37.708 64.2582 37.58 64.1662 37.554 64.0742 37.538 63.9862 37.508 63.3582 37.304 63.0962 37.01 63.0522 36.462 63.0082 35.886 63.3162 35.31 63.8442 35.082 64.6082 34.754 65.3642 34.804 66.0742 35.242 66.4742 35.488 66.6022 35.894 66.6342 36.34 66.6362 36.366 66.6362 36.404 66.6222 36.412 66.4562 36.502 66.2742 36.436 66.1002 36.456 65.9962 36.468 65.9782 36.408 65.9622 36.32 65.8122 35.576 65.2802 35.496 64.7142 35.488 64.5302 35.486 64.3402 35.512 64.1642 35.592 63.8742 35.724 63.7042 36.006 63.7222 36.334 63.7382 36.642 63.9442 36.776 64.2042 36.86 64.6582 37.004 65.1302 37.092 65.5942 37.202 66.3242 37.374 66.7122 37.742 66.7582 38.314 66.8322 39.2 66.4262 39.722 65.5082 39.93 65.2802 39.98 65.0522 39.998 64.9002 40M71.2428 40C70.8388 40 70.5208 39.962 70.2148 39.836 69.6308 39.598 69.2568 39.06 69.2448 38.45 69.2428 38.32 69.2688 38.254 69.4108 38.274 69.4608 38.282 69.5148 38.282 69.5648 38.274 69.7908 38.236 69.9068 38.302 69.9408 38.56 69.9988 39.012 70.3028 39.258 70.7328 39.358 71.1688 39.458 71.5988 39.438 72.0088 39.248 72.2988 39.114 72.4508 38.884 72.4448 38.554 72.4348 38.24 72.2668 38.05 71.9868 37.942 71.6048 37.792 71.1968 37.73 70.8008 37.628 70.6688 37.594 70.5368 37.564 70.4068 37.526 69.6848 37.312 69.4028 36.99 69.4008 36.384 69.3968 35.708 69.7808 35.176 70.4248 34.986 71.0568 34.802 71.6768 34.846 72.2668 35.146 72.7068 35.374 72.9208 35.752 72.9708 36.236 72.9868 36.388 72.9668 36.488 72.7788 36.458 72.7288 36.448 72.6748 36.45 72.6248 36.456 72.4208 36.482 72.3168 36.438 72.2668 36.196 72.1668 35.704 71.6648 35.428 71.0568 35.484 70.8708 35.502 70.6828 35.512 70.5068 35.594 70.2288 35.722 70.0388 36.018 70.0588 36.31 70.0788 36.622 70.2708 36.784 70.5508 36.858 71.0628 36.99 71.5768 37.108 72.0868 37.246 72.7588 37.43 73.0808 37.802 73.1208 38.416 73.1628 39.074 72.8748 39.526 72.2408 39.798 71.8968 39.948 71.5368 40.002 71.2428 40M25.6676 35.8046C25.4216 36.4766 25.1896 37.1126 24.9556 37.7486 24.9236 37.8346 24.9596 37.8526 25.0376 37.8526 25.4736 37.8506 25.9116 37.8506 26.3716 37.8506 26.1316 37.1566 25.9076 36.5026 25.6676 35.8046M25.6996 35.0166C25.9996 34.9266 26.1176 35.0806 26.2096 35.3446 26.7156 36.7706 27.2356 38.1946 27.7596 39.6166 27.8356 39.8226 27.8056 39.8786 27.5816 39.8746 27.0896 39.8606 27.0876 39.8726 26.9316 39.4226 26.8336 39.1406 26.7336 38.8566 26.6476 38.5726 26.6076 38.4426 26.5396 38.4046 26.4076 38.4066 25.9036 38.4126 25.3996 38.4126 24.8936 38.4046 24.7576 38.4026 24.7016 38.4546 24.6596 38.5806 24.5416 38.9266 24.3976 39.2626 24.2876 39.6106 24.2276 39.8006 24.1496 39.8846 23.9336 39.8746 23.4816 39.8566 23.4796 39.8706 23.6416 39.4406 24.1516 38.0866 24.6716 36.7346 25.1676 35.3746 25.2696 35.0946 25.3756 34.9146 25.6996 35.0166M59.612 37.8534C60.062 37.8534 60.474 37.8514 60.884 37.8534 60.992 37.8534 61.07 37.8554 61.016 37.7034 60.798 37.0854 60.588 36.4654 60.362 35.8034 60.104 36.5034 59.864 37.1614 59.612 37.8534M60.328 38.4074C60.096 38.4074 59.864 38.4174 59.636 38.4034 59.476 38.3954 59.392 38.4414 59.342 38.6054 59.238 38.9394 59.098 39.2594 58.996 39.5934 58.93 39.8054 58.832 39.8894 58.6 39.8754 58.176 39.8534 58.174 39.8694 58.32 39.4774 58.854 38.0614 59.39 36.6434 59.916 35.2234 59.982 35.0494 60.07 34.9934 60.252 34.9974 60.774 35.0074 60.772 35.0014 60.952 35.4954 61.444 36.8574 61.94 38.2174 62.434 39.5754 62.54 39.8694 62.538 39.8694 62.24 39.8694 61.776 39.8694 61.776 39.8694 61.63 39.4394 61.536 39.1554 61.436 38.8754 61.35 38.5894 61.31 38.4554 61.244 38.3974 61.098 38.4034 60.84 38.4154 60.584 38.4074 60.328 38.4074M76.782 37.8514L77.666 37.8514C78.23 37.8514 78.23 37.8514 78.048 37.3134 77.884 36.8254 77.714 36.3374 77.53 35.8014 77.272 36.5094 77.034 37.1614 76.782 37.8514M77.554 35.0174C77.866 34.9234 77.978 35.0794 78.076 35.3594 78.574 36.7814 79.092 38.1954 79.616 39.6074 79.696 39.8254 79.67 39.8814 79.432 39.8734 78.95 39.8594 78.952 39.8714 78.796 39.4094 78.702 39.1374 78.598 38.8654 78.516 38.5874 78.476 38.4454 78.406 38.4014 78.264 38.4034 77.768 38.4114 77.272 38.4134 76.776 38.4034 76.628 38.4014 76.562 38.4534 76.518 38.5874 76.398 38.9434 76.256 39.2914 76.144 39.6474 76.088 39.8274 75.994 39.8794 75.812 39.8734 75.346 39.8634 75.348 39.8734 75.514 39.4274 76.024 38.0714 76.538 36.7214 77.034 35.3614 77.132 35.0934 77.24 34.9134 77.554 35.0174M49.7018 37.748C49.7018 38.372 49.6958 38.998 49.7058 39.622 49.7078 39.802 49.6818 39.88 49.4738 39.874 49.0038 39.864 49.0038 39.874 49.0038 39.402 49.0038 38.22 48.9978 37.04 49.0078 35.858 49.0098 35.664 48.9598 35.61 48.7678 35.618 48.3738 35.632 47.9798 35.614 47.5858 35.624 47.4158 35.63 47.3518 35.578 47.3758 35.41 47.3858 35.352 47.3838 35.29 47.3758 35.232 47.3518 35.052 47.4218 34.998 47.6038 35 48.7678 35.008 49.9318 35.008 51.0958 34.998 51.2998 34.996 51.3378 35.07 51.3338 35.252 51.3238 35.622 51.3318 35.622 50.9678 35.622 50.6518 35.622 50.3338 35.636 50.0178 35.618 49.7738 35.6 49.6818 35.65 49.6938 35.926 49.7198 36.532 49.7018 37.14 49.7018 37.748M52.7332 37.4374C52.7332 38.1714 52.7292 38.9054 52.7372 39.6414 52.7392 39.8134 52.6992 39.8774 52.5132 39.8734 52.0352 39.8674 52.0352 39.8774 52.0352 39.4074 52.0352 38.0334 52.0412 36.6574 52.0292 35.2834 52.0292 35.0614 52.0792 34.9854 52.3112 34.9974 52.7332 35.0154 52.7332 35.0014 52.7332 35.4114L52.7332 37.4374zM74.6824 39.4902C74.6824 39.8682 74.6824 39.8522 74.2844 39.8742 74.0184 39.8922 73.9524 39.8102 73.9664 39.5542 73.9884 39.1042 73.9724 39.1022 74.3724 39.1022 74.6824 39.1022 74.6824 39.1022 74.6824 39.4902M81.0348 39.4842C81.0288 39.9282 81.1008 39.8642 80.6328 39.8682 80.2588 39.8702 80.3108 39.9042 80.3088 39.5102 80.3068 39.1042 80.3088 39.1022 80.6328 39.1042 81.0348 39.1042 81.0348 39.1042 81.0348 39.4842"/>
  </g>
</svg>
