<svg xmlns="http://www.w3.org/2000/svg" width="182" height="48" viewBox="0 0 182 48">
  <g fill="#424242" fill-rule="evenodd" transform="translate(0 8)">
    <path d="M38.0576368 19.70736C39.2981105 19.70736 40.0548474 19.21616 40.0548474 18.28496L40.0548474 18.25136C40.0548474 17.37936 39.3603737 16.86256 37.9219351 16.86256L35.0370754 16.86256 35.0370754 19.70736 38.0576368 19.70736zM37.5260053 15.31856C38.6914439 15.31856 39.478514 14.85616 39.478514 13.90736L39.478514 13.87696C39.478514 13.06576 38.8255491 12.55696 37.658514 12.55696L35.0370754 12.55696 35.0370754 15.31856 37.5260053 15.31856zM33.2442158 10.94096L37.8931982 10.94096C39.0777947 10.94096 40.0101456 11.27056 40.6008474 11.85936 41.0622333 12.32336 41.2969175 12.88336 41.2969175 13.58416L41.2969175 13.61296C41.2969175 14.85616 40.5864789 15.52336 39.8169702 15.92496 41.0319 16.34096 41.8764439 17.03696 41.8764439 18.44496L41.8764439 18.47376C41.8764439 20.32816 40.3517947 21.32496 38.0416719 21.32496L33.2442158 21.32496 33.2442158 10.94096zM43.3445772 18.47456L43.3445772 13.49376 45.1326474 13.49376 45.1326474 17.94336C45.1326474 19.15776 45.7409105 19.85536 46.8073667 19.85536 47.8434895 19.85536 48.569893 19.12896 48.569893 17.91136L48.569893 13.49376 50.3595596 13.49376 50.3595596 21.32256 48.569893 21.32256 48.569893 20.10816C48.0622088 20.85056 47.3405947 21.48576 46.1272614 21.48576 44.3663316 21.48576 43.3445772 20.30336 43.3445772 18.47456M57.6738842 16.86048C57.5557439 15.70048 56.8724456 14.79808 55.6894456 14.79808 54.5942526 14.79808 53.8263404 15.64288 53.6634982 16.86048L57.6738842 16.86048zM51.8866035 17.43808L51.8866035 17.40928C51.8866035 15.16448 53.4703228 13.32768 55.707007 13.32768 58.1911474 13.32768 59.447586 15.28768 59.447586 17.54208 59.447586 17.70368 59.4364105 17.86688 59.4188491 18.04448L53.6794632 18.04448C53.8694456 19.31968 54.7714632 20.03168 55.9257263 20.03168 56.8006035 20.03168 57.4216386 19.70528 58.0442702 19.09728L59.0931649 20.03168C58.352393 20.92288 57.3338316 21.50208 55.898586 21.50208 53.6315684 21.50208 51.8866035 19.85568 51.8866035 17.43808L51.8866035 17.43808zM60.9628158 13.49024L62.7524825 13.49024 62.7524825 14.70784C63.2585702 13.96864 63.9833772 13.32864 65.195114 13.32864 66.9544474 13.32864 67.9762018 14.51744 67.9762018 16.34144L67.9762018 21.32384 66.1881316 21.32384 66.1881316 16.87104C66.1881316 15.65664 65.5766754 14.96224 64.5134123 14.96224 63.4804825 14.96224 62.7524825 15.68864 62.7524825 16.90624L62.7524825 21.32384 60.9628158 21.32384M75.9580193 17.45424L75.9580193 17.42224C75.9580193 16.04464 74.9650018 14.90224 73.5632825 14.90224 72.1232474 14.90224 71.2068614 16.02864 71.2068614 17.39504L71.2068614 17.42224C71.2068614 18.78864 72.1998789 19.94544 73.5888263 19.94544 75.0400368 19.94544 75.9580193 18.80464 75.9580193 17.45424M69.4171947 17.45424L69.4171947 17.42224C69.4171947 15.18704 71.1908965 13.32944 73.5888263 13.32944 75.9851596 13.32944 77.7492825 15.15504 77.7492825 17.39504L77.7492825 17.42224C77.7492825 19.64624 75.9739842 21.50384 73.5632825 21.50384 71.1765281 21.50384 69.4171947 19.67824 69.4171947 17.45424M78.6426789 20.30272L79.4409246 19.08352C80.2854684 19.72192 81.2018544 20.04992 82.0016965 20.04992 82.7696088 20.04992 83.2166263 19.72192 83.2166263 19.20192L83.2166263 19.17152C83.2166263 18.56512 82.3848544 18.35712 81.4684684 18.07232 80.3142053 17.74752 79.0258368 17.27712 79.0258368 15.77792L79.0258368 15.74752C79.0258368 14.26432 80.2551351 13.35872 81.8085211 13.35872 82.7855737 13.35872 83.8504333 13.69792 84.6790123 14.24992L83.9685737 15.52672C83.2166263 15.06752 82.4167842 14.78432 81.7654158 14.78432 81.0677491 14.78432 80.6702228 15.10912 80.6702228 15.57152L80.6702228 15.59872C80.6702228 16.16032 81.5131702 16.40032 82.4311526 16.69792 83.5694509 17.04992 84.8530298 17.57312 84.8530298 18.98112L84.8530298 19.00832C84.8530298 20.65312 83.5838193 21.46912 81.9585912 21.46912 80.8458368 21.46912 79.6181351 21.06912 78.6426789 20.30272M97.0117474 17.20112L95.2236772 13.04592 93.4467825 17.20112 97.0117474 17.20112zM94.4062737 10.86832L96.0937649 10.86832 100.653344 21.32272 98.7295719 21.32272 97.6790807 18.81712 92.7810456 18.81712 91.7145895 21.32272 89.8482912 21.32272 94.4062737 10.86832zM102.033351 21.3248L103.826211 21.3248 103.826211 13.4928 102.033351 13.4928 102.033351 21.3248zM101.961509 12.2928L103.885281 12.2928 103.885281 10.5856 101.961509 10.5856 101.961509 12.2928zM105.867325 13.49024L107.661781 13.49024 107.661781 15.25664C108.148711 14.08544 109.052325 13.28704 110.423711 13.33984L110.423711 15.24544 110.324728 15.24544C108.75857 15.24544 107.661781 16.26624 107.661781 18.34304L107.661781 21.32384 105.867325 21.32384M116.777586 16.86048C116.659446 15.70048 115.97934 14.79808 114.79634 14.79808 113.699551 14.79808 112.930042 15.64288 112.768796 16.86048L116.777586 16.86048zM110.991902 17.43808L110.991902 17.40928C110.991902 15.16448 112.574025 13.32768 114.810709 13.32768 117.296446 13.32768 118.552884 15.28768 118.552884 17.54208 118.552884 17.70368 118.536919 17.86688 118.525744 18.04448L112.783165 18.04448C112.973147 19.31968 113.878358 20.03168 115.031025 20.03168 115.905902 20.03168 116.528533 19.70528 117.146375 19.09728L118.20006 20.03168C117.459288 20.92288 116.437533 21.50208 115.003884 21.50208 112.738463 21.50208 110.991902 19.85568 110.991902 17.43808L110.991902 17.43808zM119.432711 20.30272L120.22936 19.08352C121.073904 19.72192 121.991886 20.04992 122.791728 20.04992 123.558044 20.04992 124.001868 19.72192 124.001868 19.20192L124.001868 19.17152C124.001868 18.56512 123.176482 18.35712 122.260096 18.07232 121.104237 17.74752 119.817465 17.27712 119.817465 15.77792L119.817465 15.74752C119.817465 14.26432 121.04357 13.35872 122.598553 13.35872 123.575605 13.35872 124.640465 13.69792 125.467447 14.24992L124.757009 15.52672C124.001868 15.06752 123.205219 14.78432 122.553851 14.78432 121.859377 14.78432 121.458658 15.10912 121.458658 15.57152L121.458658 15.59872C121.458658 16.16032 122.304798 16.40032 123.221184 16.69792 124.361079 17.04992 125.647851 17.57312 125.647851 18.98112L125.647851 19.00832C125.647851 20.65312 124.373851 21.46912 122.743833 21.46912 121.637465 21.46912 120.40657 21.06912 119.432711 20.30272M131.068098 16.16048L131.068098 16.13488C131.068098 13.17968 133.272853 10.76368 136.413151 10.76368 138.319361 10.76368 139.473625 11.43088 140.465046 12.37808L139.294818 13.72848C138.467835 12.95888 137.580186 12.43728 136.393993 12.43728 134.412747 12.43728 132.977502 14.07088 132.977502 16.10288L132.977502 16.13488C132.977502 18.16368 134.412747 19.82448 136.393993 19.82448 137.669589 19.82448 138.482204 19.30928 139.368256 18.47408L140.540081 19.66128C139.459256 20.78928 138.27466 21.50288 136.334923 21.50288 133.317554 21.50288 131.068098 19.14448 131.068098 16.16048M142.052596 21.3248L143.84386 21.3248 143.84386 13.4928 142.052596 13.4928 142.052596 21.3248zM141.979158 12.2928L143.904526 12.2928 143.904526 10.5856 141.979158 10.5856 141.979158 12.2928zM145.799721 18.47456L145.799721 13.49376 147.587791 13.49376 147.587791 17.94336C147.587791 19.15776 148.194458 19.85536 149.264107 19.85536 150.297037 19.85536 151.021844 19.12896 151.021844 17.91136L151.021844 13.49376 152.814704 13.49376 152.814704 21.32256 151.021844 21.32256 151.021844 20.10816C150.520546 20.85056 149.798932 21.48576 148.580809 21.48576 146.823072 21.48576 145.799721 20.30336 145.799721 18.47456M160.690514 17.42304L160.690514 17.39424C160.690514 15.88224 159.625654 14.88864 158.423496 14.88864 157.197391 14.88864 156.175637 15.83744 156.175637 17.39424L156.175637 17.42304C156.175637 18.93824 157.216549 19.93024 158.423496 19.93024 159.625654 19.93024 160.690514 18.92224 160.690514 17.42304M154.373198 17.42304L154.373198 17.39424C154.373198 14.79904 156.132532 13.32864 157.997233 13.32864 159.287198 13.32864 160.095023 13.98464 160.658584 14.71104L160.658584 10.49824 162.451444 10.49824 162.451444 21.32384 160.658584 21.32384 160.658584 20.01824C160.083847 20.83424 159.266444 21.48544 157.997233 21.48544 156.161268 21.48544 154.373198 20.01824 154.373198 17.42304M169.218651 18.0464C168.760458 17.8672 168.121861 17.736 167.428984 17.736 166.303458 17.736 165.639318 18.1952 165.639318 18.9504L165.639318 18.9808C165.639318 19.7232 166.303458 20.1376 167.144809 20.1376 168.327809 20.1376 169.218651 19.472 169.218651 18.4896L169.218651 18.0464zM169.177142 21.3248L169.177142 20.36C168.643914 20.9984 167.828107 21.4848 166.643511 21.4848 165.161967 21.4848 163.864019 20.6432 163.864019 19.072L163.864019 19.0432C163.864019 17.304 165.208265 16.4768 167.028265 16.4768 167.974984 16.4768 168.581651 16.6064 169.189914 16.8016L169.189914 16.6528C169.189914 15.5712 168.508212 14.9792 167.264546 14.9792 166.392861 14.9792 165.741493 15.168 165.032651 15.4672L164.540932 14.0288C165.399844 13.6432 166.244388 13.376 167.516791 13.376 169.825318 13.376 170.949247 14.5904 170.949247 16.68L170.949247 21.3248 169.177142 21.3248zM178.711867 17.42304L178.711867 17.39424C178.711867 15.88224 177.642218 14.88864 176.444849 14.88864 175.217147 14.88864 174.196989 15.83744 174.196989 17.39424L174.196989 17.42304C174.196989 18.93824 175.228323 19.93024 176.444849 19.93024 177.642218 19.93024 178.711867 18.92224 178.711867 17.42304M172.391358 17.42304L172.391358 17.39424C172.391358 14.79904 174.153884 13.32864 176.016989 13.32864 177.302165 13.32864 178.117972 13.98464 178.67834 14.71104L178.67834 10.49824 180.472796 10.49824 180.472796 21.32384 178.67834 21.32384 178.67834 20.01824C178.102007 20.83424 177.2862 21.48544 176.016989 21.48544 174.179428 21.48544 172.391358 20.01824 172.391358 17.42304"/>
    <polyline points="13.142 5.173 12.987 5.32 13.142 5.477 13.289 5.32"/>
    <path d="M19.6341281,8.3184 C19.2318123,8.5504 18.8662158,8.6592 18.5213737,8.6592 L18.4878474,8.6592 C18.2643386,8.6576 18.0376368,8.624 17.8189175,8.5952 C17.6289351,8.5696 17.4325667,8.5456 17.2409877,8.536 C16.7652333,8.512 16.3916544,8.5904 16.0994965,8.7648 C15.8919526,8.888 15.7482684,9.0672 15.6093737,9.2384 C15.5103912,9.3632 15.4050228,9.4896 15.2804965,9.5952 L15.1463912,9.6592 L15.1431982,9.6592 L15.0857246,9.544 L15.0857246,9.4896 C15.0793386,9.3104 15.0537947,9.1328 15.0298474,8.96 L15.0154789,8.8624 C14.9739702,8.5616 14.9276719,8.2416 14.8558298,7.9296 L14.7983561,7.7424 C14.7137421,7.4672 14.6067772,7.12 14.817514,6.9456 C14.9484263,6.8416 15.1687421,6.8208 15.3156193,6.808 C15.3156193,6.808 15.4848474,6.7904 15.6668474,6.7904 L15.7323035,6.7904 C15.9318649,6.7904 16.1410053,6.8048 16.3437596,6.8288 C16.7221281,6.8816 17.1180579,6.9808 17.6001982,7.1408 C17.8556368,7.2224 18.1142684,7.3216 18.366514,7.416 C18.9492333,7.632 19.549514,7.8576 20.1753386,7.9648 C19.9773737,8.1104 19.8033561,8.224 19.6341281,8.3184 M14.5429175,9.8944 C14.4934263,10.2464 14.3529351,10.5488 14.1406018,10.7408 C13.9522158,10.912 13.7462684,10.9504 13.4700754,10.9504 L13.3247947,10.9504 L13.1763211,10.9472 C12.9991105,10.9472 12.8522333,11.0048 12.7404789,11.12 C12.4084088,11.4576 12.4131982,12.1968 12.4179877,12.6848 L12.4179877,12.8448 L12.3860579,12.8112 C11.9645842,12.4224 11.5734439,12.0512 10.9811456,11.9616 C10.8885491,11.9472 10.7927596,11.9392 10.6953737,11.9392 C10.5181632,11.9392 10.3265842,11.9632 10.1350053,12.0128 C9.96737368,12.0512 9.82368947,12.1152 9.67202281,12.1872 L9.49481228,12.2656 L9.26970702,12.3248 L9.23458421,12.3136 L9.23777719,12.2816 C9.29205789,12.0832 9.5091807,11.9376 9.68319825,11.8208 L9.7279,11.792 C10.1685316,11.4928 10.5788298,11.1984 10.9875316,10.88 C11.733093,10.2992 12.552093,9.5712 12.9591982,8.5904 C13.189093,8.0384 13.2880754,7.4048 13.2465667,6.7504 L13.2449702,6.7152 C13.2274088,6.448 13.2098474,6.1664 13.1028825,5.9264 C13.0150754,5.7216 12.8554263,5.6256 12.6893912,5.528 L12.5967947,5.4768 C12.6766193,5.3296 12.8969351,4.9424 13.1443912,4.9424 C13.2433737,4.9424 13.3375667,5.0016 13.4237772,5.12 C13.7207246,5.5264 13.8532333,6.016 13.9761632,6.4464 L14.0432158,6.6832 C14.2779,7.5184 14.6706368,8.9088 14.5429175,9.8944 M10.4974088,9.3056 C10.3792684,9.1104 10.2579351,8.9056 10.1062684,8.728 C9.75823333,8.304 9.29844386,8.1152 8.60556667,8.1152 C8.31819825,8.1152 8.01326842,8.1472 7.71632105,8.1792 C7.42895263,8.2112 7.12721579,8.2416 6.84304035,8.2416 C6.69456667,8.2416 6.55886491,8.2304 6.43274211,8.2144 C6.93084737,8.048 7.40979474,7.8192 7.8711807,7.5984 C8.36768947,7.3552 8.88495263,7.1072 9.42137368,6.9424 C9.75344386,6.8416 10.098286,6.7872 10.4511105,6.7872 C11.0913035,6.7872 11.6867947,6.9568 12.1705316,7.2768 C12.5728474,7.5456 12.6925842,7.8272 12.5568825,8.2224 C12.4100053,8.64 12.1609526,9.0544 11.8097246,9.4528 L11.733093,9.5424 C11.5798298,9.7264 11.3275842,10.0272 11.1136544,10.0272 L10.9364439,9.9456 C10.7640228,9.752 10.6251281,9.5248 10.4974088,9.3056 M20.8075491,7.5232 L20.7836018,7.52 C19.9917421,7.4896 19.2397947,7.2048 18.5101982,6.928 C18.2116544,6.816 17.9067246,6.6976 17.6033912,6.6064 C17.0063035,6.4128 16.4698825,6.3088 15.9717772,6.2848 C15.8392684,6.2784 15.7163386,6.2752 15.5886193,6.2752 C15.2501632,6.2752 14.7791982,6.3056 14.4870404,6.5936 C14.3992333,6.2192 14.3002509,5.8032 14.1421982,5.4064 C13.9937246,5.0272 13.7734088,4.5824 13.3726895,4.4576 L13.1731281,4.4304 C12.7771982,4.4304 12.4754614,4.7856 12.3253912,5 L12.2631281,5.096 C12.0891105,5.3504 12.0013035,5.472 12.0252509,5.5904 C12.0571807,5.7088 12.1976719,5.7984 12.5217596,5.984 C12.6590579,6.064 12.6861982,6.2688 12.7037596,6.4192 L12.7069526,6.4368 C12.7356895,6.664 12.7500579,6.8848 12.7468649,7.0928 C12.2870754,6.6176 11.5830228,6.4336 10.9492158,6.3136 C10.7799877,6.2832 10.6043737,6.2656 10.4239702,6.2656 C9.6911807,6.2656 8.97914561,6.5392 8.50339123,6.744 C8.23677719,6.8592 7.97016316,6.9888 7.70993509,7.112 C7.21023333,7.3536 6.69616316,7.6 6.15974211,7.7632 C5.9969,7.8176 5.82128596,7.8576 5.61054912,7.8944 L5.59937368,7.8944 L5.58660175,7.896 L5.56904035,7.8976 C5.49081228,7.9152 5.35191754,7.9584 5.32477719,8.0848 C5.29763684,8.2112 5.31519825,8.2928 5.48602281,8.424 C5.87397018,8.6464 6.35132105,8.752 6.93723333,8.752 C7.05856667,8.752 7.18468947,8.752 7.31560175,8.7424 C7.49121579,8.7312 7.67002281,8.7088 7.85681228,8.6848 C8.1266193,8.6512 8.40281228,8.6176 8.66782982,8.6176 C8.85302281,8.6176 9.00947895,8.632 9.15795263,8.664 C9.59060175,8.7648 9.85082982,9.2016 10.0775316,9.5808 C10.1350053,9.6784 10.186093,9.7648 10.2435667,9.8496 L10.2467596,9.8576 C10.3505316,10.0176 10.5277421,10.2816 10.5181632,10.4816 C10.5069877,10.6768 10.2387772,10.8368 10.0471982,10.952 L9.90670702,11.0432 L9.69437368,11.1824 C9.26172456,11.4592 8.66304035,11.84 8.73488246,12.3536 C8.7636193,12.6032 8.97275965,12.808 9.22819825,12.84 L9.30004035,12.8448 C9.48044386,12.8448 9.64807544,12.7584 9.80612807,12.6784 L10.004093,12.5824 C10.2100404,12.496 10.4239702,12.4544 10.6299175,12.4544 C10.9811456,12.4544 11.3211982,12.5728 11.632514,12.808 C11.736286,12.8848 11.827286,12.9808 11.918286,13.0704 C12.0172684,13.1664 12.1162509,13.2704 12.2280053,13.352 C12.3206018,13.4176 12.4898298,13.4848 12.6319175,13.4848 C12.7771982,13.4848 12.8745842,13.416 12.9001281,13.2848 C12.9496193,13.0336 12.9480228,12.7664 12.9480228,12.5072 C12.9448298,12.3008 12.9448298,12.0912 12.9719702,11.8864 C12.9847421,11.7648 13.0166719,11.5104 13.1763211,11.4336 L13.3663035,11.3968 L13.6185491,11.4192 C13.7334965,11.4432 13.8532333,11.4592 13.9522158,11.4464 C14.4136018,11.3824 14.7967596,11.0048 14.9819526,10.432 C15.0681632,10.2416 15.1671456,10.1536 15.363514,10.1072 C15.5950053,10.0528 15.7418825,9.8608 15.8807772,9.6784 L15.9829526,9.5472 C16.2751105,9.2016 16.6295316,9.0448 17.1276368,9.0448 C17.2170404,9.0448 17.3176193,9.0512 17.4245842,9.0608 C17.5267596,9.072 17.6305316,9.0832 17.7311105,9.096 C17.9993211,9.1264 18.2531632,9.152 18.5117947,9.152 C18.7895842,9.152 19.0386368,9.1184 19.2685316,9.0448 C19.8672158,8.8432 20.3940579,8.4544 20.8761982,8.0656 L20.9464439,8.0048 C21.0805491,7.8928 21.1156719,7.8192 21.0773561,7.6896 C21.0438298,7.56 20.8730053,7.5296 20.8075491,7.5232"/>
    <path d="M24.843,19.5464 C24.7009123,20.2568 24.5125263,20.9576 24.2858246,21.6408 L21.9677193,16.1288 L22.9862807,15.6744 C23.0964386,15.6232 23.0964386,15.4712 22.9910702,15.4152 L21.9357895,14.6632 L21.9118421,12.9736 C22.0363684,12.9592 22.1513158,12.9048 22.2758421,12.884 C22.4099474,12.8632 22.5360702,12.884 22.6701754,12.9128 C22.7899123,12.9288 22.9144386,12.9416 23.0309825,12.9112 C23.1427368,12.8744 23.2433158,12.812 23.3311228,12.7416 C23.0677018,12.7336 22.8505789,12.564 22.6206842,12.46 C22.5009474,12.4056 22.3748246,12.372 22.2455088,12.3592 C22.1209825,12.3464 21.9677193,12.3368 21.8479825,12.372 C21.836807,12.2744 21.8224386,12.1736 21.8048772,12.06 L21.7505965,12.06 C21.6739649,12.524 21.6771579,13.0344 21.6707719,13.5 C21.6675789,13.8296 21.664386,14.1624 21.6595965,14.4872 L21.654807,14.6632 L20.6075088,15.412 C20.5085263,15.468 20.5021404,15.6184 20.6075088,15.6728 L20.6075088,15.6744 L21.5973333,16.1288 L19.6033158,20.9944 L18.570386,17.8664 L19.7118772,17.3304 C19.8252281,17.268 19.8332105,17.0936 19.7166667,17.0296 C19.7166667,17.0296 18.6438246,16.276 18.5017368,16.1752 C18.4985439,15.78 18.4889649,15.3528 18.4873684,14.98 L19.5266842,14.4872 C19.6288596,14.4376 19.6336491,14.284 19.5298772,14.228 C19.5298772,14.228 18.5991228,13.5656 18.4618246,13.4664 C18.4538421,12.7 18.4458596,11.9304 18.4346842,11.1688 L18.6071053,11.1304 L18.8098596,11.0792 C18.9407719,11.0552 19.0716842,11.076 19.204193,11.1016 C19.3287193,11.1224 19.4580351,11.1336 19.5825614,11.1016 C19.6927193,11.0664 19.7932982,11.0056 19.8842982,10.932 C19.6176842,10.9272 19.4053509,10.7576 19.1722632,10.652 C19.0557193,10.596 18.9295965,10.5672 18.7986842,10.5528 C18.6693684,10.5384 18.5240877,10.5288 18.4027544,10.5672 C18.3899825,10.4648 18.3772105,10.3672 18.3596491,10.2536 L18.3085614,10.2536 L18.3085614,10.2552 C18.2351228,10.6808 18.2287368,11.1064 18.2223509,11.5352 C18.2223509,11.9272 18.2207544,12.316 18.2143684,12.7112 C18.2127719,12.9624 18.206386,13.2152 18.2047895,13.4664 L17.1431228,14.2264 C17.0393509,14.2792 17.0393509,14.4344 17.1431228,14.4872 L18.1808421,14.98 L18.1840351,14.98 C18.1808421,15.3464 18.1744561,15.7816 18.1712632,16.1752 L16.9563333,17.028 C16.835,17.0888 16.835,17.2648 16.9563333,17.3288 L18.0738772,17.8632 L14.5871404,21.7384 L14.0251754,21.8248 C13.9325789,21.8968 13.9277895,22.0088 13.9692982,22.1016 C14.020386,22.228 14.1257544,22.3128 14.2422982,22.3816 L14.4274912,22.4712 L14.4498421,22.4888 C14.4498421,22.4888 14.7627544,23.5352 16.107,24.0232 L16.103807,24.0232 L16.1309474,24.0616 L16.1213684,24.076 L16.0862456,24.084 C14.8042632,24.0056 13.5382456,23.7944 12.2738246,23.596 C11.7884912,23.5144 11.3047544,23.4456 10.8210175,23.38 C10.4937368,23.3384 10.1664561,23.3016 9.83917544,23.2424 L9.78329825,23.2072 L9.78329825,23.204 L9.78170175,23.1992 L9.78170175,23.188 L9.78329825,23.1864 L9.80085965,23.164 L9.8104386,23.1592 C11.5937193,22.6248 11.9704912,21.3192 11.9704912,21.3192 L12.0375439,21.2856 L12.1764386,21.2136 C12.2929825,21.148 12.3999474,21.0616 12.4494386,20.9336 C12.4909474,20.8376 12.4845614,20.7288 12.3967544,20.6552 L11.823614,20.572 L11.823614,20.5768 L11.7342105,20.5768 C11.7342105,20.2968 11.7262281,19.5752 11.7086667,19.108 L11.8731053,19.0968 L12.0758596,19.0424 C12.2147544,19.0088 12.3440702,19.0184 12.4845614,19.0424 C12.6170702,19.0648 12.7511754,19.0856 12.8868772,19.052 C13.0034211,19.0216 13.110386,18.9576 13.2045789,18.8808 C12.9347719,18.8728 12.7128596,18.6968 12.4765789,18.5944 C12.3504561,18.54 12.2195439,18.5064 12.0854386,18.4968 C11.9545263,18.4856 11.7964737,18.4744 11.6815263,18.532 C11.6719474,18.42 11.6607719,18.3208 11.651193,18.2488 L11.6001053,18.2488 C11.5298596,18.6504 11.5298596,20.0392 11.5266667,20.5768 L10.6310351,20.5784 C10.6054912,19.6008 10.5607895,18.2936 10.5384386,17.4568 L11.3159298,15.7912 C11.4165088,15.8392 11.5442281,15.8456 11.651193,15.8888 C11.7741228,15.9272 11.8715088,16.0008 11.9704912,16.0824 C12.0630877,16.1576 12.1588772,16.236 12.2738246,16.2744 C12.3999474,16.3144 12.5340526,16.3112 12.6601754,16.2872 C12.4398596,16.1544 12.3376842,15.9112 12.1955965,15.7112 C12.1189649,15.6056 12.0279649,15.5128 11.924193,15.4376 C11.8156316,15.3592 11.6895088,15.2744 11.5617895,15.2424 L11.6336316,14.972 L11.6112807,14.9272 L11.5969123,14.9256 L11.5298596,14.9832 L11.3542456,15.2632 L10.5240702,17.0408 C10.5176842,16.764 10.5112982,16.4792 10.5081053,16.1992 C10.5065088,15.8456 10.4905439,15.4968 10.4298772,15.148 L10.3819825,15.148 C10.3069474,15.572 10.3053509,15.996 10.3021579,16.428 C10.2989649,16.812 10.283,17.1976 10.2718246,17.5832 L8.84775439,20.5416 L7.5705614,17.4056 C7.56577193,17.0168 7.54980702,16.6296 7.54821053,16.2408 C7.53863158,15.8008 7.53863158,15.3592 7.46838596,14.9224 L7.41729825,14.9224 C7.34385965,15.3528 7.34385965,15.7816 7.3342807,16.2184 C7.33268421,16.612 7.31991228,17.0072 7.31192982,17.404 L6.90322807,18.3736 L5.90542105,16.0392 C5.90063158,15.6536 5.89584211,15.2696 5.88785965,14.9048 L6.79626316,14.4728 C6.89045614,14.428 6.89205263,14.292 6.79945614,14.244 C6.79945614,14.244 6.02994737,13.6904 5.86710526,13.5736 C5.85912281,12.7768 5.85114035,11.972 5.83836842,11.1688 L6.01078947,11.1304 L6.20875439,11.0792 C6.34605263,11.0552 6.47057895,11.076 6.60149123,11.1016 C6.73080702,11.1224 6.85533333,11.1336 6.98145614,11.1016 C7.09640351,11.0664 7.19538596,11.0056 7.28319298,10.932 C7.02935088,10.9272 6.81222807,10.7672 6.59191228,10.6584 C6.47057895,10.604 6.34605263,10.5704 6.21673684,10.5544 C6.08742105,10.5384 5.93575439,10.5272 5.80484211,10.5672 C5.79685965,10.4616 5.78089474,10.3544 5.76492982,10.2488 L5.71224561,10.2488 C5.62603509,10.7656 5.63721053,11.2792 5.62763158,11.7976 C5.62603509,12.3 5.61645614,12.7944 5.61007018,13.2984 C5.60687719,13.3912 5.60687719,13.484 5.6052807,13.5736 L4.67931579,14.2424 C4.58352632,14.2856 4.58352632,14.4264 4.67931579,14.4728 L5.58452632,14.9048 C5.57814035,15.3176 5.57015789,15.9944 5.57015789,16.0392 L3.71982456,20.396 L3.44842105,19.3944 L3.68789474,19.3944 L3.68789474,19.3928 L3.80603509,19.3928 L3.96089474,19.3592 L4.0774386,19.2696 L3.97207018,19.1832 L3.80603509,19.1464 L3.38296491,19.1464 L3.20415789,18.4584 C3.19617544,18.1768 3.19138596,17.8904 3.18659649,17.6088 L4.20515789,17.1304 C4.3137193,17.0776 4.3137193,16.9256 4.21154386,16.8712 L3.16424561,16.1288 C3.15945614,15.924 3.15307018,15.6456 3.15307018,15.4552 L4.07105263,15.0216 C4.16205263,14.9752 4.16524561,14.8392 4.07424561,14.788 C4.07424561,14.788 3.25684211,14.2056 3.12752632,14.1128 C3.12433333,13.4456 3.11635088,12.9944 3.1115614,12.9432 C3.21533333,12.9544 3.33507018,12.8952 3.43405263,12.8728 C3.55059649,12.8488 3.66394737,12.8632 3.77889474,12.8776 C3.88905263,12.9048 4.00240351,12.916 4.1125614,12.8952 C4.22112281,12.8648 4.31531579,12.8072 4.39992982,12.74 C4.16524561,12.7336 3.97526316,12.5848 3.76931579,12.492 C3.66394737,12.444 3.549,12.4152 3.43405263,12.404 C3.32070175,12.3896 3.18659649,12.38 3.08122807,12.4248 C3.06685965,12.3352 3.05408772,12.244 3.03492982,12.1448 L2.98703509,12.1448 C2.91359649,12.5144 2.912,12.884 2.90721053,13.2552 C2.90401754,13.5736 2.90082456,13.7944 2.89284211,14.1128 L1.95091228,14.788 C1.8567193,14.8392 1.8567193,14.972 1.95091228,15.02 L2.86889474,15.4552 C2.86889474,15.6456 2.86729825,15.9272 2.86091228,16.1288 L1.82638596,16.8696 C1.72421053,16.9208 1.72421053,17.0728 1.82478947,17.1288 L2.83696491,17.6088 C2.83377193,17.8904 2.82738596,18.1704 2.81940351,18.4472 L2.64059649,19.1464 L2.21273684,19.1464 L2.05947368,19.18 L1.94133333,19.2696 L2.04989474,19.3544 L2.21273684,19.3928 L2.33087719,19.3928 L2.33566667,19.3944 L2.57194737,19.3944 L2.25264912,20.6056 L1.74177193,20.6056 C1.43364912,19.4392 1.24526316,18.2392 1.17980702,17.0344 C1.11275439,15.8296 1.1654386,14.6168 1.33307018,13.42 C1.48952632,12.3096 1.74975439,11.212 2.12014035,10.1528 C2.47136842,9.148 2.91678947,8.1736 3.46119298,7.252 C3.74536842,6.772 4.05668421,6.3048 4.39992982,5.8552 C5.78568421,6.3224 7.57535088,5.8952 7.57535088,5.8952 C9.191,5.6024 10.195193,5.6488 10.7795088,5.74 L11.0908246,5.796 C11.1243509,5.5944 11.1498947,5.4536 11.2089649,5.2664 C9.51987719,4.7336 7.62164912,4.9928 7.62164912,4.9928 C6.47057895,5.0968 5.7697193,4.8632 5.40731579,4.6632 C5.40731579,4.6632 6.13531579,3.8856 6.72601754,3.4632 C7.24807018,3.8376 7.90263158,4.02 8.51887719,4.1304 C8.92598246,4.204 9.33947368,4.2392 9.74019298,4.3288 C10.1536842,4.4232 10.5575965,4.5432 10.9535263,4.6824 C11.0924211,4.732 11.280807,4.82 11.3638246,4.8584 C11.4404561,4.6984 11.5442281,4.5448 11.6495965,4.3976 L11.3861754,4.2312 C10.8673158,3.9288 10.374,3.7768 9.82321053,3.6104 C9.45442105,3.4984 9.10159649,3.3736 8.75835088,3.1928 C8.29057895,2.9496 7.99842105,2.636 7.97447368,2.6152 C7.97447368,2.6152 8.77431579,2.1224 9.52945614,1.8424 C9.88068421,2.3384 10.5320526,2.6152 10.9742807,2.9992 C11.6001053,3.5304 11.9321754,4.036 11.9641053,4.0856 C12.109386,3.9784 12.2450877,3.8968 12.4350702,3.8232 C12.1860175,3.276 11.83,2.644 11.3989474,2.244 C11.2057719,2.0616 10.913614,1.7464 10.832193,1.4296 C10.832193,1.4296 11.8379825,1.18 12.6090877,1.164 L12.9012456,3.7128 C13.0082105,3.6936 13.1694561,3.6968 13.1694561,3.6968 C13.1694561,3.6968 13.2716316,3.6936 13.4392632,3.7128 L13.7266316,1.1688 C13.7266316,1.1688 14.4131228,1.2008 14.9671053,1.3128 C15.2768246,1.3736 15.5115088,1.4328 15.5115088,1.4328 C15.4221053,1.7432 15.1411228,2.0648 14.9463509,2.244 C14.5105088,2.6488 14.1704561,3.2664 13.9214035,3.8296 C14.0682807,3.892 14.2343158,3.9592 14.3891754,4.0888 C14.6813333,3.6504 15.0389474,3.284 15.372614,2.9992 C15.8084561,2.62 16.4582281,2.3224 16.8078596,1.8424 C16.8956667,1.8744 17.2884035,2.028 17.9126316,2.3464 L18.3772105,2.6104 C18.3644386,2.6232 17.8471754,3.0472 17.5885439,3.1928 C17.2532807,3.3848 16.8940702,3.4984 16.5252807,3.6104 C15.9744912,3.7768 15.4859649,3.9288 14.9575263,4.2312 L14.6957018,4.3928 C14.7978772,4.5224 14.8984561,4.6808 14.9862632,4.8584 C15.0772632,4.8152 15.2560702,4.7304 15.3933684,4.6824 C15.7892982,4.5432 16.194807,4.4232 16.6082982,4.3288 C17.0074211,4.2392 17.4209123,4.204 17.8280175,4.1304 C18.4346842,4.0264 19.1004211,3.8296 19.6144912,3.4632 C20.2706491,3.9704 20.933193,4.6648 20.933193,4.6648 C20.5707895,4.8648 19.8683333,5.0968 18.7252456,4.9928 C18.7252456,4.9928 16.8270175,4.732 15.1411228,5.26 C15.1922105,5.4216 15.2113684,5.5336 15.2464912,5.7768 L15.5849474,5.7256 C16.1804386,5.6408 17.1606842,5.6024 18.7747368,5.8952 C18.7747368,5.8952 20.5532281,6.3208 21.9405789,5.8584 C22.0778772,6.0376 22.2119825,6.22 22.3412982,6.4088 C22.9367895,7.2728 23.4332982,8.2008 23.8404035,9.1672 C24.2666667,10.1816 24.5907544,11.2424 24.8158596,12.324 C25.0537368,13.46 25.1750702,14.6232 25.1878421,15.7816 C25.200614,17.0472 25.0872632,18.3112 24.843,19.5464 L24.843,19.5464 Z M23.117193,21.7144 L22.0555263,17.268 C22.025193,16.9976 22.0954386,17.0968 22.1465263,17.1976 L24.0846667,21.7144 L23.117193,21.7144 Z M21.9820877,17.9784 L22.028386,17.9912 L22.8936842,21.7384 C22.7084912,22.18 22.3237368,22.508 22.0459474,22.6952 C22.0395614,22.012 21.9836842,17.9944 21.9820877,17.9784 L21.9820877,17.9784 Z M18.1297544,18.3352 C18.1201754,19.1224 18.0914386,21.6408 18.0914386,21.7384 L17.1654737,21.7384 L18.1297544,18.3352 Z M16.9515439,21.7384 L14.8745088,21.7384 L17.9621228,18.2456 L16.9515439,21.7384 Z M19.0205965,22.4216 C18.7763333,22.164 18.6358421,21.9096 18.5847544,21.7976 C18.570386,20.9544 18.5528246,19.6952 18.5320702,18.3352 L19.4851754,21.2856 L19.0205965,22.4216 Z M20.1189825,23.0648 C19.7278421,22.9784 19.4149298,22.7848 19.1738596,22.5768 L19.5841579,21.596 L20.1189825,23.0648 Z M21.5095263,17.2264 L20.2546842,22.812 L19.7086842,21.3112 L19.7150702,21.3 L21.4328947,17.1688 C21.4775965,17.0872 21.5286842,17.0296 21.5095263,17.2264 L21.5095263,17.2264 Z M21.6085088,17.98 C21.5829649,19.7368 21.5542281,21.628 21.5334737,22.956 C21.112,23.1 20.7400175,23.1384 20.4143333,23.1112 L21.1359474,19.8888 L21.560614,17.9912 L21.6085088,17.98 Z M21.9405789,14.86 L22.7100877,15.4008 L21.9469649,15.4008 C21.9469649,15.22 21.9453684,15.0392 21.9405789,14.86 L21.9405789,14.86 Z M20.8852982,15.4008 L21.6452281,14.8584 C21.6388421,15.0392 21.6372456,15.2152 21.6372456,15.4008 L20.8852982,15.4008 Z M21.0672982,15.6952 L22.5137193,15.6952 L22.5201053,15.724 L21.8671404,16.036 L21.7346316,16.036 L21.0609123,15.724 L21.0672982,15.6952 Z M18.5017368,16.3784 L19.383,17.0088 L18.5145088,17.0088 C18.5113158,16.8024 18.5081228,16.5832 18.5017368,16.3784 L18.5017368,16.3784 Z M18.466614,13.6728 L19.2281404,14.2056 L18.4745965,14.2056 C18.469807,14.0216 18.4682105,13.8456 18.466614,13.6728 L18.466614,13.6728 Z M17.4464561,14.2056 L18.2,13.6648 C18.2,13.8376 18.196807,14.02 18.1920175,14.2056 L17.4464561,14.2056 Z M17.5933333,14.5112 L17.6252632,14.5048 L19.0397544,14.5048 L19.0668947,14.508 L19.0716842,14.508 L19.0668947,14.5112 L19.0461404,14.5352 L18.4107368,14.8328 L18.2798246,14.836 L17.6236667,14.5352 L17.5933333,14.5112 Z M17.2772281,17.0088 L18.1616842,16.3784 C18.1600877,16.5672 18.1568947,16.988 18.1568947,17.0088 L17.2772281,17.0088 Z M17.472,17.348 L19.1642807,17.348 L19.1850351,17.38 L18.4155263,17.7464 L18.2558772,17.748 L17.4624211,17.3848 L17.472,17.348 Z M9.08403509,20.5784 L10.2574561,18.0552 C10.2367018,18.7816 10.2127544,19.82 10.188807,20.5784 L9.71145614,20.5784 C9.53424561,20.5784 9.25645614,20.5896 9.08403509,20.5784 L9.08403509,20.5784 Z M8.04312281,21.5624 C7.94254386,21.6776 7.80524561,21.7912 7.68870175,21.8856 C7.67912281,21.5368 7.6615614,21.084 7.65357895,20.676 L8.04312281,21.5624 Z M7.64240351,20.092 L7.64240351,19.7176 C7.62324561,19.0536 7.6072807,18.7432 7.59131579,18.1288 L7.644,18.1112 L8.66735088,20.668 C8.49812281,21.0072 8.46938596,21.1208 8.21075439,21.3944 L7.64240351,20.092 Z M6.51368421,19.2984 L5.92457895,16.7368 L5.96768421,16.7336 L6.78508772,18.6472 L6.51368421,19.2984 Z M5.97087719,20.58 C5.96289474,19.828 5.94852632,18.9464 5.93575439,18.0344 C5.94214035,17.9608 5.95810526,17.9064 5.99642105,18.0184 L6.37,19.636 L5.97087719,20.58 Z M6.44982456,19.996 L7.00540351,22.2776 C6.81222807,22.3608 6.57115789,22.4024 6.36042105,22.4312 L6.1337193,22.452 L5.99322807,22.4584 C5.99163158,22.1528 5.98524561,21.6904 5.97885965,21.1208 L6.44982456,19.996 Z M7.01977193,18.6472 L7.25126316,18.1048 L7.29436842,18.1112 C7.28798246,18.4616 7.27680702,18.8344 7.26403509,19.22 L7.01977193,18.6472 Z M7.25126316,19.7368 C7.22891228,20.6104 7.2065614,21.476 7.19538596,22.1496 L7.1714386,22.164 L6.59670175,19.6552 L6.90642105,18.9256 L7.25126316,19.7368 Z M5.87349123,13.788 L6.54561404,14.228 L5.88147368,14.228 C5.87987719,14.0744 5.87508772,13.9272 5.87349123,13.788 L5.87349123,13.788 Z M4.92198246,14.228 L5.60208772,13.78 C5.60049123,13.924 5.60049123,14.0744 5.59729825,14.228 L4.92198246,14.228 Z M5.08322807,14.492 L6.37319298,14.492 L6.37798246,14.5192 L5.80164912,14.7944 L5.6787193,14.7976 L5.07684211,14.5192 L5.08322807,14.492 Z M5.53822807,18.0472 C5.51268421,19.8632 5.49033333,21.5528 5.48235088,22.364 C5.16624561,22.2728 4.85812281,22.1752 4.58831579,21.9864 L5.4967193,17.964 L5.53822807,18.0472 Z M4.40152632,21.8728 C3.84435088,21.5064 3.76931579,20.9032 3.80124561,20.7896 L5.52226316,16.7336 L5.56217544,16.7336 L4.40152632,21.8728 Z M22.0778772,25.9544 C20.8070702,26.2632 19.4995439,26.4264 18.1920175,26.4936 C17.5422456,26.5272 16.8812982,26.548 16.2267368,26.5128 C15.5657895,26.484 14.9096316,26.3768 14.2566667,26.2776 C12.9363684,26.0888 11.6176667,25.8776 10.2989649,25.7304 C8.97547368,25.5832 7.64878947,25.5048 6.31731579,25.5688 C5.59729825,25.6056 4.87408772,25.6904 4.16205263,25.8264 C3.92257895,25.4872 3.69268421,25.132 3.47396491,24.764 C4.64259649,24.5208 5.83038596,24.3672 7.0245614,24.3208 C8.23949123,24.2792 9.44484211,24.3656 10.647,24.5208 C11.8060526,24.6744 12.9555263,24.8856 14.1161754,25.044 C15.1778421,25.1864 16.2442982,25.2776 17.3107544,25.2776 L17.3219298,25.2776 C18.4267018,25.2776 19.5394561,25.1816 20.6378421,25.004 C21.4376842,24.8744 22.2359298,24.708 23.016614,24.5048 C22.7276491,25.012 22.4163333,25.4952 22.0778772,25.9544 L22.0778772,25.9544 Z M19.0557193,28.94 C17.7833158,29.0712 16.5013333,29.012 15.2321228,28.8728 C13.9597193,28.7384 12.7016842,28.5208 11.4404561,28.3368 C10.1361228,28.148 8.827,27.9848 7.50829825,27.996 C7.06287719,27.9992 6.61745614,28.0232 6.17522807,28.0648 C5.75694737,27.6984 5.35942105,27.292 4.97945614,26.86 C6.30294737,26.6632 7.644,26.668 8.9722807,26.7624 C10.3053509,26.8616 11.6304386,27.0584 12.9523333,27.2536 C13.6164737,27.3544 14.283807,27.4536 14.9447544,27.54 C15.2768246,27.5848 16.5939298,27.6856 16.9164211,27.6808 C18.2431053,27.6808 19.5729825,27.5848 20.8884912,27.3704 C20.3201404,27.964 19.7086842,28.484 19.0557193,28.94 L19.0557193,28.94 Z M13.1694561,30.8424 C11.1642632,30.8424 9.26922807,30.236 7.59770175,29.1528 C8.89085965,29.1416 10.1776316,29.316 11.4532281,29.508 C12.7352105,29.6968 14.0187895,29.9144 15.3087544,30.044 C15.8052632,30.0936 16.3017719,30.1304 16.7998772,30.1528 C15.652,30.6024 14.4322807,30.8424 13.1694561,30.8424 L13.1694561,30.8424 Z M3.23608772,20.6056 C3.22810526,20.2296 3.2217193,19.8312 3.21533333,19.42 L3.26482456,19.4536 L3.56975439,20.6056 L3.23608772,20.6056 Z M3.16584211,16.3192 L3.92577193,16.852 L3.17542105,16.852 C3.1674386,16.6728 3.16584211,16.4904 3.16584211,16.3192 L3.16584211,16.3192 Z M3.13391228,14.324 L3.82040351,14.7752 L3.13870175,14.7752 C3.13870175,14.6232 3.13550877,14.4728 3.13391228,14.324 L3.13391228,14.324 Z M2.19677193,14.7752 L2.89284211,14.3144 C2.88645614,14.4584 2.88645614,14.6136 2.88166667,14.7752 L2.19677193,14.7752 Z M2.35642105,15.0392 L3.64957895,15.0392 L3.65436842,15.068 L3.07803509,15.34 L2.95350877,15.3432 L2.35322807,15.0664 L2.35642105,15.0392 Z M2.10577193,16.852 L2.8577193,16.3144 C2.85452632,16.4904 2.85292982,16.6712 2.84973684,16.852 L2.10577193,16.852 Z M2.95350877,17.4904 L2.275,17.18 L2.28457895,17.1496 L3.73259649,17.1496 L3.73259649,17.18 L3.08921053,17.4904 L2.95350877,17.4904 Z M2.78587719,20.6056 L2.45221053,20.6056 L2.75075439,19.46 L2.80663158,19.4184 C2.80024561,19.8312 2.79545614,20.2296 2.78587719,20.6056 L2.78587719,20.6056 Z M26.0994386,12.9624 C25.9270175,11.852 25.6524211,10.764 25.2836316,9.7048 C24.927614,8.6936 24.4774035,7.7144 23.9377895,6.7816 C23.5195088,6.0632 23.0485439,5.3768 22.5201053,4.7304 C21.8479825,3.9048 21.0832632,3.1512 20.2419123,2.4952 C19.4213158,1.8616 18.5272807,1.3272 17.5741754,0.9144 C16.6274561,0.5096 15.6216667,0.2296 14.5983158,0.092 C13.562193,-0.0424 12.4973333,-0.0296 11.4580175,0.1336 C10.4426491,0.2936 9.44803509,0.5992 8.51089474,1.0296 C7.56896491,1.4616 6.68131579,2.0216 5.87349123,2.6728 C5.04650877,3.3432 4.30414035,4.1112 3.64957895,4.9432 C2.99821053,5.764 2.4394386,6.6488 1.96687719,7.58 C1.4735614,8.5496 1.07284211,9.5608 0.766315789,10.604 C0.450210526,11.6888 0.226701754,12.8072 0.106964912,13.9384 C-0.0143684211,15.1112 -0.0335263158,16.2936 0.055877193,17.4696 C0.140491228,18.6072 0.325684211,19.7416 0.61145614,20.8472 C0.890842105,21.908 1.26122807,22.9416 1.72580702,23.9304 C2.17601754,24.8808 2.71084211,25.7896 3.32868421,26.6392 C4.02954386,27.5896 5.80164912,29.2712 5.80803509,29.2712 C7.90103509,30.9832 10.4330702,31.9992 13.1694561,31.9992 L13.1710526,31.9992 C14.2135614,31.9992 15.2496842,31.8488 16.2554737,31.5576 C17.2452982,31.268 18.1920175,30.8424 19.0732807,30.308 C19.9705088,29.7608 20.7942982,29.1048 21.5382632,28.3576 C22.2806316,27.6152 22.938386,26.7896 23.5131228,25.9096 C24.0910526,25.0184 24.5811754,24.0696 24.9787018,23.0888 C25.4001754,22.06 25.7194737,20.9944 25.941386,19.9096 C26.1776667,18.7784 26.305386,17.62 26.3357193,16.4648 C26.3612632,15.2904 26.2878246,14.116 26.0994386,12.9624 L26.0994386,12.9624 Z"/>
  </g>
</svg>
