<svg xmlns="http://www.w3.org/2000/svg" width="106" height="48" viewBox="0 0 106 48">
  <g fill="#EFF" fill-rule="evenodd" transform="translate(0 4)">
    <path d="M54.4535172 5.93172414C55.7748966 4.53448276 57.310069 3.74827586 58.8231724 3.74827586 61.6355862 3.74827586 63.3142069 5.45310345 63.3142069 8.30689655L63.3142069 19.4310345 60.9348966 19.4310345 60.9348966 8.36482759C60.9348966 6.61862069 60.2204138 5.84206897 58.6162759 5.84206897 57.1873103 5.84206897 55.4369655 7.0062069 54.4535172 7.98965517L54.4535172 19.4310345 52.0742069 19.4310345 52.0742069 4.03793103 54.4535172 4.03793103 54.4535172 5.93172414zM81.5372414 5.93172414L81.5372414 4.03793103 79.1662069 4.03793103 79.1662069 19.4310345 81.5372414 19.4310345 81.5372414 7.98965517C82.5234483 7.0062069 84.2793103 5.84206897 85.7124138 5.84206897 87.3124138 5.84206897 88.0268966 6.61862069 88.0268966 8.36482759L88.0268966 19.4310345 90.4075862 19.4310345 90.4075862 8.30689655C90.4075862 5.45310345 88.7262069 3.74827586 85.9082759 3.74827586 84.4006897 3.74827586 82.8613793 4.53448276 81.5372414 5.93172414M65.5822069.0137931034L65.5822069 17.0358621C65.5822069 19.24 66.8691034 19.6841379 68.9422069 19.6841379 70.1987586 19.6841379 71.0456552 19.56 71.4194483 19.4413793L71.5228966 19.4082759 71.5228966 17.4234483 69.516 17.5903448C68.1408276 17.5903448 67.9573793 17.1324138 67.9573793 16.6827586L67.9573793 6.27172414 71.773931 6.27172414 71.773931 4.11034483 67.9573793 4.11034483 67.9573793.0137931034 65.5822069.0137931034z"/>
    <polygon points="76.459 4.038 74.233 4.038 74.233 19.431 76.607 19.431 76.607 4.038"/>
    <path d="M31.3285517 23.9711724C27.1575172 23.9711724 26.4651034 23.1863448 26.4651034 21.996 26.4651034 20.8732414 27.3961379 19.3518621 30.6678621 19.3518621 34.3464828 19.3518621 35.8513103 20.1435862 35.8802759 21.6953103 35.8513103 23.2428966 33.8264828 23.9711724 31.3285517 23.9711724M30.7506207 5.79875862C33.3009655 5.79875862 34.5726897 7.25531034 34.5726897 9.56841379 34.5726897 11.4525517 33.3602759 13.0953103 30.9837241 13.0953103 28.6678621 13.0953103 27.0995862 11.5435862 27.0995862 9.44565517 27.0995862 7.38358621 28.3754483 5.79875862 30.7506207 5.79875862M28.4333793 17.0084138C27.7437241 17.0084138 27.334069 16.6346207 27.334069 16.0097931 27.334069 15.3546207 27.7009655 14.9132414 28.4182069 14.6966897 29.1133793 14.9311724 29.7823448 15.1297931 31.0485517 15.1297931 34.2126897 15.1297931 36.6913103 12.6332414 36.6913103 9.44565517 36.6913103 8.01806897 36.1368276 6.88565517 35.7354483 6.31324138 36.2361379 6.09806897 37.0071724 5.95324138 37.8209655 5.95324138L37.9657931 5.95324138 37.9657931 3.44565517 37.8057931 3.46082759C36.4071724 3.60151724 35.1106207 4.43048276 34.5588966 4.82772414 33.5382069 4.10358621 32.3892414 3.76289655 30.8347586 3.76289655 27.4485517 3.76289655 24.9878621 6.15324138 24.9878621 9.44565517 24.9878621 11.2387586 25.6747586 12.7449655 26.952 13.8318621 25.9009655 14.5215172 25.0209655 15.1670345 25.0209655 16.5601379 25.0209655 17.5132414 25.7175172 18.3932414 26.7285517 18.8235862 25.2002759 19.6884138 24.3478621 20.4966897 24.3478621 22.0263448 24.3478621 24.6691034 26.5823448 26.0097931 30.9837241 26.0097931 36.1533793 26.0097931 37.9933793 23.733931 37.9933793 21.6015172 37.9933793 18.2553103 35.4030345 17.0084138 28.4333793 17.0084138M40.5296552 10.3377931C40.697931 7.55434483 42.0606897 5.69365517 44.5751724 5.69365517 46.8372414 5.69365517 48.1710345 7.55434483 48.1710345 10.3377931L40.5296552 10.3377931zM50.2096552 10.7488276C50.2096552 6.36675862 48.0082759 3.74882759 44.3227586 3.74882759 40.4455172 3.74882759 38.0386207 6.80537931 38.0386207 11.7308966 38.0386207 17.6329655 41.6455172 19.7281379 44.7296552 19.7281379 47.9351724 19.7281379 49.297931 17.7529655 50.1806897 16.0798621L48.3641379 15.141931C47.4744828 16.7474483 46.4524138 17.6288276 44.7296552 17.6288276 42.3144828 17.6288276 40.4993103 15.3391724 40.4386207 12.2895172L50.2096552 12.2895172 50.2096552 10.7488276zM101.259724 15.4408276C100.039034 16.753931 98.2321379 17.7773793 96.7866207 17.7773793 95.628 17.7773793 94.2928276 16.8477241 94.2928276 15.4504828 94.2928276 13.3815172 96.5866207 12.0022069 101.259724 11.1566897L101.259724 15.4408276zM103.992138 19.2477241C103.781103 18.4297931 103.651448 17.6063448 103.651448 16.0311724L103.651448 8.42427586C103.651448 4.97737931 100.883172 3.74841379 98.290069 3.74841379 95.7590345 3.74841379 93.6555862 4.94151724 92.5148966 7.01875862L92.4431724 7.1497931 94.5397241 8.24910345 94.5976552 8.10013793C94.8114483 7.56910345 95.7148966 5.8422069 98.3162759 5.8422069 100.274897 5.8422069 101.272138 6.71806897 101.272138 8.456L101.272138 9.14703448C94.5686897 10.3525517 92.0624828 12.0601379 92.0624828 15.4215172 92.0624828 18.398069 94.290069 19.7277241 96.4955862 19.7277241 98.8486897 19.7277241 100.484552 18.4242759 101.359034 17.5097931 101.410069 17.9456552 101.576966 19.4311724 101.576966 19.4311724L104.040414 19.4311724 103.992138 19.2477241zM24.2191724 5.83944828C24.5433103 5.12634483 25.1902069 4.34703448 25.6150345 3.96496552 25.1515862 3.83255172 24.6495172 3.74841379 24.0867586 3.74841379 22.5764138 3.74841379 21.0371034 4.53462069 19.7143448 5.93186207L19.7143448 4.03806897 17.3350345 4.03806897 17.3350345 19.4311724 19.7143448 19.4311724 19.7143448 8.51531034C19.7143448 8.10013793 20.844 5.83944828 23.8977931 5.83944828 24.0412414 5.83944828 24.0771034 5.8422069 24.2191724 5.83944828M5.224 10.1815172L7.62951724 1.84772414 7.95227586 1.84772414 10.3564138 10.1815172 5.224 10.1815172zM13.0322759 19.4546207L15.5826207 19.4546207 9.51503448.000827586207 6.064.000827586207.000551724138 19.4546207 2.55227586 19.4546207 4.624 12.2642759 10.9564138 12.2642759 13.0322759 19.4546207z"/>
    <polygon points="39.072 31.163 39.072 25.86 39.915 25.86 42.228 29.943 42.258 29.943 42.258 25.86 42.787 25.86 42.787 31.163 42.303 31.163 39.614 26.434 39.601 26.434 39.601 31.163"/>
    <path d="M46.1722759 29.0984828C44.9612414 29.3122759 44.3653793 29.664 44.3653793 30.1936552 44.3653793 30.5467586 44.7046897 30.7812414 44.9957241 30.7812414 45.3791724 30.7812414 45.8633103 30.5026207 46.1722759 30.1495172L46.1722759 29.0984828zM43.9474483 28.0777931C44.1902069 27.6377931 44.6591724 27.2708966 45.3791724 27.2708966 46.026069 27.2708966 46.7005517 27.5784828 46.7005517 28.4157241L46.7005517 30.3398621C46.7005517 30.7577931 46.7377931 30.9646897 46.7888276 31.1633103L46.2453793 31.1633103 46.1874483 30.6336552C45.9226207 30.9274483 45.4964138 31.2364138 44.924 31.2364138 44.3364138 31.2364138 43.8371034 30.8833103 43.8371034 30.1853793 43.8371034 29.3495172 44.4757241 28.9302069 46.1722759 28.6295172L46.1722759 28.424C46.1722759 27.9164138 45.8412414 27.726069 45.3874483 27.726069 44.7998621 27.726069 44.5129655 28.064 44.4108966 28.3205517L43.9474483 28.0777931zM47.9044138 27.3441379L47.9044138 26.0875862 48.434069 26.0875862 48.434069 27.3441379 49.314069 27.3441379 49.314069 27.7993103 48.434069 27.7993103 48.434069 30.5165517C48.434069 30.6917241 48.5595862 30.7813793 48.8657931 30.7813793 49.0437241 30.7813793 49.1968276 30.7662069 49.3361379 30.7441379L49.3361379 31.1772414C49.2409655 31.2062069 49.0271724 31.2365517 48.7209655 31.2365517 48.1471724 31.2365517 47.9044138 31.0889655 47.9044138 30.6048276L47.9044138 27.7993103 47.2809655 27.7993103 47.2809655 27.3441379 47.9044138 27.3441379zM50.2993103 31.1634483L50.8289655 31.1634483 50.8289655 27.3441379 50.2993103 27.3441379 50.2993103 31.1634483zM50.2993103 26.42L50.8289655 26.42 50.8289655 25.7882759 50.2993103 25.7882759 50.2993103 26.42zM53.3678621 27.725931C52.7375172 27.725931 52.3333793 28.2693793 52.3333793 29.2528276 52.3333793 30.2362759 52.7375172 30.7811034 53.3678621 30.7811034 53.9995862 30.7811034 54.4037241 30.2362759 54.4037241 29.2528276 54.4037241 28.2693793 53.9995862 27.725931 53.3678621 27.725931M53.3678621 31.2362759C52.3251034 31.2362759 51.8051034 30.3548966 51.8051034 29.2528276 51.8051034 28.1521379 52.3251034 27.2707586 53.3678621 27.2707586 54.4106207 27.2707586 54.9333793 28.1521379 54.9333793 29.2528276 54.9333793 30.3548966 54.4106207 31.2362759 53.3678621 31.2362759M56.3351724 27.3441379L56.3351724 27.8586207 56.3489655 27.8586207C56.6510345 27.5206897 57.0482759 27.2710345 57.48 27.2710345 58.0455172 27.2710345 58.582069 27.5648276 58.582069 28.3868966L58.582069 31.1634483 58.0537931 31.1634483 58.0537931 28.402069C58.0537931 27.8944828 57.8110345 27.7262069 57.4289655 27.7262069 57.0331034 27.7262069 56.577931 28.0489655 56.3351724 28.3055172L56.3351724 31.1634483 55.8068966 31.1634483 55.8068966 27.3441379 56.3351724 27.3441379zM61.8282759 29.0984828C60.6158621 29.3122759 60.0213793 29.664 60.0213793 30.1936552 60.0213793 30.5467586 60.3593103 30.7812414 60.6531034 30.7812414 61.0351724 30.7812414 61.517931 30.5026207 61.8282759 30.1495172L61.8282759 29.0984828zM59.6034483 28.0777931C59.8462069 27.6377931 60.3137931 27.2708966 61.0351724 27.2708966 61.682069 27.2708966 62.3565517 27.5784828 62.3565517 28.4157241L62.3565517 30.3398621C62.3565517 30.7577931 62.3924138 30.9646897 62.4434483 31.1633103L61.9027586 31.1633103 61.842069 30.6336552C61.5772414 30.9274483 61.1524138 31.2364138 60.58 31.2364138 59.9924138 31.2364138 59.4931034 30.8833103 59.4931034 30.1853793 59.4931034 29.3495172 60.1317241 28.9302069 61.8282759 28.6295172L61.8282759 28.424C61.8282759 27.9164138 61.4972414 27.726069 61.0434483 27.726069 60.4544828 27.726069 60.1689655 28.064 60.0655172 28.3205517L59.6034483 28.0777931z"/>
    <polygon points="63.56 31.163 64.09 31.163 64.09 25.86 63.56 25.86"/>
    <polygon points="67.908 31.163 68.495 31.163 68.495 25.86 67.908 25.86"/>
    <path d="M70.5593103 27.3441379L70.5593103 27.8586207 70.5744828 27.8586207C70.8751724 27.5206897 71.2710345 27.2710345 71.7041379 27.2710345 72.2696552 27.2710345 72.8062069 27.5648276 72.8062069 28.3868966L72.8062069 31.1634483 72.2765517 31.1634483 72.2765517 28.402069C72.2765517 27.8944828 72.0337931 27.7262069 71.6531034 27.7262069 71.2558621 27.7262069 70.8006897 28.0489655 70.5593103 28.3055172L70.5593103 31.1634483 70.0296552 31.1634483 70.0296552 27.3441379 70.5593103 27.3441379zM74.0022069 30.1936552C74.2532414 30.5536552 74.6187586 30.7812414 75.0973793 30.7812414 75.6684138 30.7812414 75.9194483 30.4722759 75.9194483 30.1495172 75.9194483 29.1812414 73.6573793 29.6943448 73.7015172 28.2984828 73.7235862 27.6377931 74.2311724 27.2626207 74.9649655 27.2708966 75.4642759 27.2777931 76.0146207 27.5495172 76.2725517 27.9398621L75.9056552 28.2626207C75.6104828 27.9026207 75.3332414 27.726069 74.9194483 27.726069 74.473931 27.726069 74.2311724 27.9536552 74.2311724 28.2915862 74.2311724 29.121931 76.4477241 28.6957241 76.4477241 30.1191724 76.4477241 30.8612414 75.8022069 31.2364138 75.1125517 31.2364138 74.5166897 31.2364138 73.936 30.9784828 73.5828966 30.5095172L74.0022069 30.1936552zM77.3737931 27.3441379L77.3737931 26.0875862 77.902069 26.0875862 77.902069 27.3441379 78.782069 27.3441379 78.782069 27.7993103 77.902069 27.7993103 77.902069 30.5165517C77.902069 30.6917241 78.0275862 30.7813793 78.3351724 30.7813793 78.5117241 30.7813793 78.6662069 30.7662069 78.8055172 30.7441379L78.8055172 31.1772414C78.7103448 31.2062069 78.4965517 31.2365517 78.1889655 31.2365517 77.6165517 31.2365517 77.3737931 31.0889655 77.3737931 30.6048276L77.3737931 27.7993103 76.7489655 27.7993103 76.7489655 27.3441379 77.3737931 27.3441379zM79.7668966 31.1634483L80.2951724 31.1634483 80.2951724 27.3441379 79.7668966 27.3441379 79.7668966 31.1634483zM79.7668966 26.42L80.2951724 26.42 80.2951724 25.7882759 79.7668966 25.7882759 79.7668966 26.42zM81.7582069 27.3441379L81.7582069 26.0875862 82.2864828 26.0875862 82.2864828 27.3441379 83.1664828 27.3441379 83.1664828 27.7993103 82.2864828 27.7993103 82.2864828 30.5165517C82.2864828 30.6917241 82.4106207 30.7813793 82.7182069 30.7813793 82.8947586 30.7813793 83.0506207 30.7662069 83.1885517 30.7441379L83.1885517 31.1772414C83.0933793 31.2062069 82.8795862 31.2365517 82.572 31.2365517 82.0009655 31.2365517 81.7582069 31.0889655 81.7582069 30.6048276L81.7582069 27.7993103 81.1333793 27.7993103 81.1333793 27.3441379 81.7582069 27.3441379zM86.2947586 31.1634483L86.2947586 30.6489655 86.2795862 30.6489655C85.9788966 30.9855172 85.5830345 31.2365517 85.149931 31.2365517 84.5844138 31.2365517 84.0478621 30.9427586 84.0478621 30.1193103L84.0478621 27.3441379 84.5761379 27.3441379 84.5761379 30.1041379C84.5761379 30.6131034 84.8202759 30.7813793 85.2009655 30.7813793 85.5968276 30.7813793 86.052 30.4572414 86.2947586 30.2006897L86.2947586 27.3441379 86.8244138 27.3441379 86.8244138 31.1634483 86.2947586 31.1634483zM88.1833103 27.3441379L88.1833103 26.0875862 88.7115862 26.0875862 88.7115862 27.3441379 89.5915862 27.3441379 89.5915862 27.7993103 88.7115862 27.7993103 88.7115862 30.5165517C88.7115862 30.6917241 88.8371034 30.7813793 89.1446897 30.7813793 89.3212414 30.7813793 89.4757241 30.7662069 89.6150345 30.7441379L89.6150345 31.1772414C89.5198621 31.2062069 89.3046897 31.2365517 88.9984828 31.2365517 88.4246897 31.2365517 88.1833103 31.0889655 88.1833103 30.6048276L88.1833103 27.7993103 87.5584828 27.7993103 87.5584828 27.3441379 88.1833103 27.3441379zM92.596 28.9005517C92.596 28.1957241 92.258069 27.7253793 91.6856552 27.7253793 91.0456552 27.7253793 90.7008276 28.1957241 90.6566897 28.9005517L92.596 28.9005517zM93.2415172 30.3474483C92.9918621 30.7805517 92.6401379 31.2357241 91.773931 31.2357241 90.9215172 31.2357241 90.1132414 30.6495172 90.1132414 29.2536552 90.1132414 28.0191724 90.7297931 27.2702069 91.6704828 27.2702069 92.4635862 27.2702069 93.1256552 27.7846897 93.1256552 29.0026207L93.1256552 29.3557241 90.6428966 29.3557241C90.6428966 30.1929655 91.1408276 30.7805517 91.773931 30.7805517 92.2428966 30.7805517 92.6111724 30.5322759 92.8304828 30.1350345L93.2415172 30.3474483zM97.464 27.725931C96.8322759 27.725931 96.4295172 28.2693793 96.4295172 29.2528276 96.4295172 30.2362759 96.8322759 30.7811034 97.464 30.7811034 98.0957241 30.7811034 98.4998621 30.2362759 98.4998621 29.2528276 98.4998621 28.2693793 98.0957241 27.725931 97.464 27.725931M97.464 31.2362759C96.4212414 31.2362759 95.8998621 30.3548966 95.8998621 29.2528276 95.8998621 28.1521379 96.4212414 27.2707586 97.464 27.2707586 98.5067586 27.2707586 99.0281379 28.1521379 99.0281379 29.2528276 99.0281379 30.3548966 98.5067586 31.2362759 97.464 31.2362759M100.093241 31.1634483L100.093241 27.7993103 99.4463448 27.7993103 99.4463448 27.3441379 100.093241 27.3441379 100.093241 26.9110345C100.093241 26.0075862 100.402207 25.7882759 101.027034 25.7882759 101.180138 25.7882759 101.341517 25.8089655 101.496 25.8241379L101.496 26.2944828C101.371862 26.2793103 101.231172 26.242069 101.112552 26.242069 100.753931 26.242069 100.622897 26.3606897 100.622897 26.7868966L100.622897 27.3441379 101.451862 27.3441379 101.451862 27.7993103 100.622897 27.7993103 100.622897 31.1634483 100.093241 31.1634483z"/>
    <polygon points="41.257 34.198 41.257 39.024 40.667 39.024 40.667 34.198 39.072 34.198 39.072 33.696 42.85 33.696 42.85 34.198"/>
    <path d="M45.0057931 35.5693793C44.3713103 35.5693793 43.9657931 36.1155862 43.9657931 37.105931 43.9657931 38.0948966 44.3713103 38.6411034 45.0057931 38.6411034 45.6402759 38.6411034 46.0457931 38.0948966 46.0457931 37.105931 46.0457931 36.1155862 45.6402759 35.5693793 45.0057931 35.5693793M45.0057931 39.0990345C43.9575172 39.0990345 43.4333793 38.2121379 43.4333793 37.105931 43.4333793 35.9997241 43.9575172 35.1128276 45.0057931 35.1128276 46.054069 35.1128276 46.5782069 35.9997241 46.5782069 37.105931 46.5782069 38.2121379 46.054069 39.0990345 45.0057931 39.0990345M49.9142069 39.0244138L49.9142069 38.5085517 49.8990345 38.5085517C49.5969655 38.8478621 49.1969655 39.0988966 48.7624828 39.0988966 48.1942069 39.0988966 47.6562759 38.8037241 47.6562759 37.9761379L47.6562759 35.1871724 48.1873103 35.1871724 48.1873103 37.9609655C48.1873103 38.4713103 48.4314483 38.6409655 48.8135172 38.6409655 49.2121379 38.6409655 49.670069 38.3154483 49.9142069 38.0575172L49.9142069 35.1871724 50.4452414 35.1871724 50.4452414 39.0244138 49.9142069 39.0244138zM51.7662069 35.1868966L52.2972414 35.1868966 52.2972414 35.9468966 52.3124138 35.9468966C52.6075862 35.4227586 52.9262069 35.1275862 53.5606897 35.1275862L53.5606897 35.6586207C52.8944828 35.6751724 52.5482759 36.1096552 52.2972414 36.8986207L52.2972414 39.0241379 51.7662069 39.0241379 51.7662069 35.1868966zM54.6137931 39.0241379L55.1462069 39.0241379 55.1462069 35.1868966 54.6137931 35.1868966 54.6137931 39.0241379zM54.6137931 34.2558621L55.1462069 34.2558621 55.1462069 33.6213793 54.6137931 33.6213793 54.6137931 34.2558621zM56.6517241 38.0506207C56.9041379 38.412 57.2710345 38.6409655 57.7510345 38.6409655 58.3275862 38.6409655 58.5786207 38.3306207 58.5786207 38.0064828 58.5786207 37.0313103 56.3055172 37.5485517 56.3496552 36.1457931 56.3717241 35.4823448 56.8806897 35.1057931 57.6186207 35.1126897 58.1193103 35.1195862 58.6737931 35.3926897 58.9331034 35.7830345L58.5648276 36.109931C58.2682759 35.7471724 57.9882759 35.5692414 57.5744828 35.5692414 57.1248276 35.5692414 56.8806897 35.7995862 56.8806897 36.1388966 56.8806897 36.9733793 59.1096552 36.5444138 59.1096552 37.9761379 59.1096552 38.7223448 58.46 39.0988966 57.7675862 39.0988966 57.1689655 39.0988966 56.5855172 38.8395862 56.2310345 38.3664828L56.6517241 38.0506207zM60.0838621 39.0244138L60.0838621 35.1871724 60.6148966 35.1871724 60.6148966 35.6961379 60.6438621 35.6657931C60.9693793 35.3044138 61.390069 35.1126897 61.7597241 35.1126897 62.2535172 35.1126897 62.6011034 35.3637241 62.7417931 35.7182069 63.0811034 35.3568276 63.5073103 35.1126897 63.9597241 35.1126897 64.4673103 35.1126897 65.0135172 35.3264828 65.0135172 36.2795862L65.0135172 39.0244138 64.4824828 39.0244138 64.4824828 36.2795862C64.4824828 35.7623448 64.2245517 35.5692414 63.8852414 35.5692414 63.4121379 35.5692414 63.1017931 35.8809655 62.8135172 36.1609655L62.8135172 39.0244138 62.2838621 39.0244138 62.2838621 36.2795862C62.2838621 35.7623448 62.0245517 35.5692414 61.6852414 35.5692414 61.2121379 35.5692414 60.9031724 35.8809655 60.6148966 36.1609655L60.6148966 39.0244138 60.0838621 39.0244138zM69.5006897 36.145931L70.5062069 36.145931C71.4855172 36.145931 71.8110345 35.8066207 71.8110345 35.1721379 71.8110345 34.5362759 71.4344828 34.1983448 70.6372414 34.1983448L69.5006897 34.1983448 69.5006897 36.145931zM68.9103448 39.0245517L68.9103448 33.6962759 70.7710345 33.6962759C71.9075862 33.6962759 72.4027586 34.3445517 72.4027586 35.1873103 72.4027586 36.0728276 71.7889655 36.648 70.4468966 36.648L69.5006897 36.648 69.5006897 39.0245517 68.9103448 39.0245517zM73.3462069 35.1868966L73.8772414 35.1868966 73.8772414 35.9468966 73.8924138 35.9468966C74.1875862 35.4227586 74.5048276 35.1275862 75.1406897 35.1275862L75.1406897 35.6586207C74.4744828 35.6751724 74.1282759 36.1096552 73.8772414 36.8986207L73.8772414 39.0241379 73.3462069 39.0241379 73.3462069 35.1868966zM77.2808276 35.5693793C76.6449655 35.5693793 76.2394483 36.1155862 76.2394483 37.105931 76.2394483 38.0948966 76.6449655 38.6411034 77.2808276 38.6411034 77.9153103 38.6411034 78.3208276 38.0948966 78.3208276 37.105931 78.3208276 36.1155862 77.9153103 35.5693793 77.2808276 35.5693793M77.2808276 39.0990345C76.2311724 39.0990345 75.7084138 38.2121379 75.7084138 37.105931 75.7084138 35.9997241 76.2311724 35.1128276 77.2808276 35.1128276 78.3291034 35.1128276 78.8532414 35.9997241 78.8532414 37.105931 78.8532414 38.2121379 78.3291034 39.0990345 77.2808276 39.0990345M79.8777931 39.0244138L79.8777931 35.1871724 80.4102069 35.1871724 80.4102069 35.6961379 80.4391724 35.6657931C80.7646897 35.3044138 81.1853793 35.1126897 81.5550345 35.1126897 82.0474483 35.1126897 82.3950345 35.3637241 82.5357241 35.7182069 82.8736552 35.3568276 83.3026207 35.1126897 83.7536552 35.1126897 84.2626207 35.1126897 84.8074483 35.3264828 84.8074483 36.2795862L84.8074483 39.0244138 84.2764138 39.0244138 84.2764138 36.2795862C84.2764138 35.7623448 84.0184828 35.5692414 83.6791724 35.5692414 83.2074483 35.5692414 82.8957241 35.8809655 82.6074483 36.1609655L82.6074483 39.0244138 82.0777931 39.0244138 82.0777931 36.2795862C82.0777931 35.7623448 81.8184828 35.5692414 81.4791724 35.5692414 81.0074483 35.5692414 80.6971034 35.8809655 80.4102069 36.1609655L80.4102069 39.0244138 79.8777931 39.0244138zM87.4128276 35.5693793C86.7783448 35.5693793 86.3728276 36.1155862 86.3728276 37.105931 86.3728276 38.0948966 86.7783448 38.6411034 87.4128276 38.6411034 88.0486897 38.6411034 88.4542069 38.0948966 88.4542069 37.105931 88.4542069 36.1155862 88.0486897 35.5693793 87.4128276 35.5693793M87.4128276 39.0990345C86.365931 39.0990345 85.8404138 38.2121379 85.8404138 37.105931 85.8404138 35.9997241 86.365931 35.1128276 87.4128276 35.1128276 88.4624828 35.1128276 88.9852414 35.9997241 88.9852414 37.105931 88.9852414 38.2121379 88.4624828 39.0990345 87.4128276 39.0990345M90.166069 35.1868966L90.166069 33.9248276 90.6984828 33.9248276 90.6984828 35.1868966 91.5826207 35.1868966 91.5826207 35.6448276 90.6984828 35.6448276 90.6984828 38.3758621C90.6984828 38.5510345 90.824 38.6406897 91.1329655 38.6406897 91.3108966 38.6406897 91.464 38.6255172 91.606069 38.6048276L91.606069 39.0393103C91.5095172 39.0682759 91.2943448 39.0986207 90.9853793 39.0986207 90.4115862 39.0986207 90.166069 38.9510345 90.166069 38.4627586L90.166069 35.6448276 89.5384828 35.6448276 89.5384828 35.1868966 90.166069 35.1868966zM92.7710345 39.0241379L93.3034483 39.0241379 93.3034483 35.1868966 92.7710345 35.1868966 92.7710345 39.0241379zM92.7710345 34.2558621L93.3034483 34.2558621 93.3034483 33.6213793 92.7710345 33.6213793 92.7710345 34.2558621zM96.0550345 35.5693793C95.421931 35.5693793 95.0150345 36.1155862 95.0150345 37.105931 95.0150345 38.0948966 95.421931 38.6411034 96.0550345 38.6411034 96.6908966 38.6411034 97.0977931 38.0948966 97.0977931 37.105931 97.0977931 36.1155862 96.6908966 35.5693793 96.0550345 35.5693793M96.0550345 39.0990345C95.0081379 39.0990345 94.484 38.2121379 94.484 37.105931 94.484 35.9997241 95.0081379 35.1128276 96.0550345 35.1128276 97.1046897 35.1128276 97.6288276 35.9997241 97.6288276 37.105931 97.6288276 38.2121379 97.1046897 39.0990345 96.0550345 39.0990345M99.2365517 35.1868966L99.2365517 35.7027586 99.2517241 35.7027586C99.5537931 35.3634483 99.9524138 35.1124138 100.388276 35.1124138 100.956552 35.1124138 101.495862 35.4075862 101.495862 36.2351724L101.495862 39.0241379 100.963448 39.0241379 100.963448 36.2503448C100.963448 35.74 100.72069 35.5689655 100.335862 35.5689655 99.9372414 35.5689655 99.4806897 35.8958621 99.2365517 36.1524138L99.2365517 39.0241379 98.7055172 39.0241379 98.7055172 35.1868966 99.2365517 35.1868966z"/>
  </g>
</svg>
