<svg xmlns="http://www.w3.org/2000/svg" width="176" height="48" viewBox="0 0 176 48">
  <g fill="#EFF" fill-rule="evenodd" transform="translate(0 8)">
    <polygon points="27.84 6.464 29.293 6.464 30.903 9.053 32.514 6.464 33.965 6.464 33.965 12.589 32.628 12.589 32.628 8.589 30.903 11.206 30.868 11.206 29.162 8.616 29.162 12.589 27.84 12.589"/>
    <path d="M35.3232 7.384L36.7232 7.384 36.7232 6.2 35.3232 6.2 35.3232 7.384zM35.3584 12.5888L36.6896 12.5888 36.6896 7.8992 35.3584 7.8992 35.3584 12.5888zM37.93872 7.8984L39.26832 7.8984 39.26832 8.564C39.57552 8.1704 39.96912 7.8104 40.64272 7.8104 41.64912 7.8104 42.23472 8.476 42.23472 9.5512L42.23472 12.5896 40.90512 12.5896 40.90512 9.972C40.90512 9.3416 40.60752 9.0184 40.10032 9.0184 39.59312 9.0184 39.26832 9.3416 39.26832 9.972L39.26832 12.5896 37.93872 12.5896 37.93872 7.8984zM43.4512 12.5904L44.7808 12.5904 44.7808 7.8992 43.4512 7.8992 43.4512 12.5904zM43.416 7.3824L44.816 7.3824 44.816 6.2 43.416 6.2 43.416 7.3824zM45.66592 11.9672L46.23392 11.092C46.74272 11.4616 47.27552 11.6536 47.71392 11.6536 48.09792 11.6536 48.27392 11.5128 48.27392 11.3032L48.27392 11.2856C48.27392 10.9976 47.81792 10.9 47.30272 10.7416 46.64512 10.5496 45.90112 10.244 45.90112 9.3336L45.90112 9.316C45.90112 8.3624 46.67232 7.828 47.61632 7.828 48.21152 7.828 48.85952 8.0296 49.36672 8.372L48.85952 9.2888C48.39552 9.0184 47.93152 8.852 47.59072 8.852 47.26752 8.852 47.10112 8.9928 47.10112 9.1768L47.10112 9.1944C47.10112 9.4568 47.54752 9.5784 48.05472 9.7528 48.71072 9.972 49.47232 10.2872 49.47232 11.1448L49.47232 11.1624C49.47232 12.204 48.69312 12.676 47.67872 12.676 47.02272 12.676 46.28672 12.4584 45.66592 11.9672M50.64496 11.25936L50.64496 9.03536 50.08496 9.03536 50.08496 7.89776 50.64496 7.89776 50.64496 6.69936 51.97456 6.69936 51.97456 7.89776 53.07696 7.89776 53.07696 9.03536 51.97456 9.03536 51.97456 11.04016C51.97456 11.34736 52.10576 11.49456 52.40336 11.49456 52.64816 11.49456 52.86736 11.43376 53.06096 11.32976L53.06096 12.39696C52.77936 12.56176 52.45616 12.66736 52.00976 12.66736 51.19536 12.66736 50.64496 12.34416 50.64496 11.25936M57.13808 9.87664C57.05968 9.28144 56.70928 8.87824 56.14928 8.87824 55.59728 8.87824 55.23888 9.27184 55.13488 9.87664L57.13808 9.87664zM53.83088 10.27024L53.83088 10.25264C53.83088 8.91344 54.78448 7.81104 56.14928 7.81104 57.71568 7.81104 58.43248 9.02864 58.43248 10.35824 58.43248 10.46224 58.42448 10.58544 58.41648 10.70864L55.15088 10.70864C55.28208 11.31024 55.70288 11.62704 56.29808 11.62704 56.74448 11.62704 57.06768 11.48624 57.43568 11.14544L58.19728 11.81904C57.75888 12.36144 57.12848 12.69424 56.28048 12.69424 54.87088 12.69424 53.83088 11.70544 53.83088 10.27024L53.83088 10.27024zM59.42192 7.8984L60.75152 7.8984 60.75152 8.844C61.02352 8.1976 61.46192 7.7768 62.24912 7.8104L62.24912 9.2008 62.17872 9.2008C61.29392 9.2008 60.75152 9.7352 60.75152 10.8568L60.75152 12.5896 59.42192 12.5896 59.42192 7.8984zM63.1408 12.5904L64.4704 12.5904 64.4704 7.8992 63.1408 7.8992 63.1408 12.5904zM63.1056 7.3824L64.5056 7.3824 64.5056 6.2 63.1056 6.2 63.1056 7.3824zM69.25792 10.27024L69.25792 10.25264C69.25792 9.56144 68.75872 8.95824 68.02432 8.95824 67.26272 8.95824 66.80832 9.54384 66.80832 10.23504L66.80832 10.25264C66.80832 10.94384 67.30592 11.54864 68.04192 11.54864 68.80192 11.54864 69.25792 10.96144 69.25792 10.27024M65.49472 10.27024L65.49472 10.25264C65.49472 8.90384 66.57952 7.81104 68.04192 7.81104 69.49472 7.81104 70.56992 8.88784 70.56992 10.23504L70.56992 10.25264C70.56992 11.59984 69.48512 12.69424 68.02432 12.69424 66.57152 12.69424 65.49472 11.61744 65.49472 10.27024M77.56208 10.25312L77.56208 10.23392C77.56208 9.45632 77.04528 8.93952 76.42448 8.93952 75.80368 8.93952 75.27888 9.44672 75.27888 10.23392L75.27888 10.25312C75.27888 11.03072 75.80368 11.54912 76.42448 11.54912 77.04528 11.54912 77.56208 11.03072 77.56208 10.25312M73.94768 10.25312L73.94768 10.23392C73.94768 8.66912 74.97168 7.81152 76.08368 7.81152 76.79248 7.81152 77.22928 8.13472 77.54448 8.51072L77.54448 6.20032 78.87408 6.20032 78.87408 12.58912 77.54448 12.58912 77.54448 11.91552C77.22128 12.35232 76.77488 12.67712 76.08368 12.67712 74.98928 12.67712 73.94768 11.81952 73.94768 10.25312M83.14512 9.87664C83.06672 9.28144 82.71632 8.87824 82.15632 8.87824 81.60432 8.87824 81.24592 9.27184 81.14192 9.87664L83.14512 9.87664zM79.83792 10.27024L79.83792 10.25264C79.83792 8.91344 80.79152 7.81104 82.15632 7.81104 83.72272 7.81104 84.43952 9.02864 84.43952 10.35824 84.43952 10.46224 84.43152 10.58544 84.42352 10.70864L81.15952 10.70864C81.29072 11.31024 81.70992 11.62704 82.30512 11.62704 82.75152 11.62704 83.07472 11.48624 83.44272 11.14544L84.20432 11.81904C83.76592 12.36144 83.13712 12.69424 82.28752 12.69424 80.87792 12.69424 79.83792 11.70544 79.83792 10.27024L79.83792 10.27024z"/>
    <polygon points="89.621 7.706 87.757 7.706 87.757 6.465 92.832 6.465 92.832 7.706 90.968 7.706 90.968 12.589 89.621 12.589"/>
    <path d="M93.68992 10.936L93.68992 7.8992 95.02112 7.8992 95.02112 10.5152C95.02112 11.1456 95.31712 11.4688 95.82592 11.4688 96.33312 11.4688 96.65632 11.1456 96.65632 10.5152L96.65632 7.8992 97.98752 7.8992 97.98752 12.5888 96.65632 12.5888 96.65632 11.9232C96.35072 12.3168 95.95712 12.6768 95.28192 12.6768 94.27552 12.6768 93.68992 12.0112 93.68992 10.936M99.1768 7.8984L100.5064 7.8984 100.5064 8.844C100.7784 8.1976 101.2152 7.7768 102.004 7.8104L102.004 9.2008 101.9336 9.2008C101.0488 9.2008 100.5064 9.7352 100.5064 10.8568L100.5064 12.5896 99.1768 12.5896 99.1768 7.8984zM102.896 12.5904L104.2256 12.5904 104.2256 7.8992 102.896 7.8992 102.896 12.5904zM102.8608 7.3824L104.2608 7.3824 104.2608 6.2 102.8608 6.2 102.8608 7.3824zM105.10944 11.9672L105.67904 11.092C106.18624 11.4616 106.71904 11.6536 107.15744 11.6536 107.54304 11.6536 107.71744 11.5128 107.71744 11.3032L107.71744 11.2856C107.71744 10.9976 107.26304 10.9 106.74624 10.7416 106.09024 10.5496 105.34624 10.244 105.34624 9.3336L105.34624 9.316C105.34624 8.3624 106.11584 7.828 107.06144 7.828 107.65664 7.828 108.30304 8.0296 108.81184 8.372L108.30304 9.2888C107.84064 9.0184 107.37664 8.852 107.03424 8.852 106.71104 8.852 106.54464 8.9928 106.54464 9.1768L106.54464 9.1944C106.54464 9.4568 106.99104 9.5784 107.49824 9.7528 108.15424 9.972 108.91584 10.2872 108.91584 11.1448L108.91584 11.1624C108.91584 12.204 108.13664 12.676 107.12224 12.676 106.46624 12.676 105.73024 12.4584 105.10944 11.9672M109.87024 7.8984L111.19984 7.8984 111.19984 8.564C111.50704 8.1704 111.90864 7.8104 112.58224 7.8104 113.19504 7.8104 113.65904 8.0824 113.90384 8.5544 114.31504 8.0728 114.80624 7.8104 115.44464 7.8104 116.43344 7.8104 117.02864 8.4056 117.02864 9.5336L117.02864 12.5896 115.69744 12.5896 115.69744 9.972C115.69744 9.3416 115.41904 9.0184 114.91984 9.0184 114.42064 9.0184 114.11504 9.3416 114.11504 9.972L114.11504 12.5896 112.78384 12.5896 112.78384 9.972C112.78384 9.3416 112.50384 9.0184 112.00464 9.0184 111.50704 9.0184 111.19984 9.3416 111.19984 9.972L111.19984 12.5896 109.87024 12.5896 109.87024 7.8984zM121.71872 10.27024L121.71872 10.25264C121.71872 9.56144 121.21952 8.95824 120.48512 8.95824 119.72352 8.95824 119.26912 9.54384 119.26912 10.23504L119.26912 10.25264C119.26912 10.94384 119.76672 11.54864 120.50272 11.54864 121.26272 11.54864 121.71872 10.96144 121.71872 10.27024M117.95552 10.27024L117.95552 10.25264C117.95552 8.90384 119.04032 7.81104 120.50272 7.81104 121.95552 7.81104 123.03072 8.88784 123.03072 10.23504L123.03072 10.25264C123.03072 11.59984 121.94592 12.69424 120.48512 12.69424 119.03232 12.69424 117.95552 11.61744 117.95552 10.27024M31.07744 21.15936C32.20384 21.15936 32.90464 20.52896 32.90464 19.64576L32.90464 19.62176C32.90464 18.62976 32.19104 18.10976 31.07744 18.10976L29.34624 18.10976 29.34624 21.15936 31.07744 21.15936zM27.85824 16.75296L31.19904 16.75296C33.17184 16.75296 34.41824 17.87776 34.41824 19.58656L34.41824 19.60896C34.41824 21.50976 32.89344 22.50176 31.02944 22.50176L29.34624 22.50176 29.34624 25.22496 27.85824 25.22496 27.85824 16.75296zM35.77408 18.8344L37.23808 18.8344 37.23808 20.2744C37.63808 19.3192 38.37568 18.6664 39.50208 18.7144L39.50208 20.2632 39.41728 20.2632C38.13408 20.2632 37.23808 21.0984 37.23808 22.7928L37.23808 25.2248 35.77408 25.2248 35.77408 18.8344zM44.93552 21.58288C44.83952 20.63888 44.28272 19.89968 43.31312 19.89968 42.41872 19.89968 41.78832 20.59088 41.65552 21.58288L44.93552 21.58288zM40.20272 22.05488L40.20272 22.02928C40.20272 20.20368 41.49872 18.70128 43.32592 18.70128 45.35952 18.70128 46.38672 20.29968 46.38672 22.13968 46.38672 22.27248 46.37552 22.40528 46.36432 22.54928L41.66832 22.54928C41.82512 23.59248 42.56272 24.17168 43.50832 24.17168 44.22192 24.17168 44.72912 23.90608 45.23792 23.41008L46.09712 24.17168C45.49232 24.89808 44.65712 25.37008 43.48272 25.37008 41.63152 25.37008 40.20272 24.02608 40.20272 22.05488L40.20272 22.05488zM47.344 24.39056L47.9968 23.39856C48.6864 23.91696 49.4384 24.18416 50.0912 24.18416 50.72 24.18416 51.0832 23.91696 51.0832 23.49296L51.0832 23.47056C51.0832 22.97296 50.4064 22.80496 49.656 22.57456 48.712 22.30736 47.6592 21.92176 47.6592 20.69776L47.6592 20.67536C47.6592 19.46416 48.6624 18.72656 49.9344 18.72656 50.7328 18.72656 51.6048 19.00496 52.2816 19.45136L51.7008 20.49136C51.0832 20.11696 50.4304 19.88816 49.8976 19.88816 49.328 19.88816 49.0016 20.15536 49.0016 20.52976L49.0016 20.55376C49.0016 21.01456 49.6912 21.20816 50.4416 21.44816 51.3744 21.73936 52.4272 22.16176 52.4272 23.31216L52.4272 23.33776C52.4272 24.68176 51.3856 25.34736 50.0544 25.34736 49.1472 25.34736 48.1424 25.02096 47.344 24.39056M54 25.224L55.464 25.224 55.464 18.8336 54 18.8336 54 25.224zM53.9392 17.8544L55.5136 17.8544 55.5136 16.4624 53.9392 16.4624 53.9392 17.8544zM62.2176 22.04224L62.2176 22.01824C62.2176 20.78464 61.3456 19.97184 60.3664 19.97184 59.3616 19.97184 58.5264 20.74624 58.5264 22.01824L58.5264 22.04224C58.5264 23.27584 59.3744 24.08704 60.3664 24.08704 61.3456 24.08704 62.2176 23.26464 62.2176 22.04224M57.0496 22.04224L57.0496 22.01824C57.0496 19.89984 58.4896 18.70144 60.016 18.70144 61.0672 18.70144 61.7344 19.23424 62.1936 19.82624L62.1936 16.39104 63.6576 16.39104 63.6576 25.22464 62.1936 25.22464 62.1936 24.16064C61.7216 24.82624 61.056 25.35744 60.016 25.35744 58.5136 25.35744 57.0496 24.16064 57.0496 22.04224M69.86688 21.58288C69.76928 20.63888 69.21408 19.89968 68.24448 19.89968 67.35008 19.89968 66.71968 20.59088 66.58688 21.58288L69.86688 21.58288zM65.13408 22.05488L65.13408 22.02928C65.13408 20.20368 66.43008 18.70128 68.25728 18.70128 70.29088 18.70128 71.31968 20.29968 71.31968 22.13968 71.31968 22.27248 71.30688 22.40528 71.29568 22.54928L66.59968 22.54928C66.75648 23.59248 67.49408 24.17168 68.43808 24.17168 69.15328 24.17168 69.66048 23.90608 70.16928 23.41008L71.02848 24.17168C70.42368 24.89808 69.58848 25.37008 68.41408 25.37008 66.56288 25.37008 65.13408 24.02608 65.13408 22.05488L65.13408 22.05488zM72.79536 18.8344L74.25936 18.8344 74.25936 19.8264C74.67056 19.2216 75.26416 18.7016 76.25616 18.7016 77.69616 18.7016 78.53136 19.6696 78.53136 21.1592L78.53136 25.2248 77.06736 25.2248 77.06736 21.5944C77.06736 20.6008 76.57136 20.0328 75.69936 20.0328 74.85296 20.0328 74.25936 20.6264 74.25936 21.6184L74.25936 25.2248 72.79536 25.2248 72.79536 18.8344zM79.94784 22.0656L79.94784 22.0416C79.94784 20.2272 81.35264 18.7008 83.26464 18.7008 84.47424 18.7008 85.22464 19.1504 85.81824 19.8032L84.90944 20.784C84.46304 20.3104 83.98944 19.984 83.25184 19.984 82.18784 19.984 81.41184 20.904 81.41184 22.0192L81.41184 22.0416C81.41184 23.1792 82.19904 24.0992 83.32544 24.0992 84.01504 24.0992 84.52224 23.7728 84.98304 23.3008L85.86624 24.1712C85.23744 24.8752 84.49824 25.3696 83.25184 25.3696 81.35264 25.3696 79.94784 23.8816 79.94784 22.0656M87.2944 25.224L88.7584 25.224 88.7584 18.8336 87.2944 18.8336 87.2944 25.224zM87.2336 17.8544L88.8064 17.8544 88.8064 16.4624 87.2336 16.4624 87.2336 17.8544zM94.61632 22.55008C94.24192 22.40448 93.72032 22.29728 93.15232 22.29728 92.23232 22.29728 91.68832 22.67168 91.68832 23.28928L91.68832 23.31328C91.68832 23.91648 92.23232 24.25568 92.92192 24.25568 93.88992 24.25568 94.61632 23.71328 94.61632 22.91488L94.61632 22.55008zM94.57952 25.22528L94.57952 24.43808C94.14432 24.95968 93.47872 25.35808 92.51072 25.35808 91.29952 25.35808 90.23552 24.66848 90.23552 23.38528L90.23552 23.36128C90.23552 21.94528 91.33632 21.26688 92.82592 21.26688 93.60032 21.26688 94.09632 21.37728 94.59232 21.53408L94.59232 21.41248C94.59232 20.52928 94.03552 20.04608 93.01952 20.04608 92.30432 20.04608 91.77152 20.20288 91.19072 20.44608L90.79232 19.27008C91.49312 18.95648 92.18432 18.73728 93.22432 18.73728 95.11232 18.73728 96.03232 19.73088 96.03232 21.43808L96.03232 25.22528 94.57952 25.22528zM106.24672 22.04224L106.24672 22.01824C106.24672 20.78464 105.37472 19.97184 104.39552 19.97184 103.39072 19.97184 102.55552 20.74624 102.55552 22.01824L102.55552 22.04224C102.55552 23.27584 103.40192 24.08704 104.39552 24.08704 105.37472 24.08704 106.24672 23.26464 106.24672 22.04224M101.07872 22.04224L101.07872 22.01824C101.07872 19.89984 102.51872 18.70144 104.04352 18.70144 105.09632 18.70144 105.76192 19.23424 106.22272 19.82624L106.22272 16.39104 107.68672 16.39104 107.68672 25.22464 106.22272 25.22464 106.22272 24.16064C105.75072 24.82624 105.08512 25.35744 104.04352 25.35744 102.54272 25.35744 101.07872 24.16064 101.07872 22.04224M113.89568 21.58288C113.79808 20.63888 113.24128 19.89968 112.27328 19.89968 111.37888 19.89968 110.74848 20.59088 110.61568 21.58288L113.89568 21.58288zM109.16288 22.05488L109.16288 22.02928C109.16288 20.20368 110.45888 18.70128 112.28608 18.70128 114.31968 18.70128 115.34848 20.29968 115.34848 22.13968 115.34848 22.27248 115.33568 22.40528 115.32288 22.54928L110.62848 22.54928C110.78528 23.59248 111.52288 24.17168 112.46688 24.17168 113.18048 24.17168 113.68928 23.90608 114.19808 23.41008L115.05728 24.17168C114.45248 24.89808 113.61728 25.37008 112.44288 25.37008 110.59168 25.37008 109.16288 24.02608 109.16288 22.05488L109.16288 22.05488z"/>
    <polygon points="120.539 25.224 122.003 25.224 122.003 16.39 120.539 16.39"/>
    <path d="M127.86144,22.55008 C127.48704,22.40448 126.96544,22.29728 126.39744,22.29728 C125.47744,22.29728 124.93344,22.67168 124.93344,23.28928 L124.93344,23.31328 C124.93344,23.91648 125.47744,24.25568 126.16704,24.25568 C127.13504,24.25568 127.86144,23.71328 127.86144,22.91488 L127.86144,22.55008 Z M127.82464,25.22528 L127.82464,24.43808 C127.38944,24.95968 126.72384,25.35808 125.75584,25.35808 C124.54624,25.35808 123.48064,24.66848 123.48064,23.38528 L123.48064,23.36128 C123.48064,21.94528 124.58144,21.26688 126.07104,21.26688 C126.84544,21.26688 127.34144,21.37728 127.83744,21.53408 L127.83744,21.41248 C127.83744,20.52928 127.28064,20.04608 126.26464,20.04608 C125.54944,20.04608 125.01664,20.20288 124.43584,20.44608 L124.03744,19.27008 C124.73984,18.95648 125.42784,18.73728 126.46944,18.73728 C128.35744,18.73728 129.27744,19.73088 129.27744,21.43808 L129.27744,25.22528 L127.82464,25.22528 Z"/>
    <polygon points="134.82 16.753 136.2 16.753 140.739 22.611 140.739 16.753 142.203 16.753 142.203 25.225 140.956 25.225 136.284 19.198 136.284 25.225 134.82 25.225"/>
    <path d="M148.15712 22.55008C147.78112 22.40448 147.26112 22.29728 146.69312 22.29728 145.77312 22.29728 145.22912 22.67168 145.22912 23.28928L145.22912 23.31328C145.22912 23.91648 145.77312 24.25568 146.46272 24.25568 147.43072 24.25568 148.15712 23.71328 148.15712 22.91488L148.15712 22.55008zM148.12032 25.22528L148.12032 24.43808C147.68512 24.95968 147.01952 25.35808 146.05152 25.35808 144.84032 25.35808 143.77632 24.66848 143.77632 23.38528L143.77632 23.36128C143.77632 21.94528 144.87712 21.26688 146.36512 21.26688 147.14112 21.26688 147.63712 21.37728 148.13312 21.53408L148.13312 21.41248C148.13312 20.52928 147.57632 20.04608 146.56032 20.04608 145.84512 20.04608 145.31392 20.20288 144.73152 20.44608L144.33312 19.27008C145.03392 18.95648 145.72512 18.73728 146.76512 18.73728 148.65312 18.73728 149.57312 19.73088 149.57312 21.43808L149.57312 25.22528 148.12032 25.22528zM150.96464 22.0656L150.96464 22.0416C150.96464 20.2272 152.36944 18.7008 154.28144 18.7008 155.49104 18.7008 156.24144 19.1504 156.83504 19.8032L155.92624 20.784C155.47824 20.3104 155.00624 19.984 154.26864 19.984 153.20304 19.984 152.42864 20.904 152.42864 22.0192L152.42864 22.0416C152.42864 23.1792 153.21584 24.0992 154.34064 24.0992 155.03184 24.0992 155.53904 23.7728 155.99984 23.3008L156.88304 24.1712C156.25424 24.8752 155.51504 25.3696 154.26864 25.3696 152.36944 25.3696 150.96464 23.8816 150.96464 22.0656M158.3104 25.224L159.7744 25.224 159.7744 18.8336 158.3104 18.8336 158.3104 25.224zM158.2512 17.8544L159.824 17.8544 159.824 16.4624 158.2512 16.4624 158.2512 17.8544zM165.41536 16.03904L166.74656 16.63264 165.25856 18.02304 164.15616 18.02304 165.41536 16.03904zM166.68576 22.06624L166.68576 22.04224C166.68576 20.91744 165.87456 19.98464 164.72576 19.98464 163.55136 19.98464 162.80096 20.90464 162.80096 22.01824L162.80096 22.04224C162.80096 23.15584 163.61216 24.09984 164.74976 24.09984 165.93536 24.09984 166.68576 23.16704 166.68576 22.06624L166.68576 22.06624zM161.33696 22.06624L161.33696 22.04224C161.33696 20.21344 162.78976 18.70144 164.74976 18.70144 166.70976 18.70144 168.14976 20.19104 168.14976 22.01824L168.14976 22.04224C168.14976 23.85824 166.69856 25.37024 164.72576 25.37024 162.77696 25.37024 161.33696 23.88064 161.33696 22.06624L161.33696 22.06624zM169.63904 18.8344L171.10304 18.8344 171.10304 19.8264C171.51424 19.2216 172.10784 18.7016 173.09984 18.7016 174.53984 18.7016 175.37504 19.6696 175.37504 21.1592L175.37504 25.2248 173.91104 25.2248 173.91104 21.5944C173.91104 20.6008 173.41504 20.0328 172.54304 20.0328 171.69664 20.0328 171.10304 20.6264 171.10304 21.6184L171.10304 25.2248 169.63904 25.2248 169.63904 18.8344zM18.91024 21.58128C18.62864 21.59888 18.63824 21.68368 18.54704 21.73488 18.62064 21.59568 18.70864 21.46128 18.82384 21.37328 18.70064 21.42128 18.58704 21.47888 18.50224 21.58128 18.44944 21.52208 18.33584 21.52208 18.23344 21.23088 18.09744 20.84528 18.26224 20.72208 18.27504 20.36528 18.40624 20.70928 18.65744 21.05008 18.65424 21.26768 18.79184 20.96688 19.32144 20.60528 19.47664 20.66928 19.23664 21.07088 19.37104 21.35568 18.91024 21.58128L18.91024 21.58128zM18.54224 22.00208C18.60784 21.94928 18.66864 21.91568 18.75664 21.89168 18.68944 21.92368 18.61264 21.94928 18.54224 22.00208L18.54224 22.00208zM18.43824 22.93808C18.15664 22.93968 18.16144 23.02288 18.07344 23.08368 18.14384 22.93968 18.23344 22.80368 18.34864 22.71888 18.22544 22.76688 18.11184 22.82448 18.02064 22.93808 17.96624 22.86768 17.84784 22.85008 17.76624 22.57808 17.63344 22.20208 17.79984 22.07728 17.81584 21.72368 17.95504 22.06448 18.18704 22.40528 18.18704 22.60848 18.34864 22.32688 18.87824 21.98768 19.03344 22.02448 18.77904 22.42608 18.91024 22.71888 18.43824 22.93808L18.43824 22.93808zM17.97424 23.88528C17.68304 23.85968 17.67504 23.93168 17.58064 23.98448 17.67504 23.85968 17.78544 23.74768 17.92944 23.66448 17.78544 23.69488 17.66064 23.74768 17.55024 23.82928 17.50864 23.75568 17.39504 23.73008 17.35024 23.43888 17.28304 23.05488 17.47504 22.97008 17.55024 22.63728 17.63344 22.97808 17.82384 23.34448 17.77424 23.54768 17.97424 23.29008 18.58544 23.03728 18.72944 23.11888 18.40944 23.45808 18.48304 23.74768 17.97424 23.88528L17.97424 23.88528zM17.31824 25.10288C17.01904 25.08848 17.01424 25.16848 16.91504 25.21968 17.01424 25.08848 17.12144 24.96368 17.26064 24.89488 17.12144 24.92688 16.99024 24.98288 16.88784 25.06288 16.83664 24.98768 16.71984 24.98288 16.66384 24.70128 16.58224 24.32688 16.76944 24.23728 16.84944 23.90288 16.93264 24.23728 17.13584 24.58448 17.09744 24.79568 17.30064 24.51568 17.91024 24.23728 18.06384 24.31088 17.75504 24.66128 17.83664 24.93968 17.31824 25.10288L17.31824 25.10288zM16.70224 25.95888C16.40304 25.91088 16.38384 25.97968 16.27184 26.01648 16.39504 25.91088 16.52464 25.80368 16.67664 25.74928 16.52624 25.76048 16.39504 25.79088 16.26064 25.86768 16.23664 25.79088 16.11344 25.76048 16.11344 25.48048 16.09744 25.10288 16.30224 25.05008 16.44304 24.74288 16.46704 25.07248 16.61744 25.42768 16.53904 25.61968 16.78704 25.38768 17.45584 25.20848 17.59344 25.30768 17.21424 25.59728 17.26064 25.87248 16.70224 25.95888L16.70224 25.95888zM16.04944 26.98608C15.74544 26.94928 15.72784 27.02928 15.61104 27.06128 15.73904 26.94768 15.87344 26.85168 16.02224 26.78128 15.87344 26.80848 15.72784 26.84208 15.60624 26.92368 15.57424 26.85168 15.45104 26.82448 15.45104 26.54928 15.42704 26.19248 15.63984 26.11728 15.77264 25.80848 15.81104 26.13648 15.95664 26.47568 15.87984 26.67248 16.13264 26.43088 16.82384 26.21488 16.97104 26.29008 16.57904 26.60368 16.62064 26.87568 16.04944 26.98608L16.04944 26.98608zM15.12144 27.74768C14.86864 27.68848 14.69904 27.84208 14.57264 27.94288 14.67344 27.80688 14.78384 27.65168 14.89424 27.57488 14.76944 27.61168 14.64944 27.67088 14.55184 27.73808 14.56304 27.61168 14.54704 27.47408 14.58544 27.23888 14.63184 26.89168 14.86224 26.85168 15.04624 26.55408 15.02224 26.88688 15.12144 27.23728 14.99504 27.40848 15.29744 27.22448 16.02224 27.09328 16.16304 27.19088 15.71184 27.43088 15.70704 27.71248 15.12144 27.74768L15.12144 27.74768zM14.32624 27.17488C14.26064 27.50448 14.23344 27.74128 14.16944 27.96208 13.84944 28.55728 12.24464 29.08368 11.57744 29.30288 11.77584 29.11568 11.89104 28.73808 11.61104 28.55728L11.55344 28.55728C12.54864 28.30448 13.48784 27.81168 14.34064 27.13168 14.32624 27.13968 14.32624 27.16048 14.32624 27.17488L14.32624 27.17488zM15.23184 27.13168C15.23184 27.13168 15.22704 27.13168 15.22704 27.13808 15.22704 27.13168 15.23184 27.13168 15.23184 27.13168L15.23184 27.13168zM16.08784 26.26768C16.17104 26.23088 16.27184 26.19248 16.39024 26.19248 16.25904 26.24208 16.13584 26.29968 16.04944 26.36528 16.06544 26.33168 16.08304 26.29968 16.08784 26.26768L16.08784 26.26768zM10.04304 28.28208C6.56144 28.21008 4.50544 25.37168 3.71824 23.99888 3.59504 23.83568 5.69904 23.17488 6.17104 23.04688L6.75344 22.90288C6.77264 23.16048 7.22064 23.24368 7.18864 23.14288 7.29424 23.19888 7.15664 23.36048 7.41584 23.55888 7.70384 23.75568 7.87184 23.64208 7.90544 23.58928 7.73584 23.76848 8.33744 24.08528 8.69104 23.87248 8.63984 24.04688 8.93744 24.11088 9.00144 24.11568 9.12304 24.18768 9.43504 24.25648 9.66544 24.11568L9.66544 26.03088C9.70224 26.39088 9.71664 26.47568 9.88624 26.53648 10.65744 26.60368 10.49424 26.35248 10.57744 26.12528 10.55024 25.30128 10.52944 24.11088 10.52944 24.11568 11.06864 24.04688 10.92784 23.93168 11.12624 23.87248 11.34864 23.90448 11.47024 23.90288 11.66384 23.63408 11.94224 23.66448 12.18864 23.57488 12.27344 23.34448 12.50384 23.42768 12.83984 23.19888 13.02704 22.77328 13.53904 22.93808 15.41584 23.93168 16.27984 24.20688 15.88784 24.85008 13.72784 28.28208 10.04304 28.28208L10.04304 28.28208zM8.54544 29.30928C7.27984 28.92208 6.18224 28.32368 5.89744 27.88528 5.79504 27.65648 5.76144 27.37648 5.69904 27.01488 5.69904 27.00208 5.68944 27.00208 5.68944 26.98608 6.58864 27.74768 7.56784 28.29808 8.62224 28.55728L8.53104 28.55728C8.17584 28.99248 8.36784 29.21168 8.54544 29.30928L8.54544 29.30928zM4.80304 26.96048L4.80304 26.94928 4.81104 26.96048 4.80304 26.96048zM5.50064 27.80688C5.39824 27.71888 5.28304 27.61168 5.05584 27.67088 4.47184 27.61168 4.32304 27.24368 3.88944 27.00208 4.02544 26.90768 4.73104 27.03888 5.02224 27.22448 4.91824 27.06128 5.00624 26.73008 4.98704 26.40688 5.17264 26.68368 5.39024 26.73008 5.43024 27.07888 5.47824 27.36208 5.47824 27.52688 5.53424 27.69008 5.44944 27.61168 5.33584 27.53488 5.22384 27.48208 5.33584 27.57488 5.42224 27.68048 5.50064 27.80688L5.50064 27.80688zM3.11024 26.11088C3.25904 26.03088 3.92624 26.26128 4.17104 26.49328 4.09264 26.30448 4.25264 25.97008 4.29744 25.64688 4.42224 25.95888 4.63024 26.03728 4.59824 26.39088 4.59184 26.65648 4.47184 26.68208 4.43664 26.74608 4.31344 26.65648 4.17104 26.63248 4.02544 26.60368 4.18224 26.65648 4.31344 26.77328 4.42544 26.88688 4.31344 26.85168 4.30544 26.77328 3.99504 26.80848 3.44464 26.68208 3.48624 26.41488 3.11024 26.11088L3.11024 26.11088zM3.96624 26.04208C3.97424 26.09168 3.99344 26.14448 4.01264 26.19248 3.88464 26.08048 3.68464 25.99408 3.47664 25.94768 3.67344 25.94768 3.83504 25.99408 3.96624 26.04208L3.96624 26.04208zM2.48144 25.07248C2.63184 24.98768 3.28944 25.16848 3.53904 25.37968 3.45424 25.20368 3.59504 24.85008 3.62864 24.51568 3.75664 24.82288 3.95984 24.88848 3.95504 25.24368 3.94224 25.51568 3.83504 25.54928 3.79504 25.61968 3.67344 25.54928 3.53904 25.53168 3.39344 25.51568 3.53904 25.56208 3.67344 25.64688 3.78224 25.76048 3.68464 25.73008 3.66064 25.65968 3.36784 25.71888 2.82544 25.63408 2.85904 25.36688 2.48144 25.07248L2.48144 25.07248zM2.02864 24.09968C2.17584 24.03088 2.77744 24.30768 2.98384 24.56688 2.93584 24.36848 3.13424 24.03088 3.23024 23.69488 3.29264 24.03088 3.47664 24.11568 3.39984 24.48208 3.34704 24.75888 3.23664 24.78288 3.19024 24.84528 3.08144 24.75888 2.95344 24.70128 2.81584 24.67248 2.95344 24.74288 3.05744 24.85808 3.15824 24.98768 3.05744 24.93968 3.05264 24.86448 2.75824 24.88848 2.24624 24.72528 2.34864 24.44688 2.02864 24.09968L2.02864 24.09968zM1.44624 22.92688C1.59184 22.85008 2.19504 23.10448 2.39504 23.35408 2.34864 23.15408 2.53424 22.80368 2.61264 22.45328 2.69264 22.79248 2.87184 22.87568 2.80624 23.24848 2.77104 23.53168 2.65904 23.55888 2.61264 23.62448 2.50864 23.53488 2.38064 23.48528 2.24624 23.47408 2.38064 23.53488 2.48784 23.65648 2.58544 23.77808 2.48784 23.73328 2.48144 23.65648 2.19504 23.68528 1.69264 23.54768 1.76464 23.26448 1.44624 22.92688L1.44624 22.92688zM1.99664 22.44208C1.98064 22.23408 2.22064 21.89968 2.35024 21.56528 2.37424 21.91568 2.53104 22.02448 2.39824 22.40528 2.31664 22.67728 2.20464 22.67728 2.15184 22.74608 2.06064 22.65328 1.94384 22.58448 1.82544 22.53488 1.94064 22.63248 2.02384 22.75888 2.10224 22.90288 2.00944 22.85008 2.01744 22.76688 1.73264 22.75888 1.27024 22.53488 1.40464 22.26128 1.15824 21.87088 1.31504 21.81328 1.84304 22.15728 1.99664 22.44208L1.99664 22.44208zM.71824 20.53808C.87184 20.47888 1.39024 20.82768 1.53584 21.11728 1.52464 20.91088 1.76464 20.57328 1.90544 20.23408 1.91664 20.58928 2.07344 20.70928 1.93904 21.07088 1.85264 21.37328 1.73264 21.37328 1.67984 21.44368 1.59184 21.33168 1.48784 21.26768 1.36304 21.21968 1.47504 21.30288 1.55664 21.44368 1.63184 21.58128 1.54224 21.53008 1.55024 21.44368 1.27024 21.44368.82704 21.19408.94864 20.93008.71824 20.53808L.71824 20.53808zM1.31504 20.11728C1.34544 19.90128 1.63184 19.60208 1.81904 19.27728 1.77424 19.63248 1.90544 19.78288 1.71664 20.14128 1.58064 20.41328 1.47504 20.40368 1.41424 20.47088 1.34544 20.34768 1.25424 20.27408 1.13744 20.19888 1.23984 20.31408 1.29264 20.45328 1.33744 20.61808 1.26224 20.53808 1.28144 20.46128 1.02544 20.39728.63024 20.09488.81104 19.95408.64944 19.52208.79664 19.48208 1.22864 19.82928 1.31504 20.11728L1.31504 20.11728zM1.34544 19.65968C1.33744 19.68848 1.33744 19.72528 1.33264 19.76688 1.25904 19.59408 1.07664 19.42128.90064 19.29328 1.09744 19.41008 1.23984 19.54768 1.34544 19.65968L1.34544 19.65968zM.48464 18.07088C.64304 18.08048 1.11184 18.49168 1.22864 18.79728 1.24304 18.59568 1.52464 18.36848 1.69264 18.10768 1.67664 18.44848 1.82544 18.62128 1.64944 18.92048 1.53584 19.15088 1.41904 19.10448 1.36304 19.15088 1.28144 19.02608 1.17104 18.92368 1.05744 18.82768 1.16464 18.95728 1.23984 19.12208 1.29264 19.27728 1.21584 19.19408 1.22864 19.12208.94864 19.00208.28464 18.41648.98544 19.19408.48464 18.07088L.48464 18.07088zM1.22064 18.40368L1.22064 18.45488C1.13264 18.30128.98544 18.10768.79664 17.95088 1.06384 18.10288 1.15184 18.25488 1.22064 18.40368L1.22064 18.40368zM.53904 16.71728C.70064 16.74768 1.13744 17.24848 1.22064 17.56368 1.26224 17.37008 1.59184 17.19408 1.80784 16.96048 1.73264 17.27888 1.85264 17.45968 1.63184 17.73328 1.46864 17.94128 1.35664 17.88368 1.29264 17.92688 1.23344 17.79408 1.13744 17.67728 1.03504 17.57808 1.11664 17.71248 1.16784 17.87088 1.19984 18.03728 1.13264 17.94128 1.15824 17.87088.89424 17.71888.51984 17.30928.66864 17.19408.53904 16.71728L.53904 16.71728zM1.71664 16.55408L1.71664 16.71728C1.59184 16.80208 1.45744 16.89168 1.37264 16.99728 1.43664 16.82288 1.54224 16.76528 1.71664 16.55408L1.71664 16.55408zM1.28144 16.47088C1.22864 16.34288 1.13264 16.24048 1.02544 16.13328 1.11664 16.26608 1.16464 16.43088 1.19184 16.58608 1.11664 16.49968 1.13744 16.43088.88464 16.29328.50704 15.88528.65904 15.78608.53904 15.32528.70704 15.33488 1.13264 15.82768 1.22064 16.12208 1.26224 15.93648 1.59184 15.74288 1.81904 15.49488 1.73264 15.82768 1.86384 15.98128 1.63184 16.26608 1.46864 16.48368 1.35664 16.43888 1.28144 16.47088L1.28144 16.47088zM.79664 14.18768C.97264 14.22608 1.27024 14.81168 1.27024 15.12688 1.37264 14.94128 1.73264 14.81168 1.99664 14.60368 1.85904 14.91248 1.94384 15.09008 1.65904 15.33488 1.45744 15.51888 1.35664 15.45808 1.27024 15.47888 1.24304 15.34928 1.16784 15.23248 1.07664 15.12688 1.13744 15.27088 1.16464 15.42608 1.16464 15.58128 1.11664 15.48208 1.15824 15.42608.90864 15.25648.60784 14.81488.84144 14.64528.79664 14.18768L.79664 14.18768zM1.27024 13.88208C.97584 13.45648 1.20784 13.28208 1.17424 12.82448 1.34544 12.85168 1.63184 13.42608 1.64944 13.73808 1.73264 13.56208 2.10864 13.39248 2.37424 13.18448 2.23344 13.50128 2.31664 13.67408 2.02864 13.93168 1.81904 14.12688 1.71664 14.07408 1.63824 14.09168 1.61264 13.96048 1.53584 13.85008 1.44624 13.73808 1.51344 13.88208 1.52464 14.03248 1.52464 14.19728 1.47504 14.09168 1.51824 14.03248 1.27024 13.88208L1.27024 13.88208zM1.61264 11.81808C1.77424 11.86448 1.95664 12.46448 1.90544 12.78768 2.03344 12.61968 2.42384 12.50608 2.72944 12.34128 2.53104 12.61968 2.58544 12.81008 2.24624 13.01808 1.99664 13.17968 1.91664 13.10928 1.83344 13.13648 1.82544 13.00368 1.77424 12.87088 1.71664 12.75568 1.75344 12.90288 1.72464 13.05168 1.69264 13.21008 1.67184 13.11408 1.71664 13.05168 1.51344 12.86608 1.29264 12.41008 1.56304 12.27728 1.61264 11.81808L1.61264 11.81808zM2.77104 11.99088C2.75824 12.03568 2.74544 12.06608 2.72464 12.10768 2.59664 12.14608 2.46544 12.19888 2.35024 12.25968 2.45904 12.15888 2.57264 12.11248 2.77104 11.99088L2.77104 11.99088zM2.07824 11.56848C1.85264 11.10768 2.11984 10.96848 2.17264 10.50928 2.32144 10.55728 2.52464 11.13488 2.46544 11.45168 2.59664 11.28688 2.99344 11.15568 3.29264 10.96848 3.09424 11.26128 3.15344 11.45168 2.81584 11.68048 2.57104 11.85008 2.48144 11.77968 2.39824 11.81328 2.39504 11.68048 2.34864 11.55408 2.27824 11.44848 2.31664 11.59408 2.29904 11.74768 2.26704 11.89808 2.23664 11.79888 2.29584 11.74288 2.07824 11.56848L2.07824 11.56848zM2.79184 9.55408C2.94064 9.61488 3.02544 10.23088 2.90224 10.53648 3.05264 10.37808 3.45904 10.30448 3.80784 10.15888 3.55024 10.41968 3.57104 10.61328 3.20624 10.78928 2.91824 10.93328 2.84944 10.85808 2.77104 10.86608 2.78544 10.73968 2.75824 10.61328 2.71504 10.48848 2.72464 10.63088 2.67664 10.78928 2.61264 10.93648 2.60784 10.84048 2.67344 10.78928 2.49264 10.58608 2.35824 10.11248 2.65904 9.99408 2.79184 9.55408L2.79184 9.55408zM3.13424 10.21808C3.19824 10.17488 3.24464 10.13648 3.29584 10.11248 3.23024 10.14608 3.17104 10.19728 3.12944 10.25008 3.12944 10.25008 3.13264 10.23088 3.13424 10.21808L3.13424 10.21808zM3.68464 8.24208C3.79024 8.36688 3.80304 9.03728 3.65264 9.33648 3.80784 9.21008 4.17104 9.26128 4.48624 9.21008 4.22544 9.41968 4.19344 9.64208 3.86224 9.71888 3.61104 9.78448 3.55664 9.68208 3.48624 9.66928 3.52304 9.52528 3.53904 9.37808 3.51824 9.22448 3.49424 9.37808 3.42864 9.55408 3.34704 9.69648 3.35824 9.57648 3.41904 9.54608 3.32144 9.26128 3.31344 8.67888 3.47664 8.70448 3.68464 8.24208L3.68464 8.24208zM4.07664 8.29008C4.13104 7.71888 4.28304 7.77168 4.53584 7.36208 4.63504 7.49168 4.59184 8.14608 4.42224 8.42448 4.59184 8.31248 4.94224 8.42448 5.26864 8.41328 4.98704 8.58448 4.94224 8.80048 4.59184 8.82128 4.31664 8.84848 4.28304 8.74288 4.21104 8.73008 4.26384 8.58448 4.28304 8.44528 4.28304 8.29008 4.25264 8.45488 4.17104 8.59248 4.07024 8.73008 4.09264 8.61168 4.15344 8.58448 4.07664 8.29008L4.07664 8.29008zM4.77584 7.99568C4.75984 8.07408 4.73104 8.14608 4.71184 8.20048 4.70224 8.22128 4.69424 8.22128 4.69424 8.22128 4.73104 8.16688 4.75184 8.07408 4.77584 7.99568L4.77584 7.99568zM4.99664 7.54448C5.05264 6.98928 5.31664 7.02288 5.59184 6.62288 5.68464 6.75888 5.53904 7.42448 5.33584 7.68208 5.51664 7.58928 5.88144 7.71568 6.21104 7.73648 5.91504 7.87568 5.86544 8.08208 5.50064 8.09168 5.22704 8.11408 5.19184 7.98928 5.12144 7.96688 5.17904 7.84208 5.19344 7.69648 5.20944 7.54928 5.15984 7.70128 5.07184 7.84208 4.97904 7.96688 4.99664 7.85808 5.07184 7.82768 4.99664 7.54448L4.99664 7.54448zM6.47984 6.94608C6.45904 6.95568 6.44944 6.95568 6.43984 6.96528 6.44144 6.95568 6.44144 6.95568 6.44944 6.94608L6.47984 6.94608zM5.79504 6.88048C5.93584 6.37488 6.21104 6.43728 6.53264 6.11888 6.61584 6.26288 6.36624 6.87088 6.12944 7.07888 6.32144 7.03568 6.66864 7.21168 7.00464 7.28048 6.68784 7.36688 6.60784 7.54928 6.23344 7.50128 5.95984 7.47088 5.93584 7.35088 5.86544 7.31888 5.94864 7.20208 5.98544 7.07408 6.00624 6.93808 5.94864 7.07408 5.83024 7.18448 5.71184 7.28528 5.75344 7.19088 5.83024 7.18448 5.79504 6.88048L5.79504 6.88048zM7.29424 5.37168C7.62064 5.22128 7.70384 5.11888 7.70384 5.11888L6.65584 4.84848 7.73424 4.62608C7.73424 4.62608 7.70384 4.57008 7.07504 4.37328 6.95344 4.33328 7.05744 4.21008 6.53264 4.10288 6.72304 4.06448 6.66544 4.15408 7.02224 4.21008 7.26544 4.21328 7.45904 4.25808 7.80464 4.17808 7.80464 4.17808 7.16624 3.68528 6.74704 3.46128 6.74704 3.46128 7.44464 3.64848 7.99664 3.77808 7.99664 3.72368 7.55664 3.38608 7.26544 3.03408 7.19984 2.94768 7.17904 2.89488 7.10704 2.82608 7.41104 2.94448 7.41104 3.03408 7.56784 3.13008 7.75824 3.19888 8.11344 3.40208 8.24304 3.38608 7.92624 2.94448 7.49264 2.30768 7.49264 2.30768L8.58864 3.05488C8.54544 2.76848 8.34064 2.54768 8.32304 2.44048 8.18544 1.97488 8.23024 2.01488 8.12784 1.83888 8.42544 2.28688 8.54064 2.52848 8.98864 2.79888L8.79664 1.43568 9.45744 2.63568C9.49584 2.46928 9.44304 2.13328 9.43184 2.01488 9.49584 1.39408 9.50224 1.76048 9.42224 1.29968 9.49584 1.55728 9.49584 1.51568 9.53424 1.83088 9.65584 2.09488 9.74224 2.29328 9.89104 2.53808L10.16464 1.26768C10.16464 1.26768 10.37424 2.53808 10.34064 2.54768 10.48304 2.28528 10.46384 2.13328 10.59984 1.93008 10.80304 1.58928 10.86864 1.30448 10.86864 1.30448 10.76784 1.83088 10.78064 1.65648 10.73264 1.93008 10.74544 2.20688 10.72144 2.57968 10.80304 2.62928L11.59024 1.49648 11.27664 2.82608C11.36464 2.79728 11.68944 2.38608 11.97904 2.16528 12.06384 2.08048 12.21264 1.86288 12.21264 1.86288 12.03984 2.09648 11.97904 2.24848 11.88304 2.43088 11.75344 2.75088 11.78384 2.64048 11.63984 3.08848L12.76304 2.31408 11.99984 3.41968C11.99984 3.41968 12.06384 3.44688 12.56304 3.16688 12.86544 3.09168 13.10704 2.96528 13.26704 2.86288 12.89584 3.19088 12.72944 3.16688 12.24464 3.80528L13.51024 3.54448C13.51024 3.54448 12.46384 4.17328 12.40784 4.21008 12.46384 4.27888 12.90864 4.14928 13.23504 4.21008 13.52144 4.22448 13.52144 4.23088 13.80464 4.17808 13.47504 4.29488 13.38224 4.23088 13.01744 4.37328 12.86544 4.45968 12.54864 4.58128 12.51024 4.65488L13.78064 4.88528C13.78064 4.88528 12.52784 5.17168 12.31664 5.25328 12.24144 5.25328 12.16944 5.24688 12.08944 5.24688 12.03024 5.24688 11.97904 5.25328 11.92624 5.26288 11.97904 5.17168 11.99984 5.08208 11.99024 4.98608 11.56624 5.09328 11.16464 4.97488 10.83024 5.05808 10.86864 4.95888 10.86864 4.86768 10.84304 4.81328 10.31504 5.05008 9.87184 4.93808 9.44304 5.28528 9.45424 5.18608 9.43184 5.05808 9.37584 4.93808 8.92624 5.18608 8.52784 5.02768 8.20944 5.31408 8.22544 5.21488 8.22544 5.13808 8.19344 5.08208 7.71344 5.26288 7.33904 5.33008 6.98864 5.67728 6.90544 5.66288 6.79984 5.64688 6.70224 5.63888 6.69584 5.61648 6.67824 5.60688 6.66864 5.58928 6.65104 5.60688 6.63664 5.61648 6.62224 5.63728 6.55664 5.63088 6.48464 5.63728 6.39824 5.64688 6.85104 5.51248 7.10224 5.47888 7.29424 5.37168L7.29424 5.37168zM13.80464 5.67728L13.43344 5.67728C13.38704 5.63888 13.34704 5.59568 13.30704 5.55248 13.50544 5.59568 13.72784 5.64688 13.80464 5.67728L13.80464 5.67728zM14.08944 6.46128C14.03984 6.78928 14.14544 6.77808 14.18864 6.91248 14.14544 6.89968 14.12304 6.88848 14.10224 6.88848 13.98544 6.76688 13.87824 6.62288 13.83344 6.54128 13.88624 6.78928 13.88624 6.88048 13.98544 6.99888 13.95024 7.04848 13.88624 7.09488 13.72784 7.10288 13.28144 7.13968 13.20144 7.03568 13.02704 6.93808 13.32464 6.81168 13.46064 6.65488 13.75504 6.74768 13.75504 6.72688 13.74544 6.70608 13.72784 6.65648 13.72784 6.65648 13.73904 6.66608 13.74544 6.66608L13.72784 6.65648C13.68784 6.55888 13.60464 6.44528 13.47504 6.33328 13.33904 6.09968 13.24944 5.83408 13.28624 5.74928 13.63024 6.08048 13.95024 5.94288 14.08944 6.46128L14.08944 6.46128zM14.19664 6.05328C14.18864 6.09968 14.16944 6.16528 14.16144 6.22928 14.11024 6.14768 14.04784 6.08048 13.98544 6.03248 14.06704 6.03728 14.13584 6.05328 14.19664 6.05328L14.19664 6.05328zM14.39344 6.38128C14.66384 6.78928 14.94704 6.75888 14.99504 7.32688 14.92464 7.61488 14.99504 7.64048 15.02224 7.74928 14.91504 7.61488 14.83184 7.48688 14.78544 7.32688 14.79184 7.47568 14.81104 7.61488 14.87184 7.74928 14.79504 7.77168 14.76464 7.88848 14.47984 7.87568 14.11344 7.87568 14.06704 7.65968 13.75504 7.50608 14.10224 7.50128 14.47184 7.37808 14.64944 7.47088 14.43984 7.20208 14.29584 6.52848 14.39344 6.38128L14.39344 6.38128zM15.61264 8.40368C15.45104 8.13168 15.40304 7.49168 15.50064 7.36208 15.75504 7.78448 15.91184 7.69648 15.95664 8.25968 15.87984 8.56688 15.94704 8.60208 15.97104 8.71728 15.87344 8.57488 15.78704 8.42928 15.75504 8.25968 15.75504 8.42448 15.77104 8.56688 15.82704 8.70448 15.75504 8.73008 15.71184 8.84048 15.45104 8.81328 15.08944 8.78768 15.03824 8.56688 14.75344 8.40368 15.07664 8.40368 15.45104 8.29008 15.61264 8.40368L15.61264 8.40368zM16.38704 8.16688C16.58864 8.62448 16.75504 8.57488 16.73584 9.16048 16.63344 9.46448 16.69584 9.49008 16.71024 9.61488 16.62544 9.46448 16.55984 9.30448 16.53904 9.13808 16.52464 9.28208 16.52464 9.44368 16.56624 9.58928 16.49424 9.60848 16.44464 9.71248 16.18704 9.64208 15.83824 9.55408 15.81424 9.33328 15.55024 9.12368 15.87344 9.18128 16.23664 9.11248 16.39984 9.25008 16.24944 8.94768 16.27344 8.29008 16.38704 8.16688L16.38704 8.16688zM16.93264 10.19088C16.87184 10.11248 16.79824 10.06448 16.69584 10.01488 16.75984 10.03248 16.83344 10.07888 16.92144 10.14608 16.92464 10.15888 16.92464 10.17488 16.93264 10.19088L16.93264 10.19088zM17.26544 9.46448C17.40944 9.92368 17.69424 10.03408 17.56944 10.52048 17.39504 10.72368 17.45584 10.78288 17.44144 10.88368 17.38064 10.72848 17.33744 10.57328 17.34384 10.42448 17.29104 10.54768 17.26544 10.67888 17.29104 10.80528 17.20144 10.80208 17.12304 10.88368 16.84944 10.73648 16.46704 10.54768 16.47984 10.35408 16.22544 10.08848 16.56624 10.23888 16.99024 10.30448 17.15024 10.46288 17.03344 10.14608 17.12144 9.52688 17.26544 9.46448L17.26544 9.46448zM17.89424 10.44528C17.94384 10.91888 18.22064 11.05968 17.98864 11.52528 17.77424 11.69968 17.82864 11.76368 17.79984 11.86448 17.76624 11.70448 17.75504 11.54608 17.78544 11.39568 17.71984 11.51248 17.66544 11.62928 17.66064 11.76528 17.58064 11.74768 17.48304 11.81328 17.23504 11.62928 16.90064 11.41328 16.95504 11.22448 16.75504 10.93328 17.05744 11.10768 17.46384 11.23568 17.59344 11.41328 17.53904 11.08528 17.73424 10.48848 17.89424 10.44528L17.89424 10.44528zM18.25904 12.76528C18.19664 12.44048 18.38704 11.84208 18.54704 11.77968 18.61264 12.24208 18.87824 12.38928 18.65744 12.85168 18.44944 13.04208 18.50224 13.10288 18.46544 13.20208 18.43824 13.04208 18.42384 12.88368 18.45744 12.73168 18.38704 12.85168 18.33584 12.97808 18.33264 13.11408 18.23344 13.10288 18.15664 13.17488 17.90064 13.00368 17.55664 12.79248 17.61904 12.59408 17.40944 12.30128 17.72464 12.48848 18.12304 12.58928 18.25904 12.76528L18.25904 12.76528zM18.99344 12.81008C18.96464 13.27088 19.20464 13.44688 18.89584 13.88208 18.65424 14.03728 18.70064 14.11568 18.64144 14.19728 18.64144 14.03728 18.65424 13.88208 18.71664 13.73808 18.62864 13.85008 18.55984 13.96048 18.52144 14.09168 18.44944 14.07408 18.34864 14.13168 18.12304 13.93168 17.82864 13.67248 17.92944 13.49648 17.78384 13.17968 18.04944 13.39248 18.42384 13.55568 18.52144 13.73808 18.53264 13.41328 18.83184 12.83728 18.99344 12.81008L18.99344 12.81008zM18.11184 14.24688C18.23344 14.34768 18.34224 14.41488 18.42384 14.48688 18.33264 14.43248 18.22864 14.38448 18.13904 14.34768 18.12304 14.30288 18.12304 14.28048 18.11184 14.24688L18.11184 14.24688zM13.37104 20.46128C12.62544 20.31728 11.63984 19.47408 10.52944 19.53648L10.52944 17.63888 18.07344 17.63888C18.08144 17.89008 17.94384 19.90928 17.53904 21.27888 16.02224 21.25328 14.60144 20.41968 13.37104 20.46128L13.37104 20.46128zM17.36624 11.99408C17.44624 12.05168 17.50864 12.08208 17.57264 12.12208 17.50864 12.09968 17.44944 12.07408 17.39504 12.05808 17.38064 12.04048 17.38064 12.01648 17.36624 11.99408L17.36624 11.99408zM14.57264 8.14128C14.61744 8.14608 14.65904 8.14128 14.69904 8.14128 14.65904 8.14608 14.63184 8.16688 14.60144 8.16688 14.59184 8.16688 14.57904 8.14608 14.57264 8.14128L14.57264 8.14128zM9.09744 6.55568C8.76784 6.55568 8.62064 6.72048 8.30544 6.55568 8.05904 6.45008 8.08464 6.33808 8.03024 6.28528 8.14704 6.20848 8.24304 6.08048 8.30704 5.95408 8.19504 6.07088 8.05904 6.15888 7.90224 6.21808 7.97904 6.13808 8.05904 6.14768 8.13904 5.85648 8.46064 5.38608 8.69104 5.52528 9.11344 5.29488 9.12304 5.45008 8.67664 5.97968 8.36784 6.12528 8.56784 6.13808 8.82864 6.38928 9.09744 6.55568L9.09744 6.55568zM9.77584 5.95408C9.97584 5.96688 10.21424 6.27248 10.48304 6.45008 10.15664 6.42768 10.00944 6.55888 9.70224 6.38128 9.46064 6.24848 9.48464 6.13808 9.43504 6.07088 9.55824 5.99088 9.64464 5.89328 9.72624 5.77008 9.61104 5.87888 9.46704 5.94288 9.31024 5.99088 9.39184 5.90928 9.46704 5.92528 9.55824 5.64688 9.89424 5.21488 10.04944 5.38608 10.48304 5.18608 10.50224 5.35248 10.08304 5.83408 9.77584 5.95408L9.77584 5.95408zM10.76784 5.86768C10.95504 5.92528 11.16144 6.27248 11.39824 6.50768 11.07824 6.40848 10.90864 6.52848 10.62064 6.27248 10.41904 6.09968 10.44944 5.99088 10.41904 5.90928 10.55024 5.86768 10.64144 5.78608 10.74544 5.67728 10.60944 5.75728 10.45264 5.79888 10.30064 5.81488 10.38864 5.75728 10.45264 5.78608 10.58704 5.52528 10.97424 5.15728 11.17424 5.36048 11.63184 5.26288 11.61104 5.43408 11.09104 5.81328 10.76784 5.86768L10.76784 5.86768zM11.36464 5.94288C11.54224 5.96208 11.70864 5.90928 11.86704 5.83408 11.75184 5.85648 11.62064 5.85648 11.50064 5.84208 11.73264 5.69808 11.89104 5.51248 12.20304 5.52208 12.62544 5.52208 12.62544 5.77008 12.87984 5.63888 12.90864 5.86768 11.67984 6.41648 11.36464 5.94288L11.36464 5.94288zM12.58064 6.43088C12.45104 6.43088 12.32304 6.38928 12.19504 6.33808 12.37904 6.28848 12.56304 6.20848 12.71504 6.11888 13.03824 6.17808 13.31504 6.33808 13.33904 6.62288 13.06544 6.54128 13.00944 6.72048 12.59984 6.78928 12.22384 6.86608 12.03024 6.65648 11.68944 6.57808 11.59024 6.50768 11.55344 6.43088 11.55344 6.37488 11.71984 6.40848 11.89104 6.40848 12.06384 6.37968L12.05104 6.42768C12.22384 6.49328 12.40784 6.47568 12.58064 6.43088L12.58064 6.43088zM6.78864 6.62288C6.85584 6.54128 6.94064 6.54128 6.99504 6.24208 7.18544 5.63888 7.51504 5.71728 7.92784 5.43408 8.06864 5.61648 7.56784 6.28528 7.25104 6.49008 7.44464 6.46128 7.72784 6.70608 8.00944 6.81168 7.67504 6.86448 7.53744 7.03568 7.20464 6.93328 6.95344 6.84528 6.97584 6.72688 6.91984 6.67088 7.03184 6.57808 7.10704 6.45008 7.18864 6.31408 7.07664 6.44528 6.94064 6.54448 6.78864 6.62288L6.78864 6.62288zM2.09584 17.63888L9.66544 17.63888 9.66544 19.86768C9.33744 19.79568 8.73744 19.78928 8.22544 19.86768 6.83184 20.12048 7.29424 20.80368 2.49264 20.87408 2.06064 19.42928 2.09584 17.63888 2.09584 17.63888L2.09584 17.63888zM2.02384 14.33168C1.93904 14.37168 1.84304 14.41488 1.75344 14.46608 1.81904 14.39408 1.91664 14.34768 2.04624 14.23728 2.04144 14.28048 2.03344 14.30288 2.02384 14.33168L2.02384 14.33168zM1.93904 22.11568C1.92784 22.09008 1.92304 22.09008 1.91664 22.07728 1.86384 21.68368 1.99664 21.65808 2.17264 21.11728 2.19504 21.19408 2.21104 21.25328 2.23344 21.33168 2.07824 21.57328 1.89744 21.86768 1.93904 22.11568L1.93904 22.11568zM2.87184 24.25008C2.78544 24.15888 2.65904 24.07888 2.50864 24.01488 2.64304 24.05488 2.75824 24.11088 2.84944 24.15888 2.85424 24.17968 2.85904 24.21808 2.87184 24.25008L2.87184 24.25008zM3.05744 23.50768C3.02544 23.56688 2.99344 23.62928 2.96304 23.68528 2.98384 23.62928 3.00784 23.53488 3.02544 23.43888 3.03824 23.47408 3.05264 23.47408 3.05744 23.50768L3.05744 23.50768zM7.20464 22.83568C7.10704 22.87568 6.94064 22.69648 7.03184 22.65328L7.13744 22.45168C7.31024 22.38448 7.42384 22.30128 7.48784 22.38448 7.53744 22.49328 7.29744 22.80368 7.20464 22.83568L7.20464 22.83568zM9.43184 23.37488C9.43184 23.37488 9.69104 23.09648 9.80784 23.48528 9.84944 23.64208 9.56464 23.81968 9.30864 23.89168 9.15824 23.81968 8.85584 23.82928 9.43184 23.37488L9.43184 23.37488zM7.85904 23.27408C7.74384 23.30288 7.65904 23.31888 7.59504 23.21968 7.54704 23.09648 7.74384 22.88048 7.82224 22.79248 7.88784 22.71888 7.95664 22.69968 7.97264 22.69648L8.08944 22.58448C8.33744 22.55088 8.30704 22.58448 8.35504 22.69648 8.40624 22.80368 7.97264 23.26448 7.85904 23.27408L7.85904 23.27408zM8.43024 23.33328C8.23664 23.41648 8.51344 23.21968 8.58064 23.17488L8.66224 23.07088C8.82864 22.91728 9.05264 22.71888 9.20304 23.02288 9.29424 23.21968 8.63984 23.58928 8.54064 23.62128 8.42544 23.65648 8.40944 23.65648 8.33744 23.55888 8.27184 23.45808 8.32304 23.36048 8.43024 23.33328L8.43024 23.33328zM10.95504 21.91568C11.34864 22.35408 11.70384 22.44048 11.94224 22.97008 11.86704 23.12528 11.71184 23.16048 11.55344 23.07088 10.96464 22.40848 10.41904 22.31088 10.64144 22.00208 10.52944 21.98768 10.41904 22.14288 10.44944 22.25168 10.55024 22.71888 11.08304 22.90288 11.23024 23.30288 11.16144 23.62928 10.52944 23.34448 10.23024 22.52208L10.21424 22.48368C10.10224 22.71888 9.99824 22.80368 10.41904 23.30288 10.51344 23.48528 10.57744 23.69488 10.25424 23.65648 10.31504 23.70608 10.10224 23.63408 10.19824 23.65648L10.25424 23.65648C10.24944 23.64208 10.23024 23.63408 10.19344 23.62128 10.34064 22.80368 9.59024 22.97008 9.61904 22.97008 9.72624 22.67728 9.30864 22.38448 8.88464 22.57328 8.94384 22.35408 8.49424 22.01328 7.87184 22.25168 7.78224 22.03568 7.22864 21.81328 6.69584 22.47248 5.75344 22.55728 4.20784 23.39088 3.27504 22.97008 3.23664 23.00688 2.68624 21.44368 2.66544 21.40528 3.75664 21.29328 6.22384 21.13008 7.10224 20.76208 7.78864 20.31408 9.07664 20.09328 9.37584 20.25808 9.35664 20.49328 8.79984 20.93968 9.08784 21.17008 9.56784 21.62928 10.34064 21.41328 10.86864 21.10608 11.41104 21.65808 12.28784 21.73488 12.63024 22.48368L12.52784 22.71888C12.34384 22.85008 12.32624 22.85008 12.11824 22.55088 11.59184 21.85648 11.09904 22.01008 11.01264 21.53328 10.83024 21.59568 10.95504 21.80208 10.95504 21.91568L10.95504 21.91568zM16.70224 23.34448C16.70224 23.34448 15.26384 23.57488 13.49904 22.40848 13.63824 22.23408 13.71344 21.75728 13.63824 21.47888 13.59184 21.25168 13.59184 21.44368 13.52944 21.58128 13.36144 21.99088 13.23504 22.03568 13.05424 22.17648 12.52784 21.64528 12.46224 21.64048 11.78384 21.25168 11.30224 20.99248 11.26544 20.81968 10.99344 20.65168 10.52944 20.87408 9.79344 21.29328 9.43184 21.03888 9.12304 20.88848 9.78224 20.71248 10.04944 20.30128 10.27504 19.99088 10.55024 19.89648 10.93104 19.98448 11.64944 20.14128 12.01584 20.40368 13.08624 20.86288 14.39344 20.95888 15.36624 21.35568 16.69584 21.64048 16.91504 21.70448 17.24624 21.73488 17.39824 21.74768 17.22544 22.28048 17.05744 22.65328 16.70224 23.34448L16.70224 23.34448zM17.79344 24.14608C17.55664 24.21008 17.33904 24.32688 17.20144 24.46288 17.21424 24.43728 17.21424 24.42128 17.22544 24.40048 17.37584 24.34768 17.48304 24.16528 17.79344 24.14608L17.79344 24.14608zM17.22544 24.27248C17.20944 24.08528 17.11344 23.89168 17.01904 23.70608 17.04784 23.65648 17.07344 23.58928 17.11344 23.53168 17.17584 23.92528 17.26544 24.03088 17.22544 24.27248L17.22544 24.27248zM17.91024 21.44368C17.92944 21.37328 17.96144 21.28368 17.97424 21.19408 17.97424 21.21968 17.97904 21.23088 17.98864 21.24528 18.16784 21.81328 18.31664 21.84048 18.26224 22.22768 18.25904 22.24848 18.23344 22.26128 18.23344 22.27888 18.27504 22.01328 18.07344 21.70448 17.91024 21.44368L17.91024 21.44368zM18.89584 15.15248C18.90224 14.82928 19.21424 14.23248 19.37744 14.19728 19.33904 14.66288 19.57904 14.82928 19.27344 15.28048 19.02544 15.45808 19.07184 15.51888 19.00944 15.61648 19.00944 15.45808 19.03344 15.29008 19.09744 15.15248 18.99344 15.27088 18.92944 15.37168 18.89584 15.51888 18.81744 15.48208 18.71664 15.55568 18.50544 15.34928 18.21264 15.11568 18.30544 14.93488 18.15664 14.62288 18.43344 14.82928 18.80304 14.96368 18.89584 15.15248L18.89584 15.15248zM19.60944 15.27088C19.49104 15.74288 19.68304 15.93648 19.29744 16.34288 19.02864 16.47568 19.06064 16.55408 18.98704 16.64208 19.01584 16.47568 19.06544 16.31728 19.14864 16.19568 19.04464 16.28208 18.95184 16.39248 18.89264 16.52848 18.82384 16.48688 18.70864 16.53168 18.53744 16.31728 18.30544 16.02928 18.43344 15.86448 18.34224 15.53168 18.57104 15.77008 18.91024 15.96208 18.96464 16.15568 19.03344 15.82928 19.44144 15.28048 19.60944 15.27088L19.60944 15.27088zM18.45744 16.62448C18.62864 16.82288 18.73584 16.87888 18.80304 17.05648 18.70864 16.96048 18.58704 16.86128 18.46544 16.77488 18.46544 16.73168 18.45744 16.68048 18.45744 16.62448L18.45744 16.62448zM18.96464 17.63888C19.03344 17.29648 19.44144 16.71728 19.60944 16.69328 19.48144 17.17968 19.67664 17.37008 19.29424 17.80208 19.02544 17.95088 19.04464 18.02448 18.98704 18.12848 19.00944 17.95088 19.06064 17.79408 19.14864 17.64368 19.04304 17.75568 18.94704 17.87088 18.89264 18.00208 18.82384 17.97488 18.70864 18.02768 18.53904 17.81328 18.32464 17.53328 18.43824 17.34448 18.35824 17.02768 18.57424 17.24848 18.91024 17.44048 18.96464 17.63888L18.96464 17.63888zM19.73744 18.02448C19.52944 18.49168 19.68304 18.71088 19.24464 19.10448 18.96464 19.22288 18.97104 19.29168 18.89264 19.38608 18.95184 19.22288 19.02544 19.06128 19.13424 18.93328 19.00944 19.02608 18.89584 19.13168 18.81744 19.25648 18.75664 19.22128 18.64144 19.25328 18.52144 19.01968 18.34864 18.71088 18.50224 18.53328 18.47664 18.19568 18.64464 18.45488 18.92944 18.68208 18.95184 18.89168 19.07504 18.56048 19.57904 18.02768 19.73744 18.02448L19.73744 18.02448zM18.83184 19.74128C18.90224 19.62768 19.00944 19.51088 19.21424 19.39248 19.04464 19.53648 18.91024 19.70128 18.84304 19.88208 18.84304 19.82928 18.83824 19.78448 18.83184 19.74128L18.83184 19.74128zM19.55024 19.51088C19.39024 19.94928 19.56464 20.21648 19.16944 20.53808 18.90224 20.58928 18.92304 20.66928 18.84304 20.75088 18.89264 20.58928 18.94704 20.43248 19.04304 20.32688 18.92944 20.39408 18.83184 20.47888 18.77104 20.59728 18.70864 20.53808 18.59824 20.54928 18.45744 20.27408 18.26224 19.90128 18.39824 19.75728 18.34864 19.38608 18.53744 19.70128 18.83184 20.01488 18.87184 20.23408 18.96464 19.91248 19.39024 19.47408 19.55024 19.51088L19.55024 19.51088zM12.5260429 31.5584195C12.5262154 31.5581997 12.5263878 31.5579799 12.52656 31.55776 12.39536 31.53056 11.75216 31.38496 11.36816 31.15936 11.1844264 31.0444405 11.0205222 30.8957814 10.8933769 30.7636621 10.7249901 30.5882168 10.62112 30.44176 10.62112 30.44176 10.62112 30.44176 10.55712 30.64176 10.60672 30.79376 10.60672 30.79376 10.6183556 30.8163237 10.6398493 30.8535042 10.715204 30.9848326 10.91129 31.2958346 11.15376 31.44256 11.5845223 31.7090852 12.0204735 31.7836221 12.1964674 31.8075041 12.2160012 31.8103589 12.2323392 31.8126429 12.24512 31.81456 12.09632 31.92336 11.93952 32.00976 11.78432 32.00016 10.78112 31.96336 10.38912 30.84656 10.38912 30.84656 10.38912 30.84656 10.27392 30.93776 10.10912 30.95536L10.10112 30.95536C9.93792 30.93776 9.81472 30.84656 9.81472 30.84656 9.81472 30.84656 9.43232 31.96336 8.42592 32.00016 8.27232 32.00976 8.10432 31.92336 7.95232 31.81456 8.06912 31.79536 8.56352 31.75216 9.05312 31.44176 9.36832 31.25296 9.59872 30.79376 9.59872 30.79376 9.65472 30.64176 9.57792 30.44176 9.57792 30.44176 9.57792 30.44176 9.25472 30.89296 8.83072 31.16016 8.44672 31.38416 7.78752 31.53456 7.67552 31.55856 7.49472 31.38416 7.36992 31.20816 7.36992 31.20816 7.36992 31.20816 7.96192 31.12816 8.54592 30.95536 9.12352 30.78256 9.36992 30.41456 9.42272 30.30576 9.47552 30.19376 9.36992 29.94736 9.29312 29.86416 9.26823614 29.8397641 9.16092236 29.8167072 9.02467406 29.7733463 7.72019675 29.5506092 6.05487895 28.7438473 5.42224 28.05328 4.02544 28.06128 3.95984 27.28048 3.32144 26.93488 3.33904 26.89648 3.37424 26.88048 3.41904 26.85168 2.85904 26.63248 3.25264 26.45968 2.65264 25.97968 2.72464 25.92528 2.83344 25.88528 2.97584 25.88528 2.45904 25.70128 2.42384 25.32368 1.94384 24.98288 2.00944 24.90768 2.12624 24.86448 2.26544 24.85488 1.96464 24.60848 1.84304 24.28848 1.51824 23.95408 1.58544 23.89808 1.69264 23.87248 1.81904 23.87248 1.35664 23.62448 1.34544 23.19888.93424 22.80368.99344 22.74608 1.06384 22.73168 1.13744 22.71888.94864 22.41008.93424 22.07408.68944 21.68368.75984 21.62928.87664 21.61968 1.00784 21.62928.47344 21.29328.58704 20.87408.25104 20.33008.31984 20.30128.40944 20.27408.50704 20.27408.34224 19.94928.39664 19.60688.22704 19.15088.35824 19.09328.55504 19.12208.75024 19.22288.13904 18.66288.31184 18.30768-.00016 17.64368.17904 17.60688.39184 17.66928.58384 17.78448.23824 17.44048.35344 16.89808.17264 16.31728.50704 16.29328 1.12464 16.82608 1.25904 17.24368 1.26224 17.19408 1.27024 17.15728 1.29424 17.11568 1.19184 16.96368 1.16784 16.71728.79184 16.52688.14544 16.14768.35824 15.60208.17264 14.93488.27344 14.93488.39664 14.96048.52304 15.03408.29744 14.52688.66864 14.55408.59984 13.81168.93424 13.81168 1.35664 14.39408 1.39664 14.81168 1.41904 14.74768 1.44624 14.70768 1.50224 14.64528 1.44624 14.49008 1.43504 14.29808 1.13264 14.09168.50864 13.41328 1.00784 13.13648.93424 12.46448 1.00944 12.46448 1.07664 12.48848 1.16784 12.53648 1.13264 12.13328 1.36944 11.90768 1.41424 11.41808 1.75344 11.45168 2.11344 12.08208 2.07824 12.48848 2.09584 12.45168 2.13264 12.41008 2.16464 12.38928 2.13584 12.21328 2.17264 12.01488 1.90544 11.76528 1.41424 10.98448 1.93904 10.75568 1.99024 10.09648 2.07344 10.10288 2.15184 10.14608 2.23664 10.21328 2.27824 9.81488 2.49584 9.50608 2.71184 9.13808 2.95184 9.18128 3.11824 9.52688 3.15824 9.87568 3.18064 9.74768 3.18064 9.59888 3.10384 9.37808 2.96624 8.49808 3.43344 8.35728 3.71184 7.69328 3.79344 7.74128 3.85744 7.85808 3.89904 8.01168 4.01744 7.44048 4.33584 7.35888 4.63024 6.83568 4.70704 6.91248 4.76624 7.04848 4.79824 7.21488 4.92944 6.60688 5.35024 6.55568 5.66384 6.08048 5.73584 6.13808 5.78064 6.24848 5.80624 6.38128 5.93104 6.21648 6.07504 6.09968 6.24304 5.96208 5.98544 6.05328 5.75344 6.13808 5.30864 5.83408 5.13264 5.73968 5.64784 6.05328 6.15344 5.47248 6.38704 5.26608 6.71824 5.41008 6.91984 5.21488L5.22064 4.89648 6.94064 4.55408C6.63984 4.41648 6.45904 4.28528 6.21104 4.29488 5.87024 4.26928 5.64784 4.37328 5.30864 3.94288 5.35824 3.94288 5.62704 4.20688 6.18224 3.92528 6.48464 3.75728 6.79984 4.09488 7.05744 3.95408L5.60144 3.02768 7.29264 3.38608C7.25104 3.31568 7.03184 3.08848 6.97584 3.02768 6.78224 2.72368 6.25424 2.94448 6.05424 2.20368 6.02544 2.13328 6.25424 2.50448 6.66864 2.50448 7.29744 2.48208 7.31024 2.92048 7.64304 2.87568L6.65584 1.43568 8.10704 2.40368C8.05904 2.22448 7.98384 1.93008 7.84624 1.76048 7.48784 1.43568 7.34704 1.20688 7.42384.81808 7.60304 1.39408 7.95344 1.34448 8.19344 1.52848 8.36784 1.68048 8.42544 2.04688 8.63984 2.06768L8.29104.36048 9.24624 1.80208C9.22064 1.57488 9.31024 1.26768 9.26384 1.19248 8.96144.49328 9.09744.33648 9.21104.08368 9.22064.78448 9.49584.72368 9.65584 1.04368 9.76784 1.31888 9.63664 1.41968 9.84944 1.69328L10.19344.00048 10.45264 1.69328C10.53744 1.55728 10.64144 1.38448 10.70704 1.24048 10.86064.89648 10.59984.43408 11.15504.09968 10.94064.48208 11.04944.78768 11.15504 1.00688 11.17424 1.14928 11.17424 1.29168 11.04304 1.58928 11.02224 1.74448 11.09904 1.80208 11.09904 1.80208L12.07664.36048C12.07664.36048 11.73264 2.08048 11.73584 2.06768 11.90704 1.86288 12.13904 1.79088 12.21264 1.62608 12.36144 1.19248 12.54864.91088 12.93904.81808 12.62544 1.13328 12.59984 1.49648 12.62544 1.62608 12.56624 2.04688 12.30544 1.99248 12.24144 2.40368 12.69904 2.13328 13.69424 1.43568 13.69424 1.43568 13.69424 1.43568 12.71504 2.86448 12.72944 2.87568 12.89584 2.84368 13.18864 2.71728 13.31504 2.66608 13.66384 2.30768 13.99664 2.09648 14.30864 2.19088 14.01104 2.33008 13.81584 2.54768 13.76784 2.66608 13.60464 3.17808 13.33904 2.97648 13.06864 3.39728L14.78384 3.03888C14.78384 3.05968 13.35184 3.95728 13.35184 3.95728 13.74544 3.95088 13.85584 4.07568 14.10224 3.92528 14.45424 3.80528 14.64944 3.72368 15.04624 3.95408 14.56944 3.90928 14.33104 4.16848 14.26064 4.25968 14.09264 4.41648 13.88144 4.44528 13.72624 4.43088 13.52944 4.45328 13.43344 4.56048 13.43344 4.56048 13.43344 4.56048 15.12624 4.88528 15.14384 4.89328L13.40784 5.25328C13.72464 5.45808 13.89744 5.34288 14.09264 5.43408 14.26064 5.51248 14.37744 5.70768 14.55184 5.78608 14.71824 5.86768 15.02224 5.84208 15.02224 5.84208 14.81104 5.99088 14.64144 6.03728 14.47824 6.05328 14.81104 6.47568 15.16144 6.69488 15.23824 7.40048 15.18064 7.65008 15.21264 7.80848 15.26384 7.94768 15.19024 7.53968 15.28464 6.96528 15.48944 6.78928 15.80304 7.34128 16.04944 7.49168 16.15024 8.08208 16.21584 7.85808 16.30384 7.64688 16.42064 7.57328 16.70704 8.25968 17.07184 8.34128 17.05584 9.22288 16.99664 9.39248 16.97264 9.55408 16.97104 9.69488 17.05584 9.37808 17.26544 9.07408 17.48304 9.03728 17.62384 9.52688 17.86544 9.73808 17.87344 10.17488 17.97424 10.08848 18.08304 10.02128 18.18704 10.01968 18.23344 10.69008 18.56304 11.02128 18.23344 11.69968 17.98864 11.91248 17.96144 12.13328 17.91984 12.29008 17.97904 12.34288 18.03984 12.39568 18.08144 12.46448 18.03344 12.04048 18.34864 11.39408 18.70064 11.35408 18.73584 11.79888 18.98704 12.01648 19.01584 12.36368 19.07504 12.32688 19.13424 12.30928 19.20464 12.30928 19.13424 12.99728 19.63824 13.39248 19.04144 14.09168 18.74864 14.30288 18.72144 14.49648 18.66864 14.66288 18.72144 14.71248 18.75664 14.77008 18.77584 14.82928 18.81744 14.40688 19.23664 13.77968 19.58064 13.77968 19.52944 14.30288 19.80784 14.61488 19.67344 15.04368 19.79664 14.97808 19.92464 14.94128 20.01904 14.95888 19.82224 15.63248 20.00784 16.24048 19.39664 16.57328 19.00944 16.77488 18.98704 17.01808 18.88784 17.18608 18.89584 17.22128 18.91024 17.26288 18.91824 17.30928 19.05744 16.89808 19.67664 16.34288 20.01904 16.36848 19.81904 17.05968 20.09104 17.51888 19.38064 18.03568 19.11984 18.19568 19.03344 18.36048 18.96464 18.56048 19.16944 18.15568 19.87824 17.65808 20.19824 17.71888 19.93264 18.30928 20.02704 18.78768 19.55024 19.17968 19.68304 19.12208 19.82224 19.09328 19.92464 19.15088 19.56464 20.10608 20.15024 19.94288 19.68464 20.40368 19.79184 20.40368 19.87824 20.41968 19.93904 20.47088 19.61904 20.99248 19.69744 21.53008 19.11344 21.79088 19.27344 21.76208 19.40784 21.78128 19.50864 21.84048 19.22384 22.26768 19.32944 22.65328 18.97104 22.94928 19.11344 22.96368 19.21424 22.97808 19.24464 22.97808 18.83184 23.40688 18.89264 23.85968 18.23344 24.07088 18.38384 24.07088 18.50544 24.09968 18.58064 24.15888 18.23344 24.53008 18.25904 24.88208 17.87664 25.13168 17.91024 25.14928 17.95504 25.17328 17.97424 25.20368 17.39824 25.62768 17.80624 25.86768 17.20944 26.07568 17.34384 26.08048 17.45744 26.11088 17.52464 26.17008 17.12144 26.48528 16.93264 26.79408 16.55984 27.01488 16.63504 27.04848 16.70224 27.07888 16.73584 27.13168 16.09744 27.46768 15.75504 28.15088 14.86864 28.07728 14.1172578 28.7171168 11.9122847 29.6674731 11.0715803 29.8084674 10.9937557 29.8311332 10.9374888 29.8473279 10.92032 29.86416 10.82912 29.94736 10.73152 30.19376 10.78112 30.30576 10.82912 30.41456 11.08672 30.78256 11.66432 30.95536 12.24192 31.12816 12.83552 31.20816 12.83552 31.20816 12.83552 31.20816 12.71232 31.38416 12.52672 31.55856 12.5264958 31.5585135 12.5262701 31.5584667 12.5260429 31.5584195zM10.5334177 17.19408L18.0592 17.19408C17.8944 11.47568 14.3936 6.91248 10.0832 6.91248 5.7728 6.91248 2.2656 11.47568 2.1008 17.19408L9.66528 17.19408 9.66528 14.9696C9.66528 14.9696 9.25248 15.0704 8.63328 15.008 8.00928 14.9344 7.46688 14.5552 7.33248 14.2464 7.22048 13.9312 7.41568 13.016 7.72768 12.432 8.03008 11.8496 8.32288 11.5696 8.43008 11.4192 8.54048 11.2816 8.85248 11.0112 8.85248 11.0112 8.85248 11.0112 8.11328 11.0224 8.22368 10.3552 8.30528 9.8352 8.85248 9.0736 10.01408 9.056 11.16608 9.0368 11.68448 9.608 12.03008 10.0976 12.38528 10.592 12.53568 12.3024 12.53568 12.3024 12.56448 12.528 12.84128 12.7312 12.84128 12.7312 12.88448 12.92 13.14528 13.9312 13.08608 14.264 12.99328 14.7632 12.43008 14.9776 12.43008 14.9776 12.08928 15.0352 10.53728 15.008 10.53728 15.008L10.5334177 17.19408zM8.8528 13.32192C9.4768 13.32192 10.0256 13.84992 10.4768 14.18752 11.3648 14.49632 11.9984 13.64832 12.5856 13.64832L12.4624 13.20992C12.1072 13.31712 11.4736 13.61952 11.1312 13.56192 10.7632 13.51232 10.4176 13.17952 10.2144 13.10912L10.92 13.24992C10.992 13.30112 11.3648 13.35072 12.3408 12.82432L12.3504 12.81792 12.3424 12.80032C12.0624 12.68832 12.0528 12.53632 12.0624 12.35392 11.72 12.45152 11.2528 12.59712 10.9312 12.58912 10.72 12.57792 10.536 12.53632 10.536 12.53632 10.6 12.58912 11.0912 12.39552 12.04 11.98272 12.016 11.94112 11.9904 11.89792 11.9456 11.85952L11.9456 11.55552C11.8576 11.57152 11.7408 11.60032 11.5328 11.59552 11.3808 11.59392 11.2528 11.56512 11.1744 11.55552 11.2288 11.52512 11.368 11.41952 11.9152 11.17472 11.8496 10.68192 11.6496 10.19072 11.2112 9.88832 10.8432 9.66912 10.4832 9.48992 9.9904 9.51392 9.2 9.56512 8.6224 10.03392 8.6688 10.46272 8.9376 10.88512 9.8912 10.70112 10.2544 10.64832L10.2736 10.73952C9.8672 10.93312 9.0624 11.36992 8.7264 11.74912 7.8992 12.74592 7.8048 13.59392 7.8048 13.59392 8.2096 13.57632 8.3968 13.33312 8.8528 13.32192zM9.66608 14.52656C9.63088 14.37136 9.11408 13.60976 8.52848 13.84976 8.00848 14.07376 7.82928 14.03216 7.79568 14.04816 7.71408 14.13456 8.29168 14.45136 8.50608 14.49616 8.53168 14.52656 9.21648 14.52176 9.66608 14.52656zM12.66592 14.07344C12.66592 14.07344 12.77472 13.93104 11.84192 14.39344 11.68992 14.46224 11.56512 14.53904 11.32512 14.53904 11.64992 14.53904 12.21152 14.51344 12.33472 14.52624 12.49952 14.49744 12.63872 14.22704 12.66592 14.07344zM11.86688 4.00624L11.99968 4.01264C11.99968 4.01264 11.91968 3.42064 10.86048 3.48944L10.60928 3.48944C10.60928 3.50224 10.49568 3.82064 10.49568 3.82064L11.21568 3.77104C11.21568 3.77104 11.71168 3.72304 11.86688 4.00624zM10.70304 4.40624C10.70624 4.37904 10.86944 4.22544 10.86944 4.22544 10.86944 4.22544 10.89344 4.23184 10.90144 4.23184 10.89344 4.25904 10.88224 4.27664 10.88224 4.30704 10.88224 4.42224 10.94144 4.51824 11.05024 4.56144 11.07904 4.57104 11.23424 4.56144 11.23424 4.56144 11.33824 4.51824 11.40064 4.41744 11.40064 4.30704 11.40064 4.27664 11.38944 4.25904 11.38144 4.23504 11.47904 4.25744 11.59104 4.30704 11.64384 4.41104L11.86624 4.42224C11.86624 4.42224 11.73984 3.86224 10.73184 4.01424 10.73184 4.01424 10.48384 4.37264 10.48384 4.39984 10.47584 4.41744 10.70304 4.41744 10.70304 4.40624zM8.41008 4.40624L8.64048 4.37904C8.69968 4.26864 8.80688 4.22544 8.89488 4.20944 8.88368 4.23504 8.87568 4.25744 8.87568 4.27664 8.87568 4.39984 8.93808 4.49264 9.04368 4.53424 9.04368 4.53424 9.20048 4.55504 9.22448 4.53424 9.33328 4.49264 9.40688 4.39984 9.40688 4.27664 9.40688 4.25904 9.38768 4.25904 9.38768 4.24464 9.41968 4.23504 9.43408 4.23504 9.43408 4.23504 9.43408 4.23504 9.57808 4.37264 9.57808 4.37904 9.57808 4.39984 9.81488 4.39984 9.80848 4.37264 9.80528 4.35024 9.56368 3.99984 9.56368 3.99984 8.54608 3.81904 8.41008 4.40624 8.41008 4.40624zM9.01824 3.75776L9.76704 3.80256C9.76704 3.80256 9.68064 3.50176 9.68064 3.48896L9.48704 3.48896C8.35584 3.42016 8.25664 3.98496 8.25664 3.98496L8.39584 3.98176C8.54784 3.69056 9.01824 3.75776 9.01824 3.75776zM9.35616 28.56256C9.35616 28.56256 8.66176 28.42336 8.62976 28.92896 8.61216 29.27616 9.13696 29.45056 9.13696 29.45056 9.13696 29.45056 9.04416 29.20736 9.06816 28.98816 9.09696 28.76736 9.35616 28.56256 9.35616 28.56256zM10.86096 28.56256C10.86096 28.56256 11.10576 28.76736 11.12976 28.98816 11.16496 29.20736 11.07696 29.45056 11.07696 29.45056 11.07696 29.45056 11.60336 29.27616 11.57776 28.92896 11.54256 28.42336 10.86096 28.56256 10.86096 28.56256zM10.1432 28.74688L10.06 28.74688C9.1752 28.73728 9.6792 29.55968 9.6792 29.55968 9.6792 29.55968 9.8328 29.44608 10.052 29.44608L10.1512 29.44608C10.3736 29.44928 10.5288 29.55968 10.5288 29.55968 10.5288 29.55968 11.0344 28.73728 10.1432 28.74688zM10.1496 29.83744L10.1 29.83744 10.0936 29.83744 10.06 29.83744C9.8136 29.83744 9.8328 29.96064 9.8328 30.07424 9.8328 30.19424 9.892 30.68224 10.0824 30.68224L10.0936 30.68224 10.1192 30.68224C10.3192 30.68224 10.3656 30.19424 10.3656 30.07424 10.3656 29.96064 10.3896 29.83744 10.1496 29.83744z"/>
  </g>
</svg>
