<svg xmlns="http://www.w3.org/2000/svg" width="106" height="48" viewBox="0 0 106 48">
  <g fill="#EFF" fill-rule="evenodd" transform="translate(0 4)">
    <path d="M19.4371942 31.0798252L19.441 31.096 21.995 33.092 28.301 25.798 21.323 23.358 20.873 21.118C20.867 21.124 25.665 18.986 27.487 18.118L27.495 18.132 27.495 18.13 25.637 15.058 20.883 16.996 20.853 15.172 24.805 13.68 20.869 7.172C19.869 5.486 20.201 5.306 18.511 4.58 15.713 3.372 16.667 3.194 15.357 5.612L16.871 5.79 17.273 7.074 15.0530365 6.59815309 15.0486 6.578 12.8986 7.252 12.8006 5.966 14.5546 5.57 10.0966 1.046C8.4206 2.264 5.8646 3.676 5.3706 5.734L3.0326 15.518 8.7586 16.098 9.5646 18.28 2.5226 17.572 1.4366 22.31 10.8766 23.58 11.3766 26.03 4.4886 31.334 14.7846 37.848 19.3446 32.942 16.5966 31.148 17.3066 29.472 19.4371942 31.0798252zM11.3378.6612L14.7118 3.5452 15.3358 2.8272C15.5938 2.4972 16.0598 2.3932 16.4418 2.5992 16.8198 2.8012 17.2118 3.0032 17.6318 3.2072 18.0318 3.4032 18.4378 3.5912 18.8578 3.7712 20.4218 4.4452 20.5778 4.7452 21.1078 5.7792 21.2258 6.0092 21.3718 6.2932 21.6118 6.6972L21.6238 6.7172 23.6298 10.0352C25.5018 13.1292 27.2718 15.6192 29.1398 18.7232L29.1378 18.7252C29.1558 18.7552 29.1718 18.7872 29.1878 18.8212 29.5278 19.5852 28.4718 19.9072 27.9498 20.1412L29.2598 22.9492C29.6798 23.8692 29.6718 24.3092 29.7878 25.2872 29.8798 26.0732 29.7878 26.3092 28.9998 27.2672L23.1118 34.3872C22.7078 34.8712 22.2758 35.6152 21.5218 35.1392L20.4478 34.4872 15.4918 39.7052C15.2058 40.0292 14.7198 40.0992 14.3518 39.8552L3.2138 32.3832C2.1678 31.6692 2.0758 31.6872 2.1058 30.3112L2.2278 24.7932.6418 24.5712C.1738 24.4412-.0982 23.9552.0338 23.4872 1.0518 18.3072 3.3338 10.4532 4.5158 5.5312 5.0038 3.5112 6.4658 2.4912 8.1158 1.3412 8.5458 1.0412 8.9898.7332 9.3818.4312 9.3918.4212 9.4018.4132 9.4138.4052L9.6898.1872 9.6898.1892C10.0118-.0648 10.4778-.0668 10.8018.2072L11.3338.6572 11.3378.6612zM28.527 24.218L28.535 23.926 26.997 20.446C25.663 21.058 23.495 21.972 23.065 22.172L28.527 24.218zM3.4106 24.678L3.3026 29.61 9.2626 25.242C8.6466 25.158 5.3306 24.936 3.4106 24.678zM41.4306 6.2178C41.4606 5.9478 41.5346 5.6978 41.6506 5.4718 41.7646 5.2478 41.9246 5.0518 42.1226 4.8858 42.3226 4.7218 42.5646 4.5938 42.8486 4.5038 43.1346 4.4138 43.4606 4.3678 43.8286 4.3678 44.0046 4.3678 44.1826 4.3778 44.3686 4.3978 44.5546 4.4178 44.7386 4.4418 44.9226 4.4738 45.1046 4.5078 45.2826 4.5478 45.4506 4.5998 45.6186 4.6518 45.7726 4.7098 45.9146 4.7738 45.9626 4.8058 45.9926 4.8378 46.0026 4.8618 46.0126 4.8878 46.0006 4.9318 45.9686 4.9978L45.6606 5.6578C45.6266 5.7278 45.5986 5.7658 45.5746 5.7718 45.5526 5.7798 45.5146 5.7758 45.4646 5.7618 45.1546 5.6538 44.8466 5.5718 44.5426 5.5158 44.2386 5.4618 43.9546 5.4338 43.6886 5.4338 43.3526 5.4338 43.1026 5.5038 42.9346 5.6418 42.7666 5.7798 42.6726 5.9438 42.6506 6.1318 42.6386 6.2478 42.6526 6.3518 42.6986 6.4458 42.7426 6.5398 42.8206 6.6298 42.9326 6.7178 43.0466 6.8038 43.1906 6.8918 43.3646 6.9798 43.5386 7.0678 43.7526 7.1618 44.0066 7.2638 44.2706 7.3818 44.5226 7.4998 44.7606 7.6178 44.9986 7.7398 45.2066 7.8798 45.3826 8.0398 45.5566 8.2018 45.6886 8.3918 45.7786 8.6058 45.8666 8.8238 45.8926 9.0878 45.8586 9.3978 45.8206 9.7338 45.7246 10.0238 45.5706 10.2738 45.4166 10.5218 45.2226 10.7278 44.9886 10.8898 44.7546 11.0518 44.4826 11.1718 44.1766 11.2538 43.8706 11.3338 43.5466 11.3738 43.2046 11.3738 42.7966 11.3738 42.3746 11.3358 41.9366 11.2578 41.5006 11.1798 41.1026 11.0378 40.7446 10.8318 40.6586 10.7918 40.6486 10.7138 40.7146 10.5978L41.0786 9.9398C41.1346 9.8418 41.2086 9.8138 41.3026 9.8518 41.5966 9.9818 41.9066 10.0918 42.2286 10.1758 42.5526 10.2638 42.8686 10.3078 43.1786 10.3078 43.6686 10.3078 44.0266 10.2238 44.2486 10.0558 44.4706 9.8878 44.5966 9.6778 44.6246 9.4258 44.6386 9.2898 44.6286 9.1718 44.5886 9.0678 44.5486 8.9638 44.4766 8.8678 44.3786 8.7818 44.2786 8.6938 44.1486 8.6098 43.9886 8.5298 43.8306 8.4478 43.6386 8.3638 43.4186 8.2718 43.0846 8.1378 42.7866 8.0018 42.5226 7.8658 42.2626 7.7298 42.0446 7.5838 41.8766 7.4258 41.7066 7.2658 41.5826 7.0898 41.5046 6.8918 41.4266 6.6938 41.4026 6.4698 41.4306 6.2178L41.4306 6.2178zM50.4286 9.7838L47.9666 9.7838 47.3906 11.1018C47.3646 11.1618 47.3326 11.2018 47.2946 11.2298 47.2566 11.2558 47.1986 11.2678 47.1206 11.2678L46.2286 11.2678C46.1586 11.2678 46.1146 11.2478 46.1006 11.2038 46.0866 11.1638 46.0926 11.1158 46.1166 11.0638L48.9026 4.9278C48.9446 4.8338 48.9866 4.7558 49.0246 4.6958 49.0626 4.6398 49.1086 4.5938 49.1606 4.5618 49.2146 4.5298 49.2726 4.5058 49.3386 4.4898 49.4046 4.4738 49.4846 4.4638 49.5746 4.4638L49.9906 4.4638C50.1906 4.4638 50.3306 4.4958 50.4066 4.5558 50.4846 4.6178 50.5446 4.7438 50.5886 4.9278L51.9986 11.0638C52.0126 11.1158 52.0086 11.1638 51.9886 11.2038 51.9686 11.2478 51.9206 11.2678 51.8506 11.2678L50.9586 11.2678C50.8886 11.2678 50.8326 11.2598 50.7926 11.2438 50.7506 11.2278 50.7226 11.1838 50.7046 11.1118L50.4286 9.7838zM48.3706 8.7758L50.2306 8.7758 49.9106 7.1498 49.6606 5.7718 49.6106 5.7718 49.0606 7.1198 48.3706 8.7758zM53.6006 4.6758C53.6106 4.5938 53.6346 4.5378 53.6726 4.5118 53.7106 4.4878 53.7686 4.4738 53.8466 4.4738L54.5746 4.4738C54.6646 4.4738 54.7246 4.4858 54.7546 4.5098 54.7846 4.5298 54.7946 4.5878 54.7826 4.6758L54.2366 9.5338C54.2066 9.7838 54.2506 9.9618 54.3646 10.0658 54.4786 10.1698 54.6466 10.2198 54.8646 10.2198L57.4626 10.2198C57.5346 10.2198 57.5786 10.2338 57.5946 10.2598 57.6106 10.2858 57.6146 10.3338 57.6066 10.4058L57.5306 11.0838C57.5226 11.1478 57.5086 11.1938 57.4846 11.2238 57.4626 11.2538 57.4166 11.2678 57.3446 11.2678L54.5626 11.2678C54.2266 11.2678 53.9546 11.2198 53.7466 11.1218 53.5386 11.0238 53.3786 10.8978 53.2666 10.7358 53.1546 10.5738 53.0866 10.3898 53.0566 10.1818 53.0286 9.9758 53.0286 9.7598 53.0546 9.5338L53.6006 4.6758zM62.9266 5.3378C62.9206 5.4018 62.9026 5.4458 62.8786 5.4718 62.8526 5.4998 62.8046 5.5098 62.7326 5.5098L60.8906 5.5098 60.2646 11.0638C60.2546 11.1538 60.2346 11.2118 60.2026 11.2338 60.1706 11.2578 60.1106 11.2678 60.0186 11.2678L59.2646 11.2678C59.1866 11.2678 59.1306 11.2558 59.0966 11.2298 59.0646 11.2018 59.0546 11.1478 59.0626 11.0638L59.6886 5.5098 57.8886 5.5098C57.8166 5.5098 57.7726 5.4998 57.7566 5.4718 57.7386 5.4458 57.7346 5.4018 57.7426 5.3378L57.8166 4.6698C57.8266 4.5958 57.8406 4.5478 57.8626 4.5218 57.8866 4.4978 57.9326 4.4838 58.0026 4.4838L62.8486 4.4838C62.9206 4.4838 62.9646 4.4978 62.9846 4.5218 63.0046 4.5478 63.0106 4.5958 63.0026 4.6698L62.9266 5.3378zM66.2926 9.7838L63.8306 9.7838 63.2546 11.1018C63.2286 11.1618 63.1966 11.2018 63.1586 11.2298 63.1206 11.2558 63.0626 11.2678 62.9846 11.2678L62.0926 11.2678C62.0226 11.2678 61.9786 11.2478 61.9646 11.2038 61.9506 11.1638 61.9546 11.1158 61.9806 11.0638L64.7646 4.9278C64.8086 4.8338 64.8486 4.7558 64.8886 4.6958 64.9286 4.6398 64.9726 4.5938 65.0246 4.5618 65.0766 4.5298 65.1366 4.5058 65.2026 4.4898 65.2686 4.4738 65.3466 4.4638 65.4386 4.4638L65.8546 4.4638C66.0566 4.4638 66.1946 4.4958 66.2706 4.5558 66.3466 4.6178 66.4086 4.7438 66.4526 4.9278L67.8626 11.0638C67.8766 11.1158 67.8726 11.1638 67.8506 11.2038 67.8306 11.2478 67.7846 11.2678 67.7146 11.2678L66.8226 11.2678C66.7506 11.2678 66.6946 11.2598 66.6546 11.2438 66.6146 11.2278 66.5866 11.1838 66.5686 11.1118L66.2926 9.7838zM64.2346 8.7758L66.0966 8.7758 65.7746 7.1498 65.5226 5.7718 65.4746 5.7718 64.9266 7.1198 64.2346 8.7758zM42.2432 13.7902C42.2652 13.6402 42.3072 13.5462 42.3712 13.5082 42.4372 13.4702 42.5292 13.4522 42.6452 13.4522L43.5332 13.4522C43.6712 13.4522 43.7652 13.4702 43.8132 13.5082 43.8632 13.5462 43.8752 13.6402 43.8552 13.7902L42.6952 22.0222C42.5852 22.8382 42.9312 23.2482 43.7252 23.2482L48.0592 23.2482C48.1772 23.2482 48.2452 23.2702 48.2692 23.3202 48.2892 23.3662 48.2892 23.4402 48.2692 23.5362L48.1392 24.4542C48.1192 24.5642 48.0932 24.6402 48.0672 24.6882 48.0392 24.7382 47.9672 24.7602 47.8492 24.7602L43.3872 24.7602C42.8712 24.7602 42.4512 24.6882 42.1212 24.5442 41.7952 24.4002 41.5452 24.2062 41.3732 23.9622 41.2012 23.7222 41.0932 23.4362 41.0512 23.1082 41.0072 22.7822 41.0132 22.4302 41.0672 22.0542L42.2432 13.7902zM53.3272 16.1262C53.6712 16.1262 54.0952 16.1462 54.6012 16.1822 55.1052 16.2202 55.6632 16.3202 56.2752 16.4822 56.4572 16.5342 56.5612 16.6002 56.5812 16.6822 56.6032 16.7622 56.6032 16.8622 56.5812 16.9802 56.3992 18.2482 56.2272 19.4522 56.0672 20.5962 55.9052 21.7402 55.7492 22.9142 55.5992 24.1162 55.5872 24.2662 55.5012 24.3682 55.3412 24.4222 55.0932 24.5182 54.8272 24.6022 54.5432 24.6722 54.2592 24.7442 53.9672 24.7962 53.6652 24.8322 53.3652 24.8702 53.0732 24.8982 52.7872 24.9142 52.5032 24.9302 52.2472 24.9382 52.0232 24.9382 51.4212 24.9382 50.9212 24.8582 50.5252 24.6962 50.1272 24.5362 49.8072 24.3162 49.5652 24.0362 49.3252 23.7562 49.1532 23.4322 49.0512 23.0622 48.9492 22.6902 48.8972 22.2962 48.8972 21.8782 48.8972 21.0822 48.9752 20.3342 49.1312 19.6382 49.2852 18.9402 49.5412 18.3322 49.8952 17.8102 50.2512 17.2882 50.7092 16.8782 51.2732 16.5782 51.8372 16.2762 52.5232 16.1262 53.3272 16.1262L53.3272 16.1262zM52.4412 23.5702C52.5712 23.5702 52.7092 23.5642 52.8612 23.5522 53.0112 23.5422 53.1632 23.5262 53.3192 23.5042 53.4752 23.4842 53.6252 23.4562 53.7712 23.4222 53.9152 23.3922 54.0352 23.3542 54.1332 23.3122 54.2512 22.3162 54.3752 21.3622 54.5032 20.4522 54.6332 19.5422 54.7712 18.6142 54.9232 17.6722 54.6852 17.6082 54.4152 17.5622 54.1092 17.5362 53.8032 17.5082 53.5272 17.4962 53.2792 17.4962 52.9352 17.4962 52.5952 17.5602 52.2552 17.6882 51.9172 17.8182 51.6152 18.0402 51.3452 18.3622 51.0772 18.6842 50.8612 19.1142 50.6932 19.6582 50.5272 20.1962 50.4432 20.8862 50.4432 21.7222 50.4432 22.0102 50.4752 22.2662 50.5392 22.4922 50.6052 22.7182 50.7152 22.9122 50.8712 23.0742 51.0272 23.2322 51.2332 23.3542 51.4912 23.4402 51.7492 23.5262 52.0652 23.5702 52.4412 23.5702L52.4412 23.5702zM63.0912 13.7902C63.1132 13.6402 63.1552 13.5462 63.2192 13.5082 63.2852 13.4702 63.3752 13.4522 63.4932 13.4522L64.3792 13.4522C64.5192 13.4522 64.6132 13.4702 64.6612 13.5082 64.7092 13.5462 64.7232 13.6402 64.7012 13.7902L63.5412 22.0222C63.4352 22.8382 63.7792 23.2482 64.5732 23.2482L68.9072 23.2482C69.0252 23.2482 69.0952 23.2702 69.1172 23.3202 69.1372 23.3662 69.1372 23.4402 69.1172 23.5362L68.9872 24.4542C68.9652 24.5642 68.9412 24.6402 68.9132 24.6882 68.8872 24.7382 68.8152 24.7602 68.6972 24.7602L64.2352 24.7602C63.7192 24.7602 63.2972 24.6882 62.9692 24.5442 62.6432 24.4002 62.3932 24.2062 62.2212 23.9622 62.0492 23.7222 61.9412 23.4362 61.8992 23.1082 61.8552 22.7822 61.8612 22.4302 61.9132 22.0542L63.0912 13.7902zM72.2892 13.0502C72.5472 13.0502 72.7592 13.1362 72.9272 13.3062 73.0932 13.4802 73.1752 13.6882 73.1752 13.9342 73.1752 14.0962 73.1412 14.2482 73.0712 14.3942 73.0012 14.5402 72.9112 14.6662 72.7972 14.7802 72.6852 14.8942 72.5592 14.9822 72.4192 15.0482 72.2792 15.1102 72.1352 15.1442 71.9852 15.1442 71.7372 15.1442 71.5312 15.0602 71.3652 14.8942 71.1972 14.7282 71.1152 14.5202 71.1152 14.2722 71.1152 14.1122 71.1472 13.9562 71.2112 13.8062 71.2752 13.6562 71.3612 13.5242 71.4692 13.4122 71.5772 13.2982 71.6992 13.2102 71.8392 13.1462 71.9792 13.0822 72.1292 13.0502 72.2892 13.0502L72.2892 13.0502zM71.4372 24.5022C71.4152 24.6202 71.3832 24.6942 71.3392 24.7222 71.2972 24.7482 71.2212 24.7602 71.1152 24.7602L70.1472 24.7602C70.0512 24.7602 69.9792 24.7482 69.9292 24.7222 69.8812 24.6942 69.8692 24.6202 69.8892 24.5022L71.0012 16.5622C71.0232 16.4422 71.0592 16.3702 71.1072 16.3422 71.1552 16.3182 71.2272 16.3022 71.3232 16.3022L72.2892 16.3022C72.3972 16.3022 72.4732 16.3182 72.5152 16.3422 72.5592 16.3702 72.5692 16.4422 72.5472 16.5622L71.4372 24.5022zM80.0872 24.5022C80.0672 24.6202 80.0352 24.6942 79.9912 24.7222 79.9492 24.7482 79.8732 24.7602 79.7652 24.7602L78.7992 24.7602C78.7132 24.7602 78.6472 24.7482 78.5972 24.7222 78.5492 24.6942 78.5352 24.6202 78.5572 24.5022L79.1532 20.2502C79.2172 19.7882 79.2412 19.3882 79.2172 19.0502 79.1972 18.7122 79.1112 18.4282 78.9592 18.2042 78.8112 17.9802 78.5812 17.8102 78.2752 17.6962 77.9692 17.5822 77.5592 17.5282 77.0432 17.5282 76.9252 17.5282 76.7612 17.5322 76.5532 17.5442 76.3432 17.5542 76.0712 17.5862 75.7392 17.6402L74.7712 24.5022C74.7492 24.6202 74.7172 24.6942 74.6752 24.7222 74.6312 24.7482 74.5632 24.7602 74.4652 24.7602L73.4992 24.7602C73.4032 24.7602 73.3292 24.7482 73.2832 24.7222 73.2332 24.6942 73.2192 24.6202 73.2412 24.5022L74.2072 17.6082C74.3272 16.8142 74.7552 16.3622 75.4972 16.2542 75.6052 16.2462 75.7392 16.2322 75.8992 16.2142 76.0612 16.1982 76.2272 16.1822 76.3992 16.1642 76.5712 16.1502 76.7412 16.1402 76.9072 16.1342 77.0732 16.1282 77.2212 16.1262 77.3492 16.1262 78.0272 16.1262 78.5972 16.2002 79.0652 16.3522 79.5332 16.5002 79.9032 16.7422 80.1772 17.0682 80.4512 17.3962 80.6292 17.8182 80.7152 18.3322 80.8032 18.8482 80.7912 19.4722 80.6852 20.2022L80.0872 24.5022zM88.3852 13.2442C88.4072 13.1242 88.4392 13.0522 88.4832 13.0242 88.5252 12.9982 88.5952 12.9842 88.6912 12.9842L89.6912 12.9842C89.7772 12.9842 89.8432 12.9982 89.8912 13.0242 89.9412 13.0522 89.9532 13.1242 89.9312 13.2442L88.4172 24.0362C88.3972 24.1222 88.3692 24.1862 88.3372 24.2302 88.3052 24.2722 88.2452 24.3102 88.1592 24.3422 87.5792 24.5882 86.9932 24.7502 86.4032 24.8262 85.8132 24.9002 85.2912 24.9382 84.8412 24.9382 84.2712 24.9382 83.7872 24.8522 83.3912 24.6802 82.9932 24.5082 82.6712 24.2702 82.4252 23.9622 82.1772 23.6582 82.0012 23.2982 81.8932 22.8842 81.7852 22.4702 81.7332 22.0162 81.7332 21.5222 81.7332 20.8022 81.8232 20.1162 82.0052 19.4622 82.1892 18.8062 82.4672 18.2322 82.8432 17.7382 83.2192 17.2442 83.6872 16.8502 84.2452 16.5622 84.8032 16.2702 85.4632 16.1262 86.2272 16.1262 86.4412 16.1262 86.7012 16.1402 87.0072 16.1642 87.3132 16.1922 87.6292 16.2482 87.9512 16.3342L88.3852 13.2442zM87.7572 17.7222C87.4132 17.6242 87.1212 17.5622 86.8792 17.5362 86.6372 17.5082 86.3932 17.4962 86.1472 17.4962 85.8032 17.4962 85.4612 17.5622 85.1232 17.6962 84.7852 17.8322 84.4852 18.0522 84.2212 18.3622 83.9572 18.6742 83.7452 19.0822 83.5832 19.5922 83.4232 20.1002 83.3432 20.7322 83.3432 21.4802 83.3432 22.2182 83.5032 22.7522 83.8272 23.0782 84.1492 23.4062 84.6312 23.5702 85.2772 23.5702 85.4052 23.5702 85.5452 23.5642 85.6952 23.5522 85.8452 23.5422 85.9972 23.5222 86.1532 23.4962 86.3092 23.4702 86.4592 23.4402 86.6052 23.4082 86.7492 23.3762 86.8712 23.3362 86.9672 23.2962L87.7572 17.7222zM94.4112 16.1262C94.7552 16.1262 95.1792 16.1462 95.6832 16.1822 96.1892 16.2202 96.7472 16.3202 97.3592 16.4822 97.5412 16.5342 97.6432 16.6002 97.6652 16.6822 97.6872 16.7622 97.6872 16.8622 97.6652 16.9802 97.4832 18.2482 97.3112 19.4522 97.1512 20.5962 96.9892 21.7402 96.8332 22.9142 96.6832 24.1162 96.6712 24.2662 96.5852 24.3682 96.4252 24.4222 96.1772 24.5182 95.9112 24.6022 95.6272 24.6722 95.3432 24.7442 95.0492 24.7962 94.7492 24.8322 94.4492 24.8702 94.1572 24.8982 93.8712 24.9142 93.5872 24.9302 93.3312 24.9382 93.1072 24.9382 92.5052 24.9382 92.0052 24.8582 91.6072 24.6962 91.2112 24.5362 90.8912 24.3162 90.6492 24.0362 90.4092 23.7562 90.2372 23.4322 90.1332 23.0622 90.0332 22.6902 89.9812 22.2962 89.9812 21.8782 89.9812 21.0822 90.0592 20.3342 90.2152 19.6382 90.3692 18.9402 90.6252 18.3322 90.9792 17.8102 91.3332 17.2882 91.7932 16.8782 92.3572 16.5782 92.9212 16.2762 93.6052 16.1262 94.4112 16.1262L94.4112 16.1262zM93.5252 23.5702C93.6532 23.5702 93.7932 23.5642 93.9452 23.5522 94.0952 23.5422 94.2472 23.5262 94.4032 23.5042 94.5592 23.4842 94.7092 23.4562 94.8552 23.4222 94.9992 23.3922 95.1192 23.3542 95.2172 23.3122 95.3352 22.3162 95.4572 21.3622 95.5872 20.4522 95.7152 19.5422 95.8552 18.6142 96.0052 17.6722 95.7692 17.6082 95.4972 17.5622 95.1932 17.5362 94.8872 17.5082 94.6092 17.4962 94.3632 17.4962 94.0192 17.4962 93.6772 17.5602 93.3392 17.6882 93.0012 17.8182 92.6992 18.0402 92.4292 18.3622 92.1612 18.6842 91.9432 19.1142 91.7772 19.6582 91.6112 20.1962 91.5272 20.8862 91.5272 21.7222 91.5272 22.0102 91.5592 22.2662 91.6232 22.4922 91.6892 22.7182 91.7992 22.9122 91.9532 23.0742 92.1112 23.2322 92.3172 23.3542 92.5752 23.4402 92.8312 23.5262 93.1492 23.5702 93.5252 23.5702L93.5252 23.5702zM42.5156 27.6984C42.3176 27.6984 42.1756 27.7404 42.0896 27.8264 42.0036 27.9144 41.9596 28.0164 41.9596 28.1344 41.9596 28.2384 42.0176 28.3284 42.1356 28.4124 42.2536 28.4964 42.4316 28.5924 42.6696 28.7004 42.7716 28.7464 42.8736 28.7984 42.9736 28.8544 43.0736 28.9084 43.1636 28.9744 43.2416 29.0484 43.3216 29.1184 43.3856 29.2044 43.4316 29.3004 43.4796 29.3964 43.5056 29.5084 43.5056 29.6424 43.5056 29.8204 43.4716 29.9684 43.4016 30.0904 43.3336 30.2124 43.2436 30.3144 43.1336 30.3924 43.0216 30.4724 42.8936 30.5284 42.7476 30.5644 42.6016 30.5984 42.4516 30.6164 42.2976 30.6164 42.1116 30.6164 41.9156 30.6004 41.7096 30.5684 41.5016 30.5364 41.3136 30.4744 41.1476 30.3804 41.1136 30.3644 41.1096 30.3324 41.1396 30.2824L41.2716 29.9984C41.2876 29.9644 41.3156 29.9524 41.3556 29.9684 41.5056 30.0384 41.6556 30.0924 41.8116 30.1304 41.9656 30.1664 42.1096 30.1844 42.2476 30.1844 42.5096 30.1844 42.6996 30.1404 42.8156 30.0504 42.9316 29.9624 42.9896 29.8344 42.9896 29.6704 42.9896 29.5984 42.9756 29.5384 42.9496 29.4864 42.9236 29.4324 42.8856 29.3844 42.8316 29.3404 42.7796 29.2984 42.7136 29.2564 42.6376 29.2164 42.5596 29.1744 42.4696 29.1304 42.3676 29.0804 42.2096 29.0024 42.0736 28.9304 41.9576 28.8624 41.8416 28.7964 41.7456 28.7244 41.6696 28.6524 41.5936 28.5784 41.5376 28.5004 41.4996 28.4164 41.4636 28.3344 41.4436 28.2404 41.4436 28.1404 41.4436 27.8544 41.5416 27.6384 41.7396 27.4884 41.9356 27.3364 42.2076 27.2624 42.5536 27.2624 42.7076 27.2624 42.8676 27.2764 43.0336 27.3064 43.1996 27.3344 43.3476 27.3824 43.4756 27.4424 43.4916 27.4524 43.5036 27.4644 43.5096 27.4744 43.5156 27.4844 43.5156 27.5004 43.5096 27.5264L43.4116 27.8224C43.3956 27.8484 43.3836 27.8624 43.3756 27.8664 43.3656 27.8684 43.3516 27.8664 43.3376 27.8604 43.1916 27.8064 43.0496 27.7644 42.9076 27.7384 42.7676 27.7124 42.6376 27.6984 42.5156 27.6984L42.5156 27.6984zM44.9936 28.4604C44.8076 28.4604 44.6556 28.5164 44.5396 28.6284 44.4216 28.7404 44.3436 28.9184 44.3036 29.1584 44.3556 29.1664 44.4116 29.1704 44.4696 29.1704 44.5276 29.1724 44.5796 29.1744 44.6236 29.1744 44.7796 29.1744 44.9116 29.1644 45.0156 29.1484 45.1176 29.1324 45.1996 29.1064 45.2616 29.0724 45.3216 29.0384 45.3616 28.9944 45.3856 28.9444 45.4096 28.8944 45.4216 28.8324 45.4216 28.7664 45.4216 28.7264 45.4136 28.6864 45.3996 28.6504 45.3856 28.6124 45.3616 28.5784 45.3296 28.5524 45.2976 28.5244 45.2536 28.5004 45.1976 28.4864 45.1416 28.4684 45.0736 28.4604 44.9936 28.4604L44.9936 28.4604zM44.6916 30.6164C44.3916 30.6164 44.1716 30.5444 44.0296 30.3944 43.8876 30.2444 43.8156 30.0084 43.8156 29.6804 43.8156 29.3984 43.8476 29.1564 43.9096 28.9544 43.9736 28.7504 44.0596 28.5844 44.1696 28.4544 44.2796 28.3244 44.4076 28.2304 44.5536 28.1684 44.6976 28.1084 44.8536 28.0784 45.0216 28.0784 45.1796 28.0784 45.3096 28.1004 45.4136 28.1424 45.5176 28.1844 45.5996 28.2364 45.6596 28.2984 45.7216 28.3584 45.7636 28.4284 45.7876 28.5024 45.8116 28.5784 45.8236 28.6504 45.8236 28.7144 45.8236 28.9944 45.7276 29.2004 45.5336 29.3264 45.3416 29.4544 45.0416 29.5164 44.6376 29.5164 44.5756 29.5164 44.5136 29.5164 44.4536 29.5124 44.3936 29.5084 44.3276 29.5024 44.2556 29.4944 44.2476 29.5604 44.2416 29.6184 44.2416 29.6704 44.2416 29.8724 44.2836 30.0144 44.3656 30.0964 44.4476 30.1804 44.5856 30.2224 44.7796 30.2224 44.8796 30.2224 44.9736 30.2084 45.0656 30.1804 45.1576 30.1544 45.2356 30.1224 45.3056 30.0864 45.3296 30.0744 45.3476 30.0724 45.3576 30.0744 45.3696 30.0804 45.3816 30.0944 45.3916 30.1164L45.4996 30.3324C45.5236 30.3804 45.5096 30.4164 45.4536 30.4404 45.3296 30.5124 45.2016 30.5604 45.0696 30.5824 44.9376 30.6064 44.8116 30.6164 44.6916 30.6164L44.6916 30.6164zM47.2756 28.4884C47.1476 28.4884 47.0356 28.5204 46.9456 28.5864 46.8536 28.6544 46.7796 28.7404 46.7236 28.8484 46.6656 28.9584 46.6236 29.0784 46.5976 29.2164 46.5716 29.3524 46.5576 29.4904 46.5576 29.6284 46.5576 29.7124 46.5656 29.7904 46.5836 29.8624 46.5996 29.9344 46.6296 29.9984 46.6716 30.0544 46.7136 30.1064 46.7676 30.1504 46.8336 30.1784 46.8996 30.2084 46.9836 30.2224 47.0876 30.2224 47.1856 30.2224 47.2876 30.2104 47.3916 30.1844 47.4976 30.1564 47.5836 30.1304 47.6476 30.1024 47.6816 30.0864 47.7036 30.0824 47.7116 30.0904 47.7196 30.0984 47.7256 30.1104 47.7356 30.1304L47.8376 30.3524C47.8496 30.3764 47.8516 30.3984 47.8436 30.4144 47.8336 30.4324 47.8176 30.4464 47.7976 30.4584 47.6696 30.5264 47.5376 30.5724 47.3996 30.5884 47.2616 30.6084 47.1396 30.6164 47.0296 30.6164 46.7396 30.6164 46.5156 30.5384 46.3536 30.3784 46.1916 30.2204 46.1116 29.9744 46.1116 29.6424 46.1116 29.4124 46.1376 29.2044 46.1896 29.0124 46.2416 28.8204 46.3176 28.6564 46.4176 28.5184 46.5156 28.3804 46.6376 28.2724 46.7776 28.1944 46.9196 28.1184 47.0796 28.0784 47.2636 28.0784 47.3836 28.0784 47.5096 28.0904 47.6416 28.1164 47.7716 28.1404 47.8856 28.1824 47.9816 28.2404 48.0136 28.2604 48.0176 28.2964 47.9956 28.3484L47.9036 28.5724C47.8936 28.5924 47.8816 28.6064 47.8676 28.6124 47.8536 28.6184 47.8316 28.6144 47.8016 28.5984 47.7356 28.5684 47.6556 28.5424 47.5616 28.5204 47.4676 28.4964 47.3736 28.4884 47.2756 28.4884L47.2756 28.4884zM48.5856 28.4904C48.6036 28.3684 48.6376 28.2764 48.6836 28.2204 48.7336 28.1584 48.8216 28.1204 48.9516 28.1024 49.0956 28.0824 49.2376 28.0724 49.3836 28.0684 49.5296 28.0644 49.6596 28.0604 49.7776 28.0604 49.8216 28.0604 49.8496 28.0664 49.8656 28.0724 49.8816 28.0824 49.8856 28.1144 49.8756 28.1664L49.8236 28.4404C49.8136 28.4904 49.8016 28.5184 49.7836 28.5224 49.7636 28.5264 49.7396 28.5284 49.7096 28.5244 49.5996 28.5144 49.4876 28.5064 49.3696 28.4984 49.2516 28.4904 49.1396 28.4864 49.0316 28.4824L48.7436 30.4904C48.7376 30.5264 48.7276 30.5464 48.7156 30.5544 48.7036 30.5624 48.6816 30.5664 48.6496 30.5664L48.3716 30.5664C48.3476 30.5664 48.3276 30.5624 48.3136 30.5544 48.2996 30.5464 48.2956 30.5264 48.3036 30.4904L48.5856 28.4904zM51.0216 28.4604C50.8356 28.4604 50.6836 28.5164 50.5656 28.6284 50.4496 28.7404 50.3696 28.9184 50.3296 29.1584 50.3836 29.1664 50.4376 29.1704 50.4976 29.1704 50.5556 29.1724 50.6076 29.1744 50.6496 29.1744 50.8076 29.1744 50.9376 29.1644 51.0416 29.1484 51.1456 29.1324 51.2276 29.1064 51.2876 29.0724 51.3496 29.0384 51.3896 28.9944 51.4136 28.9444 51.4356 28.8944 51.4476 28.8324 51.4476 28.7664 51.4476 28.7264 51.4416 28.6864 51.4276 28.6504 51.4136 28.6124 51.3896 28.5784 51.3576 28.5524 51.3256 28.5244 51.2816 28.5004 51.2256 28.4864 51.1696 28.4684 51.1016 28.4604 51.0216 28.4604L51.0216 28.4604zM50.7196 30.6164C50.4196 30.6164 50.1976 30.5444 50.0576 30.3944 49.9136 30.2444 49.8436 30.0084 49.8436 29.6804 49.8436 29.3984 49.8736 29.1564 49.9376 28.9544 50.0016 28.7504 50.0876 28.5844 50.1976 28.4544 50.3076 28.3244 50.4336 28.2304 50.5816 28.1684 50.7256 28.1084 50.8816 28.0784 51.0496 28.0784 51.2076 28.0784 51.3376 28.1004 51.4416 28.1424 51.5456 28.1844 51.6276 28.2364 51.6876 28.2984 51.7476 28.3584 51.7896 28.4284 51.8136 28.5024 51.8396 28.5784 51.8516 28.6504 51.8516 28.7144 51.8516 28.9944 51.7556 29.2004 51.5616 29.3264 51.3676 29.4544 51.0696 29.5164 50.6636 29.5164 50.6016 29.5164 50.5416 29.5164 50.4796 29.5124 50.4196 29.5084 50.3536 29.5024 50.2836 29.4944 50.2736 29.5604 50.2696 29.6184 50.2696 29.6704 50.2696 29.8724 50.3096 30.0144 50.3916 30.0964 50.4736 30.1804 50.6136 30.2224 50.8076 30.2224 50.9076 30.2224 51.0016 30.2084 51.0936 30.1804 51.1836 30.1544 51.2656 30.1224 51.3316 30.0864 51.3556 30.0744 51.3756 30.0724 51.3856 30.0744 51.3956 30.0804 51.4076 30.0944 51.4196 30.1164L51.5276 30.3324C51.5516 30.3804 51.5356 30.4164 51.4796 30.4404 51.3556 30.5124 51.2296 30.5604 51.0976 30.5824 50.9676 30.6064 50.8416 30.6164 50.7196 30.6164L50.7196 30.6164zM52.2096 28.4964C52.1756 28.4964 52.1556 28.4904 52.1516 28.4764 52.1456 28.4604 52.1476 28.4424 52.1536 28.4224L52.1716 28.2664C52.1776 28.2404 52.1856 28.2224 52.1916 28.2084 52.2016 28.1924 52.2216 28.1844 52.2556 28.1784L52.6136 28.1024 52.7576 27.6704C52.7676 27.6364 52.7816 27.6124 52.7936 27.5984 52.8076 27.5844 52.8296 27.5724 52.8636 27.5604L53.0396 27.4944C53.0616 27.4904 53.0796 27.4904 53.0936 27.4964 53.1076 27.5044 53.1116 27.5244 53.1036 27.5604L53.0216 28.1304 53.5556 28.1304C53.5856 28.1304 53.6036 28.1384 53.6096 28.1524 53.6156 28.1644 53.6176 28.1844 53.6156 28.2044L53.5876 28.4224C53.5816 28.4464 53.5736 28.4644 53.5636 28.4784 53.5556 28.4904 53.5336 28.4964 53.5036 28.4964L52.9696 28.4964 52.7656 29.9444C52.7496 30.0464 52.7636 30.1184 52.8036 30.1584 52.8436 30.2024 52.9116 30.2224 53.0076 30.2224 53.0476 30.2224 53.1036 30.2204 53.1756 30.2104 53.2456 30.2024 53.3056 30.1964 53.3496 30.1904 53.3776 30.1844 53.3956 30.1864 53.4036 30.1964 53.4116 30.2084 53.4176 30.2224 53.4196 30.2404L53.4576 30.4704C53.4576 30.4904 53.4556 30.5044 53.4516 30.5184 53.4496 30.5324 53.4336 30.5444 53.4056 30.5524 53.3596 30.5684 53.3096 30.5784 53.2556 30.5864 53.2016 30.5944 53.1496 30.6004 53.1016 30.6064 53.0556 30.6104 53.0096 30.6144 52.9696 30.6144 52.9296 30.6164 52.8996 30.6164 52.8776 30.6164 52.6396 30.6164 52.4776 30.5664 52.3976 30.4584 52.3156 30.3544 52.2916 30.1904 52.3256 29.9704L52.5296 28.4964 52.2096 28.4964zM55.0996 28.0784C55.1996 28.0784 55.3216 28.0844 55.4656 28.0944 55.6116 28.1064 55.7716 28.1344 55.9496 28.1804 56.0016 28.1964 56.0316 28.2164 56.0376 28.2404 56.0436 28.2624 56.0436 28.2904 56.0376 28.3244 55.9836 28.6904 55.9336 29.0384 55.8896 29.3664 55.8416 29.6964 55.7976 30.0344 55.7536 30.3804 55.7516 30.4224 55.7256 30.4524 55.6796 30.4704 55.6096 30.4964 55.5316 30.5204 55.4496 30.5404 55.3676 30.5604 55.2836 30.5764 55.1976 30.5864 55.1096 30.5964 55.0256 30.6064 54.9436 30.6104 54.8616 30.6144 54.7896 30.6164 54.7236 30.6164 54.5516 30.6164 54.4076 30.5924 54.2936 30.5484 54.1796 30.5004 54.0856 30.4384 54.0156 30.3564 53.9456 30.2764 53.8976 30.1844 53.8676 30.0744 53.8396 29.9704 53.8236 29.8564 53.8236 29.7364 53.8236 29.5064 53.8456 29.2924 53.8896 29.0904 53.9356 28.8904 54.0096 28.7144 54.1116 28.5644 54.2136 28.4124 54.3456 28.2964 54.5096 28.2084 54.6716 28.1224 54.8676 28.0784 55.0996 28.0784L55.0996 28.0784zM54.8456 30.2224C54.8816 30.2224 54.9216 30.2224 54.9656 30.2184 55.0096 30.2164 55.0536 30.2104 55.0976 30.2044 55.1416 30.1964 55.1856 30.1904 55.2276 30.1804 55.2696 30.1704 55.3036 30.1604 55.3316 30.1504 55.3656 29.8604 55.4016 29.5864 55.4376 29.3244 55.4756 29.0624 55.5156 28.7964 55.5576 28.5244 55.4916 28.5044 55.4136 28.4924 55.3256 28.4864 55.2376 28.4784 55.1576 28.4744 55.0856 28.4744 54.9876 28.4744 54.8896 28.4904 54.7916 28.5284 54.6936 28.5664 54.6076 28.6304 54.5296 28.7244 54.4516 28.8164 54.3896 28.9384 54.3416 29.0944 54.2936 29.2504 54.2696 29.4504 54.2696 29.6904 54.2696 29.7744 54.2796 29.8484 54.2976 29.9124 54.3156 29.9784 54.3476 30.0324 54.3916 30.0784 54.4376 30.1264 54.4976 30.1604 54.5716 30.1844 54.6456 30.2104 54.7356 30.2224 54.8456 30.2224L54.8456 30.2224zM56.6776 28.4904C56.6956 28.3684 56.7296 28.2764 56.7776 28.2204 56.8256 28.1584 56.9136 28.1204 57.0436 28.1024 57.1856 28.0824 57.3296 28.0724 57.4756 28.0684 57.6216 28.0644 57.7536 28.0604 57.8696 28.0604 57.9136 28.0604 57.9416 28.0664 57.9576 28.0724 57.9736 28.0824 57.9756 28.1144 57.9676 28.1664L57.9156 28.4404C57.9076 28.4904 57.8916 28.5184 57.8736 28.5224 57.8556 28.5264 57.8316 28.5284 57.8016 28.5244 57.6916 28.5144 57.5796 28.5064 57.4616 28.4984 57.3436 28.4904 57.2316 28.4864 57.1236 28.4824L56.8356 30.4904C56.8296 30.5264 56.8196 30.5464 56.8076 30.5544 56.7956 30.5624 56.7736 30.5664 56.7416 30.5664L56.4636 30.5664C56.4396 30.5664 56.4196 30.5624 56.4056 30.5544 56.3916 30.5464 56.3876 30.5264 56.3936 30.4904L56.6776 28.4904zM58.5236 30.4904C58.5176 30.5264 58.5096 30.5464 58.4996 30.5544 58.4876 30.5624 58.4676 30.5664 58.4356 30.5664L58.1576 30.5664C58.1296 30.5664 58.1096 30.5624 58.0956 30.5544 58.0816 30.5464 58.0776 30.5264 58.0836 30.4904L58.4036 28.2044C58.4096 28.1704 58.4196 28.1504 58.4336 28.1424 58.4476 28.1344 58.4696 28.1304 58.4956 28.1304L58.7736 28.1304C58.8056 28.1304 58.8256 28.1344 58.8376 28.1424 58.8496 28.1504 58.8496 28.1704 58.8436 28.2044L58.5236 30.4904zM58.5616 27.8204C58.5356 27.8144 58.5236 27.8044 58.5216 27.7944 58.5196 27.7824 58.5276 27.7624 58.5436 27.7324L58.9456 26.9964C58.9556 26.9844 58.9676 26.9704 58.9816 26.9584 58.9956 26.9484 59.0156 26.9444 59.0436 26.9524L59.3776 27.0484C59.4016 27.0564 59.4156 27.0664 59.4176 27.0784 59.4176 27.0924 59.4136 27.1084 59.3996 27.1244L58.8036 27.8324C58.7816 27.8584 58.7636 27.8724 58.7496 27.8784 58.7356 27.8824 58.7176 27.8824 58.6956 27.8764L58.5616 27.8204zM60.5756 28.0784C60.6736 28.0784 60.7956 28.0844 60.9416 28.0944 61.0876 28.1064 61.2476 28.1344 61.4236 28.1804 61.4756 28.1964 61.5056 28.2164 61.5136 28.2404 61.5176 28.2624 61.5176 28.2904 61.5136 28.3244 61.4596 28.6904 61.4096 29.0384 61.3636 29.3664 61.3176 29.6964 61.2716 30.0344 61.2276 30.3804 61.2256 30.4224 61.2016 30.4524 61.1556 30.4704 61.0836 30.4964 61.0076 30.5204 60.9256 30.5404 60.8436 30.5604 60.7596 30.5764 60.6716 30.5864 60.5856 30.5964 60.5016 30.6064 60.4196 30.6104 60.3376 30.6144 60.2636 30.6164 60.1996 30.6164 60.0256 30.6164 59.8816 30.5924 59.7676 30.5484 59.6536 30.5004 59.5616 30.4384 59.4916 30.3564 59.4216 30.2764 59.3716 30.1844 59.3436 30.0744 59.3136 29.9704 59.2996 29.8564 59.2996 29.7364 59.2996 29.5064 59.3216 29.2924 59.3656 29.0904 59.4116 28.8904 59.4836 28.7144 59.5876 28.5644 59.6876 28.4124 59.8196 28.2964 59.9836 28.2084 60.1456 28.1224 60.3436 28.0784 60.5756 28.0784L60.5756 28.0784zM60.3196 30.2224C60.3576 30.2224 60.3976 30.2224 60.4396 30.2184 60.4836 30.2164 60.5276 30.2104 60.5736 30.2044 60.6176 30.1964 60.6616 30.1904 60.7016 30.1804 60.7436 30.1704 60.7796 30.1604 60.8076 30.1504 60.8416 29.8604 60.8776 29.5864 60.9136 29.3244 60.9516 29.0624 60.9916 28.7964 61.0336 28.5244 60.9656 28.5044 60.8876 28.4924 60.7996 28.4864 60.7116 28.4784 60.6316 28.4744 60.5596 28.4744 60.4616 28.4744 60.3636 28.4904 60.2656 28.5284 60.1696 28.5664 60.0816 28.6304 60.0036 28.7244 59.9276 28.8164 59.8636 28.9384 59.8156 29.0944 59.7676 29.2504 59.7436 29.4504 59.7436 29.6904 59.7436 29.7744 59.7536 29.8484 59.7716 29.9124 59.7916 29.9784 59.8216 30.0324 59.8676 30.0784 59.9116 30.1264 59.9716 30.1604 60.0456 30.1844 60.1196 30.2104 60.2116 30.2224 60.3196 30.2224L60.3196 30.2224zM65.0376 27.2484C65.0456 27.2164 65.0536 27.1924 65.0656 27.1864 65.0796 27.1764 65.0996 27.1744 65.1276 27.1744L65.4136 27.1744C65.4396 27.1744 65.4596 27.1764 65.4736 27.1864 65.4856 27.1924 65.4896 27.2164 65.4836 27.2484L65.0476 30.3564C65.0416 30.3824 65.0336 30.4024 65.0236 30.4124 65.0156 30.4244 64.9976 30.4364 64.9736 30.4464 64.8076 30.5164 64.6376 30.5644 64.4676 30.5844 64.2976 30.6064 64.1476 30.6164 64.0176 30.6164 63.8536 30.6164 63.7156 30.5924 63.5996 30.5444 63.4856 30.4924 63.3916 30.4244 63.3216 30.3364 63.2516 30.2484 63.1996 30.1444 63.1696 30.0244 63.1376 29.9064 63.1216 29.7744 63.1216 29.6344 63.1216 29.4264 63.1476 29.2284 63.2016 29.0404 63.2536 28.8504 63.3336 28.6844 63.4416 28.5424 63.5516 28.4004 63.6856 28.2884 63.8456 28.2044 64.0076 28.1204 64.1976 28.0784 64.4176 28.0784 64.4776 28.0784 64.5536 28.0824 64.6416 28.0904 64.7296 28.0984 64.8196 28.1144 64.9136 28.1404L65.0376 27.2484zM64.8576 28.5384C64.7576 28.5104 64.6736 28.4924 64.6036 28.4864 64.5356 28.4784 64.4656 28.4744 64.3936 28.4744 64.2956 28.4744 64.1956 28.4924 64.0996 28.5324 64.0016 28.5704 63.9156 28.6344 63.8396 28.7244 63.7636 28.8144 63.7016 28.9304 63.6556 29.0764 63.6096 29.2244 63.5856 29.4064 63.5856 29.6224 63.5856 29.8324 63.6336 29.9884 63.7256 30.0804 63.8176 30.1744 63.9576 30.2224 64.1436 30.2224 64.1816 30.2224 64.2196 30.2224 64.2636 30.2184 64.3076 30.2164 64.3516 30.2104 64.3956 30.2024 64.4396 30.1944 64.4836 30.1844 64.5256 30.1764 64.5676 30.1664 64.6016 30.1564 64.6296 30.1444L64.8576 28.5384zM66.8396 28.4604C66.6536 28.4604 66.5016 28.5164 66.3856 28.6284 66.2656 28.7404 66.1876 28.9184 66.1476 29.1584 66.1996 29.1664 66.2556 29.1704 66.3136 29.1704 66.3736 29.1724 66.4256 29.1744 66.4676 29.1744 66.6256 29.1744 66.7556 29.1644 66.8596 29.1484 66.9636 29.1324 67.0456 29.1064 67.1056 29.0724 67.1656 29.0384 67.2076 28.9944 67.2296 28.9444 67.2536 28.8944 67.2656 28.8324 67.2656 28.7664 67.2656 28.7264 67.2596 28.6864 67.2456 28.6504 67.2296 28.6124 67.2076 28.5784 67.1756 28.5524 67.1416 28.5244 67.0996 28.5004 67.0436 28.4864 66.9876 28.4684 66.9196 28.4604 66.8396 28.4604L66.8396 28.4604zM66.5376 30.6164C66.2376 30.6164 66.0156 30.5444 65.8736 30.3944 65.7316 30.2444 65.6596 30.0084 65.6596 29.6804 65.6596 29.3984 65.6916 29.1564 65.7556 28.9544 65.8196 28.7504 65.9056 28.5844 66.0156 28.4544 66.1256 28.3244 66.2536 28.2304 66.3976 28.1684 66.5436 28.1084 66.6996 28.0784 66.8656 28.0784 67.0236 28.0784 67.1556 28.1004 67.2596 28.1424 67.3616 28.1844 67.4436 28.2364 67.5056 28.2984 67.5636 28.3584 67.6076 28.4284 67.6336 28.5024 67.6576 28.5784 67.6696 28.6504 67.6696 28.7144 67.6696 28.9944 67.5736 29.2004 67.3796 29.3264 67.1856 29.4544 66.8876 29.5164 66.4816 29.5164 66.4196 29.5164 66.3576 29.5164 66.2976 29.5124 66.2376 29.5084 66.1716 29.5024 66.0996 29.4944 66.0916 29.5604 66.0876 29.6184 66.0876 29.6704 66.0876 29.8724 66.1276 30.0144 66.2096 30.0964 66.2916 30.1804 66.4316 30.2224 66.6256 30.2224 66.7236 30.2224 66.8196 30.2084 66.9116 30.1804 67.0016 30.1544 67.0816 30.1224 67.1496 30.0864 67.1756 30.0744 67.1916 30.0724 67.2036 30.0744 67.2136 30.0804 67.2256 30.0944 67.2376 30.1164L67.3456 30.3324C67.3696 30.3804 67.3536 30.4164 67.2976 30.4404 67.1756 30.5124 67.0476 30.5604 66.9156 30.5824 66.7836 30.6064 66.6576 30.6164 66.5376 30.6164L66.5376 30.6164zM70.2676 27.7404L69.4096 27.7404C69.3756 27.7404 69.3556 27.7344 69.3516 27.7224 69.3476 27.7104 69.3456 27.6904 69.3496 27.6604L69.3856 27.4024C69.3916 27.3744 69.3996 27.3524 69.4076 27.3384 69.4136 27.3244 69.4356 27.3184 69.4696 27.3184L71.6876 27.3184C71.7216 27.3184 71.7416 27.3244 71.7476 27.3384 71.7556 27.3524 71.7556 27.3744 71.7476 27.4024L71.7116 27.6604C71.7076 27.6904 71.7016 27.7104 71.6916 27.7224 71.6816 27.7344 71.6616 27.7404 71.6276 27.7404L70.7456 27.7404 70.3596 30.4704C70.3536 30.5124 70.3436 30.5384 70.3276 30.5504 70.3116 30.5604 70.2856 30.5664 70.2496 30.5664L69.9796 30.5664C69.9456 30.5664 69.9196 30.5604 69.9016 30.5504 69.8836 30.5384 69.8756 30.5124 69.8836 30.4704L70.2676 27.7404zM71.7616 28.2004C71.7676 28.1644 71.7776 28.1444 71.7896 28.1384 71.8036 28.1304 71.8236 28.1264 71.8536 28.1264L72.1336 28.1264C72.1576 28.1264 72.1776 28.1304 72.1896 28.1384 72.2056 28.1444 72.2096 28.1644 72.2036 28.2004L72.0316 29.4244C72.0096 29.5704 71.9996 29.6924 72.0016 29.7904 72.0016 29.8904 72.0216 29.9704 72.0576 30.0324 72.0956 30.0944 72.1536 30.1384 72.2356 30.1664 72.3156 30.1944 72.4256 30.2084 72.5636 30.2084 72.5996 30.2084 72.6496 30.2084 72.7196 30.2044 72.7896 30.2004 72.8716 30.1904 72.9696 30.1764L73.2476 28.2004C73.2536 28.1644 73.2616 28.1444 73.2736 28.1384 73.2876 28.1304 73.3076 28.1264 73.3396 28.1264L73.6176 28.1264C73.6416 28.1264 73.6616 28.1304 73.6756 28.1384 73.6896 28.1444 73.6936 28.1644 73.6876 28.2004L73.4096 30.1844C73.3776 30.4064 73.2536 30.5384 73.0376 30.5744 72.9936 30.5804 72.9476 30.5864 72.8956 30.5904 72.8456 30.5964 72.7936 30.6004 72.7436 30.6024 72.6916 30.6064 72.6436 30.6084 72.5976 30.6104 72.5516 30.6124 72.5096 30.6124 72.4716 30.6124 72.2696 30.6124 72.1056 30.5904 71.9776 30.5484 71.8496 30.5024 71.7516 30.4344 71.6816 30.3404 71.6156 30.2464 71.5736 30.1264 71.5616 29.9764 71.5516 29.8284 71.5596 29.6504 71.5916 29.4384L71.7616 28.2004zM74.3076 28.4904C74.3276 28.3684 74.3616 28.2764 74.4096 28.2204 74.4576 28.1584 74.5456 28.1204 74.6756 28.1024 74.8176 28.0824 74.9616 28.0724 75.1076 28.0684 75.2536 28.0644 75.3856 28.0604 75.5016 28.0604 75.5456 28.0604 75.5736 28.0664 75.5896 28.0724 75.6056 28.0824 75.6076 28.1144 75.5996 28.1664L75.5476 28.4404C75.5376 28.4904 75.5256 28.5184 75.5056 28.5224 75.4876 28.5264 75.4636 28.5284 75.4316 28.5244 75.3236 28.5144 75.2116 28.5064 75.0936 28.4984 74.9756 28.4904 74.8616 28.4864 74.7556 28.4824L74.4676 30.4904C74.4616 30.5264 74.4516 30.5464 74.4396 30.5544 74.4276 30.5624 74.4056 30.5664 74.3736 30.5664L74.0956 30.5664C74.0696 30.5664 74.0516 30.5624 74.0376 30.5544 74.0236 30.5464 74.0196 30.5264 74.0256 30.4904L74.3076 28.4904zM76.3916 27.1924C76.4676 27.1924 76.5276 27.2184 76.5756 27.2664 76.6236 27.3184 76.6476 27.3764 76.6476 27.4484 76.6476 27.4944 76.6376 27.5384 76.6176 27.5804 76.5976 27.6224 76.5716 27.6584 76.5376 27.6904 76.5056 27.7244 76.4696 27.7484 76.4296 27.7684 76.3896 27.7864 76.3476 27.7964 76.3036 27.7964 76.2336 27.7964 76.1736 27.7724 76.1256 27.7244 76.0776 27.6764 76.0536 27.6164 76.0536 27.5464 76.0536 27.4984 76.0616 27.4544 76.0816 27.4104 76.0996 27.3684 76.1256 27.3284 76.1556 27.2984 76.1876 27.2644 76.2236 27.2404 76.2636 27.2224 76.3036 27.2024 76.3456 27.1924 76.3916 27.1924L76.3916 27.1924zM76.1456 30.4904C76.1396 30.5264 76.1316 30.5464 76.1196 30.5544 76.1056 30.5624 76.0856 30.5664 76.0536 30.5664L75.7756 30.5664C75.7476 30.5664 75.7256 30.5624 75.7116 30.5544 75.6996 30.5464 75.6956 30.5264 75.7016 30.4904L76.0216 28.2044C76.0276 28.1704 76.0376 28.1504 76.0516 28.1424 76.0656 28.1344 76.0856 28.1304 76.1136 28.1304L76.3916 28.1304C76.4236 28.1304 76.4456 28.1344 76.4576 28.1424 76.4696 28.1504 76.4736 28.1704 76.4676 28.2044L76.1456 30.4904zM77.6456 30.6164C77.5036 30.6164 77.3516 30.6024 77.1936 30.5744 77.0336 30.5484 76.8976 30.4964 76.7816 30.4264 76.7456 30.4064 76.7396 30.3724 76.7656 30.3204L76.8556 30.1024C76.8716 30.0764 76.8876 30.0624 76.9036 30.0544 76.9196 30.0464 76.9416 30.0504 76.9736 30.0664 77.0816 30.1204 77.1976 30.1624 77.3216 30.1904 77.4476 30.2184 77.5636 30.2324 77.6676 30.2324 77.8176 30.2324 77.9336 30.2004 78.0176 30.1384 78.1036 30.0764 78.1456 29.9904 78.1456 29.8804 78.1456 29.7904 78.1036 29.7164 78.0176 29.6564 77.9336 29.5964 77.8176 29.5384 77.6676 29.4804 77.4636 29.4004 77.3076 29.3084 77.1976 29.2044 77.0876 29.1004 77.0336 28.9684 77.0336 28.8024 77.0336 28.5724 77.1116 28.3924 77.2676 28.2664 77.4236 28.1424 77.6416 28.0784 77.9236 28.0784 78.0456 28.0784 78.1616 28.0884 78.2756 28.1084 78.3916 28.1304 78.5036 28.1624 78.6156 28.2144 78.6336 28.2244 78.6436 28.2384 78.6476 28.2544 78.6496 28.2744 78.6476 28.2924 78.6416 28.3124L78.5456 28.5564C78.5296 28.5904 78.5056 28.5984 78.4716 28.5784 78.3536 28.5344 78.2556 28.5024 78.1716 28.4884 78.0896 28.4724 77.9956 28.4644 77.8936 28.4644 77.7496 28.4644 77.6436 28.4964 77.5776 28.5624 77.5116 28.6264 77.4776 28.7004 77.4776 28.7804 77.4776 28.8604 77.5156 28.9244 77.5876 28.9744 77.6596 29.0244 77.7756 29.0804 77.9356 29.1464 78.0156 29.1804 78.0956 29.2184 78.1736 29.2564 78.2516 29.2984 78.3216 29.3464 78.3836 29.4044 78.4456 29.4604 78.4956 29.5284 78.5336 29.6024 78.5736 29.6784 78.5916 29.7684 78.5916 29.8704 78.5916 30.0064 78.5636 30.1224 78.5116 30.2164 78.4556 30.3104 78.3856 30.3864 78.2976 30.4464 78.2096 30.5024 78.1076 30.5484 77.9956 30.5744 77.8836 30.6024 77.7656 30.6164 77.6456 30.6164L77.6456 30.6164zM82.4056 30.4904C82.3996 30.5264 82.3896 30.5464 82.3776 30.5544 82.3656 30.5624 82.3456 30.5664 82.3176 30.5664L82.0356 30.5664C82.0116 30.5664 81.9916 30.5624 81.9756 30.5544 81.9636 30.5464 81.9596 30.5264 81.9656 30.4904L82.1376 29.2764C82.1556 29.1384 82.1636 29.0184 82.1596 28.9184 82.1576 28.8204 82.1376 28.7384 82.1016 28.6724 82.0656 28.6084 82.0116 28.5604 81.9376 28.5284 81.8636 28.4964 81.7656 28.4824 81.6456 28.4824 81.6016 28.4824 81.5516 28.4864 81.4976 28.4904 81.4416 28.4964 81.3856 28.5064 81.3316 28.5204 81.2776 28.5324 81.2236 28.5464 81.1736 28.5624 81.1236 28.5764 81.0816 28.5944 81.0476 28.6124 81.0736 28.7024 81.0876 28.8004 81.0836 28.9064 81.0816 29.0144 81.0696 29.1304 81.0516 29.2564L80.8796 30.4904C80.8736 30.5264 80.8636 30.5464 80.8516 30.5544 80.8396 30.5624 80.8196 30.5664 80.7916 30.5664L80.5136 30.5664C80.4856 30.5664 80.4636 30.5624 80.4496 30.5544 80.4356 30.5464 80.4316 30.5264 80.4376 30.4904L80.6096 29.2624C80.6256 29.1464 80.6336 29.0384 80.6356 28.9424 80.6376 28.8464 80.6216 28.7644 80.5876 28.6964 80.5536 28.6284 80.4976 28.5744 80.4176 28.5384 80.3396 28.5004 80.2276 28.4824 80.0856 28.4824 80.0636 28.4824 80.0356 28.4844 79.9976 28.4864 79.9616 28.4884 79.9216 28.4904 79.8816 28.4904 79.8416 28.4944 79.8036 28.4984 79.7656 28.5024 79.7276 28.5084 79.6996 28.5124 79.6776 28.5144L79.3996 30.4904C79.3936 30.5264 79.3836 30.5464 79.3716 30.5544 79.3596 30.5624 79.3396 30.5664 79.3096 30.5664L79.0316 30.5664C79.0056 30.5664 78.9836 30.5624 78.9716 30.5544 78.9556 30.5464 78.9516 30.5264 78.9576 30.4904L79.2316 28.5244C79.2476 28.4064 79.2816 28.3164 79.3336 28.2524 79.3876 28.1904 79.4776 28.1444 79.6076 28.1164 79.6276 28.1124 79.6576 28.1084 79.7036 28.1044 79.7476 28.1004 79.7956 28.0944 79.8476 28.0904 79.8976 28.0844 79.9476 28.0824 79.9976 28.0804 80.0476 28.0784 80.0896 28.0784 80.1236 28.0784 80.3036 28.0784 80.4476 28.0964 80.5596 28.1344 80.6716 28.1724 80.7676 28.2344 80.8516 28.3204 80.9696 28.2424 81.1076 28.1844 81.2696 28.1424 81.4316 28.1004 81.5976 28.0784 81.7696 28.0784 81.9536 28.0784 82.1016 28.1064 82.2176 28.1584 82.3336 28.2144 82.4236 28.2924 82.4876 28.3924 82.5516 28.4924 82.5876 28.6124 82.5996 28.7524 82.6136 28.8924 82.6076 29.0444 82.5876 29.2124L82.4056 30.4904zM84.2714 28.0792C84.5774 28.0792 84.8114 28.1652 84.9694 28.3372 85.1294 28.5092 85.2074 28.7512 85.2074 29.0612 85.2074 29.3012 85.1794 29.5152 85.1234 29.7052 85.0654 29.8952 84.9834 30.0572 84.8774 30.1952 84.7694 30.3312 84.6394 30.4352 84.4854 30.5092 84.3294 30.5812 84.1554 30.6172 83.9594 30.6172 83.6594 30.6172 83.4314 30.5372 83.2734 30.3792 83.1154 30.2212 83.0374 29.9872 83.0374 29.6752 83.0374 29.4152 83.0694 29.1872 83.1354 28.9892 83.1994 28.7892 83.2874 28.6232 83.4014 28.4892 83.5134 28.3552 83.6454 28.2532 83.7954 28.1852 83.9454 28.1152 84.1054 28.0792 84.2714 28.0792L84.2714 28.0792zM84.2434 28.4592C84.1094 28.4592 83.9954 28.4932 83.8994 28.5592 83.8054 28.6252 83.7254 28.7132 83.6634 28.8232 83.6014 28.9332 83.5554 29.0592 83.5254 29.2012 83.4974 29.3412 83.4814 29.4872 83.4814 29.6372 83.4814 29.8232 83.5234 29.9692 83.6054 30.0752 83.6874 30.1852 83.8234 30.2372 84.0114 30.2372 84.1534 30.2372 84.2714 30.2012 84.3694 30.1292 84.4654 30.0572 84.5414 29.9652 84.6014 29.8512 84.6594 29.7372 84.7014 29.6112 84.7254 29.4712 84.7514 29.3312 84.7634 29.1932 84.7634 29.0532 84.7634 28.9692 84.7554 28.8912 84.7374 28.8192 84.7214 28.7472 84.6914 28.6832 84.6514 28.6312 84.6114 28.5792 84.5594 28.5372 84.4914 28.5052 84.4254 28.4732 84.3414 28.4592 84.2434 28.4592L84.2434 28.4592zM86.9814 31.5732C86.8814 31.5732 86.7734 31.5572 86.6554 31.5292 86.5374 31.4992 86.4374 31.4672 86.3554 31.4332 86.3114 31.4152 86.2854 31.4012 86.2774 31.3912 86.2714 31.3812 86.2734 31.3632 86.2894 31.3272L86.3774 31.1052C86.3934 31.0692 86.4074 31.0532 86.4194 31.0512 86.4314 31.0492 86.4554 31.0552 86.4894 31.0652 86.5314 31.0832 86.5774 31.0972 86.6254 31.1132 86.6754 31.1232 86.7214 31.1352 86.7674 31.1452 86.8134 31.1552 86.8554 31.1632 86.8954 31.1692 86.9354 31.1752 86.9634 31.1792 86.9854 31.1792 87.0854 31.1792 87.1634 31.1532 87.2194 31.1052 87.2774 31.0552 87.3334 30.9732 87.3854 30.8592L87.5274 30.5372 87.4634 30.5372C87.4134 30.5372 87.3734 30.5292 87.3414 30.5132 87.3094 30.4952 87.2834 30.4432 87.2694 30.3532L86.9114 28.1812C86.9054 28.1472 86.9194 28.1292 86.9534 28.1292L87.2734 28.1292C87.3134 28.1292 87.3354 28.1452 87.3394 28.1772L87.5154 29.3212 87.6414 30.1812 87.6674 30.1812 88.0574 29.3172 88.5774 28.1772C88.5834 28.1612 88.5914 28.1492 88.6014 28.1412 88.6094 28.1332 88.6274 28.1292 88.6514 28.1292L88.9954 28.1292C89.0314 28.1292 89.0434 28.1472 89.0274 28.1812L87.7514 30.9932C87.6514 31.2052 87.5434 31.3572 87.4234 31.4432 87.3054 31.5312 87.1574 31.5732 86.9814 31.5732L86.9814 31.5732zM92.0214 27.2712C92.0754 27.2712 92.1394 27.2752 92.2094 27.2792 92.2814 27.2852 92.3554 27.2912 92.4314 27.3052 92.5074 27.3212 92.5834 27.3392 92.6634 27.3652 92.7414 27.3892 92.8154 27.4232 92.8874 27.4612 92.9034 27.4712 92.9114 27.4832 92.9134 27.4972 92.9154 27.5112 92.9074 27.5372 92.8934 27.5772L92.7954 27.8052C92.7754 27.8532 92.7454 27.8652 92.7014 27.8432 92.6034 27.7952 92.4914 27.7632 92.3654 27.7432 92.2394 27.7212 92.1334 27.7112 92.0434 27.7112 91.8234 27.7112 91.6434 27.7592 91.5014 27.8532 91.3574 27.9452 91.2454 28.0672 91.1634 28.2192 91.0814 28.3712 91.0234 28.5392 90.9914 28.7292 90.9594 28.9172 90.9434 29.1072 90.9434 29.2952 90.9434 29.4212 90.9534 29.5372 90.9774 29.6452 90.9974 29.7512 91.0374 29.8452 91.0974 29.9272 91.1554 30.0072 91.2354 30.0692 91.3374 30.1152 91.4394 30.1592 91.5714 30.1812 91.7314 30.1812 91.8614 30.1812 91.9914 30.1632 92.1214 30.1272 92.2514 30.0912 92.3694 30.0512 92.4754 30.0092 92.5194 29.9932 92.5454 29.9912 92.5554 30.0032 92.5674 30.0132 92.5774 30.0292 92.5854 30.0492L92.6914 30.2752C92.7114 30.3132 92.7154 30.3432 92.7034 30.3592 92.6934 30.3752 92.6754 30.3912 92.6514 30.4032 92.4834 30.4872 92.3074 30.5432 92.1214 30.5732 91.9374 30.6032 91.7694 30.6172 91.6154 30.6172 91.2214 30.6172 90.9274 30.5092 90.7394 30.2892 90.5514 30.0712 90.4554 29.7392 90.4554 29.2952 90.4554 28.9792 90.4934 28.6972 90.5694 28.4472 90.6454 28.1952 90.7514 27.9812 90.8874 27.8072 91.0234 27.6312 91.1874 27.4992 91.3834 27.4092 91.5754 27.3172 91.7874 27.2712 92.0214 27.2712L92.0214 27.2712zM93.3694 28.2012C93.3774 28.1652 93.3854 28.1432 93.3974 28.1372 93.4094 28.1292 93.4334 28.1252 93.4634 28.1252L93.7414 28.1252C93.7674 28.1252 93.7854 28.1292 93.7994 28.1372 93.8134 28.1432 93.8174 28.1652 93.8114 28.2012L93.6394 29.4252C93.6174 29.5692 93.6074 29.6932 93.6094 29.7892 93.6094 29.8892 93.6294 29.9692 93.6674 30.0332 93.7054 30.0952 93.7634 30.1372 93.8434 30.1672 93.9234 30.1952 94.0334 30.2072 94.1734 30.2072 94.2074 30.2072 94.2594 30.2072 94.3294 30.2032 94.3974 30.2012 94.4814 30.1912 94.5774 30.1772L94.8554 28.2012C94.8614 28.1652 94.8694 28.1432 94.8834 28.1372 94.8954 28.1292 94.9174 28.1252 94.9474 28.1252L95.2274 28.1252C95.2514 28.1252 95.2714 28.1292 95.2834 28.1372 95.2974 28.1432 95.3034 28.1652 95.2954 28.2012L95.0174 30.1852C94.9874 30.4072 94.8614 30.5372 94.6454 30.5752 94.6034 30.5812 94.5554 30.5872 94.5054 30.5912 94.4534 30.5972 94.4014 30.6012 94.3534 30.6032 94.3014 30.6072 94.2514 30.6092 94.2054 30.6112 94.1594 30.6132 94.1174 30.6132 94.0794 30.6132 93.8794 30.6132 93.7134 30.5912 93.5874 30.5472 93.4574 30.5032 93.3594 30.4352 93.2914 30.3412 93.2234 30.2472 93.1834 30.1252 93.1714 29.9752 93.1574 29.8292 93.1674 29.6492 93.1994 29.4392L93.3694 28.2012zM96.5014 30.4632C96.5114 30.5132 96.4894 30.5452 96.4374 30.5612 96.3634 30.5852 96.2894 30.6032 96.2154 30.6092 96.1414 30.6152 96.0774 30.6172 96.0234 30.6172 95.8654 30.6172 95.7594 30.5792 95.7014 30.5032 95.6454 30.4272 95.6274 30.3052 95.6534 30.1372L96.0614 27.2492C96.0674 27.2152 96.0774 27.1932 96.0894 27.1872 96.1014 27.1772 96.1214 27.1752 96.1494 27.1752L96.4374 27.1752C96.4694 27.1752 96.4894 27.1772 96.5014 27.1872 96.5154 27.1932 96.5174 27.2152 96.5114 27.2492L96.1214 30.0152C96.1094 30.0972 96.1114 30.1492 96.1314 30.1692 96.1494 30.1912 96.1874 30.2012 96.2414 30.2012 96.2674 30.2012 96.2934 30.1992 96.3234 30.1972 96.3534 30.1972 96.3794 30.1952 96.4054 30.1912 96.4274 30.1872 96.4394 30.1892 96.4454 30.1952 96.4534 30.2012 96.4594 30.2152 96.4654 30.2412L96.5014 30.4632zM96.9714 28.4972C96.9374 28.4972 96.9174 28.4892 96.9134 28.4752 96.9074 28.4592 96.9094 28.4432 96.9154 28.4232L96.9334 28.2672C96.9394 28.2412 96.9474 28.2212 96.9554 28.2072 96.9634 28.1932 96.9834 28.1852 97.0174 28.1792L97.3754 28.1032 97.5194 27.6712C97.5294 27.6352 97.5434 27.6132 97.5554 27.5992 97.5674 27.5852 97.5914 27.5712 97.6254 27.5592L97.8014 27.4952C97.8234 27.4892 97.8414 27.4892 97.8554 27.4972 97.8694 27.5052 97.8714 27.5252 97.8654 27.5592L97.7834 28.1292 98.3154 28.1292C98.3474 28.1292 98.3654 28.1372 98.3714 28.1512 98.3794 28.1652 98.3794 28.1852 98.3754 28.2032L98.3494 28.4232C98.3434 28.4472 98.3354 28.4632 98.3254 28.4772 98.3154 28.4912 98.2974 28.4972 98.2654 28.4972L97.7314 28.4972 97.5274 29.9452C97.5134 30.0452 97.5234 30.1192 97.5634 30.1592 97.6054 30.2032 97.6734 30.2212 97.7694 30.2212 97.8094 30.2212 97.8654 30.2192 97.9374 30.2092 98.0074 30.2032 98.0654 30.1972 98.1114 30.1912 98.1414 30.1852 98.1574 30.1872 98.1654 30.1972 98.1734 30.2072 98.1794 30.2212 98.1814 30.2412L98.2194 30.4692C98.2194 30.4892 98.2174 30.5052 98.2154 30.5192 98.2114 30.5332 98.1954 30.5432 98.1674 30.5512 98.1214 30.5672 98.0714 30.5792 98.0174 30.5872 97.9634 30.5952 97.9114 30.6012 97.8634 30.6072 97.8154 30.6112 97.7714 30.6152 97.7314 30.6152 97.6914 30.6172 97.6594 30.6172 97.6394 30.6172 97.4014 30.6172 97.2414 30.5652 97.1594 30.4572 97.0774 30.3552 97.0534 30.1912 97.0874 29.9692L97.2914 28.4972 96.9714 28.4972zM98.8594 28.2012C98.8654 28.1652 98.8754 28.1432 98.8874 28.1372 98.8994 28.1292 98.9214 28.1252 98.9514 28.1252L99.2294 28.1252C99.2554 28.1252 99.2734 28.1292 99.2894 28.1372 99.3034 28.1432 99.3074 28.1652 99.3014 28.2012L99.1294 29.4252C99.1074 29.5692 99.0974 29.6932 99.0994 29.7892 99.0994 29.8892 99.1194 29.9692 99.1554 30.0332 99.1934 30.0952 99.2514 30.1372 99.3334 30.1672 99.4134 30.1952 99.5234 30.2072 99.6614 30.2072 99.6954 30.2072 99.7474 30.2072 99.8174 30.2032 99.8874 30.2012 99.9694 30.1912 100.0654 30.1772L100.3434 28.2012C100.3514 28.1652 100.3594 28.1432 100.3714 28.1372 100.3854 28.1292 100.4054 28.1252 100.4374 28.1252L100.7154 28.1252C100.7394 28.1252 100.7594 28.1292 100.7734 28.1372 100.7874 28.1432 100.7914 28.1652 100.7854 28.2012L100.5074 30.1852C100.4754 30.4072 100.3514 30.5372 100.1354 30.5752 100.0934 30.5812 100.0454 30.5872 99.9934 30.5912 99.9434 30.5972 99.8914 30.6012 99.8414 30.6032 99.7894 30.6072 99.7414 30.6092 99.6934 30.6112 99.6474 30.6132 99.6054 30.6132 99.5694 30.6132 99.3674 30.6132 99.2034 30.5912 99.0754 30.5472 98.9474 30.5032 98.8494 30.4352 98.7794 30.3412 98.7114 30.2472 98.6734 30.1252 98.6594 29.9752 98.6474 29.8292 98.6574 29.6492 98.6874 29.4392L98.8594 28.2012zM101.4054 28.4912C101.4254 28.3692 101.4594 28.2772 101.5074 28.2192 101.5534 28.1592 101.6434 28.1212 101.7734 28.1032 101.9154 28.0832 102.0594 28.0712 102.2054 28.0672 102.3494 28.0632 102.4814 28.0592 102.5994 28.0592 102.6434 28.0592 102.6714 28.0652 102.6874 28.0732 102.7034 28.0832 102.7054 28.1152 102.6954 28.1672L102.6454 28.4412C102.6354 28.4912 102.6214 28.5192 102.6034 28.5232 102.5854 28.5272 102.5614 28.5292 102.5294 28.5252 102.4214 28.5152 102.3094 28.5072 102.1914 28.4992 102.0734 28.4912 101.9594 28.4852 101.8534 28.4812L101.5634 30.4912C101.5594 30.5272 101.5494 30.5452 101.5374 30.5532 101.5234 30.5612 101.5034 30.5652 101.4714 30.5652L101.1934 30.5652C101.1694 30.5652 101.1494 30.5612 101.1354 30.5532 101.1214 30.5452 101.1174 30.5272 101.1234 30.4912L101.4054 28.4912zM104.0334 28.0792C104.1314 28.0792 104.2534 28.0852 104.3994 28.0952 104.5454 28.1072 104.7054 28.1332 104.8814 28.1812 104.9354 28.1972 104.9634 28.2152 104.9714 28.2392 104.9774 28.2632 104.9774 28.2892 104.9714 28.3252 104.9174 28.6912 104.8674 29.0372 104.8214 29.3672 104.7754 29.6972 104.7294 30.0352 104.6874 30.3792 104.6854 30.4232 104.6594 30.4532 104.6134 30.4692 104.5414 30.4972 104.4654 30.5212 104.3834 30.5392 104.3014 30.5592 104.2174 30.5772 104.1314 30.5872 104.0434 30.5972 103.9594 30.6072 103.8774 30.6112 103.7954 30.6152 103.7214 30.6172 103.6574 30.6172 103.4834 30.6172 103.3394 30.5932 103.2254 30.5472 103.1114 30.5012 103.0194 30.4392 102.9494 30.3572 102.8794 30.2772 102.8294 30.1852 102.8014 30.0752 102.7714 29.9692 102.7574 29.8572 102.7574 29.7352 102.7574 29.5072 102.7794 29.2912 102.8234 29.0912 102.8694 28.8892 102.9414 28.7132 103.0454 28.5632 103.1474 28.4132 103.2794 28.2952 103.4414 28.2072 103.6034 28.1212 103.8014 28.0792 104.0334 28.0792L104.0334 28.0792zM103.7774 30.2212C103.8154 30.2212 103.8554 30.2212 103.8974 30.2172 103.9414 30.2152 103.9854 30.2092 104.0294 30.2032 104.0754 30.1972 104.1194 30.1912 104.1614 30.1812 104.2014 30.1712 104.2374 30.1612 104.2654 30.1492 104.2994 29.8612 104.3354 29.5872 104.3714 29.3252 104.4094 29.0612 104.4494 28.7952 104.4914 28.5252 104.4254 28.5052 104.3474 28.4932 104.2574 28.4852 104.1694 28.4772 104.0894 28.4732 104.0194 28.4732 103.9194 28.4732 103.8214 28.4912 103.7254 28.5292 103.6274 28.5652 103.5394 28.6292 103.4614 28.7232 103.3854 28.8152 103.3214 28.9392 103.2734 29.0952 103.2274 29.2512 103.2014 29.4512 103.2014 29.6912 103.2014 29.7752 103.2114 29.8492 103.2294 29.9132 103.2494 29.9772 103.2794 30.0332 103.3254 30.0792 103.3694 30.1252 103.4294 30.1612 103.5034 30.1852 103.5774 30.2092 103.6694 30.2212 103.7774 30.2212L103.7774 30.2212zM43.1374 32.5792C43.1434 32.5452 43.1534 32.5252 43.1654 32.5172 43.1774 32.5092 43.1974 32.5052 43.2254 32.5052L43.5134 32.5052C43.5374 32.5052 43.5574 32.5092 43.5714 32.5172 43.5854 32.5252 43.5894 32.5452 43.5834 32.5792L43.1474 35.6892C43.1414 35.7132 43.1334 35.7312 43.1234 35.7432 43.1134 35.7572 43.0974 35.7692 43.0734 35.7772 42.9054 35.8492 42.7374 35.8932 42.5674 35.9152 42.3974 35.9372 42.2474 35.9492 42.1174 35.9492 41.9534 35.9492 41.8134 35.9232 41.6994 35.8732 41.5854 35.8232 41.4914 35.7572 41.4214 35.6692 41.3494 35.5792 41.2994 35.4752 41.2694 35.3572 41.2374 35.2372 41.2214 35.1072 41.2214 34.9632 41.2214 34.7572 41.2474 34.5592 41.3014 34.3712 41.3534 34.1832 41.4334 34.0172 41.5414 33.8732 41.6494 33.7312 41.7834 33.6192 41.9454 33.5372 42.1054 33.4532 42.2974 33.4092 42.5154 33.4092 42.5774 33.4092 42.6534 33.4152 42.7414 33.4232 42.8294 33.4312 42.9194 33.4472 43.0134 33.4692L43.1374 32.5792zM42.9574 33.8712C42.8574 33.8412 42.7734 33.8232 42.7034 33.8152 42.6354 33.8092 42.5634 33.8052 42.4934 33.8052 42.3934 33.8052 42.2954 33.8232 42.1974 33.8632 42.1014 33.9012 42.0154 33.9652 41.9374 34.0532 41.8614 34.1432 41.8014 34.2632 41.7554 34.4092 41.7094 34.5552 41.6854 34.7372 41.6854 34.9532 41.6854 35.1652 41.7314 35.3192 41.8254 35.4112 41.9174 35.5072 42.0574 35.5532 42.2414 35.5532 42.2794 35.5532 42.3194 35.5512 42.3634 35.5492 42.4054 35.5452 42.4494 35.5412 42.4954 35.5332 42.5394 35.5252 42.5834 35.5172 42.6254 35.5072 42.6674 35.4992 42.7014 35.4872 42.7294 35.4752L42.9574 33.8712zM44.9374 33.7892C44.7534 33.7892 44.6014 33.8472 44.4834 33.9592 44.3654 34.0732 44.2874 34.2492 44.2474 34.4912 44.2994 34.4972 44.3554 34.5012 44.4134 34.5032 44.4734 34.5052 44.5234 34.5052 44.5674 34.5052 44.7254 34.5052 44.8554 34.4972 44.9594 34.4792 45.0634 34.4632 45.1454 34.4372 45.2054 34.4032 45.2654 34.3692 45.3074 34.3272 45.3294 34.2752 45.3534 34.2252 45.3654 34.1652 45.3654 34.0972 45.3654 34.0572 45.3574 34.0192 45.3434 33.9812 45.3294 33.9452 45.3074 33.9112 45.2734 33.8832 45.2414 33.8572 45.1974 33.8332 45.1434 33.8152 45.0874 33.7992 45.0194 33.7892 44.9374 33.7892L44.9374 33.7892zM44.6374 35.9492C44.3374 35.9492 44.1154 35.8732 43.9734 35.7252 43.8294 35.5772 43.7594 35.3392 43.7594 35.0112 43.7594 34.7292 43.7914 34.4872 43.8554 34.2852 43.9174 34.0832 44.0054 33.9172 44.1134 33.7872 44.2254 33.6572 44.3534 33.5612 44.4974 33.5012 44.6434 33.4412 44.7994 33.4092 44.9654 33.4092 45.1234 33.4092 45.2554 33.4312 45.3574 33.4732 45.4614 33.5152 45.5434 33.5672 45.6034 33.6272 45.6634 33.6912 45.7074 33.7592 45.7314 33.8352 45.7574 33.9112 45.7694 33.9812 45.7694 34.0452 45.7694 34.3272 45.6714 34.5332 45.4794 34.6592 45.2854 34.7872 44.9854 34.8492 44.5814 34.8492 44.5194 34.8492 44.4574 34.8472 44.3974 34.8452 44.3374 34.8412 44.2714 34.8352 44.1994 34.8252 44.1914 34.8892 44.1874 34.9512 44.1874 35.0032 44.1874 35.2032 44.2274 35.3452 44.3094 35.4292 44.3914 35.5132 44.5294 35.5532 44.7254 35.5532 44.8234 35.5532 44.9194 35.5392 45.0094 35.5132 45.1014 35.4832 45.1814 35.4552 45.2494 35.4192 45.2734 35.4072 45.2914 35.4032 45.3014 35.4092 45.3134 35.4112 45.3254 35.4252 45.3374 35.4472L45.4434 35.6652C45.4694 35.7112 45.4534 35.7472 45.3974 35.7732 45.2734 35.8432 45.1474 35.8892 45.0154 35.9132 44.8834 35.9372 44.7574 35.9492 44.6374 35.9492L44.6374 35.9492zM48.2194 35.7952C48.2294 35.8452 48.2054 35.8772 48.1534 35.8932 48.0794 35.9172 48.0054 35.9332 47.9314 35.9392 47.8574 35.9452 47.7934 35.9492 47.7414 35.9492 47.5834 35.9492 47.4754 35.9112 47.4174 35.8352 47.3614 35.7592 47.3454 35.6372 47.3694 35.4692L47.7774 32.5792C47.7834 32.5452 47.7934 32.5252 47.8054 32.5172 47.8174 32.5092 47.8374 32.5052 47.8654 32.5052L48.1534 32.5052C48.1854 32.5052 48.2054 32.5092 48.2194 32.5172 48.2314 32.5252 48.2334 32.5452 48.2294 32.5792L47.8374 35.3452C47.8254 35.4292 47.8294 35.4812 47.8474 35.5012 47.8654 35.5212 47.9034 35.5312 47.9594 35.5312 47.9834 35.5312 48.0114 35.5312 48.0394 35.5292 48.0694 35.5272 48.0974 35.5252 48.1214 35.5232 48.1434 35.5192 48.1574 35.5212 48.1634 35.5272 48.1694 35.5332 48.1754 35.5472 48.1814 35.5732L48.2194 35.7952zM49.8854 33.4092C49.9834 33.4092 50.1054 33.4152 50.2514 33.4272 50.3974 33.4372 50.5574 33.4652 50.7334 33.5132 50.7854 33.5292 50.8154 33.5472 50.8214 33.5712 50.8274 33.5932 50.8274 33.6212 50.8214 33.6572 50.7694 34.0212 50.7194 34.3692 50.6734 34.6992 50.6274 35.0272 50.5814 35.3672 50.5394 35.7112 50.5354 35.7552 50.5114 35.7852 50.4634 35.7992 50.3934 35.8272 50.3174 35.8532 50.2354 35.8712 50.1514 35.8912 50.0674 35.9072 49.9814 35.9192 49.8954 35.9292 49.8114 35.9372 49.7294 35.9412 49.6474 35.9472 49.5734 35.9492 49.5094 35.9492 49.3354 35.9492 49.1914 35.9252 49.0774 35.8772 48.9634 35.8332 48.8714 35.7692 48.8014 35.6892 48.7314 35.6092 48.6814 35.5152 48.6514 35.4092 48.6234 35.3012 48.6074 35.1892 48.6074 35.0672 48.6074 34.8392 48.6314 34.6212 48.6754 34.4212 48.7214 34.2192 48.7934 34.0452 48.8974 33.8952 48.9974 33.7452 49.1294 33.6252 49.2934 33.5392 49.4554 33.4552 49.6514 33.4092 49.8854 33.4092L49.8854 33.4092zM49.6294 35.5532C49.6654 35.5532 49.7074 35.5512 49.7494 35.5492 49.7934 35.5452 49.8374 35.5412 49.8814 35.5372 49.9274 35.5292 49.9714 35.5232 50.0134 35.5132 50.0534 35.5032 50.0894 35.4912 50.1154 35.4792 50.1494 35.1932 50.1854 34.9192 50.2234 34.6552 50.2594 34.3932 50.3014 34.1272 50.3434 33.8572 50.2754 33.8372 50.1974 33.8232 50.1094 33.8152 50.0214 33.8092 49.9414 33.8052 49.8694 33.8052 49.7714 33.8052 49.6734 33.8232 49.5754 33.8612 49.4794 33.8972 49.3914 33.9612 49.3134 34.0532 49.2354 34.1472 49.1734 34.2712 49.1254 34.4272 49.0774 34.5832 49.0554 34.7832 49.0554 35.0232 49.0554 35.1052 49.0634 35.1792 49.0814 35.2432 49.1014 35.3092 49.1314 35.3652 49.1774 35.4112 49.2214 35.4552 49.2814 35.4912 49.3554 35.5172 49.4294 35.5412 49.5214 35.5532 49.6294 35.5532L49.6294 35.5532zM54.0794 32.6032C54.1354 32.6032 54.1974 32.6052 54.2694 32.6112 54.3414 32.6152 54.4134 32.6232 54.4894 32.6372 54.5654 32.6512 54.6434 32.6712 54.7214 32.6972 54.8014 32.7192 54.8754 32.7532 54.9454 32.7932 54.9614 32.8012 54.9714 32.8132 54.9734 32.8292 54.9734 32.8432 54.9674 32.8692 54.9514 32.9092L54.8554 33.1352C54.8354 33.1832 54.8034 33.1972 54.7614 33.1732 54.6614 33.1272 54.5494 33.0952 54.4254 33.0732 54.2994 33.0532 54.1914 33.0432 54.1034 33.0432 53.8834 33.0432 53.7014 33.0912 53.5594 33.1832 53.4174 33.2772 53.3054 33.3972 53.2234 33.5492 53.1414 33.7012 53.0834 33.8712 53.0514 34.0592 53.0194 34.2492 53.0034 34.4372 53.0034 34.6252 53.0034 34.7532 53.0134 34.8712 53.0354 34.9752 53.0574 35.0832 53.0974 35.1772 53.1554 35.2572 53.2154 35.3372 53.2954 35.3992 53.3954 35.4452 53.4994 35.4892 53.6314 35.5132 53.7914 35.5132 53.9214 35.5132 54.0514 35.4952 54.1814 35.4572 54.3114 35.4232 54.4294 35.3832 54.5334 35.3412 54.5754 35.3252 54.6054 35.3232 54.6154 35.3352 54.6254 35.3452 54.6354 35.3612 54.6454 35.3812L54.7514 35.6052C54.7714 35.6452 54.7734 35.6752 54.7634 35.6912 54.7534 35.7072 54.7334 35.7232 54.7114 35.7352 54.5434 35.8192 54.3654 35.8732 54.1814 35.9032 53.9954 35.9352 53.8274 35.9492 53.6754 35.9492 53.2794 35.9492 52.9874 35.8392 52.7994 35.6212 52.6094 35.4032 52.5154 35.0712 52.5154 34.6252 52.5154 34.3092 52.5534 34.0272 52.6294 33.7772 52.7054 33.5272 52.8114 33.3132 52.9454 33.1372 53.0834 32.9632 53.2474 32.8312 53.4414 32.7392 53.6354 32.6492 53.8474 32.6032 54.0794 32.6032L54.0794 32.6032zM55.8894 32.5252C55.9634 32.5252 56.0234 32.5492 56.0714 32.5992 56.1194 32.6472 56.1434 32.7072 56.1434 32.7792 56.1434 32.8252 56.1334 32.8712 56.1134 32.9112 56.0934 32.9532 56.0674 32.9912 56.0334 33.0232 56.0014 33.0552 55.9654 33.0812 55.9254 33.1012 55.8854 33.1192 55.8434 33.1272 55.8014 33.1272 55.7294 33.1272 55.6694 33.1032 55.6214 33.0552 55.5734 33.0072 55.5494 32.9492 55.5494 32.8752 55.5494 32.8292 55.5594 32.7872 55.5774 32.7432 55.5954 32.6992 55.6214 32.6612 55.6514 32.6272 55.6834 32.5972 55.7194 32.5692 55.7594 32.5512 55.7994 32.5352 55.8414 32.5252 55.8894 32.5252L55.8894 32.5252zM55.6434 35.8232C55.6374 35.8572 55.6274 35.8772 55.6154 35.8852 55.6034 35.8932 55.5814 35.8972 55.5494 35.8972L55.2714 35.8972C55.2434 35.8972 55.2234 35.8932 55.2094 35.8852 55.1934 35.8772 55.1914 35.8572 55.1974 35.8232L55.5174 33.5372C55.5234 33.5012 55.5334 33.4792 55.5474 33.4732 55.5614 33.4652 55.5814 33.4612 55.6094 33.4612L55.8894 33.4612C55.9194 33.4612 55.9414 33.4652 55.9534 33.4732 55.9654 33.4792 55.9694 33.5012 55.9634 33.5372L55.6434 35.8232zM56.6454 33.5312C56.6514 33.4972 56.6594 33.4752 56.6734 33.4672 56.6854 33.4592 56.7074 33.4552 56.7374 33.4552L57.0174 33.4552C57.0414 33.4552 57.0594 33.4592 57.0734 33.4672 57.0874 33.4752 57.0914 33.4972 57.0854 33.5312L56.9134 34.7552C56.8934 34.9012 56.8814 35.0232 56.8834 35.1212 56.8854 35.2212 56.9054 35.3012 56.9414 35.3652 56.9794 35.4252 57.0374 35.4692 57.1174 35.4992 57.1994 35.5272 57.3094 35.5392 57.4474 35.5392 57.4814 35.5392 57.5334 35.5372 57.6034 35.5372 57.6734 35.5332 57.7554 35.5232 57.8514 35.5072L58.1294 33.5312C58.1354 33.4972 58.1454 33.4752 58.1574 33.4672 58.1694 33.4592 58.1914 33.4552 58.2234 33.4552L58.5014 33.4552C58.5254 33.4552 58.5454 33.4592 58.5594 33.4672 58.5714 33.4752 58.5754 33.4972 58.5694 33.5312L58.2914 35.5172C58.2614 35.7392 58.1374 35.8712 57.9214 35.9052 57.8774 35.9132 57.8294 35.9192 57.7794 35.9232 57.7294 35.9292 57.6774 35.9312 57.6254 35.9352 57.5754 35.9372 57.5254 35.9412 57.4794 35.9412 57.4334 35.9432 57.3914 35.9432 57.3554 35.9432 57.1534 35.9432 56.9894 35.9232 56.8594 35.8772 56.7314 35.8352 56.6334 35.7672 56.5654 35.6732 56.4974 35.5772 56.4574 35.4552 56.4454 35.3072 56.4334 35.1592 56.4414 34.9792 56.4734 34.7692L56.6454 33.5312zM60.8014 32.5792C60.8094 32.5452 60.8174 32.5252 60.8294 32.5172 60.8414 32.5092 60.8614 32.5052 60.8914 32.5052L61.1794 32.5052C61.2034 32.5052 61.2214 32.5092 61.2354 32.5172 61.2494 32.5252 61.2534 32.5452 61.2474 32.5792L60.8114 35.6892C60.8054 35.7132 60.7974 35.7312 60.7874 35.7432 60.7794 35.7572 60.7614 35.7692 60.7374 35.7772 60.5694 35.8492 60.4014 35.8932 60.2314 35.9152 60.0614 35.9372 59.9114 35.9492 59.7814 35.9492 59.6174 35.9492 59.4794 35.9232 59.3634 35.8732 59.2494 35.8232 59.1554 35.7572 59.0854 35.6692 59.0154 35.5792 58.9634 35.4752 58.9334 35.3572 58.9014 35.2372 58.8874 35.1072 58.8874 34.9632 58.8874 34.7572 58.9114 34.5592 58.9654 34.3712 59.0174 34.1832 59.0974 34.0172 59.2054 33.8732 59.3134 33.7312 59.4494 33.6192 59.6094 33.5372 59.7714 33.4532 59.9614 33.4092 60.1814 33.4092 60.2414 33.4092 60.3174 33.4152 60.4054 33.4232 60.4934 33.4312 60.5834 33.4472 60.6774 33.4692L60.8014 32.5792zM60.6214 33.8712C60.5214 33.8412 60.4374 33.8232 60.3674 33.8152 60.2994 33.8092 60.2294 33.8052 60.1574 33.8052 60.0594 33.8052 59.9594 33.8232 59.8634 33.8632 59.7654 33.9012 59.6794 33.9652 59.6034 34.0532 59.5254 34.1432 59.4654 34.2632 59.4194 34.4092 59.3734 34.5552 59.3494 34.7372 59.3494 34.9532 59.3494 35.1652 59.3954 35.3192 59.4894 35.4112 59.5814 35.5072 59.7214 35.5532 59.9074 35.5532 59.9434 35.5532 59.9834 35.5512 60.0274 35.5492 60.0694 35.5452 60.1134 35.5412 60.1594 35.5332 60.2034 35.5252 60.2474 35.5172 60.2894 35.5072 60.3314 35.4992 60.3654 35.4872 60.3934 35.4752L60.6214 33.8712zM62.6994 33.4092C62.7994 33.4092 62.9214 33.4152 63.0654 33.4272 63.2114 33.4372 63.3734 33.4652 63.5494 33.5132 63.6014 33.5292 63.6314 33.5472 63.6374 33.5712 63.6434 33.5932 63.6434 33.6212 63.6374 33.6572 63.5854 34.0212 63.5354 34.3692 63.4874 34.6992 63.4414 35.0272 63.3974 35.3672 63.3554 35.7112 63.3514 35.7552 63.3254 35.7852 63.2794 35.7992 63.2094 35.8272 63.1314 35.8532 63.0494 35.8712 62.9694 35.8912 62.8834 35.9072 62.7974 35.9192 62.7114 35.9292 62.6254 35.9372 62.5454 35.9412 62.4634 35.9472 62.3894 35.9492 62.3234 35.9492 62.1494 35.9492 62.0074 35.9252 61.8934 35.8772 61.7774 35.8332 61.6874 35.7692 61.6154 35.6892 61.5474 35.6092 61.4974 35.5152 61.4674 35.4092 61.4374 35.3012 61.4234 35.1892 61.4234 35.0672 61.4234 34.8392 61.4454 34.6212 61.4914 34.4212 61.5354 34.2192 61.6094 34.0452 61.7114 33.8952 61.8134 33.7452 61.9454 33.6252 62.1074 33.5392 62.2714 33.4552 62.4674 33.4092 62.6994 33.4092L62.6994 33.4092zM62.4434 35.5532C62.4814 35.5532 62.5214 35.5512 62.5654 35.5492 62.6094 35.5452 62.6514 35.5412 62.6974 35.5372 62.7414 35.5292 62.7854 35.5232 62.8274 35.5132 62.8694 35.5032 62.9034 35.4912 62.9314 35.4792 62.9654 35.1932 63.0014 34.9192 63.0394 34.6552 63.0754 34.3932 63.1154 34.1272 63.1594 33.8572 63.0914 33.8372 63.0134 33.8232 62.9254 33.8152 62.8374 33.8092 62.7574 33.8052 62.6874 33.8052 62.5874 33.8052 62.4894 33.8232 62.3914 33.8612 62.2934 33.8972 62.2074 33.9612 62.1294 34.0532 62.0514 34.1472 61.9894 34.2712 61.9414 34.4272 61.8934 34.5832 61.8694 34.7832 61.8694 35.0232 61.8694 35.1052 61.8794 35.1792 61.8974 35.2432 61.9154 35.3092 61.9474 35.3652 61.9914 35.4112 62.0374 35.4552 62.0974 35.4912 62.1714 35.5172 62.2454 35.5412 62.3374 35.5532 62.4434 35.5532L62.4434 35.5532zM65.8876 32.5792C65.8936 32.5452 65.9036 32.5252 65.9156 32.5172 65.9276 32.5092 65.9476 32.5052 65.9756 32.5052L66.2636 32.5052C66.2876 32.5052 66.3076 32.5092 66.3216 32.5172 66.3356 32.5252 66.3396 32.5452 66.3336 32.5792L65.8956 35.6892C65.8896 35.7132 65.8836 35.7312 65.8736 35.7432 65.8636 35.7572 65.8476 35.7692 65.8216 35.7772 65.6556 35.8492 65.4876 35.8932 65.3176 35.9152 65.1456 35.9372 64.9976 35.9492 64.8676 35.9492 64.7036 35.9492 64.5636 35.9232 64.4496 35.8732 64.3356 35.8232 64.2416 35.7572 64.1716 35.6692 64.0996 35.5792 64.0496 35.4752 64.0176 35.3572 63.9856 35.2372 63.9716 35.1072 63.9716 34.9632 63.9716 34.7572 63.9976 34.5592 64.0496 34.3712 64.1016 34.1832 64.1836 34.0172 64.2916 33.8732 64.3996 33.7312 64.5336 33.6192 64.6956 33.5372 64.8556 33.4532 65.0456 33.4092 65.2656 33.4092 65.3276 33.4092 65.4016 33.4152 65.4916 33.4232 65.5796 33.4312 65.6696 33.4472 65.7636 33.4692L65.8876 32.5792zM65.7076 33.8712C65.6076 33.8412 65.5236 33.8232 65.4536 33.8152 65.3836 33.8092 65.3136 33.8052 65.2416 33.8052 65.1436 33.8052 65.0456 33.8232 64.9476 33.8632 64.8496 33.9012 64.7636 33.9652 64.6876 34.0532 64.6116 34.1432 64.5516 34.2632 64.5056 34.4092 64.4576 34.5552 64.4356 34.7372 64.4356 34.9532 64.4356 35.1652 64.4816 35.3192 64.5736 35.4112 64.6676 35.5072 64.8056 35.5532 64.9916 35.5532 65.0296 35.5532 65.0696 35.5512 65.1116 35.5492 65.1556 35.5452 65.1996 35.5412 65.2456 35.5332 65.2896 35.5252 65.3336 35.5172 65.3756 35.5072 65.4176 35.4992 65.4516 35.4872 65.4796 35.4752L65.7076 33.8712zM69.7056 32.5792C69.7136 32.5452 69.7216 32.5252 69.7336 32.5172 69.7456 32.5092 69.7656 32.5052 69.7956 32.5052L70.0816 32.5052C70.1056 32.5052 70.1256 32.5092 70.1396 32.5172 70.1536 32.5252 70.1576 32.5452 70.1516 32.5792L69.7156 35.6892C69.7096 35.7132 69.7016 35.7312 69.6916 35.7432 69.6836 35.7572 69.6656 35.7692 69.6396 35.7772 69.4736 35.8492 69.3056 35.8932 69.1356 35.9152 68.9656 35.9372 68.8156 35.9492 68.6856 35.9492 68.5216 35.9492 68.3816 35.9232 68.2676 35.8732 68.1536 35.8232 68.0596 35.7572 67.9896 35.6692 67.9176 35.5792 67.8676 35.4752 67.8356 35.3572 67.8056 35.2372 67.7896 35.1072 67.7896 34.9632 67.7896 34.7572 67.8156 34.5592 67.8696 34.3712 67.9216 34.1832 68.0016 34.0172 68.1096 33.8732 68.2176 33.7312 68.3516 33.6192 68.5136 33.5372 68.6756 33.4532 68.8656 33.4092 69.0836 33.4092 69.1456 33.4092 69.2216 33.4152 69.3096 33.4232 69.3976 33.4312 69.4876 33.4472 69.5816 33.4692L69.7056 32.5792zM69.5256 33.8712C69.4256 33.8412 69.3416 33.8232 69.2716 33.8152 69.2036 33.8092 69.1336 33.8052 69.0616 33.8052 68.9616 33.8052 68.8636 33.8232 68.7656 33.8632 68.6696 33.9012 68.5816 33.9652 68.5076 34.0532 68.4316 34.1432 68.3696 34.2632 68.3236 34.4092 68.2776 34.5552 68.2536 34.7372 68.2536 34.9532 68.2536 35.1652 68.3016 35.3192 68.3936 35.4112 68.4856 35.5072 68.6256 35.5532 68.8096 35.5532 68.8476 35.5532 68.8876 35.5512 68.9316 35.5492 68.9736 35.5452 69.0176 35.5412 69.0636 35.5332 69.1076 35.5252 69.1516 35.5172 69.1936 35.5072 69.2336 35.4992 69.2696 35.4872 69.2976 35.4752L69.5256 33.8712zM71.5076 33.7892C71.3216 33.7892 71.1696 33.8472 71.0516 33.9592 70.9336 34.0732 70.8556 34.2492 70.8136 34.4912 70.8676 34.4972 70.9236 34.5012 70.9816 34.5032 71.0416 34.5052 71.0916 34.5052 71.1356 34.5052 71.2936 34.5052 71.4236 34.4972 71.5276 34.4792 71.6316 34.4632 71.7136 34.4372 71.7736 34.4032 71.8336 34.3692 71.8756 34.3272 71.8976 34.2752 71.9216 34.2252 71.9336 34.1652 71.9336 34.0972 71.9336 34.0572 71.9276 34.0192 71.9136 33.9812 71.8976 33.9452 71.8756 33.9112 71.8436 33.8832 71.8096 33.8572 71.7656 33.8332 71.7116 33.8152 71.6556 33.7992 71.5876 33.7892 71.5076 33.7892L71.5076 33.7892zM71.2056 35.9492C70.9056 35.9492 70.6836 35.8732 70.5416 35.7252 70.3996 35.5772 70.3276 35.3392 70.3276 35.0112 70.3276 34.7292 70.3596 34.4872 70.4236 34.2852 70.4856 34.0832 70.5736 33.9172 70.6816 33.7872 70.7936 33.6572 70.9196 33.5612 71.0656 33.5012 71.2116 33.4412 71.3676 33.4092 71.5336 33.4092 71.6916 33.4092 71.8216 33.4312 71.9276 33.4732 72.0296 33.5152 72.1116 33.5672 72.1736 33.6272 72.2316 33.6912 72.2756 33.7592 72.2996 33.8352 72.3236 33.9112 72.3376 33.9812 72.3376 34.0452 72.3376 34.3272 72.2396 34.5332 72.0476 34.6592 71.8536 34.7872 71.5536 34.8492 71.1496 34.8492 71.0876 34.8492 71.0256 34.8472 70.9656 34.8452 70.9056 34.8412 70.8396 34.8352 70.7676 34.8252 70.7596 34.8892 70.7556 34.9512 70.7556 35.0032 70.7556 35.2032 70.7956 35.3452 70.8776 35.4292 70.9596 35.5132 71.0976 35.5532 71.2936 35.5532 71.3916 35.5532 71.4876 35.5392 71.5776 35.5132 71.6696 35.4832 71.7496 35.4532 71.8176 35.4192 71.8416 35.4072 71.8596 35.4032 71.8696 35.4092 71.8816 35.4112 71.8936 35.4252 71.9056 35.4472L72.0136 35.6652C72.0376 35.7112 72.0216 35.7472 71.9656 35.7732 71.8416 35.8432 71.7156 35.8892 71.5836 35.9132 71.4516 35.9372 71.3256 35.9492 71.2056 35.9492L71.2056 35.9492zM75.1896 33.0312C74.9936 33.0312 74.8496 33.0732 74.7636 33.1592 74.6776 33.2472 74.6336 33.3492 74.6336 33.4652 74.6336 33.5672 74.6916 33.6612 74.8096 33.7452 74.9276 33.8272 75.1056 33.9252 75.3436 34.0332 75.4456 34.0792 75.5476 34.1292 75.6476 34.1852 75.7476 34.2412 75.8376 34.3052 75.9176 34.3772 75.9956 34.4512 76.0596 34.5352 76.1056 34.6312 76.1556 34.7252 76.1796 34.8412 76.1796 34.9732 76.1796 35.1492 76.1436 35.2992 76.0776 35.4212 76.0096 35.5432 75.9196 35.6452 75.8076 35.7232 75.6956 35.8012 75.5676 35.8592 75.4236 35.8952 75.2776 35.9312 75.1276 35.9492 74.9716 35.9492 74.7876 35.9492 74.5916 35.9332 74.3836 35.8992 74.1756 35.8692 73.9896 35.8032 73.8216 35.7112 73.7876 35.6972 73.7836 35.6632 73.8116 35.6152L73.9476 35.3312C73.9636 35.2932 73.9896 35.2832 74.0296 35.2992 74.1796 35.3712 74.3316 35.4252 74.4856 35.4612 74.6396 35.4992 74.7856 35.5172 74.9216 35.5172 75.1836 35.5172 75.3736 35.4712 75.4896 35.3812 75.6056 35.2912 75.6636 35.1652 75.6636 35.0032 75.6636 34.9312 75.6516 34.8692 75.6236 34.8152 75.5976 34.7632 75.5576 34.7152 75.5056 34.6732 75.4536 34.6292 75.3876 34.5872 75.3116 34.5452 75.2336 34.5072 75.1436 34.4612 75.0416 34.4112 74.8836 34.3352 74.7476 34.2632 74.6316 34.1952 74.5156 34.1252 74.4196 34.0552 74.3436 33.9832 74.2676 33.9112 74.2116 33.8332 74.1756 33.7492 74.1376 33.6652 74.1196 33.5732 74.1196 33.4692 74.1196 33.1872 74.2176 32.9692 74.4136 32.8172 74.6096 32.6692 74.8816 32.5932 75.2276 32.5932 75.3836 32.5932 75.5416 32.6092 75.7076 32.6372 75.8736 32.6672 76.0216 32.7132 76.1516 32.7752 76.1676 32.7852 76.1776 32.7932 76.1836 32.8032 76.1896 32.8152 76.1896 32.8332 76.1836 32.8592L76.0856 33.1552C76.0696 33.1792 76.0576 33.1932 76.0496 33.1972 76.0396 33.2012 76.0276 33.1992 76.0116 33.1932 75.8676 33.1352 75.7236 33.0952 75.5836 33.0692 75.4416 33.0412 75.3116 33.0312 75.1896 33.0312L75.1896 33.0312zM77.7656 33.4092C77.8656 33.4092 77.9876 33.4152 78.1336 33.4272 78.2776 33.4372 78.4376 33.4652 78.6156 33.5132 78.6676 33.5292 78.6976 33.5472 78.7036 33.5712 78.7096 33.5932 78.7096 33.6212 78.7036 33.6572 78.6496 34.0212 78.5996 34.3692 78.5536 34.6992 78.5076 35.0272 78.4636 35.3672 78.4196 35.7112 78.4176 35.7552 78.3916 35.7852 78.3456 35.7992 78.2756 35.8272 78.1976 35.8532 78.1156 35.8712 78.0336 35.8912 77.9496 35.9072 77.8636 35.9192 77.7756 35.9292 77.6916 35.9372 77.6096 35.9412 77.5276 35.9472 77.4556 35.9492 77.3896 35.9492 77.2176 35.9492 77.0736 35.9252 76.9596 35.8772 76.8436 35.8332 76.7516 35.7692 76.6816 35.6892 76.6116 35.6092 76.5636 35.5152 76.5336 35.4092 76.5056 35.3012 76.4896 35.1892 76.4896 35.0672 76.4896 34.8392 76.5116 34.6212 76.5556 34.4212 76.6016 34.2192 76.6756 34.0452 76.7776 33.8952 76.8796 33.7452 77.0116 33.6252 77.1756 33.5392 77.3376 33.4532 77.5336 33.4092 77.7656 33.4092L77.7656 33.4092zM77.5116 35.5532C77.5476 35.5532 77.5876 35.5512 77.6316 35.5492 77.6756 35.5452 77.7196 35.5412 77.7636 35.5372 77.8076 35.5292 77.8516 35.5232 77.8936 35.5132 77.9336 35.5032 77.9716 35.4912 77.9976 35.4792 78.0316 35.1932 78.0676 34.9192 78.1036 34.6552 78.1416 34.3932 78.1816 34.1272 78.2256 33.8572 78.1576 33.8372 78.0796 33.8232 77.9916 33.8152 77.9016 33.8092 77.8236 33.8052 77.7516 33.8052 77.6536 33.8052 77.5536 33.8232 77.4576 33.8612 77.3596 33.8972 77.2716 33.9612 77.1956 34.0532 77.1176 34.1472 77.0536 34.2712 77.0076 34.4272 76.9596 34.5832 76.9356 34.7832 76.9356 35.0232 76.9356 35.1052 76.9436 35.1792 76.9636 35.2432 76.9816 35.3092 77.0136 35.3652 77.0576 35.4112 77.1016 35.4552 77.1616 35.4912 77.2376 35.5172 77.3116 35.5412 77.4016 35.5532 77.5116 35.5532L77.5116 35.5532zM79.9276 35.7952C79.9376 35.8452 79.9156 35.8772 79.8636 35.8932 79.7876 35.9172 79.7156 35.9332 79.6396 35.9392 79.5656 35.9452 79.5036 35.9492 79.4496 35.9492 79.2916 35.9492 79.1856 35.9112 79.1276 35.8352 79.0696 35.7592 79.0536 35.6372 79.0796 35.4692L79.4876 32.5792C79.4936 32.5452 79.5036 32.5252 79.5156 32.5172 79.5276 32.5092 79.5476 32.5052 79.5756 32.5052L79.8636 32.5052C79.8936 32.5052 79.9156 32.5092 79.9276 32.5172 79.9396 32.5252 79.9436 32.5452 79.9376 32.5792L79.5476 35.3452C79.5356 35.4292 79.5376 35.4812 79.5576 35.5012 79.5756 35.5212 79.6116 35.5312 79.6676 35.5312 79.6936 35.5312 79.7196 35.5312 79.7496 35.5292 79.7796 35.5272 79.8056 35.5252 79.8316 35.5232 79.8516 35.5192 79.8656 35.5212 79.8716 35.5272 79.8796 35.5332 79.8856 35.5472 79.8896 35.5732L79.9276 35.7952zM80.3956 33.8272C80.3616 33.8272 80.3436 33.8212 80.3396 33.8072 80.3336 33.7912 80.3356 33.7752 80.3416 33.7532L80.3596 33.5992C80.3656 33.5732 80.3716 33.5532 80.3796 33.5392 80.3876 33.5252 80.4096 33.5152 80.4436 33.5092L80.8016 33.4332 80.9436 33.0032C80.9556 32.9672 80.9696 32.9452 80.9816 32.9312 80.9936 32.9152 81.0156 32.9032 81.0516 32.8892L81.2276 32.8252C81.2496 32.8192 81.2656 32.8212 81.2796 32.8292 81.2936 32.8352 81.2996 32.8572 81.2916 32.8892L81.2096 33.4612 81.7416 33.4612C81.7736 33.4612 81.7916 33.4672 81.7976 33.4812 81.8036 33.4972 81.8056 33.5152 81.8036 33.5372L81.7736 33.7532C81.7676 33.7792 81.7616 33.7952 81.7516 33.8092 81.7416 33.8212 81.7216 33.8272 81.6916 33.8272L81.1576 33.8272 80.9536 35.2772C80.9376 35.3772 80.9496 35.4512 80.9896 35.4912 81.0296 35.5332 81.0976 35.5532 81.1956 35.5532 81.2356 35.5532 81.2916 35.5492 81.3616 35.5412 81.4316 35.5352 81.4916 35.5292 81.5376 35.5232 81.5656 35.5152 81.5836 35.5172 81.5916 35.5292 81.5976 35.5372 81.6036 35.5532 81.6076 35.5732L81.6436 35.8012C81.6436 35.8192 81.6436 35.8372 81.6396 35.8512 81.6376 35.8632 81.6216 35.8732 81.5936 35.8832 81.5476 35.8992 81.4976 35.9112 81.4436 35.9192 81.3876 35.9272 81.3376 35.9332 81.2896 35.9372 81.2416 35.9412 81.1976 35.9452 81.1576 35.9472 81.1176 35.9492 81.0876 35.9492 81.0636 35.9492 80.8276 35.9492 80.6676 35.8952 80.5836 35.7892 80.5036 35.6872 80.4776 35.5232 80.5116 35.2992L80.7176 33.8272 80.3956 33.8272zM83.2876 33.4092C83.3876 33.4092 83.5096 33.4152 83.6536 33.4272 83.7996 33.4372 83.9596 33.4652 84.1376 33.5132 84.1896 33.5292 84.2196 33.5472 84.2236 33.5712 84.2316 33.5932 84.2316 33.6212 84.2236 33.6572 84.1716 34.0212 84.1216 34.3692 84.0756 34.6992 84.0296 35.0272 83.9836 35.3672 83.9416 35.7112 83.9376 35.7552 83.9136 35.7852 83.8676 35.7992 83.7976 35.8272 83.7196 35.8532 83.6376 35.8712 83.5556 35.8912 83.4716 35.9072 83.3856 35.9192 83.2976 35.9292 83.2136 35.9372 83.1316 35.9412 83.0496 35.9472 82.9756 35.9492 82.9116 35.9492 82.7376 35.9492 82.5956 35.9252 82.4796 35.8772 82.3656 35.8332 82.2736 35.7692 82.2036 35.6892 82.1356 35.6092 82.0856 35.5152 82.0556 35.4092 82.0256 35.3012 82.0116 35.1892 82.0116 35.0672 82.0116 34.8392 82.0336 34.6212 82.0796 34.4212 82.1236 34.2192 82.1976 34.0452 82.2996 33.8952 82.4016 33.7452 82.5336 33.6252 82.6956 33.5392 82.8576 33.4532 83.0556 33.4092 83.2876 33.4092L83.2876 33.4092zM83.0316 35.5532C83.0696 35.5532 83.1096 35.5512 83.1516 35.5492 83.1956 35.5452 83.2396 35.5412 83.2856 35.5372 83.3296 35.5292 83.3736 35.5232 83.4156 35.5132 83.4556 35.5032 83.4916 35.4912 83.5196 35.4792 83.5536 35.1932 83.5896 34.9192 83.6256 34.6552 83.6636 34.3932 83.7036 34.1272 83.7476 33.8572 83.6796 33.8372 83.5996 33.8232 83.5116 33.8152 83.4256 33.8092 83.3456 33.8052 83.2736 33.8052 83.1756 33.8052 83.0756 33.8232 82.9776 33.8612 82.8816 33.8972 82.7936 33.9612 82.7176 34.0532 82.6396 34.1472 82.5776 34.2712 82.5276 34.4272 82.4796 34.5832 82.4576 34.7832 82.4576 35.0232 82.4576 35.1052 82.4656 35.1792 82.4856 35.2432 82.5036 35.3092 82.5356 35.3652 82.5796 35.4112 82.6256 35.4552 82.6836 35.4912 82.7596 35.5172 82.8316 35.5412 82.9236 35.5532 83.0316 35.5532L83.0316 35.5532zM33.539 4.8586C33.539 4.6206 33.589 4.4706 33.693 4.4106 33.795 4.3506 33.941 4.3206 34.127 4.3206L35.613 4.3206C35.833 4.3206 35.989 4.3506 36.073 4.4106 36.159 4.4706 36.201 4.6206 36.201 4.8586L36.201 35.7386C36.201 35.9786 36.159 36.1286 36.073 36.1886 35.989 36.2466 35.833 36.2766 35.613 36.2766L34.127 36.2766C33.941 36.2766 33.795 36.2466 33.693 36.1886 33.589 36.1286 33.539 35.9786 33.539 35.7386L33.539 4.8586z"/>
  </g>
</svg>
