<svg xmlns="http://www.w3.org/2000/svg" width="106" height="48" viewBox="0 0 106 48">
  <g fill="#424242" transform="translate(0 8)">
    <path d="M45.4755556 28.8626489C43.6662207 28.8626489 41.9148243 28.2820229 40.2307851 27.121907 38.4963509 25.9270746 37.3547608 24.2674521 36.8262568 22.1534358L36.7009448 21.6521879 40.51812 20.0951823 40.6848543 20.7621197C40.9716576 21.9093329 41.5735674 22.8723886 42.4856379 23.6541632 43.3883325 24.4279015 44.3921456 24.82624 45.44 24.82624 46.6449294 24.82624 47.5784362 24.5378395 48.3743595 23.9257272 49.1575626 23.2991647 49.5373511 22.568251 49.5373511 21.6533333 49.5373511 20.5320408 49.1673126 19.7421508 48.3743595 19.1320506 47.5923262 18.5064239 46.2136766 17.8927567 44.2294199 17.2794294 42.0901757 16.6038786 40.4626593 15.7389699 39.3368903 14.6507265 38.1548778 13.5081144 37.5551289 12.0387297 37.5551289 10.3111111 37.5551289 8.49415554 38.2759044 6.8847526 39.6971078 5.54037107 41.121407 4.19306098 42.9707253 3.52846222 45.2266667 3.52846222 47.2933882 3.52846222 49.0266477 4.05806928 50.4055369 5.12216552 51.7098944 6.1963423 52.5492395 7.31861266 52.9742873 8.5937561L53.1488128 9.1173326 49.3183141 10.7301741 49.1336155 10.0837289C48.9491776 9.43819617 48.5791481 8.9044999 47.9200326 8.36492513 47.2298374 7.83159244 46.3915703 7.56487111 45.3333333 7.56487111 44.3284297 7.56487111 43.4599404 7.84120861 42.7850865 8.36267231 42.1128096 8.88880209 41.8048711 9.49783601 41.8048711 10.2755556 41.8048711 10.9598237 42.087287 11.5246555 42.6723021 11.9703813 43.353575 12.4894463 44.3951907 12.9975516 45.7599888 13.4755913 46.7552789 13.7866195 47.641451 14.1261808 48.6614356 14.563317 49.4210145 14.8888508 50.2672659 15.3927983 51.1238732 16.0157854 52.0135124 16.6627958 52.6753156 17.4649815 53.057342 18.3827923 53.4915304 19.3301124 53.7159822 20.4133364 53.7159822 21.5822222 53.7159822 22.7756654 53.4460212 23.9055022 52.9376543 24.8438469 52.4168698 25.8453555 51.7363456 26.6245065 50.8957387 27.1590835 50.1258893 27.6839808 49.2966555 28.0715575 48.3238422 28.3950041 47.4873776 28.7223164 46.561183 28.8626489 45.4755556 28.8626489zM67.06624 18.8715378L67.06624 14.90624 79.3791149 14.90624 79.4522145 15.4179376C79.4641419 15.5014292 79.5143421 15.8384875 79.5095995 15.8063432 79.5641913 16.1763548 79.5960296 16.4310613 79.616449 16.6965125 79.6292693 16.8631761 79.6359822 17.0212361 79.6359822 17.1733333 79.6359822 20.5788956 78.6440929 23.2831977 76.6269686 25.3000794 74.3264539 27.7137342 71.3514678 28.93376 67.7333333 28.93376 64.2072136 28.93376 61.2179242 27.7155543 58.8109279 25.2715272 56.3643979 22.7873584 55.1195733 19.7829321 55.1195733 16.2844444 55.1195733 12.680906 56.3535811 9.68002347 58.8141325 7.29413248 61.2643876 4.84387742 64.2211724 3.63512889 67.7333333 3.63512889 69.4824122 3.63512889 71.161652 3.98418434 72.6923537 4.67690824 74.2414501 5.32536723 75.5100312 6.24366843 76.5047362 7.39752626L76.8661175 7.8167286 73.9848554 10.6979907 73.5673758 10.1931316C72.1656449 8.49801511 70.2453005 7.67153778 67.6977778 7.67153778 65.4220332 7.67153778 63.4425156 8.47336773 61.8215008 10.0613006 60.1705747 11.6785343 59.33376 13.7415725 59.33376 16.2844444 59.33376 18.8597819 60.1569843 20.9096104 61.8171811 22.5033993 63.4845562 24.1040794 65.4346824 24.8973511 67.6977778 24.8973511 70.108635 24.8973511 72.1257831 24.1004531 73.7474658 22.5119103 74.6216026 21.6377735 75.1825149 20.4235663 75.4176891 18.8715378L67.06624 18.8715378zM82.0351289 4.02624L86.21376 4.02624 86.21376 28.3293156 82.0351289 28.3293156 82.0351289 4.02624zM98.6592528 8.09820444L98.6948083 28.3293156 94.5151289 28.3293156 94.5151289 8.09820444 88.0440178 8.09820444 88.0440178 4.09735111 105.129316 4.09735111 105.129316 8.09820444 98.6592528 8.09820444zM15.9288889.0711111111C24.6755556.0711111111 31.8222222 7.18222222 31.8222222 15.9644444 31.8222222 24.7466667 24.7111111 31.8577778 15.9288889 31.8577778 7.14666667 31.8577778.0355555556 24.7466667.0355555556 15.9644444.0355555556 7.18222222 7.14666667.0711111111 15.9288889.0711111111zM15.9288889 30.4355556C23.9288889 30.4355556 30.4 23.9644444 30.4 15.9644444 30.4 7.96444444 23.9288889 1.49333333 15.9288889 1.49333333 7.92888889 1.49333333 1.45777778 7.96444444 1.45777778 15.9644444 1.45777778 23.9644444 7.92888889 30.4355556 15.9288889 30.4355556zM24.2295146 5.25503118C25.2085229 6.02288521 26.0786145 6.92310107 26.8129994 7.92888889L25.5288889 7.92888889C25.1595746 6.93174041 24.7231294 6.03049327 24.2295146 5.25503118L24.2295146 5.25503118zM27.5590003 9.06666238C28.6537361 10.9352753 29.312272 13.0912848 29.3954725 15.3955556L26.8088889 15.3955556C26.7733333 13.0844444 26.4177778 10.9155556 25.92 9.06666667L27.5590028 9.06666667 27.5590003 9.06666238zM29.3895991 16.5333333C29.2822322 18.8426248 28.5968086 20.9993136 27.4745056 22.8622222L25.8844444 22.8622222C26.4533333 21.0133333 26.7733333 18.8444444 26.8088889 16.5333333L29.3895991 16.5333333 29.3895991 16.5333333zM26.7343124 23.9644444C26.054273 24.8769094 25.2616458 25.7003753 24.3768899 26.4143833 24.8103509 25.6980524 25.1967655 24.8777837 25.5288889 23.9644444L26.7343124 23.9644444 26.7343124 23.9644444zM13.8666667 9.06666667C13.3333333 10.9155556 12.9777778 13.0844444 12.9777778 15.3955556L7.11111111 15.3955556C7.21777778 13.0844444 7.92888889 10.9155556 9.10222222 9.06666667L13.8666667 9.06666667zM14.2222222 23.9644444C14.9333333 25.92 15.8933333 27.4488889 17.0311111 28.4444444 14.1511111 27.7688889 11.6622222 26.1688889 9.88444444 23.9644444L14.2222222 23.9644444zM17.0311111 3.48444444C15.8933333 4.44444444 14.9333333 6.00888889 14.2222222 7.96444444L9.88444444 7.96444444C11.6622222 5.72444444 14.1866667 4.12444444 17.0311111 3.48444444zM19.3066667 28.3733333C17.8133333 28.0177778 16.4622222 26.3822222 15.5022222 24L19.3066667 24 19.3066667 28.3733333zM12.9422222 16.5333333C12.9777778 18.8444444 13.3333333 20.9777778 13.8311111 22.8622222L9.06666667 22.8622222C7.89333333 21.0133333 7.18222222 18.8444444 7.07555556 16.5333333L12.9422222 16.5333333zM20.4444444 28.3733333L20.4444444 24 24.2488889 24C23.2888889 26.3822222 21.9377778 28.0533333 20.4444444 28.3733333zM15.1111111 22.8622222C14.5422222 21.0133333 14.1866667 18.8444444 14.1155556 16.5333333L19.3066667 16.5333333 19.3066667 22.8622222 15.1111111 22.8622222zM20.4444444 22.8622222C20.4444444 22.8622222 20.4444444 16.5333333 20.4444444 16.5333333L25.6355556 16.5333333C25.5644444 18.8444444 25.2088889 21.0133333 24.64 22.8622222L20.4444444 22.8622222zM20.4444444 9.06666667C20.4444444 9.06666667 24.64 9.06666667 24.64 9.06666667 25.2444444 10.9155556 25.6 13.0844444 25.6355556 15.3955556L20.4444444 15.3955556 20.4444444 9.06666667zM20.4444444 3.55555556C21.9377778 3.87555556 23.2888889 5.54666667 24.2488889 7.92888889L20.4444444 7.92888889 20.4444444 3.55555556zM14.1511111 15.3955556C14.1866667 13.0844444 14.5422222 10.9155556 15.1466667 9.06666667L19.3422222 9.06666667 19.3422222 15.3955556 14.1511111 15.3955556zM15.5022222 7.92888889C16.4622222 5.54666667 17.8133333 3.87555556 19.3066667 3.55555556L19.3066667 7.92888889 15.5022222 7.92888889z"/>
  </g>
</svg>
