<?xml version="1.0" encoding="UTF-8"?>
<svg width="800px" height="600px" viewBox="0 0 800 600" version="1.1" xmlns="http://www.w3.org/2000/svg" xmlns:xlink="http://www.w3.org/1999/xlink">
    <title>background-icons-a</title>
    <g id="background-icons-a" stroke="none" stroke-width="1" fill="none" fill-rule="evenodd">
        <g id="Icons/Apple" transform="translate(323.000000, 252.000000)" fill="#E33056">
            <path d="M40,24 L40,26 L56,26 L56,24 L64,24 L64,28 L70,28 L70,32 L76,32 L76,38 L80,38 L80,72 L76,72 L76,78 L70,78 L70,84 L64,84 L64,88 L54,88 L54,86 L42,86 L42,88 L32,88 L32,84 L26,84 L26,78 L20,78 L20,72 L16,72 L16,38 L20,38 L20,32 L26,32 L26,28 L32,28 L32,24 L40,24 Z M40,30 L34,30 L34,34 L30.125,34 L30.125,38 L26,38 L26,42 L22,42 L22,68 L26,68 L26,74 L30,74 L30,78.75 L34,78.75 L34,82 L42,82 L42,78 L54,78 L54,82 L62,82 L62,78.75 L66,78.75 L66,74 L70,74 L70,68 L74,68 L74,42 L70,42 L70,38 L65.875,38 L65.875,34 L62,34 L62,30 L56,30 L56,32 L54,32 L54,36 L42,36 L42,32 L40,32 L40,30 Z M60,8 L60,14 L58,14 L58,16 L56,16 L56,18 L54,18 L54,20 L52,20 L52,22 L46,22 L46,16 L48,16 L48,14 L50,14 L50,12 L52,12 L52,10 L54,10 L54,8 L60,8 Z" id="Shape"></path>
        </g>
        <g id="Icons/Plane" transform="translate(25.000000, 204.000000)" fill="#2D3340">
            <polygon id="Path" points="11 27 11 26 9 26 9 27 8 27 8 28 6 28 6 29 5 29 5 30 3 30 3 28 4 28 4 27 5 27 5 26 6 26 6 25 5 25 5 24 3 24 3 22 5 22 5 21 6 21 6 20 5 20 5 19 4 19 4 18 3 18 3 16 5 16 5 17 6 17 6 18 8 18 8 19 9 19 9 20 11 20 11 19 25 19 25 11 24 11 24 9 23 9 23 7 22 7 22 4 23 4 23 3 25 3 25 4 26 4 26 5 27 5 27 7 28 7 28 9 29 9 29 11 30 11 30 13 31 13 31 15 32 15 32 17 33 17 33 19 41 19 41 20 43 20 43 21 45 21 45 25 43 25 43 26 41 26 41 27 33 27 33 29 32 29 32 31 31 31 31 33 30 33 30 35 29 35 29 37 28 37 28 39 27 39 27 41 26 41 26 42 25 42 25 43 23 43 23 42 22 42 22 39 23 39 23 37 24 37 24 35 25 35 25 27"></polygon>
        </g>
        <g id="Icons/Planet" transform="translate(534.000000, 416.000000)" fill="#2D3340">
            <path d="M60,0 L60,2 L68,2 L68,6 L76,6 L76,10 L82,10 L82,14 L86,14 L86,18 L90,18 L90,24 L94,24 L94,34 L96,34 L96,62 L94,62 L94,72 L90,72 L90,78 L86,78 L86,82 L82,82 L82,86 L76,86 L76,90 L68,90 L68,94 L60,94 L60,96 L36,96 L36,94 L28,94 L28,90 L20,90 L20,86 L14,86 L14,82 L10,82 L10,78 L6,78 L6,72 L2,72 L2,62 L0,62 L0,34 L2,34 L2,24 L6,24 L6,18 L10,18 L10,14 L14,14 L14,10 L20,10 L20,6 L28,6 L28,2 L36,2 L36,0 L60,0 Z M12,46 L8,46 L8,64 L12,64 L12,70 L14,70 L14,74 L18,74 L18,78 L22,78 L22,82 L28,82 L28,86 L36,86 L36,88 L38,88 L38,82 L36,82 L36,76 L32,76 L32,70 L30,70 L30,64 L26,64 L26,60 L20,60 L20,56 L16,56 L16,50 L12,50 L12,46 Z M34,52 L28,52 L28,56 L34,56 L34,62 L38,62 L38,68 L40,68 L40,74 L44,74 L44,80 L46,80 L46,88 L52,88 L52,80 L54,80 L54,74 L56,74 L56,70 L60,70 L60,64 L62,64 L62,62 L60,62 L60,60 L54,60 L54,58 L40,58 L40,54 L34,54 L34,52 Z M60,8 L54,8 L54,12 L56,12 L56,20 L54,20 L54,26 L52,26 L52,32 L48,32 L48,42 L42,42 L42,44 L36,44 L36,46 L42,46 L42,50 L56,50 L56,52 L62,52 L62,54 L68,54 L68,60 L70,60 L70,68 L68,68 L68,72 L64,72 L64,78 L62,78 L62,82 L60,82 L60,86 L68,86 L68,82 L74,82 L74,78 L78,78 L78,74 L82,74 L82,70 L84,70 L84,64 L88,64 L88,54 L82,54 L82,52 L76,52 L76,48 L72,48 L72,42 L70,42 L70,34 L72,34 L72,30 L78,30 L78,26 L82,26 L82,22 L78,22 L78,18 L74,18 L74,14 L68,14 L68,10 L60,10 L60,8 Z M12,38 L16,38 L16,42 L20,42 L20,48 L24,48 L24,52 L28,52 L28,38 L34,38 L34,36 L40,36 L40,28 L44,28 L44,24 L46,24 L46,18 L48,18 L48,16 L46,16 L46,12 L42,12 L42,8 L36,8 L36,10 L28,10 L28,14 L22,14 L22,18 L18,18 L18,22 L14,22 L14,26 L12,26 L12,38 Z M88,32 L86,32 L86,34 L80,34 L80,38 L78,38 L78,40 L80,40 L80,44 L84,44 L84,46 L88,46 L88,32 Z" id="Shape"></path>
        </g>
        <g id="Icons/Code" transform="translate(726.000000, 95.000000)" fill="#23D513">
            <path d="M34,6 L34,9 L33,9 L33,11 L32,11 L32,13 L31,13 L31,15 L30,15 L30,17 L29,17 L29,19 L28,19 L28,21 L27,21 L27,23 L26,23 L26,25 L25,25 L25,27 L24,27 L24,29 L23,29 L23,31 L22,31 L22,33 L21,33 L21,35 L20,35 L20,37 L19,37 L19,39 L18,39 L18,41 L17,41 L17,43 L14,43 L14,40 L15,40 L15,38 L16,38 L16,36 L17,36 L17,34 L18,34 L18,32 L19,32 L19,30 L20,30 L20,28 L21,28 L21,26 L22,26 L22,24 L23,24 L23,22 L24,22 L24,20 L25,20 L25,18 L26,18 L26,16 L27,16 L27,14 L28,14 L28,12 L29,12 L29,10 L30,10 L30,8 L31,8 L31,6 L34,6 Z M36,12 L36,13 L37,13 L37,14 L38,14 L38,15 L39,15 L39,16 L40,16 L40,17 L41,17 L41,18 L42,18 L42,19 L43,19 L43,20 L44,20 L44,21 L45,21 L45,22 L46,22 L46,23 L47,23 L47,27 L46,27 L46,28 L45,28 L45,29 L44,29 L44,30 L43,30 L43,31 L42,31 L42,32 L41,32 L41,33 L40,33 L40,34 L39,34 L39,35 L38,35 L38,36 L37,36 L37,37 L36,37 L36,38 L33,38 L33,35 L34,35 L34,34 L35,34 L35,33 L36,33 L36,32 L37,32 L37,31 L38,31 L38,30 L39,30 L39,29 L40,29 L40,28 L41,28 L41,27 L42,27 L42,26 L43,26 L43,24 L42,24 L42,23 L41,23 L41,22 L40,22 L40,21 L39,21 L39,20 L38,20 L38,19 L37,19 L37,18 L36,18 L36,17 L35,17 L35,16 L34,16 L34,15 L33,15 L33,12 L36,12 Z M15,12 L15,15 L14,15 L14,16 L13,16 L13,17 L12,17 L12,18 L11,18 L11,19 L10,19 L10,20 L9,20 L9,21 L8,21 L8,22 L7,22 L7,23 L6,23 L6,24 L5,24 L5,26 L6,26 L6,27 L7,27 L7,28 L8,28 L8,29 L9,29 L9,30 L10,30 L10,31 L11,31 L11,32 L12,32 L12,33 L13,33 L13,34 L14,34 L14,35 L15,35 L15,38 L12,38 L12,37 L11,37 L11,36 L10,36 L10,35 L9,35 L9,34 L8,34 L8,33 L7,33 L7,32 L6,32 L6,31 L5,31 L5,30 L4,30 L4,29 L3,29 L3,28 L2,28 L2,27 L1,27 L1,23 L2,23 L2,22 L3,22 L3,21 L4,21 L4,20 L5,20 L5,19 L6,19 L6,18 L7,18 L7,17 L8,17 L8,16 L9,16 L9,15 L10,15 L10,14 L11,14 L11,13 L12,13 L12,12 L15,12 Z" id="Shape"></path>
        </g>
        <animateMotion
           path="M 0 0 V 180 Z"
           dur="36s" repeatCount="indefinite" />
    </g>
</svg>