<svg xmlns="http://www.w3.org/2000/svg" width="144" height="448" viewBox="0 0 144 448">
  <g fill="none" fill-rule="evenodd">
    <polygon fill="#E6B887" points="48 16 112 16 112 80 96 80 96 96 48 96"/>
    <polygon fill="#8B572A" points="48 16 112 16 112 32 64 32 64 48 48 48"/>
    <polygon fill="#8B572A" fill-opacity=".15" points="48 48 112 48 112 64 64 64 64 80 48 80" transform="matrix(1 0 0 -1 0 128)"/>
    <rect width="32" height="16" x="64" y="80" fill="#000" fill-opacity=".15"/>
    <polygon fill="#EFF" points="32 224 112 224 112 240 128 240 128 112 112 112 112 96 32 96 32 112 16 112 16 240 32 240"/>
    <path fill="#000" fill-opacity=".15" d="M48,96 L64,96 L64,112 L48,96 Z M96,96 L80,112 L80,96 L96,96 Z"/>
    <rect width="16" height="96" x="64" y="96" fill="#424242"/>
    <path fill="#E6B887" d="M112,240 L128,240 L128,272 L112,272 L112,240 Z M16,240 L32,240 L32,272 L16,272 L16,240 Z"/>
    <polygon fill="#82AAFF" points="112 416 112 224 32 224 32 416 64 416 64 256 80 256 80 416"/>
    <path fill="#424242" d="M80,416 L128,416 L128,432 L80,432 L80,416 Z M16,416 L64,416 L64,432 L16,432 L16,416 Z"/>
  </g>
</svg>
