<svg xmlns="http://www.w3.org/2000/svg" width="256" height="256" viewBox="0 0 256 256">
  <polygon fill="#F8E71C" fill-rule="evenodd" points="221 80 218 80 218 74 212 74 212 68 206 68 206 62 200 62 200 56 194 56 194 50 188 50 188 44 182 44 182 38 176 38 176 32 80 32 80 38 74 38 74 44 68 44 68 50 62 50 62 56 56 56 56 62 50 62 50 68 44 68 44 74 38 74 38 80 32 80 32 176 38 176 38 182 44 182 44 188 50 188 50 194 56 194 56 200 62 200 62 206 68 206 68 212 74 212 74 218 80 218 80 224 176 224 176 218 182 218 182 212 188 212 188 206 194 206 194 200 200 200 200 194 206 194 206 188 212 188 212 182 218 182 218 176 221 176 206 176 206 170 194 170 194 164 182 164 182 158 170 158 170 152 158 152 158 146 146 146 146 140 134 140 134 134 122 134 122 122 134 122 134 116 146 116 146 110 158 110 158 104 170 104 170 98 182 98 182 92 194 92 194 86 206 86 206 80"/>
</svg>
