<svg xmlns="http://www.w3.org/2000/svg" width="256" height="256" viewBox="0 0 256 256">
  <g fill="none" fill-rule="evenodd">
    <polygon fill="#4A90E2" points="224 200 224 80 218 80 218 74 212 74 212 68 206 68 206 62 200 62 200 56 194 56 194 50 188 50 188 44 182 44 182 38 176 38 176 32 80 32 80 38 74 38 74 44 68 44 68 50 62 50 62 56 56 56 56 62 50 62 50 68 44 68 44 74 38 74 38 80 32 80 32 200 44 224 56 200 68 224 80 200 92 224 104 200 116 224 128 200 140 224 152 200 164 224 176 200 188 224 200 200 212 224"/>
    <path fill="#FFF" d="M80,88 L80,84 L84,84 L84,80 L100,80 L100,84 L104,84 L104,88 L108,88 L108,104 L104,104 L104,108 L100,108 L100,112 L84,112 L84,108 L80,108 L80,104 L76,104 L76,88 L80,88 Z M152,88 L152,84 L156,84 L156,80 L172,80 L172,84 L176,84 L176,88 L180,88 L180,104 L176,104 L176,108 L172,108 L172,112 L156,112 L156,108 L152,108 L152,104 L148,104 L148,88 L152,88 Z"/>
  </g>
</svg>
