<svg xmlns="http://www.w3.org/2000/svg" width="256" height="256" viewBox="0 0 256 256">
  <g fill="#C2E988" fill-opacity="0" fill-rule="evenodd" stroke="#C2E988" stroke-width="2" transform="translate(16 32)">
    <path fill="none" d="M93,171 L93,159 L96,159 L96,147 L99,147 L99,135 L102,135 L102,123 L105,123 L105,111 L108,111 L108,99 L111,99 L111,87 L114,87 L114,75 L117,75 L117,63 L120,63 L120,51 L123,51 L123,39 L126,39 L126,27 L129,27 L129,15 L132,15 L132,5 L138,5 L138,27 L135,27 L135,39 L132,39 L132,51 L129,51 L129,63 L126,63 L126,75 L123,75 L123,87 L120,87 L120,99 L117,99 L117,111 L114,111 L114,123 L111,123 L111,135 L108,135 L108,147 L105,147 L105,159 L102,159 L102,171 L99,171 L99,183 L96,183 L96,192 L90,192 L90,171 L93,171 Z M60,35 L60,26 L72,26 L72,41 L63,41 L63,50 L54,50 L54,59 L45,59 L45,68 L36,68 L36,77 L27,77 L27,86 L21,86 L21,106 L27,106 L27,115 L36,115 L36,124 L45,124 L45,133 L54,133 L54,142 L63,142 L63,151 L72,151 L72,166 L60,166 L60,157 L51,157 L51,148 L42,148 L42,139 L33,139 L33,130 L24,130 L24,121 L15,121 L15,112 L9,112 L9,103 L0,103 L0,89 L9,89 L9,80 L15,80 L15,71 L24,71 L24,62 L33,62 L33,53 L42,53 L42,44 L51,44 L51,35 L60,35 Z M164,35 L173,35 L173,44 L182,44 L182,53 L191,53 L191,62 L200,62 L200,71 L209,71 L209,80 L215,80 L215,89 L224,89 L224,103 L215,103 L215,112 L209,112 L209,121 L200,121 L200,130 L191,130 L191,139 L182,139 L182,148 L173,148 L173,157 L164,157 L164,166 L152,166 L152,151 L161,151 L161,142 L170,142 L170,133 L179,133 L179,124 L188,124 L188,115 L197,115 L197,106 L203,106 L203,86 L197,86 L197,77 L188,77 L188,68 L179,68 L179,59 L170,59 L170,50 L161,50 L161,41 L152,41 L152,26 L164,26 L164,35 Z"/>
    <path fill="none" d="M89 165L93 170 89 165 89 153 92 153 96 158 92 153 92 141 95 141 99 146 95 141 95 129 98 129 102 134 98 129 98 117 101 117 105 122 101 117 101 105 104 105 108 110 104 105 104 93 107 93 111 98 107 93 107 81 110 81 114 86 110 81 110 69 113 69 117 74 113 69 113 57 116 57 120 62 116 57 116 45 119 45 123 50 119 45 119 33 122 33 126 38 122 33 122 21 125 21 129 26 125 21 125 6 128 6 132 14 128 6 128 0 134 0 137.83753 4.79691312 137.83753 4.79691312C137.880657 4.85082086 137.871917 4.92948241 137.818009 4.9726086 137.795845 4.99033991 137.768306 5 137.739922 5L132 5 128 0 132 5 132 14 129 14 125 6 129 14 129 26 126 26 122 21 126 26 126 38 123 38 119 33 123 38 123 50 120 50 116 45 120 50 120 62 117 62 113 57 117 62 117 74 114 74 110 69 114 74 114 86 111 86 107 81 111 86 111 98 108 98 104 93 108 98 108 110 105 110 101 105 105 110 105 122 102 122 98 117 102 122 102 134 99 134 95 129 99 134 99 146 96 146 92 141 96 146 96 158 93 158 89 153 93 158 93 170 90 170 86 165 90 170 90 191.643652 90 191.643652C90 191.712688 89.9440356 191.768652 89.875 191.768652 89.837027 191.768652 89.8011129 191.751391 89.7773914 191.721739L86 187 86 165 89 165zM65.9633883 43.9633883L63.2133883 41.2133883 63.2133883 41.2133883C63.1645728 41.1645728 63.0854272 41.1645728 63.0366117 41.2133883 63.0131696 41.2368304 63 41.2686246 63 41.3017767L63 50 66 53 63 50 54 50 54 59 57 62 54 59 45 59 45 68 48 71 45 68 36 68 35.7526865 77 39 80 35.7526865 77 27 77 27 86 29 86 21 86 21 97 21 106 27 106 35 103 27 106 27 115 36 115 44 112 36 115 36 124 45 124 53 121 45 124 45 133 54 133 62 130 54 133 54 142 63 142 71 139 63 142 63 151 72 151 80 148 72 151 72 165.819625 72 165.819625C72 165.888661 72.0559644 165.944625 72.125 165.944625 72.139989 165.944625 72.1548558 165.941929 72.1688904 165.936666L80 163 80 148 71 148 63 151 71 148 71 139 62 139 54 142 62 139 62 130 53 130 45 133 53 130 53 121 44 121 36 124 44 121 44 112 35 112 27 115 35 112 35 103 29 103 21 106 29 103 29 80 39 80 39 71 36 68 39 71 48 71 48 62 45 59 48 62 57 62 57 53 54 50 57 53 66 53 66 44 63 41 66 44 74.875 44 74.875 44C74.9440356 44 75 43.9440356 75 43.875L75 28 72.0314906 26.0209937 72.0314906 26.0209937C72.0109571 26.0073048 71.9868312 26 71.962153 26L60 26 71.962153 26 71.962153 26C71.9868312 26 72.0109571 26.0073048 72.0314906 26.0209937L75 28 72.1943375 26.1295583 72.1943375 26.1295583C72.1368964 26.0912643 72.0592878 26.106786 72.0209937 26.1642271 72.0073048 26.1847606 72 26.2088865 72 26.2335646L72 41 74.7866117 43.7866117 74.7866117 43.7866117C74.8354272 43.8354272 74.8354272 43.9145728 74.7866117 43.9633883 74.7631696 43.9868304 74.7313754 44 74.6982233 44L66.0517767 44 66.0517767 44C66.0186246 44 65.9868304 43.9868304 65.9633883 43.9633883z"/>
    <path fill="none" d="M188.963388,43.9633883 L186.213388,41.2133883 L186.213388,41.2133883 C186.164573,41.1645728 186.085427,41.1645728 186.036612,41.2133883 C186.01317,41.2368304 186,41.2686246 186,41.3017767 L186,50 L189,53 L186,50 L177,50 L177,59 L180,62 L177,59 L168,59 L168,68 L171,71 L168,68 L159,68 L158.752686,77 L162,80 L158.752686,77 L150,77 L150,86 L152,86 L144,86 L144,97 L144,106 L150,106 L158,103 L150,106 L150,115 L159,115 L167,112 L159,115 L159,124 L168,124 L176,121 L168,124 L168,133 L177,133 L185,130 L177,133 L177,142 L186,142 L194,139 L186,142 L186,151 L195,151 L203,148 L195,151 L195,165.819625 L195,165.819625 C195,165.888661 195.055964,165.944625 195.125,165.944625 C195.139989,165.944625 195.154856,165.941929 195.16889,165.936666 L203,163 L203,148 L194,148 L186,151 L194,148 L194,139 L185,139 L177,142 L185,139 L185,130 L176,130 L168,133 L176,130 L176,121 L167,121 L159,124 L167,121 L167,112 L158,112 L150,115 L158,112 L158,103 L152,103 L144,106 L152,103 L152,80 L162,80 L162,71 L159,68 L162,71 L171,71 L171,62 L168,59 L171,62 L180,62 L180,53 L177,50 L180,53 L189,53 L189,44 L186,41 L189,44 L197.875,44 L197.875,44 C197.944036,44 198,43.9440356 198,43.875 L198,28 L195.031491,26.0209937 L195.031491,26.0209937 C195.010957,26.0073048 194.986831,26 194.962153,26 L183,26 L194.962153,26 L194.962153,26 C194.986831,26 195.010957,26.0073048 195.031491,26.0209937 L198,28 L195.194338,26.1295583 L195.194338,26.1295583 C195.136896,26.0912643 195.059288,26.106786 195.020994,26.1642271 C195.007305,26.1847606 195,26.2088865 195,26.2335646 L195,41 L197.786612,43.7866117 L197.786612,43.7866117 C197.835427,43.8354272 197.835427,43.9145728 197.786612,43.9633883 C197.76317,43.9868304 197.731375,44 197.698223,44 L189.051777,44 L189.051777,44 C189.018625,44 188.98683,43.9868304 188.963388,43.9633883 Z" transform="matrix(-1 0 0 1 347 0)"/>
  </g>
</svg>
