<svg xmlns="http://www.w3.org/2000/svg" width="256" height="256" viewBox="0 0 256 256">
  <g fill="#C792EA" fill-opacity="0" fill-rule="evenodd" stroke="#C792EA" stroke-width="2" transform="translate(50 50)">
    <polygon fill="none" points="24 63 60 63 60 60 66 60 66 57 72 57 72 54 78 54 78 51 84 51 84 48 90 48 90 45 96 45 96 42 102 42 102 39 108 39 108 36 114 36 114 30 120 30 120 24 126 24 126 18 132 18 132 12 156 12 156 156 132 156 132 150 126 150 126 144 120 144 120 138 114 138 114 132 108 132 108 129 102 129 102 126 96 126 96 123 90 123 90 120 84 120 84 117 78 117 78 114 72 114 72 111 66 111 66 108 63 108 63 117 60 117 60 123 57 123 57 126 54 126 54 129 51 129 51 132 48 132 48 144 50 144 50 150 26 150 26 147 24 147 24 129 27 129 27 126 30 126 30 123 33 123 33 120 36 120 36 117 33 117 33 114 30 114 30 111 27 111 27 105 24 105 24 108 12 108 12 60 24 60"/>
    <path fill="none" d="M25.7866117 149.786612L14 138 14 135 26 147 14 135 12 135 12 117 15 117 27 129 15 117 15 114 18 114 30 126 18 114 18 111 21 111 33 123 21 111 21 108 24 108 36 120 24 108 24 105 27 105 27 111 30 111 30 114 33 114 33 117 36 117 36 120 33 120 21 108 33 120 33 123 30 123 18 111 30 123 30 126 27 126 15 114 27 126 27 129 24 129 12 117 24 129 24 147 26 147 26 149.698223 26 149.698223C26 149.767259 25.9440356 149.823223 25.875 149.823223 25.8418479 149.823223 25.8100537 149.810054 25.7866117 149.786612zM15 51L48 51 60 63 48 51 48 48 54 48 66 60 54 48 54 45 60 45 72 57 60 45 60 42 66 42 78 54 66 42 66 39 72 39 84 51 72 39 72 36 78 36 90 48 78 36 78 33 84 33 96 45 84 33 84 30 90 30 102 42 90 30 90 27 96 27 108 39 96 27 96 24 102 24 114 36 102 24 102 18 108 18 120 30 108 18 108 12 114 12 126 24 114 12 114 6 120 6 132 18 120 6 120 0 144 0 155.786612 11.7866117 155.786612 11.7866117C155.835427 11.8354272 155.835427 11.9145728 155.786612 11.9633883 155.76317 11.9868304 155.731375 12 155.698223 12L132 12 120 0 132 12 132 18 126 18 114 6 126 18 126 24 120 24 108 12 120 24 120 30 114 30 102 18 114 30 114 36 108 36 96 24 108 36 108 39 102 39 90 27 102 39 102 42 96 42 84 30 96 42 96 45 90 45 77.911612 33 90 45 90 48 84 48 72 36 84 48 84 51 78 51 66 39 78 51 78 54 72 54 60 42 72 54 72 57 66 57 54 45 66 57 66 60 60 60 48 48 60 60 60 63 24 63 24 60.0517767 24 60.0517767C24 60.0186246 23.9868304 59.9868304 23.9633883 59.9633883L12 48 23.7866117 59.7866117 23.7866117 59.7866117C23.8354272 59.8354272 23.8354272 59.9145728 23.7866117 59.9633883 23.7631696 59.9868304 23.7313754 60 23.6982233 60L12 60 0 48 12 60 12 107.698223 12 107.698223C12 107.767259 11.9440356 107.823223 11.875 107.823223 11.8418479 107.823223 11.8100537 107.810054 11.7866117 107.786612L3.51403266e-14 96 3.51403266e-14 48 12 48 15 51z"/>
  </g>
</svg>
