<svg xmlns="http://www.w3.org/2000/svg" width="256" height="256" viewBox="0 0 256 256">
  <g fill="none" fill-rule="evenodd" stroke="#82AAFF" stroke-width="2" transform="translate(62 36)">
    <path d="M57,98 L54,98 L54,101 L51,101 L51,104 L48,104 L48,116 L51,116 L51,119 L54,119 L54,122 L66,122 L66,119 L69,119 L69,116 L72,116 L72,104 L69,104 L69,101 L66,101 L66,98 L63,98 L63,12 L69,12 L69,18 L72,18 L72,24 L75,24 L75,30 L78,30 L78,36 L81,36 L81,42 L84,42 L84,48 L87,48 L87,54 L90,54 L90,60 L93,60 L93,66 L96,66 L96,72 L99,72 L99,78 L102,78 L102,84 L108,84 L108,90 L114,90 L114,96 L120,96 L120,120 L114,120 L114,126 L108,126 L108,132 L102,132 L102,138 L96,138 L96,144 L93,144 L93,150 L27,150 L27,144 L24,144 L24,138 L18,138 L18,132 L12,132 L12,126 L6,126 L6,120 L0,120 L0,96 L6,96 L6,90 L12,90 L12,84 L18,84 L18,78 L21,78 L21,72 L24,72 L24,66 L27,66 L27,60 L30,60 L30,54 L33,54 L33,48 L36,48 L36,42 L39,42 L39,36 L42,36 L42,30 L45,30 L45,24 L48,24 L48,18 L51,18 L51,12 L57,12 L57,98 Z M87,178 L87,184 L33,184 L33,178 L27,178 L27,154 L93,154 L93,178 L87,178 Z"/>
    <path d="M120 114L126 114 126 108 132 108 132 84 126 84 114 96 126 84 126 78 120 78 108 90 120 78 120 72 114 72 102 84 114 72 114 66 111 66 99 78 111 66 111 60 108 60 96 72 108 60 108 54 105 54 93 66 105 54 105 48 102 48 90 60 102 48 102 42 99 42 87 54 99 42 99 36 96 36 84 48 96 36 96 30 93 30 81 42 93 30 93 24 90 24 78 36 90 24 90 18 87 18 75 30 87 18 87 12 84 12 72.0033393 24 84 12 84 6 81 6 69 18 81 6 81 0 75 0 63.2133883 11.7866117 63.2133883 11.7866117C63.1645728 11.8354272 63.1645728 11.9145728 63.2133883 11.9633883 63.2368304 11.9868304 63.2686246 12 63.3017767 12L69 12 81 0 69 12 69 18 72.0033393 18 84 6 72.0033393 18 72.0033393 24 75 24 87 12 75 24 75 30 78 30 90 18 78 30 78 36 81 36 93 24 81 36 81 42 84 42 96 30 84 42 84 48 87 48 99 36 87 48 87 54 90 54 102 42 90 54 90 60 93 60 105 48 93 60 93 66 96 66 108 54 96 66 96 72 99 72 111 60 99 72 99 78 102 78 114 66 102 78 102 84 108 84 120 72 108 84 108 90 114 90 126 78 114 90 114 96 120 96 132 84 120 96 120 114zM93 150L92.996534 144 96 144 96 142 105 142 105 166 93.2133448 177.786655 93.2133448 177.786655C93.1645292 177.835471 93.0853836 177.835471 93.0365681 177.786655 93.0131305 177.763218 92.9999612 177.731431 92.9999564 177.698285L92.996534 154 105 142M69 0L63 0 51.2133883 11.7866117 51.2133883 11.7866117C51.1645728 11.8354272 51.1645728 11.9145728 51.2133883 11.9633883 51.2368304 11.9868304 51.2686246 12 51.3017767 12L57 12 69 0z"/>
  </g>
</svg>
