<svg xmlns="http://www.w3.org/2000/svg" width="256" height="256" viewBox="0 0 256 256">
  <g fill="#F27076" fill-opacity="0" fill-rule="evenodd" stroke="#F27076" stroke-width="2" transform="translate(41 29)">
    <polygon fill="none" points="72 108 72 18 66 18 66 12 48 12 48 18 42 18 42 108 36 108 36 99 30 99 30 90 24 90 24 84 6 84 6 90 0 90 0 108 6 108 6 117 12 117 12 126 18 126 18 135 24 135 24 144 30 144 30 153 36 153 36 162 42 162 42 171 48 171 48 180 54 180 54 189 60 189 60 198 150 198 150 180 156 180 156 162 162 162 162 90 156 90 156 84 132 84 132 108 132 72 126 72 126 66 102 66 102 108 102 60 96 60 96 54 72 54"/>
    <path fill="none" d="M84 6L78 6 66 18 78 6 78 0 60 0 48.2133883 11.7866117 48.2133883 11.7866117C48.1645728 11.8354272 48.1645728 11.9145728 48.2133883 11.9633883 48.2368304 11.9868304 48.2686246 12 48.3017767 12L66 12 78 0 66 12 66 18 72 18 84 6 72 18 72 54 96 54 108 42 96 54 96 60 102 60 114 48 102 60 102 66 126 66 138 54 126 66 126 72 132 72 144 60 132 72 132 84 156 84 168 72 156 84 156 90 162 90 174 78 162 90 162 162 156 162 156 180 150 180 150 197.698223 150 197.698223C150 197.767259 150.055964 197.823223 150.125 197.823223 150.158152 197.823223 150.189946 197.810054 150.213388 197.786612L162 186 162 168 168 168 168 150 174 150 174 78 168 78 156 90 168 78 168 72 144 72 132 84 144 72 144 60 138 60 126 72 138 60 138 54 114 54 102 66 114 54 114 48 108 48 96 60 108 48 108 42 84 42 72 54 84 42 84 6zM42 87L42 78 36 78 24 90 36 78 36 72 18 72 6.21338835 83.7866117 6.21338835 83.7866117C6.16457281 83.8354272 6.16457281 83.9145728 6.21338835 83.9633883 6.23683039 83.9868304 6.26862463 84 6.3017767 84L24 84 36 72 24 84 24 90 30 90 42 78 30 90 30 99 36 99 36 108 42 108 42 87z"/>
  </g>
</svg>
