<svg xmlns="http://www.w3.org/2000/svg" xmlns:xlink="http://www.w3.org/1999/xlink" width="375" height="667" viewBox="0 0 375 667">
  <defs>
    <rect id="share-a" width="375" height="667"/>
  </defs>
  <g fill="none" fill-rule="evenodd">
    <mask id="share-b" fill="#fff">
      <use xlink:href="#share-a"/>
    </mask>
    <use fill="#C792EA" fill-opacity=".25" xlink:href="#share-a"/>
    <path fill="#C792EA" fill-rule="nonzero" d="M235,358 C226.522,358 218.729875,360.932125 212.57875,365.835625 L174.1465,341.815375 C175.284628,336.667152 175.284628,331.332473 174.1465,326.18425 L212.57875,302.164 C218.729875,307.067875 226.522,310 235,310 C254.882125,310 271,293.882125 271,274 C271,254.117875 254.882125,238 235,238 C215.117875,238 199,254.117875 199,274 C199,276.68425 199.29625,279.29875 199.8535,281.815375 L161.42125,305.835625 C155.270125,300.932125 147.478,298 139,298 C119.117875,298 103,314.117875 103,334 C103,353.882125 119.117875,370 139,370 C147.478,370 155.270125,367.067875 161.42125,362.164375 L199.8535,386.184625 C199.285432,388.750927 198.999237,391.371577 199,394 C199,413.882125 215.117875,430 235,430 C254.882125,430 271,413.882125 271,394 C271,374.117875 254.882125,358 235,358 Z" mask="url(#share-b)"/>
  </g>
</svg>
