<svg xmlns="http://www.w3.org/2000/svg" xmlns:xlink="http://www.w3.org/1999/xlink" width="375" height="667" viewBox="0 0 375 667">
  <defs>
    <rect id="ui-a" width="375" height="667"/>
  </defs>
  <g fill="none" fill-rule="evenodd">
    <mask id="ui-b" fill="#fff">
      <use xlink:href="#ui-a"/>
    </mask>
    <use fill="#F27076" fill-opacity=".25" xlink:href="#ui-a"/>
    <rect width="375" height="64" fill="#F27076" mask="url(#ui-b)"/>
    <rect width="351" height="128" x="12" y="76" fill="#F27076" mask="url(#ui-b)"/>
    <path fill="#F27076" d="M12 356L363 356 363 420 12 420 12 356zM18 362L18 414 357 414 357 362 18 362zM12 432L363 432 363 496 12 496 12 432zM18 438L18 490 357 490 357 438 18 438zM12 508L363 508 363 572 12 572 12 508zM18 514L18 566 357 566 357 514 18 514zM12 583L363 583 363 647 12 647 12 583zM18 589L18 641 357 641 357 589 18 589z" mask="url(#ui-b)"/>
    <rect width="170" height="128" x="12" y="216" fill="#F27076" mask="url(#ui-b)"/>
    <rect width="170" height="128" x="194" y="216" fill="#F27076" mask="url(#ui-b)"/>
  </g>
</svg>
