<?xml version="1.0" encoding="UTF-8"?>
<svg width="800px" height="600px" viewBox="0 0 800 600" version="1.1" xmlns="http://www.w3.org/2000/svg" xmlns:xlink="http://www.w3.org/1999/xlink">
    <title>background-icons-c</title>
    <g id="background-icons-c" stroke="none" stroke-width="1" fill="none" fill-rule="evenodd">
        <g id="Icons/Rocket" transform="translate(145.000000, 178.000000)" fill="#2D3340">
            <path d="M8,22 L8,23 L-7.10542736e-15,23 L-7.10542736e-15,19 L2,19 L2,17 L5,17 L5,15 L8,15 L8,14 L10,14 L10,13 L16,13 L16,12 L17,12 L17,10 L19,10 L19,8 L21,8 L21,6 L23,6 L23,4 L25,4 L25,3 L27,3 L27,2 L30,2 L30,1 L32,1 L32,0 L43,0 L43,1 L47,1 L47,4 L48,4 L48,15 L47,15 L47,17 L46,17 L46,20 L45,20 L45,22 L44,22 L44,24 L42,24 L42,26 L40,26 L40,28 L38,28 L38,30 L36,30 L36,37 L35,37 L35,39 L34,39 L34,42 L32,42 L32,45 L30,45 L30,47 L26,47 L26,39 L27,39 L27,34 L26,34 L26,35 L24,35 L24,37 L21,37 L21,38 L17,38 L17,37 L14,37 L14,34 L10,34 L10,31 L9,31 L9,27 L10,27 L10,24 L12,24 L12,22 L8,22 Z M42,4 L34,4 L34,5 L31,5 L31,6 L29,6 L29,7 L27,7 L27,8 L25,8 L25,10 L23,10 L23,12 L21,12 L21,14 L20,14 L20,16 L19,16 L19,19 L18,19 L18,21 L17,21 L17,24 L16,24 L16,26 L14,26 L14,28 L13,28 L13,30 L14,30 L14,33 L18,33 L18,34 L20,34 L20,33 L22,33 L22,31 L24,31 L24,30 L27,30 L27,29 L29,29 L29,28 L32,28 L32,27 L34,27 L34,26 L36,26 L36,24 L38,24 L38,22 L40,22 L40,20 L41,20 L41,18 L42,18 L42,16 L43,16 L43,13 L44,13 L44,5 L42,5 L42,4 Z M35,11 L35,12 L36,12 L36,13 L37,13 L37,15 L36,15 L36,16 L35,16 L35,17 L33,17 L33,16 L32,16 L32,15 L31,15 L31,13 L32,13 L32,12 L33,12 L33,11 L35,11 Z" id="Shape"></path>
        </g>
        <g id="Icons/Smile" transform="translate(678.000000, 43.000000)" fill="#2D3340">
            <path d="M17,30 L17,31 L31,31 L31,30 L39,30 L39,32 L38,32 L38,35 L35,35 L35,38 L32,38 L32,40 L16,40 L16,38 L13,38 L13,35 L10,35 L10,32 L9,32 L9,30 L17,30 Z M17,32 L13,32 L13,33 L15,33 L15,35.375 L17,35.375 L17,37 L31,37 L31,35.375 L33,35.375 L33,33 L35,33 L35,32 L31,32 L31,33 L17,33 L17,32 Z M37,8 L37,9 L37.96875,9 L37.96875,10 L39,10 L39,11 L40,11 L40,17.5 L39,17.5 L39,19 L38,19 L38,20.1875 L37,20.1875 L37,21 L30,21 L30,20.1875 L29,20.1875 L29,19 L28,19 L28,17.5 L27,17.5 L27,11 L28,11 L28,10 L29.03125,10 L29.03125,9 L30,9 L30,8 L37,8 Z M18,8 L18,9 L18.96875,9 L18.96875,10 L20,10 L20,11 L21,11 L21,17.5 L20,17.5 L20,19 L19,19 L19,20.1875 L18,20.1875 L18,21 L11,21 L11,20.1875 L10,20.1875 L10,19 L9,19 L9,17.5 L8,17.5 L8,11 L9,11 L9,10 L10.03125,10 L10.03125,9 L11,9 L11,8 L18,8 Z M36.1538462,11 L31.8461538,11 L31.8461538,11.6153846 L31.25,11.6153846 L31.25,12.2307692 L30.6153846,12.2307692 L30.6153846,12.8461538 L30,12.8461538 L30,16.8461538 L30.6153846,16.8461538 L30.6153846,17.7692308 L31.2307692,17.7692308 L31.2307692,18.5 L31.8461538,18.5 L31.8461538,19 L36.1538462,19 L36.1538462,18.5 L36.7692308,18.5 L36.7692308,17.7692308 L37.3846154,17.7692308 L37.3846154,16.8461538 L38,16.8461538 L38,12.8461538 L37.3846154,12.8461538 L37.3846154,12.2307692 L36.75,12.2307692 L36.75,11.6153846 L36.1538462,11.6153846 L36.1538462,11 Z M17.1538462,11 L12.8461538,11 L12.8461538,11.6153846 L12.25,11.6153846 L12.25,12.2307692 L11.6153846,12.2307692 L11.6153846,12.8461538 L11,12.8461538 L11,16.8461538 L11.6153846,16.8461538 L11.6153846,17.7692308 L12.2307692,17.7692308 L12.2307692,18.5 L12.8461538,18.5 L12.8461538,19 L17.1538462,19 L17.1538462,18.5 L17.7692308,18.5 L17.7692308,17.7692308 L18.3846154,17.7692308 L18.3846154,16.8461538 L19,16.8461538 L19,12.8461538 L18.3846154,12.8461538 L18.3846154,12.2307692 L17.75,12.2307692 L17.75,11.6153846 L17.1538462,11.6153846 L17.1538462,11 Z" id="Shape"></path>
        </g>
        <g id="Icons/Phone" transform="translate(193.000000, 495.000000)" fill="#4399DE">
            <path d="M74,0 L74,2 L76,2 L76,4 L78,4 L78,92 L76,92 L76,94 L74,94 L74,96 L26,96 L26,94 L24,94 L24,92 L22,92 L22,4 L24,4 L24,2 L26,2 L26,0 L74,0 Z M72,6 L28,6 L28,90 L72,90 L72,6 Z M52,74 L52,76 L54,76 L54,78 L56,78 L56,82 L54,82 L54,84 L52,84 L52,86 L48,86 L48,84 L46,84 L46,82 L44,82 L44,78 L46,78 L46,76 L48,76 L48,74 L52,74 Z" id="Shape"></path>
        </g>
        <g id="Icons/Computer" transform="translate(486.000000, 355.000000)" fill="#DF18C1">
            <path d="M19,37 L2,37 L2,36 L1,36 L1,35 L0,35 L0,5 L1,5 L1,4 L2,4 L2,3 L46,3 L46,4 L47,4 L47,5 L48,5 L48,35 L47,35 L47,36 L46,36 L46,37 L29,37 L29,39 L30,39 L30,41 L31,41 L31,43 L33,43 L33,45 L15,45 L15,43 L17,43 L17,41 L18,41 L18,39 L19,39 L19,37 Z M45,6 L3,6 L3,32 L45,32 L45,6 Z" id="Shape"></path>
        </g>
        <animateMotion
           path="M 0 0 V -180 Z"
           dur="24s" repeatCount="indefinite" />
    </g>
</svg>