<?xml version="1.0" encoding="UTF-8"?>
<svg width="800px" height="600px" viewBox="0 0 800 600" version="1.1" xmlns="http://www.w3.org/2000/svg" xmlns:xlink="http://www.w3.org/1999/xlink">
    <title>background-icons-b</title>
    <g id="background-icons-b" stroke="none" stroke-width="1" fill="none" fill-rule="evenodd">
        <g id="Icons/Interface" transform="translate(630.000000, 264.000000)" fill="#FF6101">
            <path d="M45,37 L45,40 L3,40 L3,37 L45,37 Z M45,32 L45,35 L3,35 L3,32 L45,32 Z M7,24 L7,25 L8,25 L8,26 L9,26 L9,28 L8,28 L8,29 L7,29 L7,30 L5,30 L5,29 L4,29 L4,28 L3,28 L3,26 L4,26 L4,25 L5,25 L5,24 L7,24 Z M45,8 L45,30 L31,30 L31,8 L45,8 Z M29,25 L29,29 L11,29 L11,25 L29,25 Z M7,16 L7,17 L8,17 L8,18 L9,18 L9,20 L8,20 L8,21 L7,21 L7,22 L5,22 L5,21 L4,21 L4,20 L3,20 L3,18 L4,18 L4,17 L5,17 L5,16 L7,16 Z M29,17 L29,21 L11,21 L11,17 L29,17 Z M7,8 L7,9 L8,9 L8,10 L9,10 L9,12 L8,12 L8,13 L7,13 L7,14 L5,14 L5,13 L4,13 L4,12 L3,12 L3,10 L4,10 L4,9 L5,9 L5,8 L7,8 Z M29,9 L29,13 L11,13 L11,9 L29,9 Z" id="Shape"></path>
        </g>
        <g id="Icons/Light" transform="translate(73.000000, 228.000000)" fill="#EFC410">
            <path d="M43.5,64.5 L43.5,67.5 L28.5,67.5 L28.5,64.5 L43.5,64.5 Z M45,60 L45,63 L27,63 L27,60 L45,60 Z M45,54 L45,58.5 L27,58.5 L27,54 L45,54 Z M48,4.5 L48,7.5 L52.5,7.5 L52.5,10.5 L57,10.5 L57,15 L60,15 L60,40.5 L57,40.5 L57,45 L52.5,45 L52.5,49.5 L48,49.5 L48,52.5 L24,52.5 L24,49.5 L19.5,49.5 L19.5,45 L15,45 L15,40.5 L12,40.5 L12,15 L15,15 L15,10.5 L19.5,10.5 L19.5,7.5 L24,7.5 L24,4.5 L48,4.5 Z M46.5,9 L25.5,9 L25.5,12 L22.59375,12 L22.59375,15 L19.5,15 L19.5,18 L16.5,18 L16.5,37.5 L19.5,37.5 L19.5,42 L22.5,42 L22.5,45.5625 L25.5,45.5625 L25.5,48 L46.5,48 L46.5,45.5625 L49.5,45.5625 L49.5,42 L52.5,42 L52.5,37.5 L55.5,37.5 L55.5,18 L52.5,18 L52.5,15 L49.40625,15 L49.40625,12 L46.5,12 L46.5,9 Z" id="Shape"></path>
        </g>
        <g id="Icons/Mate" transform="translate(414.000000, 60.000000)" fill="#2D3340">
            <path d="M58.5,4.5 L58.5,9 L57,9 L57,10.5 L55.5,10.5 L55.5,12 L54,12 L54,13.5 L52.5,13.5 L52.5,15 L51,15 L51,16.5 L49.5,16.5 L49.5,18 L48,18 L48,19.5 L46.5,19.5 L46.5,21 L45,21 L45,22.5 L43.5,22.5 L43.5,24 L48,24 L48,27 L57,27 L57,31.5 L60,31.5 L60,57 L57,57 L57,61.5 L52.5,61.5 L52.5,66 L48,66 L48,69 L24,69 L24,66 L19.5,66 L19.5,61.5 L15,61.5 L15,57 L12,57 L12,31.5 L15,31.5 L15,27 L24,27 L24,24 L37.5,24 L37.5,21 L39,21 L39,19.5 L40.5,19.5 L40.5,18 L42,18 L42,16.5 L43.5,16.5 L43.5,15 L45,15 L45,13.5 L46.5,13.5 L46.5,12 L48,12 L48,10.5 L49.5,10.5 L49.5,9 L51,9 L51,7.5 L52.5,7.5 L52.5,6 L54,6 L54,4.5 L58.5,4.5 Z M49.40625,30 L22.59375,30 L22.59375,31.5 L19.5,31.5 L19.5,34.5 L16.5,34.5 L16.5,54 L19.5,54 L19.5,58.5 L22.5,58.5 L22.5,62.0625 L25.5,62.0625 L25.5,64.5 L46.5,64.5 L46.5,62.0625 L49.5,62.0625 L49.5,58.5 L52.5,58.5 L52.5,54 L55.5,54 L55.5,34.5 L52.5,34.5 L52.5,31.5 L49.40625,31.5 L49.40625,30 Z" id="Shape"></path>
        </g>
        <g id="Icons/Plant" transform="translate(275.000000, 408.000000)" fill="#2D3340">
            <path d="M28,5 L28,6 L30,6 L30,8 L32,8 L32,10 L34,10 L34,12 L36,12 L36,14 L38,14 L38,22 L36,22 L36,24 L35,24 L35,26 L34,26 L34,28 L32,28 L32,30 L30,30 L30,32 L28,32 L28,34 L25,34 L25,36 L22,36 L22,37 L20,37 L20,39 L19,39 L19,41 L17,41 L17,43 L15,43 L15,44 L11,44 L11,40 L13,40 L13,39 L15,39 L15,37 L16,37 L16,35 L18,35 L18,34 L17,34 L17,31 L15,31 L15,28 L13,28 L13,25 L11,25 L11,17 L13,17 L13,14 L15,14 L15,12 L17,12 L17,10 L19,10 L19,8 L22,8 L22,6 L24,6 L24,5 L28,5 Z M24,21 L26,21 L26,24 L25,24 L25,25 L24,25 L24,29 L23,29 L23,32 L24,32 L24,30 L26,30 L26,28 L28,28 L28,26 L30,26 L30,24 L31,24 L31,22 L32,22 L32,20 L34,20 L34,16 L32,16 L32,14 L30,14 L30,12 L28,12 L28,10 L23,10 L23,12 L21,12 L21,14 L19,14 L19,16 L17,16 L17,18 L15,18 L15,24 L17,24 L17,27 L19,27 L19,30 L21,30 L21,28 L22,28 L22,24 L23,24 L23,23 L24,23 L24,21 Z" id="Shape"></path>
        </g>
        <animateMotion
           path="M 0 0 V 180 Z"
           dur="48s" repeatCount="indefinite" />
    </g>
</svg>