<svg xmlns="http://www.w3.org/2000/svg" width="22" height="22" viewBox="0 0 22 22">
  <path fill-rule="evenodd" d="M5.28571429,0 L16.7142857,0 L16.7142857,11.4782609 L13.8571429,11.4782609 L13.8571429,14.3478261 L5.28571429,14.3478261 L5.28571429,0 Z M5.28571429,0 L5.28571429,5.73913043 L8.14285714,5.73913043 L8.14285714,2.86956522 L16.7142857,2.86956522 L16.7142857,0 L5.28571429,0 Z M5.28571429,0 L16.7142857,0 L16.7142857,2.39130435 L7.66666667,2.39130435 L7.66666667,5.26086957 L5.28571429,5.26086957 L5.28571429,0 Z M9.0952381,11 L9.0952381,11.4782609 L16.7142857,11.4782609 L16.7142857,11 L9.0952381,11 Z M21,22 L1,22 L1,17.2173913 L3.85714286,17.2173913 L3.85714286,14.826087 L18.1428571,14.826087 L18.1428571,17.2173913 L21,17.2173913 L21,22 Z M9.57142857,14.826087 L9.57142857,22 L12.4285714,22 L12.4285714,14.826087 L9.57142857,14.826087 Z M10.047619,14.826087 L11.952381,14.826087 L11.952381,22 L10.047619,22 L10.047619,14.826087 Z M6.71428571,14.826087 L9.57142857,17.6956522 L9.57142857,14.826087 L6.71428571,14.826087 Z M15.2857143,14.826087 L12.4285714,14.826087 L12.4285714,17.6956522 L15.2857143,14.826087 Z M7.19047619,14.826087 L9.57142857,14.826087 L9.57142857,17.2173913 L7.19047619,14.826087 Z M14.8095238,14.826087 L12.4285714,17.2173913 L12.4285714,14.826087 L14.8095238,14.826087 Z"/>
</svg>
